<svg width="124" height="30" viewBox="0 0 124 30" fill="none" xmlns="http://www.w3.org/2000/svg">
<g clip-path="url(#clip0_196_2307)">
<path fill-rule="evenodd" clip-rule="evenodd" d="M10.8069 7.06152H19.2685C23.8117 7.06152 25.5219 9.36149 25.2576 12.7404C24.8208 18.3189 21.4484 21.4052 16.9751 21.4052H14.7167C14.1029 21.4052 13.6901 21.8114 13.5241 22.9123L12.5652 29.312C12.5019 29.727 12.2835 29.9672 11.9558 30H6.63949C6.1393 30 5.96238 29.6178 6.09344 28.7899L9.33479 8.27376C9.46147 7.4525 9.91142 7.06152 10.8069 7.06152Z" fill="#009EE3"/>
<path fill-rule="evenodd" clip-rule="evenodd" d="M47.5429 6.6814C50.3977 6.6814 53.0318 8.23 52.6714 12.0895C52.2346 16.6763 49.7774 19.2143 45.9004 19.2253H42.5127C42.0256 19.2253 41.7897 19.6228 41.6631 20.4375L41.0078 24.6028C40.9095 25.2318 40.5862 25.542 40.1101 25.542H36.9583C36.4559 25.542 36.2812 25.2209 36.3926 24.5023L38.994 7.80844C39.1228 6.98719 39.4308 6.6814 39.9921 6.6814H47.5364H47.5429ZM42.4101 15.6191H44.9765C46.5819 15.558 47.6478 14.4462 47.7548 12.4411C47.8203 11.2027 46.9838 10.3159 45.6536 10.3225L43.2379 10.3334L42.4101 15.6191ZM61.24 24.2642C61.5283 24.0021 61.821 23.8667 61.7795 24.1899L61.6769 24.9631C61.6245 25.3672 61.7839 25.5813 62.1596 25.5813H64.9597C65.4315 25.5813 65.6608 25.3913 65.7766 24.6617L67.5021 13.8325C67.5895 13.2886 67.4563 13.0221 67.0435 13.0221H63.9637C63.6863 13.0221 63.5509 13.1772 63.4788 13.6009L63.3653 14.2671C63.3063 14.6144 63.1468 14.6756 62.9983 14.3261C62.4763 13.0898 61.1439 12.5351 59.2852 12.5787C54.967 12.6683 52.0555 15.9468 51.7431 20.1492C51.5029 23.3993 53.8312 25.9526 56.9022 25.9526C59.1301 25.9526 60.1261 25.2973 61.2488 24.2708L61.24 24.2642ZM58.8942 22.5977C57.0354 22.5977 55.7402 21.1146 56.0089 19.2973C56.2775 17.4801 58.0162 15.997 59.8749 15.997C61.7337 15.997 63.0289 17.4801 62.7602 19.2973C62.4916 21.1146 60.7551 22.5977 58.8942 22.5977ZM72.9823 12.9872H70.1428C69.5575 12.9872 69.3194 13.424 69.505 13.9613L73.0303 24.2839L69.5728 29.1961C69.2823 29.6068 69.5072 29.9802 69.9157 29.9802H73.1068C73.2928 30.0018 73.481 29.9693 73.6491 29.8868C73.8172 29.8044 73.958 29.6753 74.0547 29.515L84.8971 13.9635C85.2313 13.4852 85.074 12.9828 84.5258 12.9828H81.505C80.9874 12.9828 80.7799 13.1881 80.4828 13.6184L75.9615 20.171L73.9412 13.6031C73.8232 13.2056 73.5283 12.9872 72.9845 12.9872H72.9823Z" fill="#113984"/>
<path fill-rule="evenodd" clip-rule="evenodd" d="M96.1765 6.6815C99.0312 6.6815 101.665 8.2301 101.305 12.0896C100.868 16.6764 98.4109 19.2144 94.534 19.2254H91.1485C90.6614 19.2254 90.4255 19.6229 90.2988 20.4376L89.6435 24.6029C89.5452 25.2319 89.222 25.5421 88.7458 25.5421H85.594C85.0917 25.5421 84.9169 25.221 85.0283 24.5024L87.6341 7.80417C87.7629 6.98291 88.0709 6.67712 88.6322 6.67712H96.1765V6.6815ZM91.0436 15.6192H93.61C95.2154 15.5581 96.2813 14.4463 96.3883 12.4412C96.4539 11.2028 95.6173 10.316 94.2871 10.3226L91.8714 10.3335L91.0436 15.6192ZM109.874 24.2643C110.162 24.0022 110.455 23.8668 110.413 24.19L110.31 24.9632C110.258 25.3673 110.417 25.5814 110.793 25.5814H113.593C114.065 25.5814 114.294 25.3914 114.41 24.6618L116.136 13.8326C116.223 13.2887 116.09 13.0222 115.677 13.0222H112.602C112.324 13.0222 112.189 13.1773 112.117 13.601L112.003 14.2672C111.944 14.6145 111.785 14.6757 111.636 14.3262C111.114 13.0899 109.782 12.5352 107.923 12.5788C103.605 12.6684 100.693 15.9469 100.381 20.1493C100.141 23.3994 102.469 25.9527 105.54 25.9527C107.768 25.9527 108.764 25.2974 109.887 24.2709L109.874 24.2643ZM107.53 22.5978C105.671 22.5978 104.376 21.1147 104.645 19.2974C104.913 17.4802 106.652 15.9971 108.511 15.9971C110.369 15.9971 111.665 17.4802 111.396 19.2974C111.127 21.1147 109.389 22.5978 107.53 22.5978ZM120.445 25.5988H117.212C117.156 25.6014 117.1 25.5914 117.048 25.5698C116.996 25.5481 116.95 25.5152 116.912 25.4735C116.874 25.4317 116.846 25.3822 116.83 25.3283C116.813 25.2745 116.809 25.2177 116.817 25.162L119.657 7.17294C119.684 7.05017 119.752 6.94018 119.849 6.86087C119.947 6.78156 120.068 6.73758 120.194 6.7361H123.427C123.483 6.73359 123.539 6.74352 123.591 6.76519C123.643 6.78686 123.689 6.81974 123.727 6.86147C123.765 6.9032 123.793 6.95276 123.809 7.0066C123.826 7.06044 123.83 7.11724 123.822 7.17294L120.982 25.162C120.956 25.2856 120.889 25.3966 120.791 25.4767C120.693 25.5569 120.571 25.6015 120.445 25.6032V25.5988Z" fill="#009EE3"/>
<path fill-rule="evenodd" clip-rule="evenodd" d="M5.5145 0H13.9848C16.37 0 19.2007 0.076447 21.0922 1.74736C22.3569 2.86349 23.0209 4.63924 22.868 6.5526C22.3481 13.02 18.4799 16.6436 13.2903 16.6436H9.11406C8.40201 16.6436 7.93241 17.1154 7.73147 18.391L6.5651 25.8172C6.48866 26.2978 6.28116 26.5817 5.90984 26.6167H0.683056C0.104243 26.6167 -0.101073 26.1798 0.0496365 25.2144L3.80646 1.41099C3.95717 0.454312 4.48356 0 5.5145 0Z" fill="#113984"/>
<path fill-rule="evenodd" clip-rule="evenodd" d="M7.85352 17.6375L9.33222 8.27387C9.46109 7.45261 9.91103 7.05945 10.8066 7.05945H19.2681C20.6682 7.05945 21.8018 7.27787 22.6886 7.68195C21.8389 13.4395 18.1149 16.6372 13.2398 16.6372H9.07012C8.51096 16.6393 8.10033 16.9189 7.85352 17.6375Z" fill="#172C70"/>
</g>
<defs>
<clipPath id="clip0_196_2307">
<rect width="124" height="30" fill="white"/>
</clipPath>
</defs>
</svg>
