<svg width="50" height="50" viewBox="0 0 50 50" fill="none" xmlns="http://www.w3.org/2000/svg">
<path d="M25 0.61676C11.1875 0.61676 0 11.8043 0 25.6168C0 36.6793 7.15625 46.023 17.0938 49.3355C18.3438 49.5543 18.8125 48.8043 18.8125 48.148C18.8125 47.5543 18.7812 45.5855 18.7812 43.4918C12.5 44.648 10.875 41.9605 10.375 40.5543C10.0938 39.8355 8.875 37.6168 7.8125 37.023C6.9375 36.5543 5.6875 35.398 7.78125 35.3668C9.75 35.3355 11.1562 37.1793 11.625 37.9293C13.875 41.7105 17.4688 40.648 18.9062 39.9918C19.125 38.3668 19.7812 37.273 20.5 36.648C14.9375 36.023 9.125 33.8668 9.125 24.3043C9.125 21.5855 10.0938 19.3355 11.6875 17.5855C11.4375 16.9605 10.5625 14.398 11.9375 10.9605C11.9375 10.9605 14.0312 10.3043 18.8125 13.523C20.8125 12.9605 22.9375 12.6793 25.0625 12.6793C27.1875 12.6793 29.3125 12.9605 31.3125 13.523C36.0938 10.273 38.1875 10.9605 38.1875 10.9605C39.5625 14.398 38.6875 16.9605 38.4375 17.5855C40.0312 19.3355 41 21.5543 41 24.3043C41 33.898 35.1562 36.023 29.5938 36.648C30.5 37.4293 31.2812 38.9293 31.2812 41.273C31.2812 44.6168 31.25 47.3043 31.25 48.148C31.25 48.8043 31.7188 49.5855 32.9688 49.3355C37.9317 47.6601 42.2443 44.4704 45.2995 40.2156C48.3547 35.9607 49.9987 30.8549 50 25.6168C50 11.8043 38.8125 0.61676 25 0.61676Z" fill="#2A2A2A"/>
</svg>
