<svg width="128" height="37" viewBox="0 0 128 37" fill="none" xmlns="http://www.w3.org/2000/svg">
<path d="M46.7352 4.16434C46.7942 4.16434 46.8415 4.18796 46.8769 4.23519C46.9241 4.27061 46.9477 4.31784 46.9477 4.37688V4.78426C46.9477 4.8433 46.9241 4.89644 46.8769 4.94367C46.8415 4.97909 46.7942 4.9968 46.7352 4.9968H43.2282C43.1809 4.9968 43.1573 5.02042 43.1573 5.06765V16.3502C43.1573 16.4092 43.1337 16.4624 43.0865 16.5096C43.0511 16.545 43.0038 16.5628 42.9448 16.5628H42.4311C42.3721 16.5628 42.319 16.545 42.2717 16.5096C42.2363 16.4624 42.2186 16.4092 42.2186 16.3502V5.06765C42.2186 5.02042 42.195 4.9968 42.1477 4.9968H38.8178C38.7588 4.9968 38.7057 4.97909 38.6584 4.94367C38.623 4.89644 38.6053 4.8433 38.6053 4.78426V4.37688C38.6053 4.31784 38.623 4.27061 38.6584 4.23519C38.7057 4.18796 38.7588 4.16434 38.8178 4.16434H46.7352Z" fill="white"/>
<path d="M52.4863 16.7044C51.6715 16.7044 50.9512 16.5391 50.3254 16.2085C49.7114 15.8661 49.2331 15.3938 48.8907 14.7916C48.5601 14.1775 48.3948 13.475 48.3948 12.6838V8.04327C48.3948 7.25214 48.5601 6.55546 48.8907 5.95325C49.2331 5.33924 49.7114 4.86692 50.3254 4.53629C50.9512 4.19386 51.6715 4.02264 52.4863 4.02264C53.301 4.02264 54.0213 4.19386 54.6472 4.53629C55.273 4.86692 55.7571 5.33924 56.0996 5.95325C56.442 6.55546 56.6132 7.25214 56.6132 8.04327V12.6838C56.6132 13.475 56.442 14.1775 56.0996 14.7916C55.7571 15.3938 55.273 15.8661 54.6472 16.2085C54.0213 16.5391 53.301 16.7044 52.4863 16.7044ZM52.4863 15.8897C53.4427 15.8897 54.2103 15.6004 54.7889 15.0218C55.3793 14.4432 55.6745 13.6757 55.6745 12.7192V8.02556C55.6745 7.08092 55.3793 6.3193 54.7889 5.74071C54.2103 5.15031 53.4427 4.85511 52.4863 4.85511C51.5416 4.85511 50.78 5.15031 50.2014 5.74071C49.6228 6.3193 49.3335 7.08092 49.3335 8.02556V12.7192C49.3335 13.6757 49.6228 14.4432 50.2014 15.0218C50.78 15.6004 51.5416 15.8897 52.4863 15.8897Z" fill="white"/>
<path d="M64.5673 4.12892C65.571 4.12892 66.3798 4.44183 66.9938 5.06765C67.6079 5.68167 67.9149 6.49642 67.9149 7.51191C67.9149 8.51559 67.602 9.32444 66.9761 9.93846C66.3621 10.5525 65.5473 10.8595 64.5318 10.8595H60.8477C60.8005 10.8595 60.7769 10.8831 60.7769 10.9303V16.3502C60.7769 16.4092 60.7532 16.4624 60.706 16.5096C60.6706 16.545 60.6233 16.5628 60.5643 16.5628H60.0507C59.9916 16.5628 59.9385 16.545 59.8912 16.5096C59.8558 16.4624 59.8381 16.4092 59.8381 16.3502V4.34146C59.8381 4.28242 59.8558 4.23519 59.8912 4.19976C59.9385 4.15253 59.9916 4.12892 60.0507 4.12892H64.5673ZM64.4964 10.0624C65.2403 10.0624 65.8366 9.83219 66.2854 9.37167C66.7459 8.89935 66.9761 8.28534 66.9761 7.52962C66.9761 6.7621 66.7459 6.14809 66.2854 5.68757C65.8366 5.21525 65.2403 4.97909 64.4964 4.97909H60.8477C60.8005 4.97909 60.7769 5.00271 60.7769 5.04994V9.99159C60.7769 10.0388 60.8005 10.0624 60.8477 10.0624H64.4964Z" fill="white"/>
<path d="M74.2 16.7222C73.397 16.7222 72.6885 16.5628 72.0745 16.2439C71.4605 15.9251 70.9822 15.4764 70.6398 14.8978C70.3092 14.3074 70.1439 13.6344 70.1439 12.8787V7.83073C70.1439 7.07501 70.3092 6.41377 70.6398 5.84698C70.9822 5.26839 71.4605 4.81968 72.0745 4.50087C72.6885 4.18205 73.397 4.02264 74.2 4.02264C74.9911 4.02264 75.6937 4.18205 76.3077 4.50087C76.9217 4.80788 77.3941 5.24477 77.7247 5.81156C78.0671 6.37834 78.2384 7.03369 78.2384 7.77759C78.2384 7.83663 78.2147 7.88977 78.1675 7.937C78.1321 7.97242 78.0848 7.99014 78.0258 7.99014L77.5122 8.00785C77.3705 8.00785 77.2996 7.97242 77.2996 7.90158V7.7953C77.2996 6.9097 77.0162 6.20122 76.4494 5.66986C75.8826 5.12669 75.1328 4.85511 74.2 4.85511C73.2553 4.85511 72.4996 5.12669 71.9328 5.66986C71.366 6.20122 71.0826 6.9097 71.0826 7.7953V12.9318C71.0826 13.8174 71.366 14.5318 71.9328 15.0749C72.5114 15.6181 73.2671 15.8897 74.2 15.8897C75.1328 15.8897 75.8826 15.6181 76.4494 15.0749C77.0162 14.5318 77.2996 13.8174 77.2996 12.9318C77.2996 12.8019 77.3705 12.737 77.5122 12.737L78.0258 12.7547C78.1675 12.7547 78.2384 12.7842 78.2384 12.8432V12.9318C78.2384 13.6757 78.0671 14.3369 77.7247 14.9155C77.3941 15.4823 76.9217 15.9251 76.3077 16.2439C75.6937 16.5628 74.9911 16.7222 74.2 16.7222Z" fill="white"/>
<path d="M85.1359 16.7044C84.3211 16.7044 83.6008 16.5391 82.975 16.2085C82.361 15.8661 81.8827 15.3938 81.5403 14.7916C81.2097 14.1775 81.0444 13.475 81.0444 12.6838V8.04327C81.0444 7.25214 81.2097 6.55546 81.5403 5.95325C81.8827 5.33924 82.361 4.86692 82.975 4.53629C83.6008 4.19386 84.3211 4.02264 85.1359 4.02264C85.9506 4.02264 86.6709 4.19386 87.2968 4.53629C87.9226 4.86692 88.4067 5.33924 88.7492 5.95325C89.0916 6.55546 89.2628 7.25214 89.2628 8.04327V12.6838C89.2628 13.475 89.0916 14.1775 88.7492 14.7916C88.4067 15.3938 87.9226 15.8661 87.2968 16.2085C86.6709 16.5391 85.9506 16.7044 85.1359 16.7044ZM85.1359 15.8897C86.0923 15.8897 86.8599 15.6004 87.4385 15.0218C88.0289 14.4432 88.3241 13.6757 88.3241 12.7192V8.02556C88.3241 7.08092 88.0289 6.3193 87.4385 5.74071C86.8599 5.15031 86.0923 4.85511 85.1359 4.85511C84.1912 4.85511 83.4296 5.15031 82.851 5.74071C82.2724 6.3193 81.9831 7.08092 81.9831 8.02556V12.7192C81.9831 13.6757 82.2724 14.4432 82.851 15.0218C83.4296 15.6004 84.1912 15.8897 85.1359 15.8897Z" fill="white"/>
<path d="M92.8242 16.5628C92.7652 16.5628 92.7121 16.545 92.6648 16.5096C92.6294 16.4624 92.6117 16.4092 92.6117 16.3502V4.37688C92.6117 4.31784 92.6294 4.27061 92.6648 4.23519C92.7121 4.18796 92.7652 4.16434 92.8242 4.16434H96.8981C98.0316 4.16434 98.9291 4.46544 99.5903 5.06765C100.252 5.65805 100.582 6.4669 100.582 7.4942V13.2329C100.582 14.2602 100.252 15.0749 99.5903 15.6772C98.9291 16.2676 98.0316 16.5628 96.8981 16.5628H92.8242ZM93.5504 15.6594C93.5504 15.7067 93.5741 15.7303 93.6213 15.7303H96.9512C97.7778 15.7303 98.4272 15.5 98.8995 15.0395C99.3837 14.5672 99.6316 13.9296 99.6434 13.1266V7.60047C99.6434 6.79753 99.4014 6.1658 98.9172 5.70529C98.4449 5.23296 97.7896 4.9968 96.9512 4.9968H93.6213C93.5741 4.9968 93.5504 5.02042 93.5504 5.06765V15.6594Z" fill="white"/>
<path d="M111.602 4.78426C111.602 4.8433 111.578 4.89644 111.531 4.94367C111.496 4.97909 111.449 4.9968 111.39 4.9968H104.712C104.665 4.9968 104.641 5.02042 104.641 5.06765V9.8499C104.641 9.89713 104.665 9.92075 104.712 9.92075H109.441C109.5 9.92075 109.547 9.94436 109.583 9.99159C109.63 10.027 109.654 10.0743 109.654 10.1333V10.5407C109.654 10.5997 109.63 10.6528 109.583 10.7001C109.547 10.7355 109.5 10.7532 109.441 10.7532H104.712C104.665 10.7532 104.641 10.7768 104.641 10.8241V15.6594C104.641 15.7067 104.665 15.7303 104.712 15.7303H111.39C111.449 15.7303 111.496 15.7539 111.531 15.8011C111.578 15.8366 111.602 15.8838 111.602 15.9428V16.3502C111.602 16.4092 111.578 16.4624 111.531 16.5096C111.496 16.545 111.449 16.5628 111.39 16.5628H103.915C103.856 16.5628 103.803 16.545 103.756 16.5096C103.72 16.4624 103.702 16.4092 103.702 16.3502V4.37688C103.702 4.31784 103.72 4.27061 103.756 4.23519C103.803 4.18796 103.856 4.16434 103.915 4.16434H111.39C111.449 4.16434 111.496 4.18796 111.531 4.23519C111.578 4.27061 111.602 4.31784 111.602 4.37688V4.78426Z" fill="white"/>
<path d="M122.058 16.5628C121.952 16.5628 121.869 16.5096 121.81 16.4033L119.082 10.7709C119.071 10.7355 119.047 10.7178 119.012 10.7178H115.682C115.635 10.7178 115.611 10.7414 115.611 10.7886V16.3502C115.611 16.4092 115.587 16.4624 115.54 16.5096C115.505 16.545 115.457 16.5628 115.398 16.5628H114.885C114.826 16.5628 114.773 16.545 114.725 16.5096C114.69 16.4624 114.672 16.4092 114.672 16.3502V4.34146C114.672 4.28242 114.69 4.23519 114.725 4.19976C114.773 4.15253 114.826 4.12892 114.885 4.12892H119.313C120.305 4.12892 121.102 4.43592 121.704 5.04994C122.318 5.66396 122.625 6.4669 122.625 7.45878C122.625 8.30895 122.389 9.02334 121.916 9.60193C121.456 10.1687 120.836 10.5171 120.057 10.6469C119.998 10.6706 119.98 10.7001 120.004 10.7355L122.714 16.3148C122.737 16.362 122.749 16.3974 122.749 16.4211C122.749 16.5155 122.684 16.5628 122.554 16.5628H122.058ZM115.682 4.97909C115.635 4.97909 115.611 5.00271 115.611 5.04994V9.86761C115.611 9.91484 115.635 9.93846 115.682 9.93846H119.224C119.956 9.93846 120.547 9.71411 120.995 9.2654C121.456 8.80489 121.686 8.20858 121.686 7.47649C121.686 6.72077 121.456 6.11857 120.995 5.66986C120.547 5.20935 119.956 4.97909 119.224 4.97909H115.682Z" fill="white"/>
<path d="M48.0019 32.2875C47.82 32.2875 47.6966 32.1966 47.6317 32.0147L47.0862 30.2028C47.0732 30.1378 47.0342 30.1054 46.9693 30.1054H42.1958C42.1309 30.1054 42.0919 30.1378 42.0789 30.2028L41.5334 32.0147C41.4684 32.1966 41.345 32.2875 41.1632 32.2875H38.9031C38.7862 32.2875 38.7018 32.255 38.6498 32.1901C38.5979 32.1121 38.5914 32.0212 38.6303 31.9173L42.7803 18.922C42.8453 18.7401 42.9687 18.6492 43.1505 18.6492H46.0146C46.1964 18.6492 46.3198 18.7401 46.3848 18.922L50.5347 31.9173C50.5477 31.9433 50.5542 31.9822 50.5542 32.0342C50.5542 32.1121 50.5282 32.1771 50.4763 32.229C50.4243 32.268 50.3529 32.2875 50.262 32.2875H48.0019ZM42.7608 27.8453C42.7478 27.9362 42.7803 27.9817 42.8582 27.9817H46.3068C46.3848 27.9817 46.4172 27.9362 46.4042 27.8453L44.6507 21.9029C44.6377 21.851 44.6118 21.825 44.5728 21.825C44.5468 21.825 44.5208 21.851 44.4949 21.9029L42.7608 27.8453Z" fill="white"/>
<path d="M56.6801 32.4434C55.6669 32.4434 54.7772 32.2485 54.0109 31.8589C53.2445 31.4562 52.6535 30.8977 52.2379 30.1833C51.8222 29.4689 51.6144 28.6441 51.6144 27.7089V23.2083C51.6144 22.2731 51.8222 21.4483 52.2379 20.7339C52.6535 20.0195 53.2445 19.4675 54.0109 19.0779C54.7772 18.6882 55.6669 18.4934 56.6801 18.4934C57.6802 18.4934 58.557 18.6817 59.3104 19.0584C60.0767 19.4221 60.6677 19.9481 61.0833 20.6365C61.512 21.3119 61.7263 22.0978 61.7263 22.994C61.7263 23.1109 61.6224 23.1823 61.4146 23.2083L59.3298 23.3447H59.2519C59.0701 23.3447 58.9791 23.3122 58.9791 23.2473V23.1304C58.9791 22.442 58.7648 21.8899 58.3362 21.4743C57.9205 21.0587 57.3685 20.8508 56.6801 20.8508C55.9787 20.8508 55.4137 21.0587 54.985 21.4743C54.5694 21.8899 54.3616 22.442 54.3616 23.1304V27.8258C54.3616 28.5012 54.5694 29.0468 54.985 29.4624C55.4137 29.8781 55.9787 30.0859 56.6801 30.0859C57.3685 30.0859 57.9205 29.8781 58.3362 29.4624C58.7648 29.0468 58.9791 28.5012 58.9791 27.8258C58.9791 27.7609 59.0051 27.7089 59.0571 27.67C59.122 27.618 59.2064 27.5985 59.3104 27.6115L61.3951 27.7089C61.6159 27.7349 61.7263 27.7674 61.7263 27.8063V27.9038C61.7263 28.8 61.512 29.5923 61.0833 30.2807C60.6677 30.9691 60.0767 31.5017 59.3104 31.8783C58.557 32.255 57.6802 32.4434 56.6801 32.4434Z" fill="white"/>
<path d="M72.204 32.2875C72.0221 32.2875 71.8987 32.1966 71.8338 32.0147L71.2883 30.2028C71.2753 30.1378 71.2363 30.1054 71.1714 30.1054H66.3979C66.333 30.1054 66.294 30.1378 66.281 30.2028L65.7355 32.0147C65.6705 32.1966 65.5471 32.2875 65.3653 32.2875H63.1052C62.9883 32.2875 62.9039 32.255 62.8519 32.1901C62.8 32.1121 62.7935 32.0212 62.8324 31.9173L66.9824 18.922C67.0474 18.7401 67.1708 18.6492 67.3526 18.6492H70.2167C70.3985 18.6492 70.5219 18.7401 70.5869 18.922L74.7368 31.9173C74.7498 31.9433 74.7563 31.9822 74.7563 32.0342C74.7563 32.1121 74.7303 32.1771 74.6784 32.229C74.6264 32.268 74.555 32.2875 74.4641 32.2875H72.204ZM66.9629 27.8453C66.95 27.9362 66.9824 27.9817 67.0604 27.9817H70.5089C70.5869 27.9817 70.6193 27.9362 70.6063 27.8453L68.8528 21.9029C68.8398 21.851 68.8139 21.825 68.7749 21.825C68.7489 21.825 68.7229 21.851 68.697 21.9029L66.9629 27.8453Z" fill="white"/>
<path d="M76.8391 32.2875C76.6183 32.2875 76.5079 32.1771 76.5079 31.9563V18.9804C76.5079 18.7596 76.6183 18.6492 76.8391 18.6492H81.6125C82.5867 18.6492 83.4375 18.8246 84.1649 19.1753C84.9052 19.513 85.4767 19.9936 85.8794 20.617C86.2821 21.2405 86.4834 21.9614 86.4834 22.7797V28.157C86.4834 28.9753 86.2821 29.6962 85.8794 30.3197C85.4767 30.9431 84.9052 31.4302 84.1649 31.7809C83.4375 32.1186 82.5867 32.2875 81.6125 32.2875H76.8391ZM79.255 29.8131C79.255 29.891 79.294 29.93 79.3719 29.93H81.7099C82.3074 29.93 82.788 29.7287 83.1517 29.326C83.5284 28.9234 83.7232 28.3843 83.7362 27.7089V23.2278C83.7362 22.5524 83.5479 22.0133 83.1712 21.6107C82.8075 21.208 82.3139 21.0067 81.6905 21.0067H79.3719C79.294 21.0067 79.255 21.0457 79.255 21.1236V29.8131Z" fill="white"/>
<path d="M98.0208 20.6755C98.0208 20.8963 97.9104 21.0067 97.6896 21.0067H91.4159C91.338 21.0067 91.299 21.0457 91.299 21.1236V24.1045C91.299 24.1825 91.338 24.2214 91.4159 24.2214H95.4879C95.7088 24.2214 95.8192 24.3318 95.8192 24.5526V26.2477C95.8192 26.4685 95.7088 26.5789 95.4879 26.5789H91.4159C91.338 26.5789 91.299 26.6179 91.299 26.6958V29.8131C91.299 29.891 91.338 29.93 91.4159 29.93H97.6896C97.9104 29.93 98.0208 30.0404 98.0208 30.2612V31.9563C98.0208 32.1771 97.9104 32.2875 97.6896 32.2875H88.883C88.6622 32.2875 88.5518 32.1771 88.5518 31.9563V18.9804C88.5518 18.7596 88.6622 18.6492 88.883 18.6492H97.6896C97.9104 18.6492 98.0208 18.7596 98.0208 18.9804V20.6755Z" fill="white"/>
<path d="M100.281 32.2875C100.06 32.2875 99.9493 32.1771 99.9493 31.9563V18.9804C99.9493 18.7596 100.06 18.6492 100.281 18.6492H102.365C102.534 18.6492 102.664 18.7207 102.755 18.8635L105.58 23.4226C105.606 23.4616 105.632 23.4811 105.658 23.4811C105.697 23.4811 105.723 23.4616 105.736 23.4226L108.6 18.8635C108.691 18.7207 108.821 18.6492 108.99 18.6492H111.074C111.295 18.6492 111.406 18.7596 111.406 18.9804V31.9563C111.406 32.1771 111.295 32.2875 111.074 32.2875H108.99C108.769 32.2875 108.658 32.1771 108.658 31.9563V23.52C108.658 23.4681 108.639 23.4356 108.6 23.4226C108.574 23.4096 108.548 23.4291 108.522 23.4811L106.554 26.6958C106.463 26.8387 106.333 26.9101 106.165 26.9101H105.171C105.002 26.9101 104.872 26.8387 104.781 26.6958L102.833 23.4811C102.807 23.4291 102.774 23.4096 102.735 23.4226C102.71 23.4356 102.697 23.4681 102.697 23.52V31.9563C102.697 32.1771 102.586 32.2875 102.365 32.2875H100.281Z" fill="white"/>
<path d="M117.561 32.268C117.34 32.268 117.23 32.1576 117.23 31.9368V27.1244L117.191 26.9686L113.255 19.0389C113.216 18.9739 113.197 18.9155 113.197 18.8635C113.197 18.7986 113.223 18.7466 113.275 18.7077C113.327 18.6687 113.398 18.6492 113.489 18.6492H115.749C115.931 18.6492 116.061 18.7337 116.139 18.9025L118.516 23.9681C118.542 24.0071 118.568 24.0266 118.594 24.0266C118.633 24.0266 118.659 24.0071 118.672 23.9681L121.049 18.9025C121.14 18.7337 121.27 18.6492 121.438 18.6492H123.718C123.913 18.6492 124.01 18.7272 124.01 18.883C124.01 18.948 123.997 18.9999 123.971 19.0389L119.997 26.9686L119.958 27.1244V31.9368C119.958 32.1576 119.847 32.268 119.626 32.268H117.561Z" fill="white"/>
<path d="M18.9028 16.6419C14.3756 14.1903 9.24398 12.716 3.7895 12.5011L3.78949 19.7577C3.78949 19.9239 3.85545 20.0833 3.97284 20.2008L12.4047 28.6361C13.773 24.1929 16.0045 20.1293 18.9028 16.6419Z" fill="#2C95D7"/>
<path opacity="0.2" d="M16.1143 20.505C16.9566 19.1524 17.8889 17.8619 18.9028 16.6419C14.3756 14.1903 9.24398 12.716 3.78949 12.5011L3.78949 12.5949C8.45428 14.3389 12.6449 17.0581 16.1143 20.505Z" fill="white"/>
<path d="M29.3317 21.7147L30.8433 20.2007C30.9605 20.0833 31.0263 19.924 31.0263 19.7579L31.0264 8.479C27.5342 10.4315 24.4128 12.97 21.7944 15.9616C24.5655 17.5315 27.1002 19.4715 29.3317 21.7147Z" fill="#0AB88A"/>
<path opacity="0.2" d="M31.0035 8.49182C27.5206 10.4426 24.407 12.9765 21.7944 15.9617C22.9412 16.6113 24.0474 17.3243 25.1084 18.096C26.5496 14.5678 28.5517 11.3293 31.0035 8.49182Z" fill="white"/>
<path d="M20.2349 15.1299C23.2769 11.8708 26.9364 9.19776 31.0264 7.29806L31.0264 4.64842C31.0264 4.30268 30.7468 4.0224 30.4017 4.0224L4.41432 4.0224C4.06931 4.0224 3.78962 4.30268 3.78962 4.64843L3.78961 11.4841C4.09579 11.4761 4.40295 11.4721 4.71105 11.4721C10.2902 11.4721 15.5624 12.7891 20.2349 15.1299Z" fill="#EF476F"/>
<path opacity="0.2" d="M31.0263 7.29808C26.9363 9.19778 23.2768 11.8708 20.2348 15.1299C15.5623 12.7892 10.2901 11.4721 4.71093 11.4721C4.40283 11.4721 4.09567 11.4761 3.78949 11.4841L3.78949 11.2593C9.11211 7.94179 15.3949 6.0257 22.1244 6.0257C25.2014 6.0257 28.1851 6.42632 31.0263 7.17835V7.29808Z" fill="white"/>
<path d="M14.2124 30.4445C15.4004 25.6834 17.566 21.3104 20.4831 17.5521C23.1312 19.1715 25.5462 21.1359 27.666 23.3829L17.8572 33.2072C17.6134 33.4515 17.2182 33.4516 16.9742 33.2075L14.2124 30.4445Z" fill="white"/>
</svg>
