<svg width="14" height="12" viewBox="0 0 14 12" fill="none" xmlns="http://www.w3.org/2000/svg">
<path fill-rule="evenodd" clip-rule="evenodd" d="M3.26721 0.267139C3.48786 0.0464925 3.84559 0.0464925 4.06624 0.267139L6.73291 2.93381C6.95355 3.15445 6.95355 3.51219 6.73291 3.73284C6.51226 3.95348 6.15452 3.95348 5.93388 3.73284L4.23173 2.03068V8.66665C4.23173 8.97869 3.97877 9.23165 3.66673 9.23165C3.35468 9.23165 3.10173 8.97869 3.10173 8.66665V2.03068L1.39957 3.73284C1.17893 3.95348 0.821189 3.95348 0.600543 3.73284C0.379897 3.51219 0.379897 3.15445 0.600543 2.93381L3.26721 0.267139ZM9.76839 3.33332C9.76839 3.02128 10.0214 2.76832 10.3334 2.76832C10.6454 2.76832 10.8984 3.02128 10.8984 3.33332V9.96929L12.6005 8.26714C12.8212 8.04649 13.1789 8.04649 13.3996 8.26714C13.6202 8.48778 13.6202 8.84552 13.3996 9.06617L10.7329 11.7328C10.5123 11.9535 10.1545 11.9535 9.93388 11.7328L7.26721 9.06617C7.04656 8.84552 7.04656 8.48778 7.26721 8.26714C7.48786 8.04649 7.84559 8.04649 8.06624 8.26714L9.76839 9.96929V3.33332Z" fill="#767676"/>
</svg>
