<svg width="16" height="16" viewBox="0 0 16 16" fill="none" xmlns="http://www.w3.org/2000/svg">
<path d="M11.2002 3.20002C11.2002 2.7582 11.5584 2.40002 12.0002 2.40002H13.6002C14.042 2.40002 14.4002 2.7582 14.4002 3.20002V12.8C14.4002 13.2419 14.042 13.6 13.6002 13.6H12.0002C11.5584 13.6 11.2002 13.2419 11.2002 12.8V3.20002Z" fill="white"/>
<path d="M6.3999 5.60005C6.3999 5.15822 6.75807 4.80005 7.1999 4.80005H8.7999C9.24173 4.80005 9.5999 5.15822 9.5999 5.60005V12.8C9.5999 13.2419 9.24173 13.6 8.7999 13.6H7.1999C6.75807 13.6 6.3999 13.2419 6.3999 12.8V5.60005Z" fill="#16679A"/>
<path d="M1.6001 8.8C1.6001 8.35817 1.95827 8 2.4001 8H4.0001C4.44193 8 4.8001 8.35817 4.8001 8.8V12.8C4.8001 13.2418 4.44193 13.6 4.0001 13.6H2.4001C1.95827 13.6 1.6001 13.2418 1.6001 12.8V8.8Z" fill="#16679A"/>
</svg>
