<svg width="24" height="24" viewBox="0 0 24 24" fill="none" xmlns="http://www.w3.org/2000/svg">
<path d="M21.5999 21.6004V14.5684C21.5999 11.1124 20.8559 8.47239 16.8239 8.47239C14.8799 8.47239 13.5839 9.52839 13.0559 10.5364H13.0079V8.78439H9.1919V21.6004H13.1759V15.2404C13.1759 13.5604 13.4879 11.9524 15.5519 11.9524C17.5919 11.9524 17.6159 13.8484 17.6159 15.3364V21.5764H21.5999V21.6004Z" fill="white"/>
<path d="M2.7119 8.78439H6.6959V21.6004H2.7119V8.78439Z" fill="white"/>
<path d="M4.7039 2.40039C3.4319 2.40039 2.3999 3.43239 2.3999 4.70439C2.3999 5.97639 3.4319 7.03239 4.7039 7.03239C5.9759 7.03239 7.0079 5.97639 7.0079 4.70439C7.0079 3.43239 5.9759 2.40039 4.7039 2.40039Z" fill="white"/>
</svg>
