<svg width="145" height="41" viewBox="0 0 145 41" fill="none" xmlns="http://www.w3.org/2000/svg">
<path d="M53.4783 5.36816C53.5449 5.36816 53.5983 5.3944 53.6383 5.44688C53.6916 5.48624 53.7183 5.53872 53.7183 5.60432V6.05696C53.7183 6.12256 53.6916 6.1816 53.6383 6.23408C53.5983 6.27344 53.5449 6.29312 53.4783 6.29312H49.5189C49.4655 6.29312 49.4389 6.31936 49.4389 6.37184V18.908C49.4389 18.9736 49.4122 19.0327 49.3589 19.0851C49.3189 19.1245 49.2656 19.1442 49.1989 19.1442H48.619C48.5523 19.1442 48.4923 19.1245 48.439 19.0851C48.399 19.0327 48.379 18.9736 48.379 18.908V6.37184C48.379 6.31936 48.3524 6.29312 48.299 6.29312H44.5396C44.4729 6.29312 44.4129 6.27344 44.3596 6.23408C44.3196 6.1816 44.2996 6.12256 44.2996 6.05696V5.60432C44.2996 5.53872 44.3196 5.48624 44.3596 5.44688C44.4129 5.3944 44.4729 5.36816 44.5396 5.36816H53.4783Z" fill="white"/>
<path d="M59.9713 19.3016C59.0514 19.3016 58.2382 19.1179 57.5316 18.7506C56.8384 18.3701 56.2985 17.8453 55.9118 17.1762C55.5386 16.4939 55.3519 15.7133 55.3519 14.8342V9.67808C55.3519 8.79904 55.5386 8.02496 55.9118 7.35584C56.2985 6.6736 56.8384 6.1488 57.5316 5.78144C58.2382 5.40096 59.0514 5.21072 59.9713 5.21072C60.8911 5.21072 61.7043 5.40096 62.4109 5.78144C63.1175 6.1488 63.6641 6.6736 64.0507 7.35584C64.4373 8.02496 64.6306 8.79904 64.6306 9.67808V14.8342C64.6306 15.7133 64.4373 16.4939 64.0507 17.1762C63.6641 17.8453 63.1175 18.3701 62.4109 18.7506C61.7043 19.1179 60.8911 19.3016 59.9713 19.3016ZM59.9713 18.3963C61.0511 18.3963 61.9176 18.0749 62.5709 17.432C63.2374 16.7891 63.5707 15.9363 63.5707 14.8736V9.6584C63.5707 8.6088 63.2374 7.76256 62.5709 7.11968C61.9176 6.46368 61.0511 6.13568 59.9713 6.13568C58.9047 6.13568 58.0449 6.46368 57.3916 7.11968C56.7384 7.76256 56.4118 8.6088 56.4118 9.6584V14.8736C56.4118 15.9363 56.7384 16.7891 57.3916 17.432C58.0449 18.0749 58.9047 18.3963 59.9713 18.3963Z" fill="white"/>
<path d="M73.6107 5.3288C74.7439 5.3288 75.6571 5.67648 76.3503 6.37184C77.0435 7.05408 77.3901 7.95936 77.3901 9.08768C77.3901 10.2029 77.0368 11.1016 76.3303 11.7838C75.6371 12.4661 74.7172 12.8072 73.5707 12.8072H69.4113C69.358 12.8072 69.3313 12.8334 69.3313 12.8859V18.908C69.3313 18.9736 69.3046 19.0327 69.2513 19.0851C69.2113 19.1245 69.158 19.1442 69.0913 19.1442H68.5114C68.4448 19.1442 68.3848 19.1245 68.3314 19.0851C68.2915 19.0327 68.2715 18.9736 68.2715 18.908V5.56496C68.2715 5.49936 68.2915 5.44688 68.3314 5.40752C68.3848 5.35504 68.4448 5.3288 68.5114 5.3288H73.6107ZM73.5307 11.9216C74.3706 11.9216 75.0438 11.6658 75.5504 11.1541C76.0703 10.6293 76.3303 9.94704 76.3303 9.10736C76.3303 8.25456 76.0703 7.57232 75.5504 7.06064C75.0438 6.53584 74.3706 6.27344 73.5307 6.27344H69.4113C69.358 6.27344 69.3313 6.29968 69.3313 6.35216V11.8429C69.3313 11.8954 69.358 11.9216 69.4113 11.9216H73.5307Z" fill="white"/>
<path d="M84.486 19.3213C83.5794 19.3213 82.7796 19.1442 82.0863 18.7899C81.3931 18.4357 80.8532 17.9371 80.4666 17.2942C80.0933 16.6382 79.9066 15.8904 79.9066 15.0507V9.44192C79.9066 8.60224 80.0933 7.86752 80.4666 7.23776C80.8532 6.59488 81.3931 6.09632 82.0863 5.74208C82.7796 5.38784 83.5794 5.21072 84.486 5.21072C85.3792 5.21072 86.1724 5.38784 86.8656 5.74208C87.5589 6.0832 88.0921 6.56864 88.4654 7.1984C88.852 7.82816 89.0453 8.55632 89.0453 9.38288C89.0453 9.44848 89.0187 9.50752 88.9653 9.56C88.9253 9.59936 88.872 9.61904 88.8054 9.61904L88.2254 9.63872C88.0655 9.63872 87.9855 9.59936 87.9855 9.52064V9.40256C87.9855 8.41856 87.6655 7.63136 87.0256 7.04096C86.3857 6.43744 85.5392 6.13568 84.486 6.13568C83.4195 6.13568 82.5663 6.43744 81.9264 7.04096C81.2864 7.63136 80.9665 8.41856 80.9665 9.40256V15.1098C80.9665 16.0938 81.2864 16.8875 81.9264 17.491C82.5796 18.0946 83.4328 18.3963 84.486 18.3963C85.5392 18.3963 86.3857 18.0946 87.0256 17.491C87.6655 16.8875 87.9855 16.0938 87.9855 15.1098C87.9855 14.9654 88.0655 14.8933 88.2254 14.8933L88.8054 14.913C88.9653 14.913 89.0453 14.9458 89.0453 15.0114V15.1098C89.0453 15.9363 88.852 16.671 88.4654 17.3139C88.0921 17.9437 87.5589 18.4357 86.8656 18.7899C86.1724 19.1442 85.3792 19.3213 84.486 19.3213Z" fill="white"/>
<path d="M96.8326 19.3016C95.9128 19.3016 95.0995 19.1179 94.393 18.7506C93.6997 18.3701 93.1598 17.8453 92.7732 17.1762C92.3999 16.4939 92.2133 15.7133 92.2133 14.8342V9.67808C92.2133 8.79904 92.3999 8.02496 92.7732 7.35584C93.1598 6.6736 93.6997 6.1488 94.393 5.78144C95.0995 5.40096 95.9128 5.21072 96.8326 5.21072C97.7525 5.21072 98.5657 5.40096 99.2723 5.78144C99.9788 6.1488 100.525 6.6736 100.912 7.35584C101.299 8.02496 101.492 8.79904 101.492 9.67808V14.8342C101.492 15.7133 101.299 16.4939 100.912 17.1762C100.525 17.8453 99.9788 18.3701 99.2723 18.7506C98.5657 19.1179 97.7525 19.3016 96.8326 19.3016ZM96.8326 18.3963C97.9125 18.3963 98.779 18.0749 99.4323 17.432C100.099 16.7891 100.432 15.9363 100.432 14.8736V9.6584C100.432 8.6088 100.099 7.76256 99.4323 7.11968C98.779 6.46368 97.9125 6.13568 96.8326 6.13568C95.7661 6.13568 94.9062 6.46368 94.253 7.11968C93.5998 7.76256 93.2731 8.6088 93.2731 9.6584V14.8736C93.2731 15.9363 93.5998 16.7891 94.253 17.432C94.9062 18.0749 95.7661 18.3963 96.8326 18.3963Z" fill="white"/>
<path d="M105.513 19.1442C105.446 19.1442 105.386 19.1245 105.333 19.0851C105.293 19.0327 105.273 18.9736 105.273 18.908V5.60432C105.273 5.53872 105.293 5.48624 105.333 5.44688C105.386 5.3944 105.446 5.36816 105.513 5.36816H110.112C111.392 5.36816 112.405 5.70272 113.152 6.37184C113.898 7.02784 114.272 7.92656 114.272 9.068V15.4443C114.272 16.5858 113.898 17.491 113.152 18.1602C112.405 18.8162 111.392 19.1442 110.112 19.1442H105.513ZM106.333 18.1405C106.333 18.193 106.359 18.2192 106.413 18.2192H110.172C111.105 18.2192 111.839 17.9634 112.372 17.4517C112.918 16.9269 113.198 16.2184 113.212 15.3262V9.18608C113.212 8.29392 112.938 7.592 112.392 7.08032C111.859 6.55552 111.119 6.29312 110.172 6.29312H106.413C106.359 6.29312 106.333 6.31936 106.333 6.37184V18.1405Z" fill="white"/>
<path d="M126.713 6.05696C126.713 6.12256 126.686 6.1816 126.633 6.23408C126.593 6.27344 126.54 6.29312 126.473 6.29312H118.934C118.881 6.29312 118.854 6.31936 118.854 6.37184V11.6854C118.854 11.7379 118.881 11.7642 118.934 11.7642H124.273C124.34 11.7642 124.393 11.7904 124.433 11.8429C124.487 11.8822 124.513 11.9347 124.513 12.0003V12.453C124.513 12.5186 124.487 12.5776 124.433 12.6301C124.393 12.6694 124.34 12.6891 124.273 12.6891H118.934C118.881 12.6891 118.854 12.7154 118.854 12.7678V18.1405C118.854 18.193 118.881 18.2192 118.934 18.2192H126.473C126.54 18.2192 126.593 18.2455 126.633 18.2979C126.686 18.3373 126.713 18.3898 126.713 18.4554V18.908C126.713 18.9736 126.686 19.0327 126.633 19.0851C126.593 19.1245 126.54 19.1442 126.473 19.1442H118.034C117.968 19.1442 117.908 19.1245 117.854 19.0851C117.814 19.0327 117.794 18.9736 117.794 18.908V5.60432C117.794 5.53872 117.814 5.48624 117.854 5.44688C117.908 5.3944 117.968 5.36816 118.034 5.36816H126.473C126.54 5.36816 126.593 5.3944 126.633 5.44688C126.686 5.48624 126.713 5.53872 126.713 5.60432V6.05696Z" fill="white"/>
<path d="M138.518 19.1442C138.398 19.1442 138.305 19.0851 138.238 18.9671L135.158 12.7088C135.145 12.6694 135.118 12.6498 135.078 12.6498H131.319C131.266 12.6498 131.239 12.676 131.239 12.7285V18.908C131.239 18.9736 131.212 19.0327 131.159 19.0851C131.119 19.1245 131.066 19.1442 130.999 19.1442H130.419C130.352 19.1442 130.292 19.1245 130.239 19.0851C130.199 19.0327 130.179 18.9736 130.179 18.908V5.56496C130.179 5.49936 130.199 5.44688 130.239 5.40752C130.292 5.35504 130.352 5.3288 130.419 5.3288H135.418C136.538 5.3288 137.438 5.66992 138.118 6.35216C138.811 7.0344 139.158 7.92656 139.158 9.02864C139.158 9.97328 138.891 10.767 138.358 11.4099C137.838 12.0397 137.138 12.4267 136.258 12.571C136.192 12.5973 136.172 12.6301 136.198 12.6694L139.258 18.8687C139.284 18.9211 139.298 18.9605 139.298 18.9867C139.298 19.0917 139.224 19.1442 139.078 19.1442H138.518ZM131.319 6.27344C131.266 6.27344 131.239 6.29968 131.239 6.35216V11.7051C131.239 11.7576 131.266 11.7838 131.319 11.7838H135.318C136.145 11.7838 136.811 11.5346 137.318 11.036C137.838 10.5243 138.098 9.86176 138.098 9.04832C138.098 8.20864 137.838 7.53952 137.318 7.04096C136.811 6.52928 136.145 6.27344 135.318 6.27344H131.319Z" fill="white"/>
<path d="M54.9084 36.6161C54.7031 36.6161 54.5638 36.5151 54.4904 36.313L53.8745 34.2998C53.8599 34.2276 53.8159 34.1915 53.7425 34.1915H48.3533C48.28 34.1915 48.236 34.2276 48.2213 34.2998L47.6054 36.313C47.5321 36.5151 47.3928 36.6161 47.1875 36.6161H44.6359C44.5039 36.6161 44.4086 36.58 44.3499 36.5079C44.2912 36.4213 44.2839 36.3202 44.3279 36.2048L49.0132 21.7655C49.0865 21.5635 49.2259 21.4625 49.4312 21.4625H52.6647C52.87 21.4625 53.0093 21.5635 53.0826 21.7655L57.768 36.2048C57.7826 36.2336 57.79 36.2769 57.79 36.3347C57.79 36.4213 57.7606 36.4934 57.702 36.5512C57.6433 36.5944 57.5627 36.6161 57.46 36.6161H54.9084ZM48.9912 31.6803C48.9766 31.7814 49.0132 31.8319 49.1012 31.8319H52.9946C53.0826 31.8319 53.1193 31.7814 53.1046 31.6803L51.1249 25.0777C51.1103 25.02 51.0809 24.9911 51.0369 24.9911C51.0076 24.9911 50.9783 25.02 50.9489 25.0777L48.9912 31.6803Z" fill="white"/>
<path d="M64.7061 36.7893C63.5622 36.7893 62.5577 36.5728 61.6925 36.1398C60.8273 35.6924 60.1601 35.0719 59.6908 34.2781C59.2215 33.4843 58.9869 32.5679 58.9869 31.5288V26.5281C58.9869 25.489 59.2215 24.5726 59.6908 23.7788C60.1601 22.9851 60.8273 22.3717 61.6925 21.9387C62.5577 21.5058 63.5622 21.2893 64.7061 21.2893C65.8352 21.2893 66.8251 21.4986 67.6756 21.9171C68.5408 22.3212 69.2081 22.9057 69.6773 23.6706C70.1613 24.421 70.4032 25.2942 70.4032 26.29C70.4032 26.4199 70.2859 26.4993 70.0513 26.5281L67.6976 26.6796H67.6096C67.4043 26.6796 67.3017 26.6436 67.3017 26.5714V26.4415C67.3017 25.6766 67.0597 25.0633 66.5758 24.6014C66.1065 24.1396 65.4833 23.9087 64.7061 23.9087C63.9142 23.9087 63.2763 24.1396 62.7923 24.6014C62.3231 25.0633 62.0884 25.6766 62.0884 26.4415V31.6587C62.0884 32.4092 62.3231 33.0153 62.7923 33.4771C63.2763 33.939 63.9142 34.1699 64.7061 34.1699C65.4833 34.1699 66.1065 33.939 66.5758 33.4771C67.0597 33.0153 67.3017 32.4092 67.3017 31.6587C67.3017 31.5865 67.331 31.5288 67.3897 31.4855C67.463 31.4278 67.5583 31.4061 67.6756 31.4206L70.0293 31.5288C70.2786 31.5577 70.4032 31.5938 70.4032 31.637V31.7453C70.4032 32.7411 70.1613 33.6215 69.6773 34.3863C69.2081 35.1512 68.5408 35.743 67.6756 36.1615C66.8251 36.58 65.8352 36.7893 64.7061 36.7893Z" fill="white"/>
<path d="M82.2325 36.6161C82.0272 36.6161 81.8879 36.5151 81.8146 36.313L81.1987 34.2998C81.184 34.2276 81.14 34.1915 81.0667 34.1915H75.6775C75.6042 34.1915 75.5602 34.2276 75.5455 34.2998L74.9296 36.313C74.8563 36.5151 74.717 36.6161 74.5117 36.6161H71.96C71.828 36.6161 71.7327 36.58 71.6741 36.5079C71.6154 36.4213 71.6081 36.3202 71.6521 36.2048L76.3374 21.7655C76.4107 21.5635 76.55 21.4625 76.7553 21.4625H79.9889C80.1942 21.4625 80.3335 21.5635 80.4068 21.7655L85.0921 36.2048C85.1068 36.2336 85.1141 36.2769 85.1141 36.3347C85.1141 36.4213 85.0848 36.4934 85.0261 36.5512C84.9675 36.5944 84.8868 36.6161 84.7842 36.6161H82.2325ZM76.3154 31.6803C76.3007 31.7814 76.3374 31.8319 76.4254 31.8319H80.3188C80.4068 31.8319 80.4435 31.7814 80.4288 31.6803L78.4491 25.0777C78.4344 25.02 78.4051 24.9911 78.3611 24.9911C78.3318 24.9911 78.3024 25.02 78.2731 25.0777L76.3154 31.6803Z" fill="white"/>
<path d="M87.4655 36.6161C87.2162 36.6161 87.0916 36.4934 87.0916 36.2481V21.8305C87.0916 21.5851 87.2162 21.4625 87.4655 21.4625H92.8548C93.9546 21.4625 94.9151 21.6573 95.7363 22.047C96.5722 22.4222 97.2175 22.9562 97.6721 23.6489C98.1267 24.3417 98.354 25.1426 98.354 26.0519V32.0267C98.354 32.9359 98.1267 33.7369 97.6721 34.4296C97.2175 35.1224 96.5722 35.6636 95.7363 36.0532C94.9151 36.4285 93.9546 36.6161 92.8548 36.6161H87.4655ZM90.1931 33.8668C90.1931 33.9534 90.2371 33.9967 90.3251 33.9967H92.9647C93.6393 33.9967 94.1819 33.773 94.5925 33.3256C95.0178 32.8782 95.2377 32.2793 95.2524 31.5288V26.5498C95.2524 25.7993 95.0398 25.2004 94.6145 24.753C94.2039 24.3056 93.6466 24.0819 92.9427 24.0819H90.3251C90.2371 24.0819 90.1931 24.1252 90.1931 24.2118V33.8668Z" fill="white"/>
<path d="M111.38 23.7139C111.38 23.9592 111.255 24.0819 111.006 24.0819H103.923C103.835 24.0819 103.791 24.1252 103.791 24.2118V27.5239C103.791 27.6105 103.835 27.6538 103.923 27.6538H108.52C108.769 27.6538 108.894 27.7765 108.894 28.0218V29.9052C108.894 30.1506 108.769 30.2732 108.52 30.2732H103.923C103.835 30.2732 103.791 30.3165 103.791 30.4031V33.8668C103.791 33.9534 103.835 33.9967 103.923 33.9967H111.006C111.255 33.9967 111.38 34.1194 111.38 34.3647V36.2481C111.38 36.4934 111.255 36.6161 111.006 36.6161H101.063C100.814 36.6161 100.689 36.4934 100.689 36.2481V21.8305C100.689 21.5851 100.814 21.4625 101.063 21.4625H111.006C111.255 21.4625 111.38 21.5851 111.38 21.8305V23.7139Z" fill="white"/>
<path d="M113.931 36.6161C113.682 36.6161 113.557 36.4934 113.557 36.2481V21.8305C113.557 21.5851 113.682 21.4625 113.931 21.4625H116.285C116.475 21.4625 116.622 21.5419 116.725 21.7006L119.914 26.7662C119.943 26.8095 119.973 26.8312 120.002 26.8312C120.046 26.8312 120.075 26.8095 120.09 26.7662L123.324 21.7006C123.426 21.5419 123.573 21.4625 123.764 21.4625H126.117C126.366 21.4625 126.491 21.5851 126.491 21.8305V36.2481C126.491 36.4934 126.366 36.6161 126.117 36.6161H123.764C123.514 36.6161 123.39 36.4934 123.39 36.2481V26.8745C123.39 26.8168 123.368 26.7807 123.324 26.7662C123.294 26.7518 123.265 26.7735 123.236 26.8312L121.014 30.4031C120.911 30.5619 120.765 30.6412 120.574 30.6412H119.452C119.262 30.6412 119.115 30.5619 119.012 30.4031L116.813 26.8312C116.783 26.7735 116.747 26.7518 116.703 26.7662C116.673 26.7807 116.659 26.8168 116.659 26.8745V36.2481C116.659 36.4934 116.534 36.6161 116.285 36.6161H113.931Z" fill="white"/>
<path d="M133.441 36.5944C133.191 36.5944 133.067 36.4718 133.067 36.2264V30.8794L133.023 30.7062L128.579 21.8954C128.535 21.8233 128.513 21.7583 128.513 21.7006C128.513 21.6284 128.543 21.5707 128.601 21.5274C128.66 21.4841 128.741 21.4625 128.843 21.4625H131.395C131.6 21.4625 131.747 21.5563 131.835 21.7439L134.519 27.3724C134.548 27.4157 134.577 27.4373 134.607 27.4373C134.651 27.4373 134.68 27.4157 134.695 27.3724L137.378 21.7439C137.481 21.5563 137.627 21.4625 137.818 21.4625H140.392C140.612 21.4625 140.722 21.5491 140.722 21.7223C140.722 21.7944 140.707 21.8521 140.678 21.8954L136.19 30.7062L136.146 30.8794V36.2264C136.146 36.4718 136.022 36.5944 135.772 36.5944H133.441Z" fill="white"/>
<path d="M22.0556 19.2292C16.9443 16.5053 11.1507 14.8671 4.99262 14.6283L4.99261 22.6913C4.99262 22.8759 5.06709 23.053 5.19961 23.1835L14.7192 32.5561C16.264 27.6193 18.7834 23.1041 22.0556 19.2292Z" fill="white"/>
<path opacity="0.2" d="M18.9073 23.5216C19.8583 22.0187 20.9108 20.5848 22.0556 19.2292C16.9443 16.5052 11.1507 14.8671 4.99261 14.6283L4.99261 14.7326C10.2592 16.6703 14.9903 19.6917 18.9073 23.5216Z" fill="white"/>
<path d="M33.8297 24.8657L35.5362 23.1835C35.6686 23.053 35.7429 22.876 35.7429 22.6915L35.743 10.1593C31.8003 12.3288 28.2762 15.1493 25.3201 18.4734C28.4487 20.2177 31.3104 22.3733 33.8297 24.8657Z" fill="white"/>
<path opacity="0.2" d="M35.7171 10.1736C31.7849 12.3412 28.2697 15.1566 25.3201 18.4734C26.6148 19.1952 27.8637 19.9875 29.0616 20.8449C30.6887 16.9247 32.949 13.3264 35.7171 10.1736Z" fill="white"/>
<path d="M23.5595 17.5492C26.9939 13.928 31.1255 10.958 35.7431 8.84721L35.7431 5.90317C35.7431 5.51901 35.4273 5.20758 35.0378 5.20758L5.69803 5.20759C5.30851 5.20759 4.99275 5.51901 4.99274 5.90317L4.99274 13.4984C5.33841 13.4895 5.6852 13.485 6.03304 13.485C12.3319 13.485 18.2842 14.9484 23.5595 17.5492Z" fill="white"/>
<path opacity="0.2" d="M35.743 8.84721C31.1253 10.958 26.9938 13.928 23.5594 17.5492C18.2841 14.9484 12.3318 13.485 6.03292 13.485C5.68507 13.485 5.33829 13.4895 4.99261 13.4984L4.99262 13.2485C11.0019 9.56244 18.0952 7.43345 25.6927 7.43345C29.1667 7.43345 32.5352 7.87859 35.743 8.71418V8.84721Z" fill="white"/>
<path d="M16.7601 34.5655C18.1013 29.2753 20.5463 24.4164 23.8397 20.2406C26.8294 22.0399 29.5559 24.2226 31.9492 26.7193L20.875 37.6352C20.5998 37.9065 20.1536 37.9066 19.8782 37.6355L16.7601 34.5655Z" fill="white"/>
</svg>
