<svg width="71" height="36" viewBox="0 0 71 36" fill="none" xmlns="http://www.w3.org/2000/svg">
<path fill-rule="evenodd" clip-rule="evenodd" d="M45.8258 5.36812C43.0911 2.34843 39.4175 0.5 35.3783 0.5C31.3392 0.5 27.6655 2.34843 24.9308 5.36812C26.5613 5.67265 28.2224 6.07612 29.8858 6.56019C31.307 6.97376 32.6441 7.42378 33.765 7.85066C34.2128 8.0212 35.3343 8.51894 35.3783 8.54157C35.4223 8.51894 36.5438 8.0212 36.9916 7.85066C38.1125 7.42378 39.4496 6.97376 40.8708 6.56019C42.5342 6.07612 44.1953 5.67265 45.8258 5.36812ZM20.3888 10.9014C19.7921 12.4953 19.3848 14.178 19.1787 15.9123C15.8155 15.5401 13.4821 10.2147 13.4821 8.94191C13.4821 6.83143 15.931 5.77619 18.4945 5.77619C19.9756 5.77619 21.4854 5.90519 22.9592 6.11499C21.9179 7.53436 21.0472 9.14239 20.3888 10.9014ZM34.8507 9.46953C34.3231 9.46953 29.8808 10.8021 26.8045 12.5033C26.1186 12.8827 25.4473 13.2862 24.7951 13.6783L24.7951 13.6783C23.1303 14.6791 21.5899 15.6051 20.2481 15.8624C20.4529 14.2527 20.8376 12.7125 21.3771 11.2713C22.065 9.43358 23.0046 7.75672 24.1445 6.30173C29.9209 7.29755 34.8507 9.36951 34.8507 9.46953ZM50.2141 10.5031C50.8947 12.2133 51.3545 14.0322 51.5779 15.9123C54.9411 15.5401 57.2745 10.2147 57.2745 8.94191C57.2745 6.83143 54.8257 5.77619 52.2621 5.77619C50.781 5.77619 49.2712 5.9052 47.7972 6.11501C48.7589 7.42599 49.5755 8.89841 50.2141 10.5031ZM43.9521 12.5033C40.8758 10.8021 36.4336 9.46953 35.9059 9.46953C35.9059 9.36951 40.8358 7.29756 46.6122 6.30173C47.6733 7.65634 48.5611 9.20325 49.2336 10.8932C49.85 12.4421 50.2857 14.1111 50.5085 15.8624C49.1667 15.6051 47.6263 14.6791 45.9615 13.6783C45.3093 13.2862 44.6381 12.8827 43.9521 12.5033Z" fill="white"/>
<path fill-rule="evenodd" clip-rule="evenodd" d="M1.58386 30.1675V23.7648H0.0814209V22.9089H1.58386V20.452H2.57909V22.9089H4.41986V23.7648H2.57909V30.0186C2.57909 30.7446 2.87958 31.2472 3.51839 31.2472C3.95049 31.2472 4.32582 31.0424 4.53254 30.819L4.90815 31.5635C4.55146 31.8985 4.11937 32.1221 3.36787 32.1221C2.16592 32.1221 1.58386 31.3961 1.58386 30.1675Z" fill="white"/>
<path fill-rule="evenodd" clip-rule="evenodd" d="M13.3407 27.3944C13.3407 25.4026 12.1577 23.5603 10.0164 23.5603C7.91272 23.5603 6.71076 25.4026 6.71076 27.3944C6.71076 29.4044 7.91272 31.2473 10.0164 31.2473C12.1577 31.2473 13.3407 29.4044 13.3407 27.3944ZM5.65906 27.3944C5.65906 24.7699 7.36795 22.6854 10.0164 22.6854C12.7022 22.6854 14.3924 24.7699 14.3924 27.3944C14.3924 30.0187 12.7022 32.1219 10.0164 32.1219C7.36795 32.1219 5.65906 30.0187 5.65906 27.3944Z" fill="white"/>
<path fill-rule="evenodd" clip-rule="evenodd" d="M23.67 27.3944C23.67 25.2168 22.5245 23.5603 20.4959 23.5603C19.2372 23.5603 18.0353 24.3047 17.5094 25.1608V29.6093C18.0353 30.4654 19.2372 31.2473 20.4959 31.2473C22.5245 31.2473 23.67 29.5718 23.67 27.3944ZM17.5094 30.4466V35.3233H16.5328V22.9088H17.5094V24.3232C18.1482 23.4114 19.3126 22.6854 20.6648 22.6854C23.0877 22.6854 24.7217 24.5093 24.7217 27.3944C24.7217 30.2608 23.0877 32.1219 20.6648 32.1219C19.3878 32.1219 18.242 31.4704 17.5094 30.4466Z" fill="white"/>
<path fill-rule="evenodd" clip-rule="evenodd" d="M26.2798 27.3944C26.2798 24.7699 28.0265 22.6854 30.6933 22.6854C32.2712 22.6854 33.1727 23.2995 33.9052 24.2115L33.2291 24.8071C32.5717 23.9138 31.7453 23.5603 30.7495 23.5603C28.6275 23.5603 27.3315 25.2353 27.3315 27.3944C27.3315 29.5533 28.6275 31.2473 30.7495 31.2473C31.7453 31.2473 32.5717 30.8748 33.2291 29.9815L33.9052 30.5771C33.1727 31.5076 32.2712 32.1219 30.6933 32.1219C28.0265 32.1219 26.2798 30.0187 26.2798 27.3944Z" fill="white"/>
<path fill-rule="evenodd" clip-rule="evenodd" d="M42.8632 27.3944C42.8632 25.4026 41.6799 23.5603 39.5389 23.5603C37.4352 23.5603 36.2333 25.4026 36.2333 27.3944C36.2333 29.4044 37.4352 31.2473 39.5389 31.2473C41.6799 31.2473 42.8632 29.4044 42.8632 27.3944ZM35.1816 27.3944C35.1816 24.7699 36.8905 22.6854 39.5389 22.6854C42.2247 22.6854 43.9149 24.7699 43.9149 27.3944C43.9149 30.0187 42.2247 32.1219 39.5389 32.1219C36.8905 32.1219 35.1816 30.0187 35.1816 27.3944Z" fill="white"/>
<path fill-rule="evenodd" clip-rule="evenodd" d="M52.7418 29.6465V25.1981C52.2156 24.3232 51.0326 23.5603 49.7555 23.5603C47.7456 23.5603 46.5812 25.2353 46.5812 27.4129C46.5812 29.5905 47.7456 31.2473 49.7555 31.2473C51.0326 31.2473 52.2156 30.5026 52.7418 29.6465ZM52.7418 31.8986V30.4654C52.1032 31.3962 50.9388 32.1222 49.5863 32.1222C47.1824 32.1222 45.5295 30.2977 45.5295 27.4129C45.5295 24.5653 47.1824 22.6854 49.5863 22.6854C50.8821 22.6854 52.0092 23.3367 52.7418 24.3604V19.4843H53.7373V31.8986H52.7418Z" fill="white"/>
<path fill-rule="evenodd" clip-rule="evenodd" d="M60.2349 23.5231C58.0939 23.5231 57.0233 25.3842 56.9482 26.9478H63.5406C63.5217 25.4214 62.5075 23.5231 60.2349 23.5231ZM55.8776 27.3944C55.8776 24.7886 57.7367 22.6854 60.2536 22.6854C63.0144 22.6854 64.5361 24.8631 64.5361 27.4501V27.7107H56.9482C57.0417 29.665 58.3569 31.2843 60.4979 31.2843C61.6433 31.2843 62.6953 30.8564 63.4655 30.0375L63.9727 30.6702C63.0709 31.6008 61.9252 32.1219 60.4227 32.1219C57.7743 32.1219 55.8776 30.1676 55.8776 27.3944Z" fill="white"/>
<path fill-rule="evenodd" clip-rule="evenodd" d="M66.6761 31.8986V22.909H67.6527V24.4536C68.4228 23.4486 69.4556 22.7227 70.7143 22.7227V23.7836C70.5451 23.7464 70.4138 23.7464 70.226 23.7464C69.3056 23.7464 68.0661 24.5653 67.6527 25.3469V31.8986H66.6761Z" fill="white"/>
</svg>
