<svg width="256" height="112" viewBox="0 0 256 112" fill="none" xmlns="http://www.w3.org/2000/svg">
<path d="M0 8C0 3.58172 3.58172 0 8 0H248C252.418 0 256 3.58172 256 8V88.9377C256 92.9723 252.996 96.3755 248.992 96.876L128.992 111.876C128.333 111.958 127.667 111.958 127.008 111.876L7.00771 96.876C3.00428 96.3755 0 92.9723 0 88.9377V8Z" fill="white"/>
<path d="M38.7323 26.5866C40.4857 24.662 43.5143 24.662 45.2677 26.5866C46.4309 27.8633 48.2311 28.3456 49.8768 27.8216C52.3576 27.0316 54.9804 28.5459 55.5366 31.0893C55.9056 32.7765 57.2235 34.0944 58.9107 34.4634C61.4541 35.0196 62.9684 37.6424 62.1784 40.1232C61.6544 41.7689 62.1367 43.5691 63.4134 44.7323C65.338 46.4857 65.338 49.5143 63.4134 51.2677C62.1367 52.4309 61.6544 54.2311 62.1784 55.8768C62.9684 58.3576 61.4541 60.9804 58.9107 61.5366C57.2235 61.9056 55.9056 63.2235 55.5366 64.9107C54.9804 67.4541 52.3576 68.9684 49.8768 68.1784C48.2311 67.6544 46.4309 68.1367 45.2677 69.4134C43.5143 71.338 40.4857 71.338 38.7323 69.4134C37.5691 68.1367 35.7689 67.6544 34.1232 68.1784C31.6424 68.9684 29.0196 67.4541 28.4634 64.9107C28.0944 63.2235 26.7765 61.9056 25.0893 61.5366C22.5459 60.9804 21.0316 58.3576 21.8216 55.8768C22.3456 54.2311 21.8633 52.4309 20.5866 51.2677C18.662 49.5143 18.662 46.4857 20.5866 44.7323C21.8633 43.5691 22.3456 41.7689 21.8216 40.1232C21.0316 37.6424 22.5459 35.0196 25.0893 34.4634C26.7765 34.0944 28.0944 32.7765 28.4634 31.0893C29.0196 28.5459 31.6424 27.0316 34.1232 27.8216C35.7689 28.3456 37.5691 27.8633 38.7323 26.5866Z" fill="url(#paint0_linear_1349_64872)"/>
<circle opacity="0.2" cx="42" cy="48.0002" r="17.6316" fill="white"/>
<path fill-rule="evenodd" clip-rule="evenodd" d="M44.1638 39.3445C44.6808 39.4737 44.9952 39.9976 44.8659 40.5146L41.0063 55.9532C40.877 56.4702 40.3531 56.7845 39.8361 56.6553C39.3191 56.526 39.0048 56.0021 39.1341 55.4851L42.9937 40.0465C43.123 39.5295 43.6468 39.2152 44.1638 39.3445ZM36.8928 43.4579C37.2696 43.8347 37.2696 44.4457 36.8928 44.8225L33.7155 47.9999L36.8928 51.1772C37.2696 51.554 37.2696 52.165 36.8928 52.5418C36.516 52.9186 35.905 52.9186 35.5282 52.5418L31.6686 48.6822C31.2918 48.3053 31.2918 47.6944 31.6686 47.3176L35.5282 43.4579C35.905 43.0811 36.516 43.0811 36.8928 43.4579ZM47.1072 43.4579C47.484 43.0811 48.0949 43.0811 48.4718 43.4579L52.3314 47.3176C52.7082 47.6944 52.7082 48.3053 52.3314 48.6822L48.4718 52.5418C48.0949 52.9186 47.484 52.9186 47.1072 52.5418C46.7303 52.165 46.7303 51.554 47.1072 51.1772L50.2845 47.9999L47.1072 44.8225C46.7303 44.4457 46.7303 43.8347 47.1072 43.4579Z" fill="white"/>
<path d="M42 70C29.8497 70 20 60.1503 20 48H14C14 63.464 26.536 76 42 76V70ZM64 48C64 60.1503 54.1503 70 42 70V76C57.464 76 70 63.464 70 48H64ZM42 26C54.1503 26 64 35.8497 64 48H70C70 32.536 57.464 20 42 20V26ZM42 20C26.536 20 14 32.536 14 48H20C20 35.8497 29.8497 26 42 26V20Z" fill="#16679A"/>
<path fill-rule="evenodd" clip-rule="evenodd" d="M90 36.7998C90.8836 36.7998 91.6 37.5161 91.6 38.3998V46.3998H99.6C100.484 46.3998 101.2 47.1161 101.2 47.9998C101.2 48.8835 100.484 49.5998 99.6 49.5998H91.6V57.5998C91.6 58.4835 90.8836 59.1998 90 59.1998C89.1163 59.1998 88.4 58.4835 88.4 57.5998V49.5998H80.4C79.5163 49.5998 78.8 48.8835 78.8 47.9998C78.8 47.1161 79.5163 46.3998 80.4 46.3998H88.4V38.3998C88.4 37.5161 89.1163 36.7998 90 36.7998Z" fill="#16679A"/>
<g opacity="0.5">
<path d="M130.386 30.8693C131.789 29.3296 134.211 29.3296 135.614 30.8693C136.545 31.8906 137.985 32.2765 139.301 31.8573C141.286 31.2253 143.384 32.4367 143.829 34.4714C144.125 35.8212 145.179 36.8755 146.529 37.1707C148.563 37.6157 149.775 39.714 149.143 41.6986C148.723 43.0151 149.109 44.4553 150.131 45.3858C151.67 46.7886 151.67 49.2114 150.131 50.6142C149.109 51.5447 148.723 52.9849 149.143 54.3014C149.775 56.286 148.563 58.3843 146.529 58.8293C145.179 59.1245 144.125 60.1788 143.829 61.5286C143.384 63.5633 141.286 64.7747 139.301 64.1427C137.985 63.7235 136.545 64.1094 135.614 65.1307C134.211 66.6704 131.789 66.6704 130.386 65.1307C129.455 64.1094 128.015 63.7235 126.699 64.1427C124.714 64.7747 122.616 63.5633 122.171 61.5286C121.875 60.1788 120.821 59.1245 119.471 58.8293C117.437 58.3843 116.225 56.2861 116.857 54.3014C117.277 52.9849 116.891 51.5447 115.869 50.6142C114.33 49.2114 114.33 46.7886 115.869 45.3858C116.891 44.4553 117.277 43.0151 116.857 41.6986C116.225 39.714 117.437 37.6157 119.471 37.1707C120.821 36.8755 121.875 35.8212 122.171 34.4714C122.616 32.4367 124.714 31.2253 126.699 31.8573C128.015 32.2765 129.455 31.8906 130.386 30.8693Z" fill="url(#paint1_linear_1349_64872)"/>
<circle opacity="0.2" cx="133" cy="47.9998" r="14.1053" fill="white"/>
<path fill-rule="evenodd" clip-rule="evenodd" d="M132.655 40.3623C132.872 40.2536 133.128 40.2536 133.345 40.3623L134.889 41.1342C135.27 41.3248 135.425 41.7885 135.234 42.1698C135.044 42.5512 134.58 42.7057 134.199 42.5151L133 41.9157L131.801 42.5151C131.42 42.7057 130.956 42.5512 130.766 42.1698C130.575 41.7885 130.73 41.3248 131.111 41.1342L132.655 40.3623ZM129.059 43.0233C129.249 43.4046 129.095 43.8683 128.714 44.0589L128.551 44.1404L128.714 44.2219C129.095 44.4126 129.249 44.8762 129.059 45.2576C128.868 45.6389 128.405 45.7934 128.023 45.6028L127.596 45.3894V46.0702C127.596 46.4966 127.251 46.8422 126.825 46.8422C126.398 46.8422 126.053 46.4966 126.053 46.0702V44.1404C126.053 43.848 126.218 43.5807 126.479 43.45L128.023 42.678C128.405 42.4874 128.868 42.6419 129.059 43.0233ZM136.941 43.0233C137.132 42.6419 137.595 42.4874 137.977 42.678L139.521 43.45C139.782 43.5807 139.947 43.848 139.947 44.1404V46.0702C139.947 46.4966 139.602 46.8422 139.175 46.8422C138.749 46.8422 138.403 46.4966 138.403 46.0702V45.3894L137.977 45.6028C137.595 45.7934 137.132 45.6389 136.941 45.2576C136.75 44.8762 136.905 44.4126 137.286 44.2219L137.449 44.1404L137.286 44.0589C136.905 43.8683 136.75 43.4046 136.941 43.0233ZM130.766 46.111C130.956 45.7297 131.42 45.5751 131.801 45.7658L133 46.3651L134.199 45.7658C134.58 45.5751 135.044 45.7297 135.234 46.111C135.425 46.4923 135.27 46.956 134.889 47.1466L133.772 47.7052V49.158C133.772 49.5843 133.426 49.9299 133 49.9299C132.574 49.9299 132.228 49.5843 132.228 49.158V47.7052L131.111 47.1466C130.73 46.956 130.575 46.4923 130.766 46.111ZM126.825 49.158C127.251 49.158 127.596 49.5036 127.596 49.9299V51.3826L128.714 51.9412C129.095 52.1319 129.249 52.5955 129.059 52.9769C128.868 53.3582 128.405 53.5127 128.023 53.3221L126.479 52.5501C126.218 52.4194 126.053 52.1521 126.053 51.8597V49.9299C126.053 49.5036 126.398 49.158 126.825 49.158ZM139.175 49.158C139.602 49.158 139.947 49.5036 139.947 49.9299V51.8597C139.947 52.1521 139.782 52.4194 139.521 52.5501L137.977 53.3221C137.595 53.5127 137.132 53.3582 136.941 52.9769C136.75 52.5955 136.905 52.1319 137.286 51.9412L138.403 51.3826V49.9299C138.403 49.5036 138.749 49.158 139.175 49.158ZM133 52.2457C133.426 52.2457 133.772 52.5913 133.772 53.0176V53.6984L134.199 53.4851C134.58 53.2944 135.044 53.449 135.234 53.8303C135.425 54.2116 135.27 54.6753 134.889 54.8659L133.345 55.6379C133.128 55.7465 132.872 55.7465 132.655 55.6379L131.111 54.8659C130.73 54.6753 130.575 54.2116 130.766 53.8303C130.956 53.449 131.42 53.2944 131.801 53.4851L132.228 53.6984V53.0176C132.228 52.5913 132.574 52.2457 133 52.2457Z" fill="white"/>
</g>
<path fill-rule="evenodd" clip-rule="evenodd" d="M176 36.7998C176.884 36.7998 177.6 37.5161 177.6 38.3998V46.3998H185.6C186.484 46.3998 187.2 47.1161 187.2 47.9998C187.2 48.8835 186.484 49.5998 185.6 49.5998H177.6V57.5998C177.6 58.4835 176.884 59.1998 176 59.1998C175.116 59.1998 174.4 58.4835 174.4 57.5998V49.5998H166.4C165.516 49.5998 164.8 48.8835 164.8 47.9998C164.8 47.1161 165.516 46.3998 166.4 46.3998H174.4V38.3998C174.4 37.5161 175.116 36.7998 176 36.7998Z" fill="#16679A"/>
<g opacity="0.5">
<path d="M216.386 30.8693C217.789 29.3296 220.211 29.3296 221.614 30.8693C222.545 31.8906 223.985 32.2765 225.301 31.8573C227.286 31.2253 229.384 32.4367 229.829 34.4714C230.125 35.8212 231.179 36.8755 232.529 37.1707C234.563 37.6157 235.775 39.714 235.143 41.6986C234.723 43.0151 235.109 44.4553 236.131 45.3858C237.67 46.7886 237.67 49.2114 236.131 50.6142C235.109 51.5447 234.723 52.9849 235.143 54.3014C235.775 56.286 234.563 58.3843 232.529 58.8293C231.179 59.1245 230.125 60.1788 229.829 61.5286C229.384 63.5633 227.286 64.7747 225.301 64.1427C223.985 63.7235 222.545 64.1094 221.614 65.1307C220.211 66.6704 217.789 66.6704 216.386 65.1307C215.455 64.1094 214.015 63.7235 212.699 64.1427C210.714 64.7747 208.616 63.5633 208.171 61.5286C207.875 60.1788 206.821 59.1245 205.471 58.8293C203.437 58.3843 202.225 56.2861 202.857 54.3014C203.277 52.9849 202.891 51.5447 201.869 50.6142C200.33 49.2114 200.33 46.7886 201.869 45.3858C202.891 44.4553 203.277 43.0151 202.857 41.6986C202.225 39.714 203.437 37.6157 205.471 37.1707C206.821 36.8755 207.875 35.8212 208.171 34.4714C208.616 32.4367 210.714 31.2253 212.699 31.8573C214.015 32.2765 215.455 31.8906 216.386 30.8693Z" fill="url(#paint2_linear_1349_64872)"/>
<circle opacity="0.2" cx="219" cy="47.9998" r="14.1053" fill="white"/>
<path fill-rule="evenodd" clip-rule="evenodd" d="M213.442 40.5894C212.419 40.5894 211.589 41.4188 211.589 42.442V52.6315C211.589 54.1662 212.834 55.4104 214.368 55.4104C215.903 55.4104 217.147 54.1662 217.147 52.6315V42.442C217.147 41.4188 216.318 40.5894 215.295 40.5894H213.442ZM214.368 53.5578C214.88 53.5578 215.295 53.1431 215.295 52.6315C215.295 52.1199 214.88 51.7051 214.368 51.7051C213.857 51.7051 213.442 52.1199 213.442 52.6315C213.442 53.1431 213.857 53.5578 214.368 53.5578Z" fill="white"/>
<path d="M219 51.9298L223.538 47.3914C224.262 46.6679 224.262 45.4948 223.538 44.7713L222.228 43.4613C221.505 42.7378 220.332 42.7378 219.608 43.4613L219 44.0698V51.9298Z" fill="white"/>
<path d="M224.558 55.4104H218.139L223.697 49.8525H224.558C225.581 49.8525 226.411 50.682 226.411 51.7051V53.5578C226.411 54.581 225.581 55.4104 224.558 55.4104Z" fill="white"/>
</g>
<defs>
<linearGradient id="paint0_linear_1349_64872" x1="17" y1="60.25" x2="68.5036" y2="55.6743" gradientUnits="userSpaceOnUse">
<stop stop-color="#048467"/>
<stop offset="1" stop-color="#064871"/>
</linearGradient>
<linearGradient id="paint1_linear_1349_64872" x1="113" y1="57.8" x2="154.203" y2="54.1394" gradientUnits="userSpaceOnUse">
<stop stop-color="#723390"/>
<stop offset="1" stop-color="#8C384F"/>
</linearGradient>
<linearGradient id="paint2_linear_1349_64872" x1="199" y1="57.8" x2="240.203" y2="54.1394" gradientUnits="userSpaceOnUse">
<stop stop-color="#065D6E"/>
<stop offset="0.0001" stop-color="#06596E"/>
<stop offset="1" stop-color="#3E3B91"/>
</linearGradient>
</defs>
</svg>
