<svg width="194" height="100" viewBox="0 0 194 100" fill="none" xmlns="http://www.w3.org/2000/svg">
<path d="M43.9646 7.17317C47.4714 3.3241 53.5286 3.3241 57.0354 7.17317C59.3618 9.72654 62.9622 10.6912 66.2535 9.64315C71.2151 8.0632 76.4608 11.0918 77.5733 16.1786C78.3113 19.5531 80.9469 22.1887 84.3214 22.9267C89.4082 24.0392 92.4368 29.2849 90.8568 34.2465C89.8088 37.5378 90.7735 41.1382 93.3268 43.4646C97.1759 46.9714 97.1759 53.0286 93.3268 56.5354C90.7735 58.8618 89.8088 62.4622 90.8568 65.7535C92.4368 70.7151 89.4082 75.9608 84.3214 77.0733C80.9469 77.8113 78.3113 80.4469 77.5733 83.8214C76.4608 88.9082 71.2151 91.9368 66.2535 90.3568C62.9622 89.3088 59.3618 90.2735 57.0354 92.8268C53.5286 96.6759 47.4714 96.6759 43.9646 92.8268C41.6382 90.2735 38.0378 89.3088 34.7465 90.3568C29.7849 91.9368 24.5392 88.9082 23.4267 83.8214C22.6887 80.4469 20.0531 77.8113 16.6786 77.0733C11.5918 75.9608 8.5632 70.7151 10.1431 65.7535C11.1912 62.4622 10.2265 58.8618 7.67317 56.5354C3.8241 53.0286 3.8241 46.9714 7.67317 43.4646C10.2265 41.1382 11.1912 37.5378 10.1431 34.2464C8.5632 29.2849 11.5918 24.0392 16.6786 22.9267C20.0531 22.1887 22.6887 19.5531 23.4267 16.1786C24.5392 11.0918 29.7849 8.0632 34.7464 9.64315C38.0378 10.6912 41.6382 9.72654 43.9646 7.17317Z" fill="url(#paint0_linear_1349_64880)"/>
<circle opacity="0.2" cx="50.5" cy="50" r="35.2632" fill="white"/>
<path fill-rule="evenodd" clip-rule="evenodd" d="M61.5495 46.1065C58.6572 42.9716 54.7719 41.0527 50.5 41.0527C46.2281 41.0527 42.3428 42.9716 39.4505 46.1065C41.1749 46.4226 42.9318 46.8415 44.691 47.344C46.1941 47.7733 47.6083 48.2405 48.7937 48.6837C49.2673 48.8607 50.4535 49.3774 50.5 49.4009C50.5465 49.3774 51.7327 48.8607 52.2063 48.6837C53.3917 48.2405 54.8059 47.7733 56.309 47.344C58.0682 46.8415 59.8251 46.4226 61.5495 46.1065ZM34.6467 51.8507C34.0157 53.5054 33.5849 55.2522 33.367 57.0527C29.8099 56.6663 27.3421 51.1378 27.3421 49.8165C27.3421 47.6256 29.932 46.5301 32.6433 46.5301C34.2098 46.5301 35.8065 46.664 37.3653 46.8818C36.264 48.3553 35.3431 50.0246 34.6467 51.8507ZM49.942 50.3643C49.384 50.3643 44.6857 51.7477 41.4321 53.5138C40.7067 53.9075 39.9967 54.3265 39.307 54.7335C37.5462 55.7725 35.9171 56.7337 34.4979 57.0009C34.7146 55.3298 35.1214 53.7309 35.692 52.2347C36.4195 50.3269 37.4133 48.5861 38.6188 47.0757C44.7281 48.1095 49.942 50.2604 49.942 50.3643ZM66.1906 51.4372C66.9104 53.2126 67.3968 55.1009 67.633 57.0527C71.1901 56.6663 73.6579 51.1378 73.6579 49.8165C73.6579 47.6256 71.068 46.5301 68.3567 46.5301C66.7902 46.5301 65.1934 46.664 63.6345 46.8818C64.6516 48.2428 65.5152 49.7714 66.1906 51.4372ZM59.5678 53.5138C56.3143 51.7477 51.616 50.3643 51.058 50.3643C51.058 50.2604 56.2719 48.1095 62.3812 47.0757C63.5035 48.4819 64.4424 50.0878 65.1537 51.8423C65.8056 53.4502 66.2663 55.1828 66.5021 57.0009C65.0829 56.7337 63.4538 55.7725 61.693 54.7335L61.693 54.7334C61.0032 54.3264 60.2933 53.9075 59.5678 53.5138Z" fill="white"/>
<path d="M114.026 57.144C113.126 57.144 112.334 56.97 111.65 56.622C110.966 56.262 110.438 55.764 110.066 55.128C109.694 54.492 109.508 53.754 109.508 52.914V48.468C109.508 47.628 109.694 46.89 110.066 46.254C110.438 45.618 110.966 45.126 111.65 44.778C112.334 44.43 113.126 44.256 114.026 44.256C114.914 44.256 115.7 44.424 116.384 44.76C117.068 45.096 117.596 45.57 117.968 46.182C118.34 46.794 118.526 47.502 118.526 48.306C118.526 48.426 118.436 48.498 118.256 48.522L116.726 48.612H116.654C116.51 48.612 116.438 48.582 116.438 48.522V48.414C116.438 47.706 116.216 47.136 115.772 46.704C115.34 46.272 114.758 46.056 114.026 46.056C113.294 46.056 112.706 46.272 112.262 46.704C111.818 47.136 111.596 47.706 111.596 48.414V53.004C111.596 53.7 111.818 54.264 112.262 54.696C112.706 55.128 113.294 55.344 114.026 55.344C114.758 55.344 115.34 55.134 115.772 54.714C116.216 54.282 116.438 53.712 116.438 53.004C116.438 52.944 116.462 52.896 116.51 52.86C116.57 52.812 116.642 52.794 116.726 52.806L118.238 52.878C118.43 52.902 118.526 52.932 118.526 52.968V53.058C118.526 53.874 118.34 54.594 117.968 55.218C117.596 55.83 117.068 56.304 116.384 56.64C115.7 56.976 114.914 57.144 114.026 57.144ZM129.297 45.912C129.297 46.104 129.201 46.2 129.009 46.2H122.961C122.889 46.2 122.853 46.236 122.853 46.308V49.638C122.853 49.71 122.889 49.746 122.961 49.746H126.993C127.185 49.746 127.281 49.842 127.281 50.034V51.258C127.281 51.45 127.185 51.546 126.993 51.546H122.961C122.889 51.546 122.853 51.582 122.853 51.654V55.092C122.853 55.164 122.889 55.2 122.961 55.2H129.009C129.201 55.2 129.297 55.296 129.297 55.488V56.712C129.297 56.904 129.201 57 129.009 57H121.053C120.861 57 120.765 56.904 120.765 56.712V44.688C120.765 44.496 120.861 44.4 121.053 44.4H129.009C129.201 44.4 129.297 44.496 129.297 44.688V45.912ZM138.546 57C138.378 57 138.264 56.928 138.204 56.784L135.846 51.636C135.834 51.588 135.792 51.564 135.72 51.564H133.614C133.542 51.564 133.506 51.6 133.506 51.672V56.712C133.506 56.904 133.41 57 133.218 57H131.706C131.514 57 131.418 56.904 131.418 56.712V44.67C131.418 44.478 131.514 44.382 131.706 44.382H136.584C137.316 44.382 137.964 44.538 138.528 44.85C139.092 45.15 139.53 45.582 139.842 46.146C140.154 46.698 140.31 47.334 140.31 48.054C140.31 48.882 140.094 49.59 139.662 50.178C139.242 50.754 138.66 51.15 137.916 51.366C137.88 51.378 137.856 51.402 137.844 51.438C137.832 51.462 137.838 51.486 137.862 51.51L140.346 56.658L140.382 56.802C140.382 56.934 140.298 57 140.13 57H138.546ZM133.614 46.182C133.542 46.182 133.506 46.218 133.506 46.29V49.836C133.506 49.908 133.542 49.944 133.614 49.944H136.296C136.872 49.944 137.334 49.776 137.682 49.44C138.042 49.092 138.222 48.642 138.222 48.09C138.222 47.526 138.042 47.07 137.682 46.722C137.334 46.362 136.872 46.182 136.296 46.182H133.614ZM150.647 44.4C150.839 44.4 150.935 44.496 150.935 44.688V45.93C150.935 46.122 150.839 46.218 150.647 46.218H147.425C147.353 46.218 147.317 46.254 147.317 46.326V56.712C147.317 56.904 147.221 57 147.029 57H145.517C145.325 57 145.229 56.904 145.229 56.712V46.326C145.229 46.254 145.193 46.218 145.121 46.218H142.025C141.833 46.218 141.737 46.122 141.737 45.93V44.688C141.737 44.496 141.833 44.4 142.025 44.4H150.647ZM153.151 57C152.959 57 152.863 56.904 152.863 56.712V44.688C152.863 44.496 152.959 44.4 153.151 44.4H154.663C154.855 44.4 154.951 44.496 154.951 44.688V56.712C154.951 56.904 154.855 57 154.663 57H153.151ZM166.088 45.912C166.088 46.104 165.992 46.2 165.8 46.2H159.77C159.698 46.2 159.662 46.236 159.662 46.308V49.638C159.662 49.71 159.698 49.746 159.77 49.746H163.802C163.994 49.746 164.09 49.842 164.09 50.034V51.258C164.09 51.45 163.994 51.546 163.802 51.546H159.77C159.698 51.546 159.662 51.582 159.662 51.654V56.712C159.662 56.904 159.566 57 159.374 57H157.862C157.67 57 157.574 56.904 157.574 56.712V44.688C157.574 44.496 157.67 44.4 157.862 44.4H165.8C165.992 44.4 166.088 44.496 166.088 44.688V45.912ZM168.004 57C167.812 57 167.716 56.904 167.716 56.712V44.688C167.716 44.496 167.812 44.4 168.004 44.4H169.516C169.708 44.4 169.804 44.496 169.804 44.688V56.712C169.804 56.904 169.708 57 169.516 57H168.004ZM180.959 45.912C180.959 46.104 180.863 46.2 180.671 46.2H174.623C174.551 46.2 174.515 46.236 174.515 46.308V49.638C174.515 49.71 174.551 49.746 174.623 49.746H178.655C178.847 49.746 178.943 49.842 178.943 50.034V51.258C178.943 51.45 178.847 51.546 178.655 51.546H174.623C174.551 51.546 174.515 51.582 174.515 51.654V55.092C174.515 55.164 174.551 55.2 174.623 55.2H180.671C180.863 55.2 180.959 55.296 180.959 55.488V56.712C180.959 56.904 180.863 57 180.671 57H172.715C172.523 57 172.427 56.904 172.427 56.712V44.688C172.427 44.496 172.523 44.4 172.715 44.4H180.671C180.863 44.4 180.959 44.496 180.959 44.688V45.912ZM183.368 57C183.176 57 183.08 56.904 183.08 56.712V44.688C183.08 44.496 183.176 44.4 183.368 44.4H187.688C188.54 44.4 189.29 44.55 189.938 44.85C190.586 45.15 191.084 45.582 191.432 46.146C191.792 46.698 191.972 47.346 191.972 48.09V53.31C191.972 54.054 191.792 54.708 191.432 55.272C191.084 55.824 190.586 56.25 189.938 56.55C189.29 56.85 188.54 57 187.688 57H183.368ZM185.168 55.092C185.168 55.164 185.204 55.2 185.276 55.2H187.778C188.414 55.2 188.918 55.002 189.29 54.606C189.674 54.198 189.872 53.658 189.884 52.986V48.432C189.884 47.748 189.692 47.208 189.308 46.812C188.924 46.404 188.408 46.2 187.76 46.2H185.276C185.204 46.2 185.168 46.236 185.168 46.308V55.092Z" fill="#2A2A2A"/>
<path d="M114.026 57.144C113.126 57.144 112.334 56.97 111.65 56.622C110.966 56.262 110.438 55.764 110.066 55.128C109.694 54.492 109.508 53.754 109.508 52.914V48.468C109.508 47.628 109.694 46.89 110.066 46.254C110.438 45.618 110.966 45.126 111.65 44.778C112.334 44.43 113.126 44.256 114.026 44.256C114.914 44.256 115.7 44.424 116.384 44.76C117.068 45.096 117.596 45.57 117.968 46.182C118.34 46.794 118.526 47.502 118.526 48.306C118.526 48.426 118.436 48.498 118.256 48.522L116.726 48.612H116.654C116.51 48.612 116.438 48.582 116.438 48.522V48.414C116.438 47.706 116.216 47.136 115.772 46.704C115.34 46.272 114.758 46.056 114.026 46.056C113.294 46.056 112.706 46.272 112.262 46.704C111.818 47.136 111.596 47.706 111.596 48.414V53.004C111.596 53.7 111.818 54.264 112.262 54.696C112.706 55.128 113.294 55.344 114.026 55.344C114.758 55.344 115.34 55.134 115.772 54.714C116.216 54.282 116.438 53.712 116.438 53.004C116.438 52.944 116.462 52.896 116.51 52.86C116.57 52.812 116.642 52.794 116.726 52.806L118.238 52.878C118.43 52.902 118.526 52.932 118.526 52.968V53.058C118.526 53.874 118.34 54.594 117.968 55.218C117.596 55.83 117.068 56.304 116.384 56.64C115.7 56.976 114.914 57.144 114.026 57.144ZM129.297 45.912C129.297 46.104 129.201 46.2 129.009 46.2H122.961C122.889 46.2 122.853 46.236 122.853 46.308V49.638C122.853 49.71 122.889 49.746 122.961 49.746H126.993C127.185 49.746 127.281 49.842 127.281 50.034V51.258C127.281 51.45 127.185 51.546 126.993 51.546H122.961C122.889 51.546 122.853 51.582 122.853 51.654V55.092C122.853 55.164 122.889 55.2 122.961 55.2H129.009C129.201 55.2 129.297 55.296 129.297 55.488V56.712C129.297 56.904 129.201 57 129.009 57H121.053C120.861 57 120.765 56.904 120.765 56.712V44.688C120.765 44.496 120.861 44.4 121.053 44.4H129.009C129.201 44.4 129.297 44.496 129.297 44.688V45.912ZM138.546 57C138.378 57 138.264 56.928 138.204 56.784L135.846 51.636C135.834 51.588 135.792 51.564 135.72 51.564H133.614C133.542 51.564 133.506 51.6 133.506 51.672V56.712C133.506 56.904 133.41 57 133.218 57H131.706C131.514 57 131.418 56.904 131.418 56.712V44.67C131.418 44.478 131.514 44.382 131.706 44.382H136.584C137.316 44.382 137.964 44.538 138.528 44.85C139.092 45.15 139.53 45.582 139.842 46.146C140.154 46.698 140.31 47.334 140.31 48.054C140.31 48.882 140.094 49.59 139.662 50.178C139.242 50.754 138.66 51.15 137.916 51.366C137.88 51.378 137.856 51.402 137.844 51.438C137.832 51.462 137.838 51.486 137.862 51.51L140.346 56.658L140.382 56.802C140.382 56.934 140.298 57 140.13 57H138.546ZM133.614 46.182C133.542 46.182 133.506 46.218 133.506 46.29V49.836C133.506 49.908 133.542 49.944 133.614 49.944H136.296C136.872 49.944 137.334 49.776 137.682 49.44C138.042 49.092 138.222 48.642 138.222 48.09C138.222 47.526 138.042 47.07 137.682 46.722C137.334 46.362 136.872 46.182 136.296 46.182H133.614ZM150.647 44.4C150.839 44.4 150.935 44.496 150.935 44.688V45.93C150.935 46.122 150.839 46.218 150.647 46.218H147.425C147.353 46.218 147.317 46.254 147.317 46.326V56.712C147.317 56.904 147.221 57 147.029 57H145.517C145.325 57 145.229 56.904 145.229 56.712V46.326C145.229 46.254 145.193 46.218 145.121 46.218H142.025C141.833 46.218 141.737 46.122 141.737 45.93V44.688C141.737 44.496 141.833 44.4 142.025 44.4H150.647ZM153.151 57C152.959 57 152.863 56.904 152.863 56.712V44.688C152.863 44.496 152.959 44.4 153.151 44.4H154.663C154.855 44.4 154.951 44.496 154.951 44.688V56.712C154.951 56.904 154.855 57 154.663 57H153.151ZM166.088 45.912C166.088 46.104 165.992 46.2 165.8 46.2H159.77C159.698 46.2 159.662 46.236 159.662 46.308V49.638C159.662 49.71 159.698 49.746 159.77 49.746H163.802C163.994 49.746 164.09 49.842 164.09 50.034V51.258C164.09 51.45 163.994 51.546 163.802 51.546H159.77C159.698 51.546 159.662 51.582 159.662 51.654V56.712C159.662 56.904 159.566 57 159.374 57H157.862C157.67 57 157.574 56.904 157.574 56.712V44.688C157.574 44.496 157.67 44.4 157.862 44.4H165.8C165.992 44.4 166.088 44.496 166.088 44.688V45.912ZM168.004 57C167.812 57 167.716 56.904 167.716 56.712V44.688C167.716 44.496 167.812 44.4 168.004 44.4H169.516C169.708 44.4 169.804 44.496 169.804 44.688V56.712C169.804 56.904 169.708 57 169.516 57H168.004ZM180.959 45.912C180.959 46.104 180.863 46.2 180.671 46.2H174.623C174.551 46.2 174.515 46.236 174.515 46.308V49.638C174.515 49.71 174.551 49.746 174.623 49.746H178.655C178.847 49.746 178.943 49.842 178.943 50.034V51.258C178.943 51.45 178.847 51.546 178.655 51.546H174.623C174.551 51.546 174.515 51.582 174.515 51.654V55.092C174.515 55.164 174.551 55.2 174.623 55.2H180.671C180.863 55.2 180.959 55.296 180.959 55.488V56.712C180.959 56.904 180.863 57 180.671 57H172.715C172.523 57 172.427 56.904 172.427 56.712V44.688C172.427 44.496 172.523 44.4 172.715 44.4H180.671C180.863 44.4 180.959 44.496 180.959 44.688V45.912ZM183.368 57C183.176 57 183.08 56.904 183.08 56.712V44.688C183.08 44.496 183.176 44.4 183.368 44.4H187.688C188.54 44.4 189.29 44.55 189.938 44.85C190.586 45.15 191.084 45.582 191.432 46.146C191.792 46.698 191.972 47.346 191.972 48.09V53.31C191.972 54.054 191.792 54.708 191.432 55.272C191.084 55.824 190.586 56.25 189.938 56.55C189.29 56.85 188.54 57 187.688 57H183.368ZM185.168 55.092C185.168 55.164 185.204 55.2 185.276 55.2H187.778C188.414 55.2 188.918 55.002 189.29 54.606C189.674 54.198 189.872 53.658 189.884 52.986V48.432C189.884 47.748 189.692 47.208 189.308 46.812C188.924 46.404 188.408 46.2 187.76 46.2H185.276C185.204 46.2 185.168 46.236 185.168 46.308V55.092Z" fill="black" fill-opacity="0.2"/>
<defs>
<linearGradient id="paint0_linear_1349_64880" x1="100.5" y1="26.6289" x2="-2.7947" y2="34.9679" gradientUnits="userSpaceOnUse">
<stop stop-color="#FFC43D"/>
<stop offset="1" stop-color="#EF476F"/>
</linearGradient>
</defs>
</svg>
