<svg preserveAspectRatio="none" overflow="visible" style="display: block;" width="20" height="20" viewBox="0 0 20 20" fill="none" xmlns="http://www.w3.org/2000/svg">
<g id="Icon">
<path id="Vector" d="M9.91062 17.5C9.67451 17.5 9.47659 17.4201 9.31687 17.2604C9.15715 17.1007 9.07728 16.9028 9.07728 16.6667V15.7083C8.45228 15.5694 7.90367 15.3264 7.43145 14.9792C6.95923 14.6319 6.57728 14.1458 6.28562 13.5208C6.1884 13.3264 6.18492 13.1215 6.2752 12.9063C6.36548 12.691 6.52867 12.5347 6.76478 12.4375C6.95923 12.3542 7.16062 12.3576 7.36895 12.4479C7.57728 12.5382 7.73701 12.6875 7.84812 12.8958C8.08423 13.3125 8.38284 13.6285 8.74395 13.8438C9.10506 14.059 9.54951 14.1667 10.0773 14.1667C10.6467 14.1667 11.1294 14.0382 11.5252 13.7813C11.921 13.5243 12.119 13.125 12.119 12.5833C12.119 12.0972 11.9662 11.7118 11.6606 11.4271C11.3551 11.1424 10.6467 10.8194 9.53562 10.4583C8.34117 10.0833 7.52173 9.63542 7.07728 9.11458C6.63284 8.59375 6.41062 7.95833 6.41062 7.20833C6.41062 6.30556 6.70228 5.60417 7.28562 5.10417C7.86895 4.60417 8.46617 4.31944 9.07728 4.25V3.33333C9.07728 3.09722 9.15715 2.89931 9.31687 2.73958C9.47659 2.57986 9.67451 2.5 9.91062 2.5C10.1467 2.5 10.3446 2.57986 10.5044 2.73958C10.6641 2.89931 10.744 3.09722 10.744 3.33333V4.25C11.2717 4.33333 11.7301 4.50347 12.119 4.76042C12.5078 5.01736 12.8273 5.33333 13.0773 5.70833C13.2023 5.88889 13.2266 6.09028 13.1502 6.3125C13.0738 6.53472 12.9176 6.69444 12.6815 6.79167C12.487 6.875 12.2856 6.87847 12.0773 6.80208C11.869 6.72569 11.6745 6.59028 11.494 6.39583C11.3134 6.20139 11.1016 6.05208 10.8585 5.94792C10.6155 5.84375 10.3134 5.79167 9.95228 5.79167C9.34117 5.79167 8.8759 5.92708 8.55645 6.19792C8.23701 6.46875 8.07728 6.80556 8.07728 7.20833C8.07728 7.66667 8.28562 8.02778 8.70228 8.29167C9.11895 8.55556 9.84117 8.83333 10.869 9.125C11.8273 9.40278 12.553 9.84375 13.046 10.4479C13.5391 11.0521 13.7856 11.75 13.7856 12.5417C13.7856 13.5278 13.494 14.2778 12.9106 14.7917C12.3273 15.3056 11.6051 15.625 10.744 15.75V16.6667C10.744 16.9028 10.6641 17.1007 10.5044 17.2604C10.3446 17.4201 10.1467 17.5 9.91062 17.5Z" fill="#007D79"/>
</g>
</svg>
