<svg preserveAspectRatio="none" overflow="visible" style="display: block;" width="20" height="20" viewBox="0 0 20 20" fill="none" xmlns="http://www.w3.org/2000/svg">
<g id="Icon">
<path id="Vector" d="M7.1667 18.75l-1.5833 -2.6667 -3 -0.6667 0.2917 -3.0833 -2.0417 -2.3333 2.0417 -2.3333 -0.2917 -3.0833 3 -0.6667 1.5833 -2.6667 2.8333 1.2083 2.8333 -1.2083 1.5833 2.6667 3 0.6667 -0.2917 3.0833 2.0417 2.3333 -2.0417 2.3333 0.2917 3.0833 -3 0.6667 -1.5833 2.6667 -2.8333 -1.2083 -2.8333 1.2083Zm0.7083 -2.125l2.125 -0.9167 2.1667 0.9167 1.1667 -2 2.2917 -0.5417 -0.2083 -2.3333 1.5417 -1.75 -1.5417 -1.7917 0.2083 -2.3333 -2.2917 -0.5 -1.2083 -2 -2.125 0.9167 -2.1667 -0.9167 -1.1667 2 -2.2917 0.5 0.2083 2.3333 -1.5417 1.7917 1.5417 1.75 -0.2083 2.375 2.2917 0.5 1.2083 2Zm-0.875 2.9583l4.7083 -4.7083 -1.1667 -1.2083 -3.5417 3.5417 -1.7917 -1.75 -1.1667 1.1667 2.9583 2.9583Z" fill="#007D79"/>
</g>
</svg>
