<svg width="20" height="20" viewBox="0 0 20 20" fill="none" xmlns="http://www.w3.org/2000/svg">
<g clip-path="url(#clip0_2793_1323)">
<path d="M4 20C3.45 20 2.97917 19.8042 2.5875 19.4125C2.19583 19.0208 2 18.55 2 18V2C2 1.45 2.19583 0.979167 2.5875 0.5875C2.97917 0.195833 3.45 0 4 0H11.175C11.4417 0 11.6958 0.05 11.9375 0.15C12.1792 0.25 12.3917 0.391667 12.575 0.575L17.425 5.425C17.6083 5.60833 17.75 5.82083 17.85 6.0625C17.95 6.30417 18 6.55833 18 6.825V18C18 18.55 17.8042 19.0208 17.4125 19.4125C17.0208 19.8042 16.55 20 16 20H4ZM11 6V2H4V18H16V7H12C11.7167 7 11.4792 6.90417 11.2875 6.7125C11.0958 6.52083 11 6.28333 11 6Z" fill="#00797A"/>
</g>
<defs>
<clipPath id="clip0_2793_1323">
<rect width="20" height="20" fill="white"/>
</clipPath>
</defs>
</svg>
