<?xml version="1.0" encoding="utf-8"?>
<svg version="1.1" xmlns="http://www.w3.org/2000/svg" xmlns:xlink="http://www.w3.org/1999/xlink" x="0px" y="0px"
	 viewBox="0 0 19 21" enable-background="new 0 0 19 21" xml:space="preserve">
<path fill-rule="evenodd" clip-rule="evenodd" fill="#26B3C5" d="M9.4462,9.4501c-0.5796,0-1.05,0.4704-1.05,1.05
	c0,0.5796,0.4704,1.05,1.05,1.05c0.5796,0,1.05-0.4704,1.05-1.05C10.4962,9.9205,10.0258,9.4501,9.4462,9.4501 M9.4462,13.6501
	c-1.7374,0-3.15-1.4126-3.15-3.15s1.4126-3.15,3.15-3.15c1.736,0,3.15,1.4126,3.15,3.15S11.1822,13.6501,9.4462,13.6501"/>
<defs>
	<filter id="icon-gear-blue-opacity-mask-filter" filterUnits="userSpaceOnUse" x="0.0002" y="-0.0002" width="18.8908" height="20.9978">
		<feColorMatrix  type="matrix" values="1 0 0 0 0  0 1 0 0 0  0 0 1 0 0  0 0 0 1 0"/>
	</filter>
</defs>
<mask id="icon-gear-blue-mask" maskUnits="userSpaceOnUse" x="0.0002" y="-0.0002" width="18.8908" height="20.9978">
	<g filter="url(#icon-gear-blue-opacity-mask-filter)">
		<polygon fill-rule="evenodd" clip-rule="evenodd" fill="#FFFFFF" points="0.0002,0.0001 18.891,0.0001 
			18.891,20.9973 0.0002,20.9973 		"/>
	</g>
</mask>
<path mask="url(#icon-gear-blue-mask)" fill-rule="evenodd" clip-rule="evenodd" fill="#26B3C5" d="M5.7084,14.545
	c1.0542,0,2.023,0.6902,2.3394,1.736l0.6188,2.0314c0.0798,0.2674,0.2842,0.4718,0.5474,0.5502
	c0.2086,0.0602,0.427,0.042,0.6174-0.063c0.1918-0.1036,0.3318-0.2744,0.3934-0.4816l0.6132-2.0314
	c0.3696-1.2264,1.6394-1.967,2.884-1.673l2.0622,0.4774c0.2618,0.0616,0.539-0.0154,0.742-0.2016
	c0.1582-0.1498,0.2506-0.3528,0.259-0.574c0.007-0.2198-0.0714-0.4284-0.2212-0.5908l-1.4448-1.5568
	c-0.868-0.9352-0.868-2.401,0-3.3362l1.449-1.554c0.1876-0.2002,0.2618-0.4774,0.2016-0.7448
	c-0.049-0.2142-0.1778-0.3962-0.3626-0.5138c-0.1834-0.1148-0.4018-0.154-0.6216-0.1064l-2.0566,0.476
	c-1.246,0.2898-2.5158-0.4466-2.8854-1.6716l-0.6174-2.0328C10.145,2.4182,9.942,2.2138,9.6788,2.1354
	C9.249,2.0052,8.7968,2.2516,8.668,2.68c0,0.0028,0,0.0042-0.0014,0.0056L8.0464,4.717C7.6782,5.9378,6.4098,6.6714,5.1652,6.3872
	L3.1016,5.9084c-0.266-0.0588-0.5404,0.0168-0.7406,0.203c-0.1596,0.1498-0.252,0.3528-0.2604,0.574
	C2.0922,6.9038,2.172,7.1138,2.3218,7.2748l1.4448,1.5498c0.8694,0.9366,0.8694,2.4024,0,3.3376l-1.442,1.5568
	c-0.189,0.2002-0.2632,0.4774-0.203,0.7448c0.0476,0.2142,0.1764,0.3976,0.364,0.5152c0.1848,0.1162,0.406,0.1526,0.6188,0.105
	l2.0594-0.476C5.3458,14.566,5.5292,14.545,5.7084,14.545L5.7084,14.545z M9.4506,20.9976c-0.2814,0-0.5628-0.0406-0.84-0.1232
	c-0.9422-0.2828-1.6716-1.015-1.953-1.9558L6.0374,16.89c-0.0518-0.1722-0.2254-0.2702-0.4018-0.2366l-2.0608,0.4774
	c-0.7658,0.1764-1.5484,0.0406-2.2106-0.3752c-0.6594-0.4172-1.1186-1.0654-1.2908-1.827c-0.2142-0.945,0.0518-1.932,0.7126-2.6404
	l1.442-1.554c0.126-0.1344,0.126-0.3444,0.0014-0.4788L0.786,8.707C0.254,8.1372-0.0246,7.3938,0.002,6.6126
	c0.0266-0.7798,0.3556-1.5036,0.9268-2.037c0.7084-0.6608,1.694-0.9282,2.6418-0.7126L5.637,4.3404
	c0.1708,0.0364,0.3472-0.0616,0.399-0.2338L6.6576,2.078C6.8802,1.3318,7.38,0.7186,8.066,0.3504
	c0.6832-0.3696,1.47-0.4508,2.2176-0.2254c0.938,0.2814,1.6702,1.0108,1.9516,1.9516l0.6188,2.03
	c0.0518,0.175,0.2338,0.2786,0.4032,0.2366l2.0594-0.4774c0.763-0.175,1.5498-0.0406,2.2092,0.3766
	c0.6608,0.4172,1.12,1.0654,1.2922,1.827c0.2156,0.9478-0.0532,1.9348-0.714,2.6418l-1.4476,1.5512
	c-0.1232,0.133-0.1232,0.343,0.0014,0.4774l1.4434,1.5554c0.5292,0.567,0.8092,1.3118,0.7826,2.0916
	c-0.0266,0.7812-0.3556,1.5036-0.9268,2.037c-0.7098,0.6622-1.6954,0.9296-2.6432,0.714l-2.0636-0.4788
	c-0.1722-0.0392-0.3514,0.063-0.4018,0.2352l-0.6132,2.0272c-0.2226,0.7448-0.7224,1.358-1.4084,1.7262
	C10.3984,20.88,9.9266,20.9976,9.4506,20.9976L9.4506,20.9976z"/>
</svg>
