<?xml version="1.0" encoding="utf-8"?>
<svg version="1.1" xmlns="http://www.w3.org/2000/svg" xmlns:xlink="http://www.w3.org/1999/xlink" x="0px" y="0px"
	 viewBox="0 0 35 35" enable-background="new 0 0 35 35" xml:space="preserve">
<path fill="#AAAAAA" d="M17.5,0C7.8356,0,0,7.8356,0,17.5S7.8356,35,17.5,35S35,27.1644,35,17.5
	S27.1644,0,17.5,0z M14.5833,23.3333h-2.9167v-8.75h2.9167V23.3333z M13.125,13.284c-0.8852,0-1.6042-0.7233-1.6042-1.6173
	c0-0.8925,0.7175-1.6173,1.6042-1.6173s1.6042,0.7248,1.6042,1.6173C14.7292,12.5606,14.0102,13.284,13.125,13.284z
	 M24.7917,23.3333h-2.9138V19.161c0-2.7431-2.9196-2.5112-2.9196,0v4.1723h-2.9167v-8.75h2.9167v1.594
	c1.2717-2.3567,5.8333-2.5317,5.8333,2.2575V23.3333z"/>
</svg>
