<?xml version="1.0" encoding="utf-8"?>
<svg version="1.1" xmlns="http://www.w3.org/2000/svg" xmlns:xlink="http://www.w3.org/1999/xlink" x="0px" y="0px"
	 viewBox="0 0 35 35" enable-background="new 0 0 35 35" xml:space="preserve">
<path fill="#AAAAAA" d="M17.5,0C7.8356,0,0,7.8356,0,17.5S7.8356,35,17.5,35S35,27.1644,35,17.5S27.1644,0,17.5,0
	z M26.3463,14.0656c0.2669,5.8917-4.1271,12.46-11.9058,12.46c-2.3654,0-4.566-0.6942-6.4196-1.8827
	c2.2225,0.2625,4.4406-0.3558,6.2008-1.734c-1.8317-0.0335-3.379-1.2454-3.9142-2.9094c0.6577,0.1254,1.3052,0.089,1.8929-0.0715
	c-2.014-0.4054-3.4052-2.2196-3.36-4.1606c0.5658,0.3135,1.2104,0.5017,1.8973,0.5235c-1.8652-1.2469-2.3931-3.71-1.2964-5.5927
	c2.065,2.5346,5.1523,4.2015,8.6333,4.3765c-0.611-2.6192,1.3767-5.1435,4.0819-5.1435c1.2031,0,2.2925,0.509,3.0567,1.3227
	c0.9538-0.1867,1.8521-0.5367,2.66-1.0165c-0.3135,0.9785-0.9771,1.7981-1.8419,2.3173c0.8473-0.1021,1.6552-0.3267,2.4048-0.6606
	C27.876,12.7371,27.1673,13.475,26.3463,14.0656L26.3463,14.0656z"/>
</svg>
