<?xml version="1.0" encoding="utf-8"?>
<svg version="1.1" xmlns="http://www.w3.org/2000/svg" xmlns:xlink="http://www.w3.org/1999/xlink" x="0px" y="0px"
	 viewBox="0 0 7 7" enable-background="new 0 0 7 7" xml:space="preserve">
<path fill-rule="evenodd" clip-rule="evenodd" fill="#555555" d="M6.7953,0.2047
	c-0.273-0.2729-0.7156-0.2729-0.9886,0L3.5044,2.507L1.2021,0.2047C0.9277-0.0603,0.4917-0.0565,0.222,0.2132
	S-0.0515,0.919,0.2135,1.1933l2.3023,2.3023L0.2135,5.7979C0.0317,5.9735-0.0412,6.2334,0.0228,6.4779s0.2549,0.4353,0.4993,0.4993
	s0.5044-0.0089,0.6799-0.1907l2.3023-2.3023l2.3023,2.3023C6.081,7.0515,6.5171,7.0477,6.7868,6.778
	c0.2697-0.2697,0.2735-0.7058,0.0085-0.9801L4.493,3.4956l2.3023-2.3023C7.0682,0.9203,7.0682,0.4777,6.7953,0.2047z"/>
</svg>
