<?xml version="1.0" encoding="utf-8"?>
<svg version="1.1" xmlns="http://www.w3.org/2000/svg" xmlns:xlink="http://www.w3.org/1999/xlink" x="0px" y="0px"
	 viewBox="0 0 22 22" enable-background="new 0 0 22 22" xml:space="preserve">
<path fill="none" stroke="#26B3C5" stroke-width="2" stroke-linecap="round" stroke-linejoin="round" d="
	M3.125,4.125h15.75c0.8284,0,1.5,0.6716,1.5,1.5v13.25c0,0.8284-0.6716,1.5-1.5,1.5H3.125c-0.8284,0-1.5-0.6716-1.5-1.5V5.625
	C1.625,4.7966,2.2966,4.125,3.125,4.125z"/>
<line fill="none" stroke="#26B3C5" stroke-width="2" stroke-linecap="round" stroke-linejoin="round" x1="1.625" y1="9.125" x2="20.375" y2="9.125"/>
<line fill="none" stroke="#26B3C5" stroke-width="2" stroke-linecap="round" stroke-linejoin="round" x1="6.625" y1="6" x2="6.625" y2="1.625"/>
<line fill="none" stroke="#26B3C5" stroke-width="2" stroke-linecap="round" stroke-linejoin="round" x1="15.375" y1="6" x2="15.375" y2="1.625"/>
<line fill="none" stroke="#26B3C5" stroke-width="2" stroke-linecap="round" stroke-linejoin="round" x1="5.6875" y1="12.25" x2="5.6875" y2="12.25"/>
<path fill="none" stroke="#26B3C5" stroke-width="2" stroke-linecap="round" stroke-linejoin="round" d="M5.6875,12.25
	c-0.1726,0-0.3125,0.1399-0.3125,0.3125s0.1399,0.3125,0.3125,0.3125S6,12.7351,6,12.5625S5.8601,12.25,5.6875,12.25"/>
<line fill="none" stroke="#26B3C5" stroke-width="2" stroke-linecap="round" stroke-linejoin="round" x1="5.6875" y1="16.625" x2="5.6875" y2="16.625"/>
<path fill="none" stroke="#26B3C5" stroke-width="2" stroke-linecap="round" stroke-linejoin="round" d="
	M5.6875,16.625c-0.1726,0-0.3125,0.1399-0.3125,0.3125S5.5149,17.25,5.6875,17.25S6,17.1101,6,16.9375S5.8601,16.625,5.6875,16.625"
	/>
<line fill="none" stroke="#26B3C5" stroke-width="2" stroke-linecap="round" stroke-linejoin="round" x1="11" y1="12.25" x2="11" y2="12.25"/>
<path fill="none" stroke="#26B3C5" stroke-width="2" stroke-linecap="round" stroke-linejoin="round" d="M11,12.25
	c-0.1726,0-0.3125,0.1399-0.3125,0.3125S10.8274,12.875,11,12.875s0.3125-0.1399,0.3125-0.3125S11.1726,12.25,11,12.25"/>
<line fill="none" stroke="#26B3C5" stroke-width="2" stroke-linecap="round" stroke-linejoin="round" x1="11" y1="16.625" x2="11" y2="16.625"/>
<path fill="none" stroke="#26B3C5" stroke-width="2" stroke-linecap="round" stroke-linejoin="round" d="M11,16.625
	c-0.1726,0-0.3125,0.1399-0.3125,0.3125S10.8274,17.25,11,17.25s0.3125-0.1399,0.3125-0.3125S11.1726,16.625,11,16.625"/>
<line fill="none" stroke="#26B3C5" stroke-width="2" stroke-linecap="round" stroke-linejoin="round" x1="16.3125" y1="12.25" x2="16.3125" y2="12.25"/>
<path fill="none" stroke="#26B3C5" stroke-width="2" stroke-linecap="round" stroke-linejoin="round" d="
	M16.3125,12.25C16.1399,12.25,16,12.3899,16,12.5625s0.1399,0.3125,0.3125,0.3125s0.3125-0.1399,0.3125-0.3125
	S16.4851,12.25,16.3125,12.25"/>
<line fill="none" stroke="#26B3C5" stroke-width="2" stroke-linecap="round" stroke-linejoin="round" x1="16.3125" y1="16.625" x2="16.3125" y2="16.625"/>
<path fill="none" stroke="#26B3C5" stroke-width="2" stroke-linecap="round" stroke-linejoin="round" d="
	M16.3125,16.625C16.1399,16.625,16,16.7649,16,16.9375s0.1399,0.3125,0.3125,0.3125s0.3125-0.1399,0.3125-0.3125
	S16.4851,16.625,16.3125,16.625"/>
</svg>
