<svg xmlns="http://www.w3.org/2000/svg" width="100%" height="100%" viewBox="0 0 880 700" fill="none">
    <g clip-path="url(#clip0_765_111653)">
        <g clip-path="url(#clip1_765_111653)">
            <path fill-rule="evenodd" clip-rule="evenodd"
                d="M880 700L880 -0.000348726C839.5 -0.000347374 568 -0.000305176 484.188 -0.00033551C484.479 0.727165 484.788 1.47047 485.114 2.23444L485.763 3.72549L487.093 6.69594C490.877 15.2573 492.089 20.2285 492.089 29.9951C492.089 39.4761 490.947 44.4385 487.419 52.5517L486.772 54.0177L486.095 55.5195L485.407 57.0773C481.536 65.99 480.079 71.9904 480.003 82.4498L480 83.3332C480 93.503 481.218 99.4692 484.54 107.539L485.13 108.944C485.334 109.42 485.545 109.904 485.763 110.398L487.093 113.368C490.877 121.928 492.089 126.899 492.089 136.665C492.089 146.16 490.943 151.122 487.403 159.257L486.772 160.684L486.095 162.186L485.425 163.703C481.432 172.886 480 178.971 480 189.998C480 201.329 481.512 207.442 485.763 217.061L486.772 219.31L487.419 220.776C490.947 228.888 492.089 233.849 492.089 243.329C492.089 252.808 490.947 257.77 487.42 265.882L486.772 267.348L486.095 268.85L485.425 270.367C481.432 279.549 480 285.635 480 296.662C480 307.703 481.436 313.791 485.441 322.994L486.095 324.474L486.772 325.975L487.42 327.441C490.947 335.553 492.089 340.515 492.089 349.995C492.089 359.202 491.012 364.147 487.717 371.857L487.093 373.291L486.095 375.514L485.425 377.032C481.432 386.214 480 392.299 480 403.326C480 414.352 481.432 420.437 485.425 429.619L486.095 431.137L486.439 431.899C490.738 441.383 492.089 446.349 492.089 456.657C492.089 466.695 490.809 471.668 486.772 480.678L486.439 481.418C481.672 491.934 480 498.079 480 509.993C480 520.729 481.357 526.781 485.114 535.568L485.763 537.059L487.093 540.03C490.877 548.591 492.089 553.563 492.089 563.329C492.089 572.81 490.947 577.772 487.419 585.886L486.772 587.352L486.095 588.853L485.407 590.411C481.535 599.324 480.079 605.324 480.003 615.783L480 616.667C480 626.837 481.218 632.803 484.54 640.873L485.13 642.278C485.334 642.754 485.545 643.238 485.763 643.731L487.093 646.701C490.877 655.262 492.089 660.233 492.089 669.999C492.089 679.493 490.943 684.456 487.403 692.591L486.772 694.018L486.095 695.519L485.425 697.037C484.98 698.059 484.568 699.043 484.185 700C623 700 751.942 700 880 700Z"
                fill="black" fill-opacity="0.05" style="mix-blend-mode:multiply" />
            <path
                d="M484.188 3.08874e-05C488.098 9.77278 492.089 19.2524 492.089 29.9954C492.089 38.6083 490.233 46.1814 486.772 54.018C482.58 63.3191 480.037 73.0981 480 83.3335C480 92.8724 481.931 101.725 485.763 110.398C489.605 118.975 492.089 127.147 492.089 136.665C492.089 145.821 489.808 153.949 486.095 162.186C482.101 171.231 480 180.065 480 189.998C480 201.136 482.943 210.739 487.42 220.776C490.947 228.888 492.089 233.849 492.089 243.329C492.089 251.941 490.233 259.513 486.772 267.348C482.515 276.793 480 286.185 480 296.662C480 307.138 482.514 316.53 486.772 325.975C490.233 333.811 492.089 341.383 492.089 349.995C492.089 359.146 489.785 367.296 486.095 375.514C482.101 384.559 480 393.393 480 403.325C480 413.258 482.101 422.092 486.095 431.137C489.875 439.523 492.089 447.399 492.089 456.657C492.089 466.695 490.809 471.667 486.772 480.678C482.449 490.269 480 499.413 480 509.992C480 519.621 481.937 528.262 485.763 537.059C489.605 545.637 492.089 553.81 492.089 563.329C492.089 571.942 490.233 579.515 486.772 587.351C482.648 596.501 480.077 605.632 480.003 615.783C479.97 624.959 481.575 633.814 485.13 642.277C488.956 651.215 492.089 660.139 492.089 669.999C492.089 680.77 488.1 690.212 484.185 700"
                stroke="#BAE1F9" stroke-opacity="0.6" stroke-miterlimit="3.99933" stroke-dasharray="4 4" />
        </g>
        <rect class="rect-border" x="0.5" y="0.5" width="879" height="699" rx="7.5" stroke="#BAE1F9" stroke-opacity="0.6"
            stroke-dasharray="4 4" />
        <g opacity="0.1">
            <path
                d="M644.963 444.253C645.547 444.253 646.015 444.487 646.366 444.954C646.833 445.305 647.067 445.772 647.067 446.357V464.414C647.067 464.999 646.833 465.524 646.366 465.992C646.015 466.343 645.547 466.518 644.963 466.518H639.353C638.769 466.518 638.476 466.81 638.476 467.395V495.445C638.476 496.029 638.243 496.555 637.775 497.023C637.425 497.373 636.957 497.549 636.373 497.549H615.861C615.276 497.549 614.751 497.373 614.283 497.023C613.932 496.555 613.757 496.029 613.757 495.445V467.395C613.757 466.81 613.465 466.518 612.881 466.518H570.104C569.519 466.518 568.993 466.343 568.526 465.992C568.175 465.524 568 464.999 568 464.414V450.038C568 448.986 568.117 448.11 568.351 447.409L591.667 376.582C592.018 375.413 592.778 374.828 593.947 374.828H616.211C616.913 374.828 617.439 375.062 617.789 375.53C618.14 375.88 618.198 376.465 617.965 377.283L596.927 443.201C596.81 443.902 597.044 444.253 597.628 444.253H612.881C613.465 444.253 613.757 443.961 613.757 443.376V425.144C613.757 424.559 613.932 424.092 614.283 423.741C614.751 423.274 615.276 423.04 615.861 423.04H636.373C636.957 423.04 637.425 423.274 637.775 423.741C638.243 424.092 638.476 424.559 638.476 425.144V443.376C638.476 443.961 638.769 444.253 639.353 444.253H644.963Z"
                fill="#BAE1F9" />
            <path
                d="M687.659 499.477C680.88 499.477 674.919 498.016 669.777 495.094C664.634 492.172 660.602 488.023 657.68 482.647C654.875 477.271 653.473 471.076 653.473 464.064V408.314C653.473 401.301 654.875 395.107 657.68 389.73C660.602 384.354 664.634 380.205 669.777 377.283C674.919 374.361 680.88 372.9 687.659 372.9C698.061 372.9 706.418 376.173 712.729 382.718C719.04 389.146 722.196 397.678 722.196 408.314V464.064C722.196 474.699 719.04 483.29 712.729 489.835C706.418 496.263 698.061 499.477 687.659 499.477ZM687.659 478.264C690.581 478.264 692.918 477.095 694.672 474.758C696.542 472.42 697.477 469.323 697.477 465.466V406.911C697.477 403.054 696.542 399.957 694.672 397.619C692.918 395.282 690.581 394.113 687.659 394.113C684.854 394.113 682.575 395.282 680.822 397.619C679.069 399.957 678.192 403.054 678.192 406.911V465.466C678.192 469.323 679.069 472.42 680.822 474.758C682.575 477.095 684.854 478.264 687.659 478.264Z"
                fill="#BAE1F9" />
            <path
                d="M805.896 444.253C806.481 444.253 806.948 444.487 807.299 444.954C807.766 445.305 808 445.772 808 446.357V464.414C808 464.999 807.766 465.524 807.299 465.992C806.948 466.343 806.481 466.518 805.896 466.518H800.286C799.702 466.518 799.41 466.81 799.41 467.395V495.445C799.41 496.029 799.176 496.555 798.708 497.023C798.358 497.373 797.89 497.549 797.306 497.549H776.794C776.21 497.549 775.684 497.373 775.216 497.023C774.866 496.555 774.69 496.029 774.69 495.445V467.395C774.69 466.81 774.398 466.518 773.814 466.518H731.037C730.453 466.518 729.927 466.343 729.459 465.992C729.108 465.524 728.933 464.999 728.933 464.414V450.038C728.933 448.986 729.05 448.11 729.284 447.409L752.601 376.582C752.951 375.413 753.711 374.828 754.88 374.828H777.145C777.846 374.828 778.372 375.062 778.722 375.53C779.073 375.88 779.132 376.465 778.898 377.283L757.86 443.201C757.743 443.902 757.977 444.253 758.561 444.253H773.814C774.398 444.253 774.69 443.961 774.69 443.376V425.144C774.69 424.559 774.866 424.092 775.216 423.741C775.684 423.274 776.21 423.04 776.794 423.04H797.306C797.89 423.04 798.358 423.274 798.708 423.741C799.176 424.092 799.41 424.559 799.41 425.144V443.376C799.41 443.961 799.702 444.253 800.286 444.253H805.896Z"
                fill="#BAE1F9" />
        </g>
        <g opacity="0.1">
            <path fill-rule="evenodd" clip-rule="evenodd"
                d="M670.68 196.333C678.378 183 697.623 183 705.321 196.333L751.509 276.333C759.207 289.667 749.584 306.333 734.188 306.333H641.812C626.416 306.333 616.794 289.667 624.492 276.333L670.68 196.333ZM693.774 203C691.208 198.556 684.793 198.556 682.227 203L636.039 283C633.473 287.444 636.68 293 641.812 293H734.188C739.32 293 742.528 287.444 739.962 283L693.774 203ZM688 226.333C691.682 226.333 694.667 229.318 694.667 233V246.333C694.667 250.015 691.682 253 688 253C684.318 253 681.334 250.015 681.334 246.333V233C681.334 229.318 684.318 226.333 688 226.333ZM681.334 273C681.334 269.318 684.318 266.333 688 266.333H688.067C691.749 266.333 694.734 269.318 694.734 273C694.734 276.682 691.749 279.667 688.067 279.667H688C684.318 279.667 681.334 276.682 681.334 273Z"
                fill="#BAE1F9" />
        </g>
    </g>
    <defs>
        <clipPath id="clip0_765_111653">
            <rect width="880" height="700" rx="8" fill="white" />
        </clipPath>
        <clipPath id="clip1_765_111653">
            <rect width="880" height="700" rx="8" fill="white" />
        </clipPath>
    </defs>
</svg>
