<svg width="32" height="32" viewBox="0 0 32 32" fill="none" xmlns="http://www.w3.org/2000/svg">
<path fill-rule="evenodd" clip-rule="evenodd" d="M16 6.66667C14.5273 6.66667 13.3333 7.86057 13.3333 9.33333C13.3333 10.8061 14.5273 12 16 12C17.4728 12 18.6667 10.8061 18.6667 9.33333C18.6667 7.86057 17.4728 6.66667 16 6.66667ZM10.6667 9.33333C10.6667 6.38781 13.0545 4 16 4C18.9455 4 21.3333 6.38781 21.3333 9.33333C21.3333 12.2789 18.9455 14.6667 16 14.6667C13.0545 14.6667 10.6667 12.2789 10.6667 9.33333ZM6.66668 12C5.9303 12 5.33334 12.597 5.33334 13.3333C5.33334 14.0697 5.9303 14.6667 6.66668 14.6667C7.40306 14.6667 8.00001 14.0697 8.00001 13.3333C8.00001 12.597 7.40306 12 6.66668 12ZM2.66668 13.3333C2.66668 11.1242 4.45754 9.33333 6.66668 9.33333C8.87582 9.33333 10.6667 11.1242 10.6667 13.3333C10.6667 15.5425 8.87582 17.3333 6.66668 17.3333C4.45754 17.3333 2.66668 15.5425 2.66668 13.3333ZM25.3333 12C24.597 12 24 12.597 24 13.3333C24 14.0697 24.597 14.6667 25.3333 14.6667C26.0697 14.6667 26.6667 14.0697 26.6667 13.3333C26.6667 12.597 26.0697 12 25.3333 12ZM21.3333 13.3333C21.3333 11.1242 23.1242 9.33333 25.3333 9.33333C27.5425 9.33333 29.3333 11.1242 29.3333 13.3333C29.3333 15.5425 27.5425 17.3333 25.3333 17.3333C23.1242 17.3333 21.3333 15.5425 21.3333 13.3333ZM16 18.6667C13.7566 18.6667 11.8336 20.0523 11.0462 22.0193C10.8018 22.6299 10.6667 23.2976 10.6667 24V25.3333H21.3333V24C21.3333 23.2976 21.1982 22.6299 20.9538 22.0193C20.1665 20.0523 18.2434 18.6667 16 18.6667ZM24 25.3333H28V24C28 22.5272 26.8061 21.3333 25.3333 21.3333C24.7252 21.3333 24.1649 21.5361 23.7156 21.8797C23.9012 22.556 24 23.2673 24 24V25.3333ZM22.5715 19.4369C21.1273 17.3608 18.7236 16 16 16C13.2764 16 10.8727 17.3608 9.42851 19.4369C8.62323 18.9485 7.67773 18.6667 6.66668 18.6667C3.72116 18.6667 1.33334 21.0545 1.33334 24V26.6667C1.33334 27.403 1.9303 28 2.66668 28H29.3333C30.0697 28 30.6667 27.403 30.6667 26.6667V24C30.6667 21.0545 28.2789 18.6667 25.3333 18.6667C24.3223 18.6667 23.3768 18.9485 22.5715 19.4369ZM8.28438 21.8797C7.8351 21.5361 7.27477 21.3333 6.66668 21.3333C5.19392 21.3333 4.00001 22.5272 4.00001 24V25.3333H8.00001V24C8.00001 23.2673 8.09886 22.556 8.28438 21.8797Z" fill="url(#paint0_linear_1387_13923)"/>
<defs>
<linearGradient id="paint0_linear_1387_13923" x1="1.33334" y1="22.24" x2="31.5794" y2="18.6502" gradientUnits="userSpaceOnUse">
<stop stop-color="#05456D"/>
<stop offset="1" stop-color="#0A7AC0"/>
</linearGradient>
</defs>
</svg>
