<svg width="162" height="32" viewBox="0 0 162 32" fill="none" xmlns="http://www.w3.org/2000/svg">
<mask id="path-1-outside-1_2866_6889" maskUnits="userSpaceOnUse" x="0" y="-0.208008" width="162" height="32" fill="black">
<rect fill="white" y="-0.208008" width="162" height="32"/>
<path d="M24.9494 5.46399C25.5031 4.63199 26.0567 3.76799 26.5925 2.87199L26.1996 2.66399C25.6638 3.54399 25.128 4.40799 24.5744 5.23999C22.592 4.10399 20.0738 3.44799 17.3235 3.44799C12.3228 3.44799 6.48283 6.27999 6.48283 11.224C6.48283 13.992 10.0547 17.032 15.091 16.472C12.0192 19.176 9.26889 20.808 7.05433 21.672L5.44698 21.352C2.92881 20.84 1 20.44 1 21.544C1 22.776 3.30386 23.336 6.87573 22.072C9.53678 22.584 12.8765 23.096 16.2162 22.744C22.6456 22.072 28.9856 17.464 28.9856 11.944C28.9856 9.31999 27.4319 7.01599 24.9494 5.46399ZM6.94717 11.224C6.94717 6.51999 12.4479 3.86399 17.3235 3.86399C20.0024 3.86399 22.4312 4.50399 24.3422 5.59199C22.2884 8.64799 20.1631 11.368 17.9485 13.688C17.1627 14.52 16.3769 15.288 15.609 15.992C10.519 16.872 6.94717 13.928 6.94717 11.224ZM16.1626 22.328C13.1444 22.632 10.144 22.232 7.62583 21.784C9.98326 20.824 12.805 19.112 15.859 16.36C17.4128 16.072 19.0737 15.464 20.806 14.408L20.556 14.056C19.1273 14.936 17.7342 15.496 16.4484 15.816C17.0556 15.24 17.6807 14.616 18.3057 13.96C20.5203 11.624 22.6634 8.90399 24.7172 5.83199C27.0568 7.28799 28.5213 9.46399 28.5213 11.944C28.5213 17.256 22.467 21.688 16.1626 22.328ZM1.46434 21.544C1.46434 21.096 2.19658 21.112 5.33983 21.752L6.28637 21.944C3.30386 22.952 1.46434 22.488 1.46434 21.544Z"/>
<path d="M40.1999 18.168L40.0213 17.784C38.7176 18.28 36.8781 18.984 35.1814 18.984C34.1992 18.984 33.4848 18.856 33.0383 18.632C33.7706 18.056 34.3063 17.368 34.3063 16.904C34.3063 16.408 33.9313 16.056 33.3955 16.056C32.6097 16.056 31.9846 16.84 31.9846 17.784C31.9846 18.104 32.0918 18.392 32.3061 18.616C32.1811 18.696 32.0561 18.76 31.931 18.824C30.8059 19.4 30.3594 19.16 30.9309 18.248C31.1809 17.864 31.5203 17.512 31.7703 17.352L31.5203 17C31.1988 17.192 30.8238 17.592 30.538 18.04C29.7165 19.336 30.5916 19.992 32.1453 19.192C32.3239 19.096 32.4847 19 32.6454 18.904C33.1991 19.224 34.0563 19.4 35.1814 19.4C36.9852 19.4 38.8962 18.664 40.1999 18.168ZM32.449 17.784C32.449 17.048 32.8954 16.472 33.3955 16.472C33.6813 16.472 33.842 16.632 33.842 16.904C33.842 17.256 33.3419 17.864 32.6633 18.36C32.5204 18.2 32.449 18.008 32.449 17.784Z"/>
<path d="M48.9357 17.784C46.096 18.856 43.9172 19.48 43.0242 19.48C42.4706 19.48 42.2384 19.336 42.2384 19.016C42.2384 18.696 42.6313 18.152 43.4707 17.24L43.7922 16.888L43.6314 16.792L43.4171 16.632L43.3993 16.648L43.3814 16.664C42.8456 17.256 40.9883 19.112 39.7202 19.112C39.6309 19.112 39.8452 18.712 40.5953 17.704C40.8454 17.368 41.0954 17.048 41.2383 16.808L40.8097 16.616C40.7025 16.84 40.4703 17.144 40.2024 17.48C39.2916 18.712 38.8273 19.528 39.7202 19.528C40.3989 19.528 41.1668 19.112 41.8812 18.616C41.8098 18.76 41.7741 18.888 41.7741 19.016C41.7741 19.576 42.2384 19.896 43.0242 19.896C44.2387 19.896 47.0783 18.936 49.1143 18.168L48.9357 17.784Z"/>
<path d="M57.229 18.168L57.0504 17.784C55.2644 18.52 52.4427 19.688 49.6745 20.792C49.8352 20.6 49.9959 20.392 50.1567 20.184C50.9425 19.176 51.7104 18.2 52.3891 17.352L52.2105 17.224L52.0498 17.08L52.0319 17.096L51.8533 17.272C51.5676 16.904 51.2104 16.696 50.7817 16.696C49.7102 16.696 48.5136 17.816 48.5136 18.776C48.5136 19.176 48.7279 19.528 49.0851 19.528C49.5494 19.528 50.0852 19.24 50.621 18.872C50.3353 19.224 50.0674 19.576 49.7816 19.944C49.478 20.344 49.1744 20.728 48.8529 21.128L45.924 22.312C40.0661 24.648 39.5303 27.752 40.9234 28.424C42.7807 29.336 46.1383 25.368 49.1744 21.464C52.1391 20.264 55.3002 18.968 57.229 18.168ZM48.9779 18.776C48.9779 18.056 49.9781 17.112 50.7817 17.112C51.0854 17.112 51.3175 17.256 51.514 17.576C50.8175 18.216 49.7638 19.112 49.0851 19.112C49.0494 19.112 48.9779 18.952 48.9779 18.776ZM41.1377 28.072C40.0304 27.528 40.4947 24.936 46.1026 22.696C46.7991 22.408 47.5671 22.12 48.335 21.8C45.4775 25.432 42.6021 28.776 41.1377 28.072Z"/>
<path d="M95.9541 11.368C95.2754 12.584 94.6325 13.848 94.0431 15.128C93.6502 15.16 93.2395 15.176 92.8108 15.176C91.5428 15.176 90.3105 15.08 89.1139 14.936C91.0785 12.44 92.2393 9.75199 92.2393 7.65599C92.2393 6.82399 92.0607 6.10399 91.7036 5.51199L91.2928 5.70399C91.6143 6.23199 91.775 6.88799 91.775 7.65599C91.775 9.73599 90.6141 12.408 88.6317 14.872C86.8994 14.648 85.2563 14.312 83.7204 13.992C81.5059 13.544 79.4877 13.128 77.7554 13.128C72.3261 13.128 69.3079 15.896 69.3079 18.36C69.3079 20.68 71.7368 22.232 75.4337 22.232C80.8808 22.232 85.7385 19.032 88.8103 15.32C90.0962 15.48 91.4357 15.592 92.8108 15.592C93.168 15.592 93.5074 15.576 93.8467 15.56C92.1679 19.24 91.007 22.952 91.007 25.784C91.007 29.208 92.6858 31 95.8648 31V30.584C92.9537 30.584 91.4714 28.984 91.4714 25.784C91.4714 22.952 92.6501 19.224 94.3646 15.512C96.2934 15.32 97.74 14.712 98.758 13.72L98.4008 13.448C97.5257 14.328 96.2577 14.856 94.5611 15.08C95.1326 13.88 95.7398 12.712 96.3827 11.56C99.651 5.68799 103.473 1.20799 105.134 1.20799V0.791992C103.205 0.791992 99.3831 5.25599 95.9541 11.368ZM75.4337 21.816C71.9868 21.816 69.7723 20.44 69.7723 18.36C69.7723 16.072 72.5226 13.544 77.7554 13.544C79.4342 13.544 81.3987 13.944 83.6133 14.392C85.0777 14.696 86.6672 15.016 88.3281 15.256C85.3278 18.792 80.6665 21.816 75.4337 21.816Z"/>
<path d="M109.515 17.784C106.675 18.856 104.497 19.48 103.604 19.48C103.05 19.48 102.818 19.336 102.818 19.016C102.818 18.408 103.514 17.352 103.711 17.08L103.568 17L103.354 16.808L102.782 17.32C102.603 16.936 102.157 16.696 101.639 16.696C100.568 16.696 99.3709 17.816 99.3709 18.776C99.3709 19.176 99.5853 19.528 99.9425 19.528C100.657 19.528 101.8 18.712 102.639 18.008C102.478 18.344 102.353 18.712 102.353 19.016C102.353 19.576 102.818 19.896 103.604 19.896C104.818 19.896 107.658 18.936 109.694 18.168L109.515 17.784ZM99.8353 18.776C99.8353 18.056 100.835 17.112 101.639 17.112C102.032 17.112 102.353 17.336 102.407 17.64C101.603 18.312 100.532 19.112 99.9425 19.112C99.9067 19.112 99.8353 18.952 99.8353 18.776Z"/>
<path d="M124.491 17.784C122.688 18.552 120.491 19.304 118.384 19.304C117.062 19.304 116.437 19.048 116.437 18.568C116.437 18.28 116.723 17.864 117.008 17.464C117.491 16.792 117.651 16.328 117.008 16.328C116.687 16.328 116.044 16.68 115.633 16.888C115.097 17.176 114.526 17.56 114.026 17.928C114.454 17.24 114.74 16.552 114.472 16.296C114.062 15.896 113.419 16.152 109.507 17.784L109.686 18.168C113.49 16.584 113.99 16.44 114.151 16.584C114.312 16.744 113.222 18.52 112.508 19.16L112.472 19.192L112.794 19.48C112.794 19.48 114.437 18.008 115.865 17.256C116.437 16.952 116.758 16.792 116.919 16.76C116.901 16.808 116.83 16.936 116.615 17.24C116.33 17.64 115.972 18.152 115.972 18.568C115.972 19.352 116.812 19.72 118.384 19.72C120.562 19.72 122.866 18.936 124.706 18.168L124.491 17.784Z"/>
<path d="M136.687 18.168L136.472 17.784C134.668 18.552 132.472 19.304 130.543 19.304C129.971 19.304 129.454 19.176 128.989 18.968C129.4 18.36 129.436 17.544 129.007 16.68C128.918 16.488 128.9 16.344 128.918 16.248C129.061 16.168 129.203 16.104 129.364 16.024C129.614 15.928 129.507 15.576 129.221 15.576H129.203C129.203 15.576 128.614 15.608 128.453 16.024C127.757 16.36 127.096 16.68 126.417 16.984C125.774 16.392 125.364 16.184 125.167 16.744C125.078 17.016 125.042 17.288 125.042 17.576C124.864 17.64 124.685 17.72 124.506 17.784L124.685 18.168C124.828 18.12 124.971 18.056 125.114 18.008C125.328 19 126.132 19.848 127.078 19.848C127.757 19.848 128.311 19.64 128.686 19.304C129.239 19.544 129.864 19.72 130.543 19.72C132.543 19.72 134.847 18.936 136.687 18.168ZM128.578 16.84C128.953 17.576 128.918 18.28 128.578 18.76C127.846 18.344 127.239 17.784 126.757 17.304C127.31 17.048 127.864 16.776 128.436 16.488C128.471 16.6 128.507 16.712 128.578 16.84ZM125.596 16.872C125.632 16.824 125.614 16.808 125.989 17.176C125.828 17.24 125.667 17.32 125.507 17.384C125.507 17.208 125.542 17.032 125.596 16.872ZM127.078 19.432C126.328 19.432 125.685 18.68 125.542 17.832L126.328 17.496C126.81 17.976 127.453 18.616 128.275 19.08C127.971 19.304 127.56 19.432 127.078 19.432Z"/>
<path d="M145.978 18.168L145.8 17.784C144.496 18.28 142.656 18.984 140.96 18.984C139.978 18.984 139.263 18.856 138.817 18.632C139.549 18.056 140.085 17.368 140.085 16.904C140.085 16.408 139.71 16.056 139.174 16.056C138.388 16.056 137.763 16.84 137.763 17.784C137.763 18.104 137.87 18.392 138.084 18.616C137.959 18.696 137.834 18.76 137.709 18.824C136.584 19.4 136.138 19.16 136.709 18.248C136.959 17.864 137.299 17.512 137.549 17.352L137.299 17C136.977 17.192 136.602 17.592 136.316 18.04C135.495 19.336 136.37 19.992 137.924 19.192C138.102 19.096 138.263 19 138.424 18.904C138.977 19.224 139.835 19.4 140.96 19.4C142.764 19.4 144.675 18.664 145.978 18.168ZM138.227 17.784C138.227 17.048 138.674 16.472 139.174 16.472C139.46 16.472 139.62 16.632 139.62 16.904C139.62 17.256 139.12 17.864 138.442 18.36C138.299 18.2 138.227 18.008 138.227 17.784Z"/>
<path d="M160.786 17.784C158.982 18.552 156.785 19.304 154.678 19.304C153.356 19.304 152.731 19.048 152.731 18.568C152.731 18.28 153.017 17.864 153.303 17.464C153.785 16.792 153.946 16.328 153.303 16.328C152.981 16.328 152.338 16.68 151.927 16.888C151.392 17.176 150.82 17.56 150.32 17.928C150.749 17.24 151.034 16.552 150.767 16.296C150.356 15.896 149.713 16.152 145.802 17.784L145.98 18.168C149.784 16.584 150.284 16.44 150.445 16.584C150.606 16.744 149.516 18.52 148.802 19.16L148.766 19.192L149.088 19.48C149.088 19.48 150.731 18.008 152.16 17.256C152.731 16.952 153.053 16.792 153.213 16.76C153.195 16.808 153.124 16.936 152.91 17.24C152.624 17.64 152.267 18.152 152.267 18.568C152.267 19.352 153.106 19.72 154.678 19.72C156.857 19.72 159.16 18.936 161 18.168L160.786 17.784Z"/>
</mask>
<path d="M24.9494 5.46399C25.5031 4.63199 26.0567 3.76799 26.5925 2.87199L26.1996 2.66399C25.6638 3.54399 25.128 4.40799 24.5744 5.23999C22.592 4.10399 20.0738 3.44799 17.3235 3.44799C12.3228 3.44799 6.48283 6.27999 6.48283 11.224C6.48283 13.992 10.0547 17.032 15.091 16.472C12.0192 19.176 9.26889 20.808 7.05433 21.672L5.44698 21.352C2.92881 20.84 1 20.44 1 21.544C1 22.776 3.30386 23.336 6.87573 22.072C9.53678 22.584 12.8765 23.096 16.2162 22.744C22.6456 22.072 28.9856 17.464 28.9856 11.944C28.9856 9.31999 27.4319 7.01599 24.9494 5.46399ZM6.94717 11.224C6.94717 6.51999 12.4479 3.86399 17.3235 3.86399C20.0024 3.86399 22.4312 4.50399 24.3422 5.59199C22.2884 8.64799 20.1631 11.368 17.9485 13.688C17.1627 14.52 16.3769 15.288 15.609 15.992C10.519 16.872 6.94717 13.928 6.94717 11.224ZM16.1626 22.328C13.1444 22.632 10.144 22.232 7.62583 21.784C9.98326 20.824 12.805 19.112 15.859 16.36C17.4128 16.072 19.0737 15.464 20.806 14.408L20.556 14.056C19.1273 14.936 17.7342 15.496 16.4484 15.816C17.0556 15.24 17.6807 14.616 18.3057 13.96C20.5203 11.624 22.6634 8.90399 24.7172 5.83199C27.0568 7.28799 28.5213 9.46399 28.5213 11.944C28.5213 17.256 22.467 21.688 16.1626 22.328ZM1.46434 21.544C1.46434 21.096 2.19658 21.112 5.33983 21.752L6.28637 21.944C3.30386 22.952 1.46434 22.488 1.46434 21.544Z" fill="#2A2A2A"/>
<path d="M40.1999 18.168L40.0213 17.784C38.7176 18.28 36.8781 18.984 35.1814 18.984C34.1992 18.984 33.4848 18.856 33.0383 18.632C33.7706 18.056 34.3063 17.368 34.3063 16.904C34.3063 16.408 33.9313 16.056 33.3955 16.056C32.6097 16.056 31.9846 16.84 31.9846 17.784C31.9846 18.104 32.0918 18.392 32.3061 18.616C32.1811 18.696 32.0561 18.76 31.931 18.824C30.8059 19.4 30.3594 19.16 30.9309 18.248C31.1809 17.864 31.5203 17.512 31.7703 17.352L31.5203 17C31.1988 17.192 30.8238 17.592 30.538 18.04C29.7165 19.336 30.5916 19.992 32.1453 19.192C32.3239 19.096 32.4847 19 32.6454 18.904C33.1991 19.224 34.0563 19.4 35.1814 19.4C36.9852 19.4 38.8962 18.664 40.1999 18.168ZM32.449 17.784C32.449 17.048 32.8954 16.472 33.3955 16.472C33.6813 16.472 33.842 16.632 33.842 16.904C33.842 17.256 33.3419 17.864 32.6633 18.36C32.5204 18.2 32.449 18.008 32.449 17.784Z" fill="#2A2A2A"/>
<path d="M48.9357 17.784C46.096 18.856 43.9172 19.48 43.0242 19.48C42.4706 19.48 42.2384 19.336 42.2384 19.016C42.2384 18.696 42.6313 18.152 43.4707 17.24L43.7922 16.888L43.6314 16.792L43.4171 16.632L43.3993 16.648L43.3814 16.664C42.8456 17.256 40.9883 19.112 39.7202 19.112C39.6309 19.112 39.8452 18.712 40.5953 17.704C40.8454 17.368 41.0954 17.048 41.2383 16.808L40.8097 16.616C40.7025 16.84 40.4703 17.144 40.2024 17.48C39.2916 18.712 38.8273 19.528 39.7202 19.528C40.3989 19.528 41.1668 19.112 41.8812 18.616C41.8098 18.76 41.7741 18.888 41.7741 19.016C41.7741 19.576 42.2384 19.896 43.0242 19.896C44.2387 19.896 47.0783 18.936 49.1143 18.168L48.9357 17.784Z" fill="#2A2A2A"/>
<path d="M57.229 18.168L57.0504 17.784C55.2644 18.52 52.4427 19.688 49.6745 20.792C49.8352 20.6 49.9959 20.392 50.1567 20.184C50.9425 19.176 51.7104 18.2 52.3891 17.352L52.2105 17.224L52.0498 17.08L52.0319 17.096L51.8533 17.272C51.5676 16.904 51.2104 16.696 50.7817 16.696C49.7102 16.696 48.5136 17.816 48.5136 18.776C48.5136 19.176 48.7279 19.528 49.0851 19.528C49.5494 19.528 50.0852 19.24 50.621 18.872C50.3353 19.224 50.0674 19.576 49.7816 19.944C49.478 20.344 49.1744 20.728 48.8529 21.128L45.924 22.312C40.0661 24.648 39.5303 27.752 40.9234 28.424C42.7807 29.336 46.1383 25.368 49.1744 21.464C52.1391 20.264 55.3002 18.968 57.229 18.168ZM48.9779 18.776C48.9779 18.056 49.9781 17.112 50.7817 17.112C51.0854 17.112 51.3175 17.256 51.514 17.576C50.8175 18.216 49.7638 19.112 49.0851 19.112C49.0494 19.112 48.9779 18.952 48.9779 18.776ZM41.1377 28.072C40.0304 27.528 40.4947 24.936 46.1026 22.696C46.7991 22.408 47.5671 22.12 48.335 21.8C45.4775 25.432 42.6021 28.776 41.1377 28.072Z" fill="#2A2A2A"/>
<path d="M95.9541 11.368C95.2754 12.584 94.6325 13.848 94.0431 15.128C93.6502 15.16 93.2395 15.176 92.8108 15.176C91.5428 15.176 90.3105 15.08 89.1139 14.936C91.0785 12.44 92.2393 9.75199 92.2393 7.65599C92.2393 6.82399 92.0607 6.10399 91.7036 5.51199L91.2928 5.70399C91.6143 6.23199 91.775 6.88799 91.775 7.65599C91.775 9.73599 90.6141 12.408 88.6317 14.872C86.8994 14.648 85.2563 14.312 83.7204 13.992C81.5059 13.544 79.4877 13.128 77.7554 13.128C72.3261 13.128 69.3079 15.896 69.3079 18.36C69.3079 20.68 71.7368 22.232 75.4337 22.232C80.8808 22.232 85.7385 19.032 88.8103 15.32C90.0962 15.48 91.4357 15.592 92.8108 15.592C93.168 15.592 93.5074 15.576 93.8467 15.56C92.1679 19.24 91.007 22.952 91.007 25.784C91.007 29.208 92.6858 31 95.8648 31V30.584C92.9537 30.584 91.4714 28.984 91.4714 25.784C91.4714 22.952 92.6501 19.224 94.3646 15.512C96.2934 15.32 97.74 14.712 98.758 13.72L98.4008 13.448C97.5257 14.328 96.2577 14.856 94.5611 15.08C95.1326 13.88 95.7398 12.712 96.3827 11.56C99.651 5.68799 103.473 1.20799 105.134 1.20799V0.791992C103.205 0.791992 99.3831 5.25599 95.9541 11.368ZM75.4337 21.816C71.9868 21.816 69.7723 20.44 69.7723 18.36C69.7723 16.072 72.5226 13.544 77.7554 13.544C79.4342 13.544 81.3987 13.944 83.6133 14.392C85.0777 14.696 86.6672 15.016 88.3281 15.256C85.3278 18.792 80.6665 21.816 75.4337 21.816Z" fill="#2A2A2A"/>
<path d="M109.515 17.784C106.675 18.856 104.497 19.48 103.604 19.48C103.05 19.48 102.818 19.336 102.818 19.016C102.818 18.408 103.514 17.352 103.711 17.08L103.568 17L103.354 16.808L102.782 17.32C102.603 16.936 102.157 16.696 101.639 16.696C100.568 16.696 99.3709 17.816 99.3709 18.776C99.3709 19.176 99.5853 19.528 99.9425 19.528C100.657 19.528 101.8 18.712 102.639 18.008C102.478 18.344 102.353 18.712 102.353 19.016C102.353 19.576 102.818 19.896 103.604 19.896C104.818 19.896 107.658 18.936 109.694 18.168L109.515 17.784ZM99.8353 18.776C99.8353 18.056 100.835 17.112 101.639 17.112C102.032 17.112 102.353 17.336 102.407 17.64C101.603 18.312 100.532 19.112 99.9425 19.112C99.9067 19.112 99.8353 18.952 99.8353 18.776Z" fill="#2A2A2A"/>
<path d="M124.491 17.784C122.688 18.552 120.491 19.304 118.384 19.304C117.062 19.304 116.437 19.048 116.437 18.568C116.437 18.28 116.723 17.864 117.008 17.464C117.491 16.792 117.651 16.328 117.008 16.328C116.687 16.328 116.044 16.68 115.633 16.888C115.097 17.176 114.526 17.56 114.026 17.928C114.454 17.24 114.74 16.552 114.472 16.296C114.062 15.896 113.419 16.152 109.507 17.784L109.686 18.168C113.49 16.584 113.99 16.44 114.151 16.584C114.312 16.744 113.222 18.52 112.508 19.16L112.472 19.192L112.794 19.48C112.794 19.48 114.437 18.008 115.865 17.256C116.437 16.952 116.758 16.792 116.919 16.76C116.901 16.808 116.83 16.936 116.615 17.24C116.33 17.64 115.972 18.152 115.972 18.568C115.972 19.352 116.812 19.72 118.384 19.72C120.562 19.72 122.866 18.936 124.706 18.168L124.491 17.784Z" fill="#2A2A2A"/>
<path d="M136.687 18.168L136.472 17.784C134.668 18.552 132.472 19.304 130.543 19.304C129.971 19.304 129.454 19.176 128.989 18.968C129.4 18.36 129.436 17.544 129.007 16.68C128.918 16.488 128.9 16.344 128.918 16.248C129.061 16.168 129.203 16.104 129.364 16.024C129.614 15.928 129.507 15.576 129.221 15.576H129.203C129.203 15.576 128.614 15.608 128.453 16.024C127.757 16.36 127.096 16.68 126.417 16.984C125.774 16.392 125.364 16.184 125.167 16.744C125.078 17.016 125.042 17.288 125.042 17.576C124.864 17.64 124.685 17.72 124.506 17.784L124.685 18.168C124.828 18.12 124.971 18.056 125.114 18.008C125.328 19 126.132 19.848 127.078 19.848C127.757 19.848 128.311 19.64 128.686 19.304C129.239 19.544 129.864 19.72 130.543 19.72C132.543 19.72 134.847 18.936 136.687 18.168ZM128.578 16.84C128.953 17.576 128.918 18.28 128.578 18.76C127.846 18.344 127.239 17.784 126.757 17.304C127.31 17.048 127.864 16.776 128.436 16.488C128.471 16.6 128.507 16.712 128.578 16.84ZM125.596 16.872C125.632 16.824 125.614 16.808 125.989 17.176C125.828 17.24 125.667 17.32 125.507 17.384C125.507 17.208 125.542 17.032 125.596 16.872ZM127.078 19.432C126.328 19.432 125.685 18.68 125.542 17.832L126.328 17.496C126.81 17.976 127.453 18.616 128.275 19.08C127.971 19.304 127.56 19.432 127.078 19.432Z" fill="#2A2A2A"/>
<path d="M145.978 18.168L145.8 17.784C144.496 18.28 142.656 18.984 140.96 18.984C139.978 18.984 139.263 18.856 138.817 18.632C139.549 18.056 140.085 17.368 140.085 16.904C140.085 16.408 139.71 16.056 139.174 16.056C138.388 16.056 137.763 16.84 137.763 17.784C137.763 18.104 137.87 18.392 138.084 18.616C137.959 18.696 137.834 18.76 137.709 18.824C136.584 19.4 136.138 19.16 136.709 18.248C136.959 17.864 137.299 17.512 137.549 17.352L137.299 17C136.977 17.192 136.602 17.592 136.316 18.04C135.495 19.336 136.37 19.992 137.924 19.192C138.102 19.096 138.263 19 138.424 18.904C138.977 19.224 139.835 19.4 140.96 19.4C142.764 19.4 144.675 18.664 145.978 18.168ZM138.227 17.784C138.227 17.048 138.674 16.472 139.174 16.472C139.46 16.472 139.62 16.632 139.62 16.904C139.62 17.256 139.12 17.864 138.442 18.36C138.299 18.2 138.227 18.008 138.227 17.784Z" fill="#2A2A2A"/>
<path d="M160.786 17.784C158.982 18.552 156.785 19.304 154.678 19.304C153.356 19.304 152.731 19.048 152.731 18.568C152.731 18.28 153.017 17.864 153.303 17.464C153.785 16.792 153.946 16.328 153.303 16.328C152.981 16.328 152.338 16.68 151.927 16.888C151.392 17.176 150.82 17.56 150.32 17.928C150.749 17.24 151.034 16.552 150.767 16.296C150.356 15.896 149.713 16.152 145.802 17.784L145.98 18.168C149.784 16.584 150.284 16.44 150.445 16.584C150.606 16.744 149.516 18.52 148.802 19.16L148.766 19.192L149.088 19.48C149.088 19.48 150.731 18.008 152.16 17.256C152.731 16.952 153.053 16.792 153.213 16.76C153.195 16.808 153.124 16.936 152.91 17.24C152.624 17.64 152.267 18.152 152.267 18.568C152.267 19.352 153.106 19.72 154.678 19.72C156.857 19.72 159.16 18.936 161 18.168L160.786 17.784Z" fill="#2A2A2A"/>
<path d="M24.9494 5.46399C25.5031 4.63199 26.0567 3.76799 26.5925 2.87199L26.1996 2.66399C25.6638 3.54399 25.128 4.40799 24.5744 5.23999C22.592 4.10399 20.0738 3.44799 17.3235 3.44799C12.3228 3.44799 6.48283 6.27999 6.48283 11.224C6.48283 13.992 10.0547 17.032 15.091 16.472C12.0192 19.176 9.26889 20.808 7.05433 21.672L5.44698 21.352C2.92881 20.84 1 20.44 1 21.544C1 22.776 3.30386 23.336 6.87573 22.072C9.53678 22.584 12.8765 23.096 16.2162 22.744C22.6456 22.072 28.9856 17.464 28.9856 11.944C28.9856 9.31999 27.4319 7.01599 24.9494 5.46399ZM6.94717 11.224C6.94717 6.51999 12.4479 3.86399 17.3235 3.86399C20.0024 3.86399 22.4312 4.50399 24.3422 5.59199C22.2884 8.64799 20.1631 11.368 17.9485 13.688C17.1627 14.52 16.3769 15.288 15.609 15.992C10.519 16.872 6.94717 13.928 6.94717 11.224ZM16.1626 22.328C13.1444 22.632 10.144 22.232 7.62583 21.784C9.98326 20.824 12.805 19.112 15.859 16.36C17.4128 16.072 19.0737 15.464 20.806 14.408L20.556 14.056C19.1273 14.936 17.7342 15.496 16.4484 15.816C17.0556 15.24 17.6807 14.616 18.3057 13.96C20.5203 11.624 22.6634 8.90399 24.7172 5.83199C27.0568 7.28799 28.5213 9.46399 28.5213 11.944C28.5213 17.256 22.467 21.688 16.1626 22.328ZM1.46434 21.544C1.46434 21.096 2.19658 21.112 5.33983 21.752L6.28637 21.944C3.30386 22.952 1.46434 22.488 1.46434 21.544Z" stroke="#2A2A2A" stroke-width="0.8" stroke-linecap="round" mask="url(#path-1-outside-1_2866_6889)"/>
<path d="M40.1999 18.168L40.0213 17.784C38.7176 18.28 36.8781 18.984 35.1814 18.984C34.1992 18.984 33.4848 18.856 33.0383 18.632C33.7706 18.056 34.3063 17.368 34.3063 16.904C34.3063 16.408 33.9313 16.056 33.3955 16.056C32.6097 16.056 31.9846 16.84 31.9846 17.784C31.9846 18.104 32.0918 18.392 32.3061 18.616C32.1811 18.696 32.0561 18.76 31.931 18.824C30.8059 19.4 30.3594 19.16 30.9309 18.248C31.1809 17.864 31.5203 17.512 31.7703 17.352L31.5203 17C31.1988 17.192 30.8238 17.592 30.538 18.04C29.7165 19.336 30.5916 19.992 32.1453 19.192C32.3239 19.096 32.4847 19 32.6454 18.904C33.1991 19.224 34.0563 19.4 35.1814 19.4C36.9852 19.4 38.8962 18.664 40.1999 18.168ZM32.449 17.784C32.449 17.048 32.8954 16.472 33.3955 16.472C33.6813 16.472 33.842 16.632 33.842 16.904C33.842 17.256 33.3419 17.864 32.6633 18.36C32.5204 18.2 32.449 18.008 32.449 17.784Z" stroke="#2A2A2A" stroke-width="0.8" stroke-linecap="round" mask="url(#path-1-outside-1_2866_6889)"/>
<path d="M48.9357 17.784C46.096 18.856 43.9172 19.48 43.0242 19.48C42.4706 19.48 42.2384 19.336 42.2384 19.016C42.2384 18.696 42.6313 18.152 43.4707 17.24L43.7922 16.888L43.6314 16.792L43.4171 16.632L43.3993 16.648L43.3814 16.664C42.8456 17.256 40.9883 19.112 39.7202 19.112C39.6309 19.112 39.8452 18.712 40.5953 17.704C40.8454 17.368 41.0954 17.048 41.2383 16.808L40.8097 16.616C40.7025 16.84 40.4703 17.144 40.2024 17.48C39.2916 18.712 38.8273 19.528 39.7202 19.528C40.3989 19.528 41.1668 19.112 41.8812 18.616C41.8098 18.76 41.7741 18.888 41.7741 19.016C41.7741 19.576 42.2384 19.896 43.0242 19.896C44.2387 19.896 47.0783 18.936 49.1143 18.168L48.9357 17.784Z" stroke="#2A2A2A" stroke-width="0.8" stroke-linecap="round" mask="url(#path-1-outside-1_2866_6889)"/>
<path d="M57.229 18.168L57.0504 17.784C55.2644 18.52 52.4427 19.688 49.6745 20.792C49.8352 20.6 49.9959 20.392 50.1567 20.184C50.9425 19.176 51.7104 18.2 52.3891 17.352L52.2105 17.224L52.0498 17.08L52.0319 17.096L51.8533 17.272C51.5676 16.904 51.2104 16.696 50.7817 16.696C49.7102 16.696 48.5136 17.816 48.5136 18.776C48.5136 19.176 48.7279 19.528 49.0851 19.528C49.5494 19.528 50.0852 19.24 50.621 18.872C50.3353 19.224 50.0674 19.576 49.7816 19.944C49.478 20.344 49.1744 20.728 48.8529 21.128L45.924 22.312C40.0661 24.648 39.5303 27.752 40.9234 28.424C42.7807 29.336 46.1383 25.368 49.1744 21.464C52.1391 20.264 55.3002 18.968 57.229 18.168ZM48.9779 18.776C48.9779 18.056 49.9781 17.112 50.7817 17.112C51.0854 17.112 51.3175 17.256 51.514 17.576C50.8175 18.216 49.7638 19.112 49.0851 19.112C49.0494 19.112 48.9779 18.952 48.9779 18.776ZM41.1377 28.072C40.0304 27.528 40.4947 24.936 46.1026 22.696C46.7991 22.408 47.5671 22.12 48.335 21.8C45.4775 25.432 42.6021 28.776 41.1377 28.072Z" stroke="#2A2A2A" stroke-width="0.8" stroke-linecap="round" mask="url(#path-1-outside-1_2866_6889)"/>
<path d="M95.9541 11.368C95.2754 12.584 94.6325 13.848 94.0431 15.128C93.6502 15.16 93.2395 15.176 92.8108 15.176C91.5428 15.176 90.3105 15.08 89.1139 14.936C91.0785 12.44 92.2393 9.75199 92.2393 7.65599C92.2393 6.82399 92.0607 6.10399 91.7036 5.51199L91.2928 5.70399C91.6143 6.23199 91.775 6.88799 91.775 7.65599C91.775 9.73599 90.6141 12.408 88.6317 14.872C86.8994 14.648 85.2563 14.312 83.7204 13.992C81.5059 13.544 79.4877 13.128 77.7554 13.128C72.3261 13.128 69.3079 15.896 69.3079 18.36C69.3079 20.68 71.7368 22.232 75.4337 22.232C80.8808 22.232 85.7385 19.032 88.8103 15.32C90.0962 15.48 91.4357 15.592 92.8108 15.592C93.168 15.592 93.5074 15.576 93.8467 15.56C92.1679 19.24 91.007 22.952 91.007 25.784C91.007 29.208 92.6858 31 95.8648 31V30.584C92.9537 30.584 91.4714 28.984 91.4714 25.784C91.4714 22.952 92.6501 19.224 94.3646 15.512C96.2934 15.32 97.74 14.712 98.758 13.72L98.4008 13.448C97.5257 14.328 96.2577 14.856 94.5611 15.08C95.1326 13.88 95.7398 12.712 96.3827 11.56C99.651 5.68799 103.473 1.20799 105.134 1.20799V0.791992C103.205 0.791992 99.3831 5.25599 95.9541 11.368ZM75.4337 21.816C71.9868 21.816 69.7723 20.44 69.7723 18.36C69.7723 16.072 72.5226 13.544 77.7554 13.544C79.4342 13.544 81.3987 13.944 83.6133 14.392C85.0777 14.696 86.6672 15.016 88.3281 15.256C85.3278 18.792 80.6665 21.816 75.4337 21.816Z" stroke="#2A2A2A" stroke-width="0.8" stroke-linecap="round" mask="url(#path-1-outside-1_2866_6889)"/>
<path d="M109.515 17.784C106.675 18.856 104.497 19.48 103.604 19.48C103.05 19.48 102.818 19.336 102.818 19.016C102.818 18.408 103.514 17.352 103.711 17.08L103.568 17L103.354 16.808L102.782 17.32C102.603 16.936 102.157 16.696 101.639 16.696C100.568 16.696 99.3709 17.816 99.3709 18.776C99.3709 19.176 99.5853 19.528 99.9425 19.528C100.657 19.528 101.8 18.712 102.639 18.008C102.478 18.344 102.353 18.712 102.353 19.016C102.353 19.576 102.818 19.896 103.604 19.896C104.818 19.896 107.658 18.936 109.694 18.168L109.515 17.784ZM99.8353 18.776C99.8353 18.056 100.835 17.112 101.639 17.112C102.032 17.112 102.353 17.336 102.407 17.64C101.603 18.312 100.532 19.112 99.9425 19.112C99.9067 19.112 99.8353 18.952 99.8353 18.776Z" stroke="#2A2A2A" stroke-width="0.8" stroke-linecap="round" mask="url(#path-1-outside-1_2866_6889)"/>
<path d="M124.491 17.784C122.688 18.552 120.491 19.304 118.384 19.304C117.062 19.304 116.437 19.048 116.437 18.568C116.437 18.28 116.723 17.864 117.008 17.464C117.491 16.792 117.651 16.328 117.008 16.328C116.687 16.328 116.044 16.68 115.633 16.888C115.097 17.176 114.526 17.56 114.026 17.928C114.454 17.24 114.74 16.552 114.472 16.296C114.062 15.896 113.419 16.152 109.507 17.784L109.686 18.168C113.49 16.584 113.99 16.44 114.151 16.584C114.312 16.744 113.222 18.52 112.508 19.16L112.472 19.192L112.794 19.48C112.794 19.48 114.437 18.008 115.865 17.256C116.437 16.952 116.758 16.792 116.919 16.76C116.901 16.808 116.83 16.936 116.615 17.24C116.33 17.64 115.972 18.152 115.972 18.568C115.972 19.352 116.812 19.72 118.384 19.72C120.562 19.72 122.866 18.936 124.706 18.168L124.491 17.784Z" stroke="#2A2A2A" stroke-width="0.8" stroke-linecap="round" mask="url(#path-1-outside-1_2866_6889)"/>
<path d="M136.687 18.168L136.472 17.784C134.668 18.552 132.472 19.304 130.543 19.304C129.971 19.304 129.454 19.176 128.989 18.968C129.4 18.36 129.436 17.544 129.007 16.68C128.918 16.488 128.9 16.344 128.918 16.248C129.061 16.168 129.203 16.104 129.364 16.024C129.614 15.928 129.507 15.576 129.221 15.576H129.203C129.203 15.576 128.614 15.608 128.453 16.024C127.757 16.36 127.096 16.68 126.417 16.984C125.774 16.392 125.364 16.184 125.167 16.744C125.078 17.016 125.042 17.288 125.042 17.576C124.864 17.64 124.685 17.72 124.506 17.784L124.685 18.168C124.828 18.12 124.971 18.056 125.114 18.008C125.328 19 126.132 19.848 127.078 19.848C127.757 19.848 128.311 19.64 128.686 19.304C129.239 19.544 129.864 19.72 130.543 19.72C132.543 19.72 134.847 18.936 136.687 18.168ZM128.578 16.84C128.953 17.576 128.918 18.28 128.578 18.76C127.846 18.344 127.239 17.784 126.757 17.304C127.31 17.048 127.864 16.776 128.436 16.488C128.471 16.6 128.507 16.712 128.578 16.84ZM125.596 16.872C125.632 16.824 125.614 16.808 125.989 17.176C125.828 17.24 125.667 17.32 125.507 17.384C125.507 17.208 125.542 17.032 125.596 16.872ZM127.078 19.432C126.328 19.432 125.685 18.68 125.542 17.832L126.328 17.496C126.81 17.976 127.453 18.616 128.275 19.08C127.971 19.304 127.56 19.432 127.078 19.432Z" stroke="#2A2A2A" stroke-width="0.8" stroke-linecap="round" mask="url(#path-1-outside-1_2866_6889)"/>
<path d="M145.978 18.168L145.8 17.784C144.496 18.28 142.656 18.984 140.96 18.984C139.978 18.984 139.263 18.856 138.817 18.632C139.549 18.056 140.085 17.368 140.085 16.904C140.085 16.408 139.71 16.056 139.174 16.056C138.388 16.056 137.763 16.84 137.763 17.784C137.763 18.104 137.87 18.392 138.084 18.616C137.959 18.696 137.834 18.76 137.709 18.824C136.584 19.4 136.138 19.16 136.709 18.248C136.959 17.864 137.299 17.512 137.549 17.352L137.299 17C136.977 17.192 136.602 17.592 136.316 18.04C135.495 19.336 136.37 19.992 137.924 19.192C138.102 19.096 138.263 19 138.424 18.904C138.977 19.224 139.835 19.4 140.96 19.4C142.764 19.4 144.675 18.664 145.978 18.168ZM138.227 17.784C138.227 17.048 138.674 16.472 139.174 16.472C139.46 16.472 139.62 16.632 139.62 16.904C139.62 17.256 139.12 17.864 138.442 18.36C138.299 18.2 138.227 18.008 138.227 17.784Z" stroke="#2A2A2A" stroke-width="0.8" stroke-linecap="round" mask="url(#path-1-outside-1_2866_6889)"/>
<path d="M160.786 17.784C158.982 18.552 156.785 19.304 154.678 19.304C153.356 19.304 152.731 19.048 152.731 18.568C152.731 18.28 153.017 17.864 153.303 17.464C153.785 16.792 153.946 16.328 153.303 16.328C152.981 16.328 152.338 16.68 151.927 16.888C151.392 17.176 150.82 17.56 150.32 17.928C150.749 17.24 151.034 16.552 150.767 16.296C150.356 15.896 149.713 16.152 145.802 17.784L145.98 18.168C149.784 16.584 150.284 16.44 150.445 16.584C150.606 16.744 149.516 18.52 148.802 19.16L148.766 19.192L149.088 19.48C149.088 19.48 150.731 18.008 152.16 17.256C152.731 16.952 153.053 16.792 153.213 16.76C153.195 16.808 153.124 16.936 152.91 17.24C152.624 17.64 152.267 18.152 152.267 18.568C152.267 19.352 153.106 19.72 154.678 19.72C156.857 19.72 159.16 18.936 161 18.168L160.786 17.784Z" stroke="#2A2A2A" stroke-width="0.8" stroke-linecap="round" mask="url(#path-1-outside-1_2866_6889)"/>
</svg>
