<svg width="92" height="23" viewBox="0 0 92 23" fill="none" xmlns="http://www.w3.org/2000/svg">
<path fill-rule="evenodd" clip-rule="evenodd" d="M25.8846 8.98043C23.696 6.56377 20.756 5.08447 17.5235 5.08447C14.291 5.08447 11.351 6.56377 9.16238 8.98043C10.4673 9.22413 11.7966 9.54704 13.1279 9.93443C14.2652 10.2654 15.3353 10.6256 16.2324 10.9672C16.5907 11.1037 17.4883 11.502 17.5235 11.5201C17.5587 11.502 18.4562 11.1037 18.8146 10.9672C19.7117 10.6256 20.7818 10.2654 21.9191 9.93443C23.2503 9.54704 24.5797 9.22413 25.8846 8.98043ZM5.5274 13.4087C5.04989 14.6843 4.72391 16.0309 4.559 17.4189C1.8674 17.1211 0 12.8591 0 11.8405C0 10.1515 1.9598 9.307 4.0114 9.307C5.19673 9.307 6.40499 9.41024 7.58453 9.57814C6.75116 10.7141 6.05433 12.001 5.5274 13.4087ZM17.1012 12.2628C16.679 12.2628 13.1238 13.3292 10.6619 14.6907C10.113 14.9943 9.57582 15.3172 9.05393 15.6309L9.05379 15.631L9.05376 15.631C7.72141 16.432 6.48868 17.173 5.41479 17.379C5.57874 16.0907 5.88656 14.8581 6.31831 13.7047C6.86883 12.234 7.62086 10.892 8.53305 9.72759C13.1559 10.5245 17.1012 12.1827 17.1012 12.2628ZM29.3965 13.0899C29.9412 14.4586 30.3092 15.9142 30.488 17.4189C33.1796 17.1211 35.047 12.8591 35.047 11.8405C35.047 10.1515 33.0872 9.307 31.0356 9.307C29.8502 9.307 28.6419 9.41024 27.4623 9.57815C28.232 10.6273 28.8855 11.8057 29.3965 13.0899ZM24.3851 14.6907C21.9231 13.3292 18.368 12.2628 17.9457 12.2628C17.9457 12.1827 21.8911 10.5245 26.5139 9.72759C27.3632 10.8117 28.0736 12.0497 28.6119 13.4022C29.1052 14.6417 29.4538 15.9774 29.6322 17.379C28.5583 17.173 27.3256 16.432 25.9932 15.631C25.4713 15.3173 24.9341 14.9943 24.3851 14.6907Z" fill="#2A2A2A"/>
<path fill-rule="evenodd" clip-rule="evenodd" d="M39.5612 14.8526V10.0106H38.425V9.36338H39.5612V7.50537H40.3138V9.36338H41.7059V10.0106H40.3138V14.74C40.3138 15.289 40.541 15.6691 41.0241 15.6691C41.3509 15.6691 41.6347 15.5142 41.7911 15.3453L42.0751 15.9082C41.8054 16.1616 41.4786 16.3307 40.9103 16.3307C40.0014 16.3307 39.5612 15.7817 39.5612 14.8526Z" fill="#2A2A2A"/>
<path fill-rule="evenodd" clip-rule="evenodd" d="M48.4521 12.7554C48.4521 11.2492 47.5575 9.85593 45.9382 9.85593C44.3473 9.85593 43.4383 11.2492 43.4383 12.7554C43.4383 14.2755 44.3473 15.6691 45.9382 15.6691C47.5575 15.6691 48.4521 14.2755 48.4521 12.7554ZM42.643 12.7554C42.643 10.7707 43.9353 9.19434 45.9382 9.19434C47.9692 9.19434 49.2475 10.7707 49.2475 12.7554C49.2475 14.74 47.9692 16.3305 45.9382 16.3305C43.9353 16.3305 42.643 14.74 42.643 12.7554Z" fill="#2A2A2A"/>
<path fill-rule="evenodd" clip-rule="evenodd" d="M56.2634 12.7554C56.2634 11.1086 55.3972 9.85593 53.8631 9.85593C52.9112 9.85593 52.0023 10.4189 51.6046 11.0663V14.4304C52.0023 15.0778 52.9112 15.6691 53.8631 15.6691C55.3972 15.6691 56.2634 14.402 56.2634 12.7554ZM51.6046 15.0636V18.7515H50.8661V9.36323H51.6046V10.4329C52.0877 9.74334 52.9683 9.19434 53.9908 9.19434C55.8231 9.19434 57.0588 10.5736 57.0588 12.7554C57.0588 14.9231 55.8231 16.3305 53.9908 16.3305C53.0251 16.3305 52.1586 15.8378 51.6046 15.0636Z" fill="#2A2A2A"/>
<path fill-rule="evenodd" clip-rule="evenodd" d="M58.2371 12.7554C58.2371 10.7707 59.558 9.19434 61.5747 9.19434C62.768 9.19434 63.4497 9.65868 64.0037 10.3484L63.4924 10.7988C62.9952 10.1232 62.3703 9.85593 61.6172 9.85593C60.0125 9.85593 59.0324 11.1226 59.0324 12.7554C59.0324 14.3881 60.0125 15.6691 61.6172 15.6691C62.3703 15.6691 62.9952 15.3874 63.4924 14.7119L64.0037 15.1622C63.4497 15.866 62.768 16.3305 61.5747 16.3305C59.558 16.3305 58.2371 14.74 58.2371 12.7554Z" fill="#2A2A2A"/>
<path fill-rule="evenodd" clip-rule="evenodd" d="M70.7781 12.7554C70.7781 11.2492 69.8832 9.85593 68.2641 9.85593C66.6732 9.85593 65.7643 11.2492 65.7643 12.7554C65.7643 14.2755 66.6732 15.6691 68.2641 15.6691C69.8832 15.6691 70.7781 14.2755 70.7781 12.7554ZM64.9689 12.7554C64.9689 10.7707 66.2613 9.19434 68.2641 9.19434C70.2952 9.19434 71.5734 10.7707 71.5734 12.7554C71.5734 14.74 70.2952 16.3305 68.2641 16.3305C66.2613 16.3305 64.9689 14.74 64.9689 12.7554Z" fill="#2A2A2A"/>
<path fill-rule="evenodd" clip-rule="evenodd" d="M78.2485 14.4584V11.0943C77.8507 10.4328 76.956 9.85581 75.9902 9.85581C74.4703 9.85581 73.5897 11.1225 73.5897 12.7693C73.5897 14.4161 74.4703 15.669 75.9902 15.669C76.956 15.669 77.8507 15.1058 78.2485 14.4584ZM78.2485 16.1615V15.0777C77.7657 15.7816 76.8851 16.3306 75.8623 16.3306C74.0444 16.3306 72.7944 14.9509 72.7944 12.7693C72.7944 10.6158 74.0444 9.19421 75.8623 9.19421C76.8422 9.19421 77.6945 9.68671 78.2485 10.4609V6.77344H79.0014V16.1615H78.2485Z" fill="#2A2A2A"/>
<path fill-rule="evenodd" clip-rule="evenodd" d="M83.9151 9.82778C82.296 9.82778 81.4864 11.2352 81.4296 12.4177H86.415C86.4007 11.2634 85.6337 9.82778 83.9151 9.82778ZM80.6199 12.7554C80.6199 10.7848 82.0259 9.19434 83.9292 9.19434C86.0171 9.19434 87.1678 10.8411 87.1678 12.7976V12.9946H81.4296C81.5003 14.4725 82.4949 15.6971 84.114 15.6971C84.9802 15.6971 85.7757 15.3735 86.3582 14.7542L86.7417 15.2327C86.0598 15.9364 85.1933 16.3305 84.0571 16.3305C82.0543 16.3305 80.6199 14.8526 80.6199 12.7554Z" fill="#2A2A2A"/>
<path fill-rule="evenodd" clip-rule="evenodd" d="M88.7861 16.1613V9.36312H89.5247V10.5312C90.1071 9.77117 90.8881 9.22217 91.84 9.22217V10.0245C91.712 9.99636 91.6127 9.99636 91.4707 9.99636C90.7747 9.99636 89.8373 10.6156 89.5247 11.2067V16.1613H88.7861Z" fill="#2A2A2A"/>
</svg>
