<svg width="110" height="23" viewBox="0 0 110 23" fill="none" xmlns="http://www.w3.org/2000/svg">
<g clip-path="url(#clip0_1847_14997)">
<path d="M18.5512 9.54366L18.7801 9.57038L18.9975 9.61123L19.2034 9.66152L19.3982 9.72228L19.5826 9.79614L19.7534 9.8789L19.9147 9.97476L20.0629 10.0821L20.2028 10.1979L20.3301 10.3262L20.4458 10.464L20.5501 10.6149L20.6433 10.7772L20.7261 10.9475L20.7973 11.1324L20.857 11.3236L20.9073 11.5305L20.9461 11.7442L20.9728 11.9731L20.989 12.2093L20.9948 12.4592V12.5199L20.9927 12.577L20.9869 12.632L20.9707 12.7373L20.9597 12.7839L20.9461 12.8306L20.9319 12.8714L20.8932 12.9484L20.8748 12.9814L20.8492 13.0139L20.8245 13.0443L20.7973 13.0689L20.7669 13.0946L20.7371 13.1134L20.7041 13.1333L20.6679 13.1459L20.6292 13.16L20.5909 13.1716L20.5501 13.1763L20.5055 13.182H15.8473V13.1438H15.8368V14.106L15.8389 14.2349L15.8531 14.3606L15.8719 14.48L15.9023 14.5921L15.9385 14.6995L15.9851 14.8011L16.0364 14.8949L16.1008 14.9845L16.1684 15.0678L16.2491 15.1468L16.3366 15.2181L16.4303 15.2846L16.534 15.3454L16.6472 15.4004L16.7656 15.4496L16.8949 15.4941L17.0316 15.5287L17.1778 15.5628L17.3318 15.5874L17.4931 15.6062L17.6634 15.6225L17.8425 15.6303L18.029 15.634H18.0981L18.1673 15.6303H18.2322L18.2993 15.6282L18.3621 15.6261L18.425 15.6198L18.4884 15.6178L18.6099 15.6062L18.667 15.6015L18.7256 15.5921L18.8351 15.5758L18.8865 15.5675L18.9415 15.557L19.0907 15.5245L19.14 15.5104L19.1866 15.4983L19.2311 15.4858L19.2746 15.4695L19.3186 15.4554L19.3432 15.447L19.3678 15.4355L19.3961 15.4271L19.4228 15.4145L19.4532 15.403L19.4836 15.3888L19.5161 15.3726L19.5491 15.3585L19.6565 15.3014L19.6984 15.2788L19.7355 15.2568L19.8246 15.2076L19.8675 15.1809L19.9147 15.1526L19.9613 15.1222L20.0603 15.0573L20.1132 15.0232L20.1682 14.9881L20.2227 14.9494L20.2882 14.8886L20.3547 14.8341L20.3851 14.8095L20.4123 14.787L20.4427 14.765L20.4705 14.743L20.5197 14.7042L20.5684 14.6718L20.5909 14.6576L20.6129 14.6471L20.6328 14.633L20.67 14.6168L20.6878 14.6084L20.7041 14.6026L20.7172 14.5979L20.7449 14.5921H20.7895L20.8445 14.5979L20.8712 14.6026L20.8958 14.6084L20.9215 14.6168L20.9424 14.6246L20.9812 14.6471L21.0005 14.6613L21.0335 14.6938L21.0477 14.71L21.0613 14.7299L21.0828 14.7734L21.0906 14.7975L21.0964 14.8258L21.1048 14.854L21.1085 14.8808L21.1132 14.9111V14.9436L21.1163 14.9798L21.1132 15.0128L21.1105 15.0489L21.1048 15.084L21.1001 15.1165L21.066 15.2238L21.0498 15.2568L21.0335 15.293L21.0147 15.3291L20.9927 15.3642L20.9681 15.4004L20.9424 15.4334L20.8874 15.5046L20.8219 15.5758L20.7507 15.6481L20.6679 15.7194L20.6234 15.7545L20.5805 15.7927L20.5035 15.8477L20.4238 15.9027L20.3411 15.9551L20.2557 16.008L20.1682 16.0546L20.0745 16.1012L19.9786 16.1421L19.8796 16.1829L19.778 16.2217L19.6706 16.2578L19.5606 16.2903L19.4475 16.3207L19.3327 16.3511L19.2138 16.3757L18.9671 16.4202L18.8377 16.4365L18.7057 16.4527L18.5711 16.4632L18.4313 16.4752L18.2909 16.481L18.1474 16.4857H17.9986L17.744 16.4831L17.4989 16.4695L17.2653 16.4469L17.0432 16.4145L16.831 16.3757L16.6309 16.327L16.4439 16.2683L16.2653 16.2008L16.1008 16.1258L15.9463 16.0405L15.8028 15.9472L15.6687 15.843L15.5503 15.7319L15.4408 15.612L15.3413 15.48L15.2565 15.3422L15.1826 15.1935L15.1161 15.0374L15.0668 14.8703L15.026 14.6958L14.9956 14.5125L14.9794 14.3177L14.9736 14.1144V11.6462L14.9794 11.5739L14.9841 11.5085L14.9925 11.4393L15.004 11.3707L15.0145 11.3052L15.0307 11.2387L15.0469 11.1753L15.0695 11.1099L15.0915 11.047L15.1161 10.9841L15.1438 10.9234L15.2036 10.8019L15.2397 10.7421L15.2758 10.6835L15.3146 10.6264L15.3555 10.5714L15.4 10.5169L15.4466 10.4619L15.5446 10.3566L15.5975 10.3042L15.6687 10.2361L15.8227 10.1089L15.9044 10.0518L15.9898 9.99676L16.0783 9.94438L16.1721 9.89514L16.2653 9.84852L16.3638 9.80766L16.4654 9.76576L16.5702 9.73066L16.6776 9.69662L16.7896 9.66414L16.9033 9.6369L17.0212 9.61123L17.139 9.59028L17.2632 9.57404L17.3889 9.55676L17.5151 9.54366L17.6471 9.53528L17.7828 9.52743L17.9195 9.52376L18.0594 9.52166L18.3097 9.52743L18.5512 9.54366ZM17.4826 10.3849L17.271 10.4195L17.0646 10.4724L16.8646 10.5379L16.6744 10.6185L16.4911 10.7118L16.3224 10.8438L16.1799 10.9805L16.0589 11.1287L15.9631 11.2827L15.8939 11.4451L15.8494 11.6159L15.8368 11.7945V12.3005H20.1237L20.0771 11.7866L19.9451 11.3498L19.723 10.992L19.4087 10.7139L19.008 10.5132L18.513 10.3954L17.931 10.3545L17.7021 10.3624L17.4826 10.3849Z" fill="#0A0A23"/>
<path d="M106.63 6.72294C106.569 6.78318 106.508 6.87066 106.508 6.95866C106.508 7.11056 106.686 7.31642 107.016 7.6548C108.39 8.97794 109.081 10.5986 109.076 12.5524C109.071 14.7147 108.344 16.4511 106.931 17.7968C106.634 18.0629 106.512 18.2714 106.511 18.45C106.511 18.538 106.572 18.6291 106.632 18.7166C106.689 18.7779 106.811 18.8386 106.898 18.8386C107.225 18.8397 107.683 18.4531 108.28 17.7009C109.444 16.2751 109.97 14.7006 109.999 12.555C110.026 10.4079 109.354 8.95227 108.036 7.44894C107.562 6.91204 107.167 6.63285 106.896 6.63232C106.809 6.63232 106.718 6.66218 106.63 6.72294Z" fill="#0A0A23"/>
<path d="M7.44281 10.0764C7.44281 9.77935 7.62195 9.6615 7.97919 9.6615C8.15204 9.6615 9.53962 9.6615 9.71614 9.6615C10.0126 9.6615 10.1609 9.92811 10.1609 10.4153C10.6972 9.8485 11.2708 9.50959 11.8674 9.50959C12.3734 9.50959 12.7694 9.6615 13.0381 9.9585C13.3357 10.255 13.4561 10.6814 13.4561 11.1591C13.4561 11.4859 13.3053 11.6651 13.0381 11.6651C12.8595 11.6651 12.7411 11.5446 12.6819 11.3377C12.5625 10.9197 12.5033 10.7117 12.4729 10.6814C12.3546 10.4744 12.1152 10.3545 11.8187 10.3545C11.4913 10.3545 11.1645 10.4744 10.8863 10.7117C10.7077 10.8322 10.4683 11.0983 10.1609 11.4943C10.1609 11.7641 10.1609 13.1029 10.1609 15.5124C11.1304 15.5124 11.6705 15.5124 11.7763 15.5124C12.134 15.5124 12.3127 15.6643 12.3127 15.931C12.3127 16.2274 12.134 16.3783 11.7763 16.3783C11.3944 16.3783 8.32228 16.3783 7.93728 16.3783C7.58057 16.3783 7.40195 16.2274 7.40195 15.9613C7.40195 15.6643 7.58057 15.5428 7.93728 15.5428C8.02581 15.5428 8.46528 15.5428 9.25676 15.5428C9.25676 15.5407 9.25676 15.5276 9.25676 15.5046C9.25781 15.5046 9.26095 15.5046 9.26776 15.5046C9.26776 12.4984 9.26776 10.8285 9.26776 10.4944C8.46528 10.4944 8.03524 10.4944 7.97919 10.4944C7.62195 10.4944 7.44281 10.3461 7.44281 10.0764Z" fill="#0A0A23"/>
<path d="M102.488 12.9411C101.973 12.8091 104.091 10.3058 100.325 7.30857C100.325 7.30857 100.82 8.87843 98.3279 12.3817C95.8351 15.8838 99.4362 17.9697 99.4362 17.9697C99.4362 17.9697 97.7464 17.0692 99.7107 13.863C100.063 13.281 100.523 12.7541 101.094 11.5687C101.094 11.5687 101.6 12.2821 101.336 13.83C100.941 16.1688 103.048 15.4994 103.081 15.5318C103.817 16.3988 102.471 17.922 102.389 17.9697C102.308 18.0163 106.232 15.6088 103.444 11.9857C103.253 12.1769 103.005 13.0731 102.488 12.9411Z" fill="#0A0A23"/>
<path d="M0.506 9.66988C0.572523 9.66988 0.889952 9.66988 1.47086 9.66988C1.47086 9.16388 1.47086 8.88364 1.47086 8.82655C1.47086 7.35831 2.22409 6.63284 3.69128 6.63284C4.2879 6.63284 4.80438 6.75331 5.18833 6.96231C5.69433 7.25879 5.97457 7.74593 5.97457 8.31269C5.97457 8.69664 5.82423 8.8475 5.55761 8.8475C5.379 8.8475 5.20038 8.72702 5.10923 8.51802C4.99138 8.13355 4.873 7.92455 4.81223 7.82555C4.63362 7.61655 4.27638 7.49817 3.7599 7.49817C2.85843 7.49817 2.41319 7.94341 2.41319 8.8475C2.41319 8.89988 2.41319 9.17226 2.41319 9.6615C3.45504 9.6615 4.03228 9.6615 4.14804 9.6615C4.53462 9.6615 4.71323 9.80974 4.71323 10.0764C4.71323 10.3728 4.53462 10.4944 4.14804 10.4944C4.03228 10.4944 3.45504 10.4944 2.41319 10.4944C2.41319 13.7875 2.41319 15.6141 2.41319 15.9797C2.41319 16.3071 2.26233 16.4857 1.99519 16.4857C1.69819 16.4857 1.57824 16.3071 1.57824 15.9797C1.57824 15.6141 1.57824 13.797 1.57824 10.5038C1.57667 10.5038 0.558904 10.5027 0.506 10.5027C0.178619 10.5027 0 10.3545 0 10.0879C0 9.78774 0.178619 9.66988 0.506 9.66988Z" fill="#0A0A23"/>
<path d="M95.2709 6.72453C95.3317 6.78477 95.3924 6.87224 95.3924 6.96024C95.393 7.11215 95.2149 7.318 94.8849 7.65639C93.5109 8.97953 92.82 10.6002 92.8242 12.554C92.8294 14.7163 93.5565 16.4527 94.9697 17.7984C95.2667 18.0645 95.3888 18.2729 95.3893 18.4516C95.3893 18.5396 95.3291 18.6307 95.2683 18.7182C95.2112 18.7795 95.0902 18.8402 95.0022 18.8402C94.6753 18.8413 94.2175 18.4547 93.6204 17.7025C92.457 16.2767 91.9311 14.7021 91.9018 12.5566C91.8745 10.4095 92.5471 8.95386 93.865 7.45053C94.3391 6.91362 94.7345 6.63443 95.0043 6.63391C95.0918 6.63391 95.1829 6.66377 95.2709 6.72453Z" fill="#0A0A23"/>
<path d="M26.082 9.54366L26.3109 9.57038L26.5283 9.61123L26.7337 9.66152L26.929 9.72228L27.1134 9.79614L27.2837 9.8789L27.445 9.97476L27.5932 10.0821L27.7336 10.1979L27.8609 10.3262L27.9767 10.464L28.0804 10.6149L28.1741 10.7772L28.2569 10.9475L28.3281 11.1324L28.3878 11.3236L28.4381 11.5305L28.4764 11.7442L28.5036 11.9731L28.5198 12.2093L28.5256 12.4592V12.5199L28.523 12.577L28.5172 12.632L28.501 12.7373L28.4905 12.7839L28.4764 12.8306L28.4622 12.8714L28.424 12.9484L28.4051 12.9814L28.3795 13.0139L28.3548 13.0443L28.3281 13.0689L28.2977 13.0946L28.2674 13.1134L28.2349 13.1333L28.1987 13.1459L28.16 13.16L28.1212 13.1716L28.0804 13.1763L28.0364 13.182H23.3776V13.1438H23.3671V14.106L23.3718 14.2349L23.3839 14.3606L23.4059 14.48L23.4326 14.5921L23.4688 14.6995L23.5159 14.8011L23.5672 14.8949L23.6311 14.9845L23.7024 15.0678L23.7799 15.1468L23.8674 15.2181L23.9606 15.2846L24.0648 15.3454L24.178 15.4004L24.2958 15.4496L24.4257 15.4941L24.5625 15.5287L24.7081 15.5628L24.8626 15.5874L25.0234 15.6062L25.1942 15.6225L25.3728 15.6303L25.5598 15.634H25.6289L25.6976 15.6303H25.763L25.8296 15.6282L25.8929 15.6261L25.9558 15.6198L26.0187 15.6178L26.1402 15.6062L26.1978 15.6015L26.2559 15.5921L26.4209 15.5675L26.4723 15.557L26.5226 15.5455L26.5749 15.535L26.6216 15.5245L26.6708 15.5104L26.7174 15.4983L26.7619 15.4858L26.8049 15.4695L26.8494 15.4554L26.874 15.447L26.8987 15.4355L26.9264 15.4271L26.9531 15.4145L26.9835 15.403L27.0139 15.3888L27.0469 15.3726L27.0794 15.3585L27.1904 15.3014L27.2292 15.2788L27.27 15.2568L27.3109 15.2322L27.3549 15.2076L27.3984 15.1809L27.445 15.1526L27.5911 15.0573L27.6435 15.0232L27.6985 14.9881L27.7535 14.9494L27.819 14.8886L27.8855 14.8341L27.9159 14.8095L27.9426 14.787L27.973 14.765L28.0013 14.743L28.05 14.7042L28.0992 14.6718L28.1212 14.6576L28.1437 14.6471L28.1637 14.633L28.2008 14.6168L28.2181 14.6084L28.2349 14.6026L28.2475 14.5979L28.2757 14.5921H28.3197L28.3747 14.5979L28.402 14.6026L28.4261 14.6084L28.4517 14.6168L28.4732 14.6246L28.5115 14.6471L28.5314 14.6613L28.5638 14.6938L28.578 14.71L28.5921 14.7299L28.6131 14.7734L28.6215 14.7975L28.6272 14.8258L28.6356 14.854L28.6387 14.8808L28.6435 14.9111V14.9436L28.6471 14.9798L28.6435 15.0128L28.6414 15.0489L28.6356 15.084L28.6309 15.1165L28.5968 15.2238L28.5806 15.2568L28.5638 15.293L28.5455 15.3291L28.501 15.4004L28.4732 15.4334L28.4182 15.5046L28.3527 15.5758L28.2815 15.6481L28.1987 15.7194L28.1542 15.7545L28.1107 15.7927L28.0337 15.8477L27.9541 15.9027L27.8714 15.9551L27.786 16.008L27.6985 16.0546L27.6053 16.1012L27.5094 16.1421L27.4099 16.1829L27.3083 16.2217L27.2009 16.2578L27.0914 16.2903L26.9777 16.3207L26.8636 16.3511L26.7441 16.3757L26.4979 16.4202L26.368 16.4365L26.236 16.4527L26.1019 16.4632L25.9642 16.4752L25.6777 16.4857H25.5294L25.2748 16.4831L25.0297 16.4695L24.7961 16.4469L24.574 16.4145L24.3613 16.3757L24.1638 16.327L23.9748 16.2683L23.7961 16.2008L23.6311 16.1258L23.4771 16.0405L23.3336 15.9472L23.2016 15.843L23.0811 15.7319L22.9711 15.612L22.8721 15.48L22.7868 15.3422L22.7134 15.1935L22.65 15.0374L22.5977 14.8703L22.5568 14.6958L22.5264 14.5125L22.5102 14.3177L22.5039 14.1144V11.6462L22.5102 11.5739L22.5149 11.5085L22.5228 11.4393L22.5343 11.3707L22.5448 11.3052L22.5615 11.2387L22.5778 11.1753L22.5998 11.1099L22.6223 11.047L22.6469 10.9841L22.6747 10.9234L22.7344 10.8019L22.7705 10.7421L22.8067 10.6835L22.8454 10.6264L22.8863 10.5714L22.9303 10.5169L22.9774 10.4619L23.0754 10.3566L23.1278 10.3042L23.199 10.2361L23.3535 10.1089L23.4352 10.0518L23.5206 9.99676L23.6091 9.94438L23.7024 9.89514L23.7961 9.84852L23.8941 9.80766L23.9957 9.76576L24.101 9.73066L24.2084 9.69662L24.3205 9.66414L24.4336 9.6369L24.552 9.61123L24.6698 9.59028L24.7935 9.57404L24.9197 9.55676L25.0459 9.54366L25.1779 9.53528L25.3136 9.52743L25.4498 9.52376L25.5902 9.52166L25.84 9.52743L26.082 9.54366ZM25.0129 10.3849L24.8018 10.4195L24.5949 10.4724L24.3954 10.5379L24.2047 10.6185L24.0214 10.7118L23.8448 10.8438L23.6966 10.9805L23.5751 11.1287L23.4855 11.2827L23.419 11.4451L23.3802 11.6159L23.3671 11.7945V12.3005H27.654L27.6074 11.7866L27.4754 11.3498L27.2533 10.992L26.9395 10.7139L26.5388 10.5132L26.0433 10.3954L25.4618 10.3545L25.2329 10.3624L25.0129 10.3849Z" fill="#0A0A23"/>
<path d="M83.1751 9.47714L83.1914 9.48081L83.2244 9.49128L83.2406 9.49914L83.2547 9.50752L83.271 9.51538L83.3014 9.5379L83.3176 9.55205L83.3317 9.56462L83.348 9.57876L83.3747 9.61124L83.403 9.65L83.4171 9.672L83.4297 9.6919L83.4412 9.71652L83.4554 9.73852L83.458 9.76105L83.4685 9.804L83.4763 9.82862L83.4821 9.85062L83.4905 9.87314L83.4962 9.89514L83.5046 9.91767L83.5125 9.94176L83.5371 10.0072L83.5454 10.0319L83.5617 10.0764L83.5675 10.0984L83.5758 10.1209L83.5863 10.1639L83.5957 10.1838L83.5978 10.2058L83.6036 10.2246L83.7356 10.1618L83.9938 10.0413L84.1175 9.98524L84.2405 9.9339L84.3595 9.88362L84.4773 9.837L84.5931 9.79352L84.7052 9.75528L84.8152 9.71652L84.9225 9.68405L85.0263 9.65L85.1315 9.62328L85.329 9.57405L85.4259 9.55414L85.516 9.5379L85.6072 9.52376L85.6946 9.51538L85.78 9.50752L85.8654 9.50176H85.9445L86.1896 9.50752L86.4201 9.52167L86.6406 9.54576L86.8486 9.57876L87.0471 9.62328L87.2341 9.67567L87.407 9.73852L87.5714 9.80976L87.7234 9.88938L87.8637 9.98052L87.9921 10.0821L88.1099 10.1895L88.2178 10.3074L88.3137 10.4362L88.3985 10.574L88.4714 10.7201L88.5342 10.8731L88.5835 11.0386L88.6217 11.2115L88.6521 11.3927L88.6683 11.5834L88.6746 11.7829V14.2731L88.6709 14.3727L88.6662 14.4659L88.6578 14.5597L88.6463 14.6492L88.6322 14.7404L88.6138 14.8258L88.5913 14.9111L88.5667 14.9939L88.5389 15.0735L88.5096 15.1505L88.4755 15.2275L88.4373 15.3014L88.3964 15.3758L88.3519 15.447L88.3053 15.5161L88.2561 15.5816L88.2037 15.6481L88.1466 15.711L88.0858 15.7744L88.0251 15.8351L87.9596 15.8922L87.8904 15.9493L87.8276 15.9996L87.7642 16.0431L87.6956 16.0871L87.6264 16.1279L87.5552 16.1667L87.484 16.2029L87.407 16.2379L87.33 16.2683L87.2504 16.2987L87.0859 16.3537L86.9094 16.3982L86.8219 16.4166L86.7281 16.4344L86.6349 16.4469L86.4421 16.4695L86.3431 16.4773L86.2415 16.4831L86.1399 16.4857H85.9094L85.7821 16.481L85.6595 16.4716L85.538 16.4632L85.4175 16.4506L85.2986 16.4344L85.1839 16.4145L84.9529 16.3652L84.8398 16.3349L84.7298 16.3045L84.6198 16.2683L84.5124 16.2296L84.4061 16.1866L84.3013 16.1421L84.1971 16.0934L84.0955 16.0405L83.9938 15.9855L83.8948 15.9284L83.7953 15.8676L83.6995 15.8011L83.6036 15.7319V18.6045L83.6005 18.6595L83.5957 18.7119L83.59 18.7585L83.5816 18.8057L83.5701 18.8497L83.5596 18.8905L83.5454 18.9314L83.5313 18.968L83.5125 19.0042L83.4962 19.033L83.4742 19.0634L83.4554 19.088L83.4297 19.1137L83.4051 19.1346L83.3784 19.1545L83.3501 19.1687L83.3197 19.1818L83.2893 19.1933L83.2568 19.199L83.2217 19.2038H83.1495L83.1165 19.2017L83.084 19.1933L83.0536 19.1849L83.0232 19.1734L82.9682 19.1409L82.9436 19.122L82.9195 19.1L82.897 19.0718L82.8771 19.045L82.8587 19.0147L82.842 18.9817L82.8284 18.9455L82.8142 18.9047L82.8037 18.8638L82.7917 18.8193L82.7838 18.7706L82.7791 18.7203L82.7734 18.6653L82.7707 18.6103V10.0706L82.7734 10.0156L82.7755 9.96638L82.7812 9.91767L82.7875 9.87052L82.7954 9.82652L82.8058 9.78567L82.8179 9.7469L82.8305 9.70814L82.8587 9.64162L82.875 9.6149L82.8949 9.58714L82.9132 9.56252L82.9357 9.54367L82.9604 9.52376L82.9824 9.50752L83.0091 9.49338L83.0641 9.47714L83.0945 9.47138H83.1447L83.161 9.47452L83.1751 9.47714ZM85.5302 10.3896L85.406 10.3975L85.2856 10.409L85.1703 10.4258L85.0603 10.442L84.9529 10.464L84.8513 10.4912L84.7518 10.5211L84.6565 10.5551L84.5653 10.5929L84.4857 10.629L84.4029 10.673L84.3212 10.7222L84.2358 10.7793L84.1505 10.8459L84.063 10.9171L83.9718 10.9967L83.8781 11.0821L83.7822 11.1732L83.6796 11.2722L83.5732 11.3765V14.8011H83.6036V14.7896L83.8503 14.9358L84.0897 15.0678L84.3212 15.1893L84.5428 15.293L84.7581 15.3841L84.9671 15.4575L85.1666 15.5209L85.3568 15.5711L85.5406 15.6062L85.7166 15.6261L85.8848 15.634L86.0299 15.6303L86.1703 15.6261L86.3054 15.612L86.4364 15.5958L86.5636 15.5759L86.6841 15.5486L86.7994 15.5182L86.9094 15.48L87.0146 15.4391L87.1126 15.3889L87.2037 15.3375L87.3137 15.2684L87.4096 15.1935L87.4944 15.1144L87.5694 15.029L87.6322 14.9379L87.6851 14.842L87.726 14.7404L87.7585 14.6367L87.7831 14.523L87.7946 14.4051L87.8009 14.2836V11.7945L87.7946 11.6509L87.781 11.5163L87.7537 11.3927L87.7176 11.2749L87.6689 11.1649L87.6102 11.0601L87.539 10.9642L87.4594 10.8762L87.3661 10.7971L87.2608 10.7201L87.1466 10.6531L87.0529 10.6065L86.9539 10.5635L86.8486 10.5274L86.7391 10.4944L86.6207 10.464L86.4971 10.4394L86.3688 10.4195L86.2331 10.4032L86.0927 10.3928L85.9482 10.387L85.7963 10.3849L85.6616 10.387L85.5302 10.3896Z" fill="#0A0A23"/>
<path d="M35.2733 7.55581C35.8694 8.00419 36.1774 8.63957 36.1774 9.41166C36.1774 9.7689 36.0292 9.94804 35.729 9.94804C35.52 9.94804 35.3718 9.7689 35.2838 9.41166C35.2236 9.11519 35.1052 8.84752 34.9569 8.56728C34.6872 8.09166 34.1136 7.87428 33.22 7.87428C32.4364 7.87428 31.9 8.05343 31.5731 8.43843C31.274 8.79619 31.0954 9.34252 31.0954 10.145C31.0954 10.4582 31.0954 12.951 31.0954 13.2617C31.0954 14.0757 31.274 14.6414 31.6009 14.9986C31.9587 15.3862 32.505 15.5921 33.2807 15.5921C34.4515 15.5921 35.1356 15.1772 35.2838 14.3643C35.3414 14.0641 35.3718 13.9159 35.3718 13.8855C35.4326 13.7069 35.5504 13.6189 35.729 13.6189C36.0292 13.6189 36.1774 13.798 36.1774 14.1553C36.1774 14.9085 35.8773 15.4742 35.2429 15.9226C34.7375 16.2495 34.1021 16.4286 33.2692 16.4286C32.308 16.4286 31.5627 16.2191 31.0158 15.7707C30.3804 15.3558 30.1143 14.6414 30.1143 13.7069C30.1143 11.4592 30.1143 10.2084 30.1143 9.95852C30.1143 7.98166 31.1258 7.02047 33.2305 7.02047C34.0717 7.02047 34.7291 7.19909 35.2733 7.55581Z" fill="#0A0A23"/>
<path d="M78.3545 10.2654C78.5928 9.96635 78.8018 9.78773 79.0108 9.70026C79.2167 9.5824 79.5168 9.52164 79.8521 9.52164C80.874 9.52164 81.4099 10.0271 81.4099 11.0187C81.4099 11.5058 81.4099 15.3946 81.4099 15.8817C81.4099 16.2987 81.2617 16.4773 80.9652 16.4773C80.665 16.4773 80.5467 16.2987 80.5467 15.8817C80.5467 15.425 80.5467 11.7829 80.5467 11.3272C80.5467 10.7034 80.2806 10.365 79.7641 10.365C79.3765 10.365 78.9805 10.6017 78.6536 11.0601C78.6536 11.5446 78.6536 15.4354 78.6536 15.9226C78.6536 16.3374 78.5027 16.5161 78.2351 16.5161C77.9669 16.5161 77.8181 16.3374 77.8181 15.9226C77.8181 15.4716 77.8181 11.8762 77.8181 11.4257C77.8181 10.7306 77.5217 10.4032 76.9737 10.4032C76.6197 10.4032 76.2813 10.6426 75.9251 11.0983C75.9251 11.5834 75.9251 15.447 75.9251 15.931C75.9251 16.349 75.7753 16.5276 75.4762 16.5276C75.1797 16.5276 75.0618 16.349 75.0618 15.931C75.0618 15.3338 75.0618 10.5635 75.0618 9.96635C75.0618 9.66988 75.1797 9.55202 75.4191 9.55202C75.5369 9.55202 75.6548 9.6395 75.7156 9.81811C75.7753 9.89773 75.8036 10.046 75.8036 10.2246C76.0838 9.92811 76.2624 9.74897 76.3394 9.68873C76.518 9.57035 76.7564 9.50959 77.0953 9.50959C77.5709 9.50959 77.9967 9.74897 78.3545 10.2654Z" fill="#0A0A23"/>
<path d="M41.2788 9.53791L41.5941 9.58243L41.8906 9.64162L42.1604 9.72229L42.4102 9.81815L42.636 9.93391L42.8366 10.0659L43.0157 10.2162L43.1687 10.3812L43.3007 10.5682L43.4081 10.7689L43.4908 10.9883L43.5516 11.2282L43.5867 11.4802L43.5982 11.7526V14.216L43.5867 14.4884L43.5516 14.7404L43.4935 14.9798L43.4117 15.1998L43.3065 15.4004L43.1802 15.5837L43.0283 15.7519L42.8555 15.9027L42.658 16.0347L42.4385 16.1505L42.1934 16.2474L41.9267 16.327L41.6381 16.3872L41.3254 16.4307L40.9902 16.459L40.6324 16.4669L40.2532 16.4632L39.898 16.4422L39.5686 16.4003L39.2658 16.3432L38.9892 16.2662L38.7357 16.1704L38.5078 16.0567L38.3046 15.9247L38.126 15.7744L37.9694 15.6062L37.84 15.4192L37.7321 15.216L37.6504 14.9939L37.5922 14.7509L37.5571 14.4926L37.5456 14.216V11.7526L37.5571 11.4802L37.5922 11.2282L37.653 10.9883L37.7357 10.7689L37.8421 10.5682L37.9741 10.3812L38.1281 10.2162L38.3072 10.0659L38.5078 9.93391L38.7336 9.81815L38.9808 9.72229L39.2532 9.64162L39.5497 9.58243L39.865 9.53791L40.2066 9.50962L40.5722 9.50176L40.9373 9.50962L41.2788 9.53791ZM39.8771 10.3849L39.601 10.4336L39.3548 10.5028L39.1338 10.5902L38.9426 10.7002L38.7802 10.8265L38.6482 10.9758L38.5429 11.1402L38.4696 11.3236L38.4225 11.5305L38.4088 11.7526V14.216L38.4225 14.4381L38.4696 14.6414L38.5429 14.8279L38.6503 14.9939L38.786 15.139L38.9505 15.2647L39.1458 15.37L39.3711 15.4575L39.6267 15.5209L39.9122 15.5675L40.2286 15.5895L40.5722 15.5921L40.9095 15.5895L41.218 15.5675L41.5004 15.5266L41.7507 15.4638L41.9734 15.3805L42.1661 15.2768L42.3311 15.1526L42.4652 15.007L42.5705 14.8399L42.6438 14.6529L42.691 14.4439L42.7046 14.216V11.7526L42.691 11.5305L42.6438 11.3236L42.5705 11.1402L42.4631 10.9758L42.3254 10.8265L42.1604 10.7002L41.9629 10.5902L41.734 10.5028L41.4736 10.4336L41.185 10.3849L40.8629 10.3545L40.5114 10.3461L40.1819 10.3545L39.8771 10.3849Z" fill="#0A0A23"/>
<path d="M70.8483 9.44673L70.95 9.45249L71.0458 9.46087L71.139 9.46664L71.2302 9.47711L71.3203 9.48497L71.4093 9.49911L71.4942 9.50959L71.5759 9.5274L71.6555 9.53997L71.7325 9.55987L71.8095 9.57611L71.8808 9.59497L71.9557 9.61697L72.0248 9.63949L72.0903 9.66149L72.1568 9.68611L72.2197 9.7144L72.283 9.73849L72.3433 9.76887L72.4009 9.79611L72.4559 9.82649L72.5104 9.85897L72.5711 9.90349L72.6288 9.95011L72.6832 9.99673L72.7361 10.0496L72.7864 10.101L72.8351 10.1591L72.8818 10.2162L72.9263 10.277L72.9671 10.3404L73.0059 10.4058L73.0771 10.541L73.1379 10.6897L73.1646 10.7667L73.1892 10.8437L73.2112 10.9254L73.2311 11.0082L73.2474 11.0936L73.2615 11.1811L73.272 11.2722L73.2825 11.366L73.2888 11.4592L73.2945 11.5551V14.7508L73.2966 14.7933V14.8341L73.3024 14.9111L73.3081 14.9823L73.3129 15.0185L73.3186 15.051L73.3249 15.0813L73.3328 15.1143L73.3375 15.1447L73.3553 15.1997L73.3658 15.2275L73.3982 15.3013L73.4098 15.3233L73.4229 15.3453L73.437 15.3642L73.4695 15.403L73.5056 15.4391L73.5114 15.4412L73.5198 15.447L73.5245 15.4517L73.536 15.4553L73.5444 15.4611L73.5664 15.4716L73.5795 15.48L73.6072 15.4904L73.624 15.4983L73.6402 15.5046L73.6984 15.5287L73.7639 15.5549L73.7885 15.5627L73.8131 15.5732L73.8388 15.5816L73.8634 15.5921L73.8901 15.6036L73.9205 15.6141L73.9367 15.6198L73.9708 15.6366L73.9833 15.6481L73.9975 15.6565L74.0258 15.6774L74.0362 15.6911L74.0467 15.7031L74.0582 15.7157L74.0666 15.7319L74.0745 15.7461L74.0907 15.7791L74.097 15.799L74.1028 15.8152L74.1075 15.8372L74.1132 15.8561L74.1153 15.8781L74.1211 15.9006L74.1237 15.9247V15.9493L74.1274 15.975V16.085L74.1211 16.1117L74.119 16.1342L74.1132 16.1583L74.1075 16.1808L74.0991 16.2028L74.0907 16.2217L74.0802 16.2416L74.0687 16.2578L74.042 16.2903L74.0279 16.3044L74.0116 16.3186L73.9529 16.3511L73.91 16.3678L73.8854 16.3736L73.8576 16.3783L73.8026 16.3841L73.7722 16.3872H73.7172L73.7068 16.3841H73.6984L73.6869 16.3814H73.6764L73.6648 16.3783L73.6099 16.3678L73.5968 16.3615L73.5795 16.3594L73.5632 16.3537L73.5465 16.3511L73.4894 16.3348L73.4674 16.3291L73.4485 16.3233L73.4265 16.3186L73.4019 16.3128L73.3794 16.3044L73.3553 16.2987L73.2778 16.272L73.2416 16.2578L73.2065 16.2473L73.173 16.2332L73.1075 16.2112L73.0771 16.2007L73.0468 16.1913L73.0201 16.1808L72.9944 16.1724L72.9671 16.1646L72.9451 16.1562L72.9205 16.1478L72.8985 16.1421L72.8797 16.1342L72.8598 16.1279L72.8273 16.1174L72.7864 16.1012L72.7744 16.0975L72.7665 16.0933L72.7581 16.0897L72.7393 16.0871L72.722 16.085L72.7031 16.0792L72.6869 16.0734L72.6707 16.0651L72.6565 16.0546L72.6403 16.0431L72.6261 16.0326L72.612 16.0184L72.5994 16.0022L72.5853 15.9881L72.5738 15.9692L72.5633 15.953L72.5491 15.931L72.5387 15.9111L72.5303 15.8901L72.5188 15.8676L72.5083 15.843L72.492 15.7927L72.459 15.6832L72.4496 15.6528L72.3297 15.7356L72.2139 15.8126L72.1589 15.8513L72.0552 15.9168L72.0049 15.9493L71.9111 16.0101L71.8237 16.0651L71.7828 16.0897L71.744 16.1117L71.6728 16.1562L71.6367 16.1751L71.6063 16.195L71.5188 16.2379L71.4942 16.2494L71.4502 16.272L71.4277 16.2767L71.3926 16.294L71.3564 16.3044L71.2794 16.3312L71.1558 16.3652L71.115 16.3736L71.0704 16.3841L70.9337 16.4087L70.8871 16.4144L70.8405 16.4223L70.6917 16.4391L70.6393 16.4422L70.587 16.4469L70.534 16.4506L70.479 16.4527L70.4277 16.4553H70.1721L70.0867 16.4527L70.004 16.4506L69.839 16.4391L69.6802 16.4223L69.6032 16.4118L69.5262 16.3982L69.378 16.3699L69.2355 16.3374L69.1664 16.3186L69.0972 16.2966L69.0307 16.2741L68.9652 16.2494L68.8395 16.2007L68.7788 16.1703L68.718 16.1421L68.6604 16.1117L68.6022 16.0792L68.5472 16.0462L68.4922 16.0101L68.4294 15.9671L68.3686 15.9226L68.2539 15.8231L68.2015 15.7743L68.1512 15.7214L68.102 15.667L68.058 15.612L68.0145 15.5549L67.9737 15.4941L67.9375 15.4333L67.9014 15.37L67.8684 15.3071L67.8385 15.2406L67.8113 15.1751L67.7867 15.106L67.7427 14.9635L67.7259 14.8912L67.7123 14.8173L67.6898 14.6633L67.6793 14.5046V14.3396L67.684 14.259L67.6898 14.1773L67.7018 14.1003L67.7285 13.9463L67.7668 13.798L67.7914 13.7268L67.8464 13.5885L67.9129 13.4544L67.9899 13.3282L68.0308 13.2674L68.0753 13.2093L68.1219 13.1516L68.1738 13.0972L68.2235 13.0443L68.2785 12.9929L68.3356 12.9426L68.4571 12.8494L68.5226 12.8059L68.6384 12.7232L68.6991 12.6844L68.8254 12.6132L68.9574 12.5466L69.026 12.5178L69.1627 12.4618L69.2355 12.4372L69.3838 12.3937L69.4571 12.3738L69.5341 12.3554L69.6116 12.3387L69.6886 12.3251L69.7677 12.3109L69.8473 12.3004L69.9301 12.2921L70.0097 12.2842L70.0951 12.2779L70.1779 12.2722L70.2632 12.2701H70.4199L70.4911 12.2722L70.5644 12.2748L70.7127 12.2863L70.7876 12.2947L70.8646 12.3025L70.9421 12.313L71.0212 12.3272L71.0982 12.3387L71.1778 12.3554L71.2574 12.368L71.3402 12.3858L71.5047 12.4241L71.7608 12.4895L71.8462 12.5142L71.9358 12.5388L72.0248 12.5665L72.1144 12.5933L72.2055 12.6236L72.2993 12.654L72.3925 12.687V11.6347L72.3904 11.5739L72.3868 11.5163L72.382 11.4592L72.3737 11.4011L72.3621 11.3497L72.3517 11.2937L72.3354 11.2418L72.3192 11.1921L72.2993 11.1428L72.2768 11.0962L72.2527 11.0491L72.1977 10.9616L72.1647 10.9171L72.1322 10.8788L72.096 10.838L72.0191 10.7667L71.9745 10.7306L71.8808 10.6651L71.832 10.6347L71.7791 10.6064L71.667 10.5514L71.6288 10.5352L71.5455 10.5027L71.3706 10.4477L71.2302 10.4153L71.1799 10.4058L71.1333 10.3974L71.082 10.3896L71.0317 10.3812L70.9829 10.3765L70.8787 10.365L70.8237 10.3592L70.7713 10.3566L70.7163 10.3508L70.6613 10.3482H70.6069L70.5519 10.3461H70.3041L70.1742 10.3508L70.0485 10.3566L69.9301 10.3681L69.817 10.3812L69.707 10.3974L69.6053 10.4153L69.5063 10.4362L69.4126 10.4619L69.3251 10.4912L69.2434 10.5211L69.1627 10.5551L69.0894 10.5928L69.0202 10.6311L68.9574 10.6756L68.8987 10.7201L68.8442 10.7688L68.795 10.8217L68.7505 10.8788L68.7096 10.937L68.6771 10.9967L68.6441 11.0632L68.6185 11.1323L68.5975 11.2036L68.5813 11.2769L68.5755 11.3131L68.5671 11.3461L68.5451 11.4618L68.5347 11.5105L68.5284 11.5331L68.5252 11.5551L68.5205 11.5739L68.5169 11.5938L68.5121 11.6101L68.509 11.6263L68.5043 11.6546L68.498 11.6766V11.6871L68.4959 11.6954V11.7033L68.4922 11.7091V11.7232L68.4844 11.7421L68.4676 11.7745L68.4598 11.7887L68.4372 11.817L68.4294 11.8295L68.4152 11.8411L68.4048 11.8515L68.3906 11.8636L68.3801 11.8714L68.366 11.8798L68.3498 11.8882L68.3356 11.8961L68.3194 11.9008L68.3052 11.9065L68.289 11.9123L68.2707 11.9186L68.2539 11.9207L68.234 11.9264L68.2157 11.9291H68.1958L68.1769 11.9312H68.0999L68.0674 11.9291L68.0004 11.9186L67.97 11.9123L67.8883 11.8798L67.8626 11.8636L67.8385 11.8494L67.816 11.8295L67.7951 11.8133L67.7563 11.7698L67.7401 11.7442L67.7123 11.6954L67.6982 11.6651L67.6898 11.6347L67.6793 11.6043L67.6714 11.5713L67.6651 11.5388L67.663 11.5027L67.6594 11.4639V11.3738L67.663 11.3193L67.6651 11.2664L67.6735 11.2141L67.6793 11.1627L67.7018 11.0574L67.7285 10.9537L67.7448 10.9008L67.761 10.8521L67.7809 10.7992L67.8034 10.7505L67.8275 10.6976L67.8768 10.5986L67.9679 10.4498L68.0004 10.4032L68.037 10.3545L68.1512 10.2141L68.1958 10.1675L68.245 10.1088L68.3602 10.0051L68.4236 9.95587L68.5614 9.86264L68.6363 9.82073L68.7122 9.77935L68.795 9.74111L68.8778 9.70497L68.9652 9.67197L69.059 9.63949L69.1522 9.61121L69.2518 9.58449L69.3534 9.55987L69.4571 9.53787L69.5645 9.51797L69.6745 9.49911L69.906 9.47135L70.026 9.46087L70.1501 9.45249L70.2758 9.44673L70.4057 9.44411L70.5377 9.44202H70.6414L70.7467 9.44411L70.8483 9.44673ZM69.587 13.2758L69.2292 13.402L68.9516 13.5827L68.7505 13.8143L68.63 14.0966L68.5918 14.4334L68.6022 14.6083L68.6363 14.7733L68.6934 14.9294L68.7725 15.0735L68.8741 15.1997L69.004 15.3071L69.158 15.3946L69.29 15.4658L69.4351 15.5266L69.5917 15.5758L69.7599 15.6141L69.9385 15.6423L70.1276 15.6586L70.3287 15.6643L70.5052 15.6586L70.6744 15.6481L70.8405 15.6261L71.0013 15.5921L71.159 15.5512L71.3156 15.4941L71.4685 15.425L71.5738 15.3642L71.8179 15.2018L71.9557 15.106L72.1039 14.9986L72.2584 14.8828L72.4208 14.7603V13.501L72.14 13.4156L71.8598 13.3444L71.5822 13.2836L71.3098 13.237L71.0437 13.2009L70.7855 13.1799L70.5377 13.1742L70.0239 13.1988L69.587 13.2758Z" fill="#0A0A23"/>
<path d="M50.6419 6.65223L50.6743 6.66271L50.7047 6.67894L50.733 6.69518L50.7597 6.71509L50.7843 6.73761L50.8289 6.78632L50.8488 6.81671L50.865 6.8497L50.8812 6.88585L50.8954 6.92094L50.9163 7.0037L50.9326 7.09747L50.9383 7.20118L50.942 7.25618V16.0761L50.9383 16.1175L50.9362 16.1557L50.9326 16.1918L50.9163 16.2573L50.908 16.2877L50.8954 16.316L50.8839 16.3427L50.8509 16.393L50.8126 16.4312L50.7901 16.4501L50.7681 16.4642L50.7414 16.4784L50.7168 16.4909L50.6885 16.5025L50.6581 16.5108L50.5926 16.5213L50.5591 16.525H50.4994L50.4329 16.5166L50.4103 16.5108L50.392 16.5025L50.3721 16.4967L50.3532 16.4862L50.337 16.4784L50.3208 16.4663L50.3045 16.4527L50.2762 16.4255L50.2621 16.4092L50.2296 16.3511L50.2212 16.3296L50.2134 16.3039L50.2071 16.2793L50.1992 16.2552L50.1966 16.228V16.1861L50.1945 16.1641V16.1452L50.1909 16.1232V16.1044L50.1888 16.0824V16.0598L50.1851 16.0378L50.183 16.0132L50.1804 15.9912V15.9666L50.1746 15.9174V15.8896L50.1725 15.865L50.1689 15.8346V15.7775L50.1662 15.7471V15.6801L50.095 15.7246L50.0285 15.7691L49.9609 15.8121L49.8336 15.8896L49.7765 15.9278L49.6058 16.0295L49.5534 16.0598L49.5042 16.0902L49.4549 16.1175L49.3229 16.1918L49.2847 16.2107L49.2459 16.2327L49.1747 16.2657L49.1139 16.2935L49.0835 16.3039L49.039 16.3217L48.9924 16.338L48.9458 16.3511L48.8478 16.3788L48.6902 16.4113L48.6352 16.4234L48.5252 16.4396L48.4099 16.4558L48.3523 16.4616L48.2323 16.4721L48.1716 16.4747L48.1082 16.4784L48.0474 16.4805L47.9846 16.4826H47.7452L47.6352 16.4805L47.5315 16.4747L47.4262 16.4663L47.3246 16.4585L47.223 16.4443L47.1271 16.4312L46.9343 16.3977L46.7531 16.3542L46.6625 16.3296L46.5771 16.3039L46.4917 16.2751L46.3273 16.2144L46.2476 16.1777L46.1706 16.1431L46.0957 16.1044L46.0224 16.0625L45.9506 16.0216L45.8783 15.9771L45.805 15.9257L45.6625 15.81L45.5981 15.7492L45.5353 15.6864L45.4755 15.6198L45.4195 15.5517L45.3682 15.4795L45.3179 15.4082L45.2304 15.2553L45.1916 15.1746L45.1592 15.0929L45.1262 15.0075L45.0984 14.9221L45.0738 14.831L45.0549 14.7377L45.0376 14.644L45.0245 14.5487L45.013 14.4491L45.0083 14.3475V11.6211L45.013 11.5195L45.0245 11.4236L45.035 11.3304L45.0513 11.2371L45.0738 11.146L45.0958 11.058L45.1225 10.9731L45.1529 10.8898L45.1859 10.8107L45.2241 10.7311L45.2629 10.6541L45.3074 10.5792L45.3561 10.508L45.4064 10.4394L45.4614 10.3702L45.5164 10.3074L45.5772 10.244L45.64 10.1832L45.7767 10.069L45.8516 10.0161L45.9171 9.97213L45.9836 9.93075L46.0549 9.88989L46.1298 9.85165L46.2031 9.81551L46.2801 9.77937L46.4393 9.71965L46.5221 9.68927L46.6929 9.63899L46.8678 9.59551L46.959 9.57927L47.0522 9.56304L47.146 9.54889L47.2418 9.53527L47.4346 9.51851L47.5336 9.51275L47.6352 9.51066H47.8714L48.0034 9.51642L48.0663 9.51851L48.1328 9.52113L48.1936 9.52689L48.2564 9.53266L48.3141 9.53737L48.3748 9.54575L48.4901 9.56304L48.5451 9.57142L48.6551 9.59237L48.7074 9.60389L48.7567 9.61437L48.9049 9.65627L48.9494 9.67304L48.9961 9.68927L49.039 9.70551L49.0862 9.72175L49.1302 9.74165L49.1773 9.76051L49.2239 9.78251L49.2726 9.80504L49.3664 9.85375L49.5146 9.93704L49.5649 9.96585L49.7132 10.0654L49.8174 10.1366L49.8677 10.1754L49.919 10.2136L49.9714 10.2555L50.0751 10.3435V7.25618L50.0788 7.20118L50.0835 7.09747L50.1013 7.0037L50.1092 6.96285L50.1222 6.92094L50.1338 6.88585L50.15 6.8497L50.1662 6.81671L50.1851 6.78632L50.205 6.76223L50.227 6.73761L50.2495 6.71509L50.2762 6.69518L50.3009 6.67894L50.3286 6.66271L50.359 6.65223L50.4245 6.63599L50.4575 6.63232H50.5345L50.5706 6.63599L50.6419 6.65223ZM47.6572 10.4205L47.5194 10.4331L47.3853 10.4472L47.2533 10.4697L47.1297 10.4975L47.0082 10.5268L46.8961 10.5651L46.7882 10.6075L46.6866 10.6562L46.5933 10.7091L46.486 10.7861L46.3843 10.8678L46.2943 10.9564L46.2136 11.0501L46.1423 11.146L46.0826 11.2497L46.0303 11.3597L45.992 11.4755L45.9637 11.5965L45.9449 11.7206L45.9391 11.8526V14.2213L45.9449 14.358L45.9616 14.4879L45.9857 14.6115L46.0245 14.7294L46.0711 14.8394L46.1298 14.9447L46.201 15.0426L46.2827 15.1337L46.3739 15.2191L46.4776 15.2925L46.5933 15.3647L46.695 15.4119L46.8003 15.4548L46.9097 15.4936L47.0255 15.5318L47.1433 15.5648L47.2696 15.5926L47.3995 15.6172L47.5362 15.6371L47.6761 15.6502L47.8222 15.6581L47.9731 15.6617L48.2145 15.656L48.334 15.6476L48.4482 15.6371L48.6739 15.6031L48.7813 15.5821L48.8861 15.5544L48.9877 15.524L49.0835 15.491L49.1747 15.4527L49.2506 15.3998L49.3313 15.3448L49.413 15.2877L49.4958 15.2249L49.5812 15.1615L49.6686 15.0929L49.7598 15.0217L49.8499 14.9467L49.9431 14.8671L50.0405 14.7844L50.1359 14.699V11.245L50.0238 11.1643L49.9143 11.091L49.809 11.0161L49.7053 10.9475L49.6058 10.8841L49.5125 10.827L49.4214 10.772L49.336 10.7254L49.2564 10.6845L49.1831 10.6484L49.1139 10.6201L49.0149 10.5829L48.9154 10.5488L48.8138 10.5185L48.7101 10.4917L48.6058 10.4697L48.4984 10.453L48.3884 10.4367L48.2811 10.4252L48.1679 10.4168L47.9427 10.4121L47.8002 10.4147L47.6572 10.4205Z" fill="#0A0A23"/>
<path d="M65.3457 7.55581C65.9423 8.00419 66.2498 8.63957 66.2498 9.41166C66.2498 9.7689 66.1016 9.94804 65.8025 9.94804C65.5956 9.94804 65.4473 9.7689 65.3572 9.41166C65.2965 9.11519 65.1786 8.84752 65.0304 8.56728C64.7606 8.09166 64.1855 7.87428 63.2934 7.87428C62.5093 7.87428 61.9734 8.05343 61.6461 8.43843C61.3496 8.79619 61.171 9.34252 61.171 10.145C61.171 10.4582 61.171 12.951 61.171 13.2617C61.171 14.0757 61.3496 14.6414 61.6764 14.9986C62.0342 15.3862 62.5784 15.5921 63.3526 15.5921C64.5244 15.5921 65.209 15.1772 65.3572 14.3643C65.417 14.0641 65.4473 13.9159 65.4473 13.8855C65.5055 13.7069 65.626 13.6189 65.8025 13.6189C66.1016 13.6189 66.2498 13.798 66.2498 14.1553C66.2498 14.9085 65.9528 15.4742 65.3185 15.9226C64.8093 16.2495 64.175 16.4286 63.3422 16.4286C62.3799 16.4286 61.6356 16.2191 61.0914 15.7707C60.4843 15.3558 60.1873 14.6414 60.1873 13.7069C60.1873 11.4592 60.1873 10.2084 60.1873 9.95852C60.1873 7.98166 61.2092 7.02047 63.3039 7.02047C64.1472 7.02047 64.8015 7.19909 65.3457 7.55581Z" fill="#0A0A23"/>
<path d="M56.155 9.54366L56.3828 9.57038L56.6002 9.61123L56.8071 9.66152L57.002 9.72228L57.1853 9.79614L57.3597 9.8789L57.5184 9.97476L57.6688 10.0821L57.807 10.1979L57.9328 10.3262L58.0485 10.464L58.1559 10.6149L58.2497 10.7772L58.3324 10.9475L58.4037 11.1324L58.4634 11.3236L58.5137 11.5305L58.5519 11.7442L58.5791 11.9731L58.5954 12.2093L58.6011 12.4592L58.599 12.5199L58.5954 12.577L58.5907 12.632L58.5849 12.6844L58.5744 12.7373L58.5624 12.7839L58.5488 12.8306L58.5357 12.8714L58.5194 12.9102L58.4995 12.9484L58.4775 12.9814L58.4529 13.0139L58.4283 13.0443L58.3733 13.0946L58.3068 13.1333L58.2355 13.16L58.1947 13.1716L58.1538 13.1763L58.1093 13.182L53.4401 13.1826L53.4395 14.106L53.4453 14.2349L53.4558 14.3606L53.4778 14.48L53.5061 14.5921L53.5443 14.6995L53.5878 14.8011L53.6428 14.8949L53.7035 14.9845L53.7748 15.0678L53.8518 15.1468L53.9403 15.2181L54.0361 15.2846L54.1378 15.3454L54.2499 15.4004L54.3714 15.4496L54.4976 15.4941L54.6354 15.5287L54.7815 15.5628L54.9345 15.5874L55.0969 15.6062L55.2676 15.6225L55.4462 15.6303L55.6332 15.634H55.7019L55.771 15.6303H55.8365L55.9685 15.6261L56.0313 15.6198L56.0921 15.6178L56.2126 15.6062L56.2707 15.6015L56.3278 15.5921L56.4928 15.5675L56.5981 15.5455L56.6971 15.5245L56.7437 15.5104L56.7909 15.4983L56.8375 15.4858L56.8804 15.4695L56.947 15.447L56.9716 15.4355L56.9983 15.4271L57.0266 15.4145L57.057 15.403L57.0873 15.3888L57.1198 15.3726L57.1528 15.3585L57.224 15.3213L57.2623 15.3014L57.3011 15.2788L57.3419 15.2568L57.3838 15.2322L57.4273 15.2076L57.4718 15.1809L57.5184 15.1526L57.565 15.1222L57.6143 15.0898L57.7191 15.0232L57.772 14.9881L57.827 14.9494L57.8594 14.919L57.8945 14.8886L57.9249 14.8619L57.9584 14.8341L57.9878 14.8095L58.0181 14.787L58.0731 14.743L58.0988 14.7241L58.1255 14.7042L58.1501 14.688L58.1727 14.6718L58.1947 14.6576L58.2167 14.6471L58.2355 14.633L58.2743 14.6168L58.2905 14.6084L58.323 14.5979L58.3371 14.5942L58.3487 14.5921H58.3921L58.4225 14.5942L58.4503 14.5979L58.4995 14.6084L58.5241 14.6168L58.5461 14.6246L58.5687 14.6367L58.587 14.6471L58.6032 14.6613L58.6373 14.6938L58.6504 14.71L58.664 14.7299L58.6865 14.7734L58.6944 14.7975L58.7028 14.8258L58.7143 14.8808L58.7169 14.9111L58.719 14.9436V15.0128L58.7143 15.0489L58.7111 15.084L58.7028 15.1165L58.6944 15.1526L58.6839 15.1893L58.6703 15.2238L58.6535 15.2568L58.6373 15.293L58.6174 15.3291L58.5744 15.4004L58.5488 15.4334L58.5215 15.4695L58.4608 15.5408L58.3534 15.6481L58.2298 15.7545L58.1831 15.7927L58.0302 15.9027L57.9469 15.9551L57.8594 16.008L57.772 16.0546L57.6782 16.1012L57.5813 16.1421L57.4823 16.1829L57.3807 16.2217L57.2743 16.2578L57.1643 16.2903L57.0512 16.3207L56.9354 16.3511L56.8176 16.3757L56.6971 16.3982L56.5698 16.4202L56.4415 16.4365L56.3095 16.4527L56.1738 16.4632L56.0371 16.4752L55.7511 16.4857H55.6029L55.3467 16.4831L55.1026 16.4695L54.869 16.4469L54.6459 16.4145L54.4369 16.3757L54.2373 16.327L54.0466 16.2683L53.8717 16.2008L53.7035 16.1258L53.549 16.0405L53.4065 15.9472L53.2745 15.843L53.1546 15.7319L53.0435 15.612L52.9477 15.48L52.8602 15.3422L52.7853 15.1935L52.7224 15.0374L52.6695 14.8703L52.6287 14.6958L52.602 14.5125L52.5821 14.3177L52.5763 14.1144V11.7138L52.58 11.6462L52.5821 11.5739L52.5878 11.5085L52.5962 11.4393L52.6067 11.3707L52.6344 11.2387L52.6533 11.1753L52.6732 11.1099L52.6952 11.047L52.7198 10.9841L52.7465 10.9234L52.8073 10.8019L52.8434 10.7421L52.8785 10.6835L52.9173 10.6264L52.9618 10.5714L53.0027 10.5169L53.0493 10.4619L53.1488 10.3566L53.2033 10.3042L53.2745 10.2361L53.3494 10.1722L53.4291 10.1089L53.5082 10.0518L53.5935 9.99676L53.6847 9.94438L53.7748 9.89514L53.8717 9.84852L53.9675 9.80766L54.0691 9.76576L54.1739 9.73066L54.3939 9.66414L54.506 9.6369L54.6239 9.61123L54.7428 9.59028L54.8659 9.57404L54.9931 9.55676L55.1215 9.54366L55.2509 9.53528L55.3855 9.52743L55.5232 9.52376L55.6636 9.52166L55.9156 9.52743L56.155 9.54366ZM55.0885 10.3849L54.8748 10.4195L54.6684 10.4724L54.4709 10.5379L54.2781 10.6185L54.0969 10.7118L53.9183 10.8438L53.7701 10.9805L53.6506 11.1287L53.5574 11.2827L53.4919 11.4451L53.4537 11.6159L53.4395 11.7945V12.3005H57.7274L57.6829 11.7866L57.5488 11.3498L57.3257 10.992L57.0124 10.7139L56.6117 10.5132L56.1167 10.3954L55.5337 10.3545L55.3085 10.3624L55.0885 10.3849Z" fill="#0A0A23"/>
</g>
<defs>
<clipPath id="clip0_1847_14997">
<rect width="110" height="12.5714" fill="white" transform="translate(0 6.63232)"/>
</clipPath>
</defs>
</svg>
