<svg width="28" height="28" viewBox="0 0 28 28" fill="none" xmlns="http://www.w3.org/2000/svg">
<path fill-rule="evenodd" clip-rule="evenodd" d="M14.0003 3.33335C8.10929 3.33335 3.33366 8.10898 3.33366 14C3.33366 19.8911 8.10929 24.6667 14.0003 24.6667C19.8914 24.6667 24.667 19.8911 24.667 14C24.667 8.10898 19.8914 3.33335 14.0003 3.33335ZM0.666992 14C0.666992 6.63622 6.63653 0.666687 14.0003 0.666687C21.3641 0.666687 27.3337 6.63622 27.3337 14C27.3337 21.3638 21.3641 27.3334 14.0003 27.3334C6.63653 27.3334 0.666992 21.3638 0.666992 14ZM18.9431 10.3905C19.4638 10.9112 19.4638 11.7555 18.9431 12.2762L13.6098 17.6095C13.0891 18.1302 12.2449 18.1302 11.7242 17.6095L9.05752 14.9428C8.53682 14.4221 8.53682 13.5779 9.05752 13.0572C9.57822 12.5365 10.4224 12.5365 10.9431 13.0572L12.667 14.7811L17.0575 10.3905C17.5782 9.86985 18.4224 9.86985 18.9431 10.3905Z" fill="white"/>
</svg>
