<svg width="48" height="48" viewBox="0 0 48 48" fill="none" xmlns="http://www.w3.org/2000/svg">
<g clip-path="url(#clip0_220_1353)">
<path d="M25.3824 47.9987C24.4402 47.9987 23.4985 47.9987 22.5562 47.9987C22.5104 47.9171 22.4304 47.9507 22.3653 47.9465C21.0882 47.8595 19.8234 47.6814 18.5782 47.3844C13.1738 46.0961 8.71321 43.2934 5.24019 38.9618C2.24123 35.2216 0.539643 30.9418 0.0954508 26.1645C0.0730545 25.924 0.103449 25.6734 0 25.4425C0 24.5002 0 23.5585 0 22.6163C0.0607899 22.5853 0.0469255 22.5267 0.0495917 22.4766C0.106649 21.4741 0.235161 20.4806 0.423929 19.4947C1.12141 15.8542 2.58624 12.5534 4.81093 9.58911C5.14634 9.70109 5.48175 9.81414 5.8177 9.92399C6.95191 10.2962 8.08825 10.6625 9.22086 11.0401C9.75891 11.2192 9.90288 11.4688 9.82183 12.0255C9.76957 12.3844 9.67412 12.7358 9.65066 13.1005C9.56747 14.3947 9.88529 15.595 10.4937 16.7261C11.3565 18.3301 12.6475 19.5507 14.0462 20.6737C14.0697 20.6854 14.0937 20.6977 14.1171 20.7094C14.1299 20.6753 14.1251 20.6486 14.0873 20.6353C13.7833 19.9911 13.4788 19.347 13.1749 18.7023C13.6815 19.1417 14.148 19.6136 14.6397 20.0567C15.2417 20.599 15.6715 21.2341 15.8998 22.0196C16.1008 22.7112 16.5508 23.2311 17.1635 23.6076C17.5981 23.8747 18.0706 24.047 18.5654 24.1627C19.3221 24.3403 20.0911 24.3946 20.8659 24.3738C21.02 24.3696 21.1213 24.3605 21.1042 24.5818C21.0861 24.8191 21.253 24.9903 21.4348 25.1295C21.7132 25.3422 22.0358 25.4302 22.3792 25.4409C23.1284 25.4643 23.7422 25.6835 24.0717 26.4428C24.2557 26.8668 24.661 27.0683 25.0908 27.1926C25.3286 27.2614 25.5723 27.311 25.8138 27.3653C26.241 27.4613 26.6548 27.5877 26.9966 27.8778C27.461 28.2719 27.5319 28.7331 27.2061 29.2466C27.1304 29.3661 27.0494 29.485 26.9555 29.5906C26.3167 30.3083 26.1855 31.1466 26.3769 32.0547C26.6729 33.4582 27.3565 34.6671 28.2646 35.7597C28.6982 36.2817 29.2005 36.7323 29.7305 37.152C30.2083 37.5301 30.3539 38.0014 30.2152 38.5923C29.9822 39.5841 29.7166 40.5658 29.409 41.5374C29.0714 42.6023 28.6075 43.6192 28.2497 44.6755C27.9095 45.6791 27.8658 46.6576 28.5339 47.5636C27.7826 47.7209 27.0222 47.8131 26.2596 47.8953C25.9663 47.9278 25.6661 47.8958 25.3824 47.9987Z" fill="#8EC2FA"/>
<path d="M29.6901 47.3095C29.3126 47.4317 28.926 47.5106 28.5335 47.5644C27.8654 46.6579 27.9091 45.68 28.2493 44.6764C28.6076 43.62 29.0716 42.6031 29.4086 41.5382C29.7163 40.5667 29.9818 39.585 30.2148 38.5931C30.3535 38.0023 30.2079 37.5309 29.7301 37.1528C29.2001 36.7337 28.6978 36.2826 28.2642 35.7605C27.3561 34.6674 26.6725 33.4591 26.3766 32.0556C26.1851 31.1469 26.3163 30.3092 26.9551 29.5914C27.049 29.4859 27.13 29.3675 27.2057 29.2475C27.5316 28.734 27.4606 28.2722 26.9962 27.8787C26.6544 27.5886 26.2406 27.4622 25.8134 27.3662C25.5714 27.3118 25.3282 27.2622 25.0904 27.1934C24.66 27.0692 24.2553 26.8676 24.0713 26.4437C23.7418 25.6844 23.1286 25.4652 22.3788 25.4417C22.0354 25.4311 21.7128 25.3431 21.4344 25.1303C21.2526 24.9911 21.0857 24.82 21.1038 24.5827C21.1209 24.3614 21.0196 24.3704 20.8655 24.3747C20.0907 24.3955 19.3223 24.3411 18.5651 24.1635C18.0702 24.0478 17.5977 23.8751 17.1632 23.6084C16.5499 23.232 16.0999 22.7115 15.8994 22.0204C15.6711 21.235 15.2413 20.5999 14.6393 20.0576C14.1471 19.6144 13.6811 19.1425 13.1745 18.7031C13.4784 19.3473 13.7829 19.9914 14.0869 20.6361C14.073 20.6489 14.0597 20.6617 14.0458 20.6745C12.6476 19.5515 11.3561 18.3309 10.4933 16.7269C9.8849 15.5959 9.56762 14.3956 9.65027 13.1014C9.67374 12.7366 9.76919 12.3852 9.82144 12.0264C9.9025 11.4702 9.75852 11.2206 9.22048 11.0409C8.08787 10.6634 6.95152 10.2971 5.81731 9.92485C5.48137 9.81446 5.14596 9.70142 4.81055 9.58997C5.676 8.40777 6.66624 7.33808 7.73966 6.34411C7.76472 6.32065 7.79885 6.30678 7.82871 6.28812C7.86017 6.28705 7.90123 6.30145 7.89643 6.24493L7.88897 6.25079C8.67977 6.16387 9.4711 6.07589 10.2619 5.99057C10.3312 5.9831 10.3707 5.93884 10.416 5.89672C10.6128 5.71541 10.8485 5.6317 11.1124 5.5997C11.6638 5.53198 12.212 5.64556 12.7628 5.6157C13.0444 5.60023 13.3057 5.54051 13.5371 5.37254C13.6789 5.26962 13.7205 5.1907 13.5339 5.07285C13.1164 4.8089 12.6695 4.66972 12.1763 4.67452C12.1192 4.67505 12.0429 4.71291 12.0093 4.63719C11.9731 4.55561 12.0072 4.47989 12.0648 4.41803C12.1325 4.34498 12.2178 4.30178 12.3112 4.26606C12.4898 4.19833 12.6764 4.193 12.862 4.18767C14.1674 4.14928 15.4733 4.11408 16.7787 4.08102C16.8933 4.07835 17.009 4.09435 17.1232 4.10822C17.3279 4.13381 17.5146 4.20847 17.5738 4.42336C17.6281 4.62066 17.4815 4.74438 17.3231 4.87022C17.4207 4.92461 17.5002 4.97687 17.586 5.01633C18.749 5.54638 20.2341 5.12671 20.9359 4.06022C21.027 3.92158 21.0702 3.89972 21.2046 4.0101C21.5379 4.28365 21.9256 4.45749 22.3415 4.57001C22.9137 4.72465 23.5877 4.71611 23.9514 4.54441C23.6074 4.26499 23.2672 3.98877 22.9003 3.69069C26.312 3.36167 29.5392 3.68002 32.4038 5.70155C32.3036 5.71168 32.2076 5.70102 32.1111 5.69035C31.6077 5.63489 31.3448 5.82206 31.2536 6.31958C31.2259 6.47262 31.139 6.39264 31.0808 6.3809C30.1445 6.18414 29.2086 5.98364 28.2733 5.77994C28.1949 5.76287 28.0755 5.80073 28.0509 5.68022C28.0253 5.55491 28.0925 5.45466 28.1885 5.3816C28.2509 5.33414 28.3261 5.30375 28.3954 5.26589C27.5124 4.24259 25.5244 4.29965 24.6712 5.36881C24.5912 5.46959 24.5912 5.51971 24.6894 5.6013C24.9363 5.8066 25.1741 6.02256 25.4492 6.26359C24.8616 6.29292 24.3668 6.08975 24.0303 5.66582C23.9114 5.51598 23.8106 5.50478 23.6522 5.55971C23.1622 5.72928 22.7052 5.95911 22.2967 6.28012C21.8328 6.64486 21.4462 7.07519 21.1582 7.62336C21.2174 7.62923 21.2494 7.63296 21.2819 7.63509C22.7265 7.71508 24.0676 8.13155 25.3063 8.87702C25.5495 9.02313 25.7777 9.19377 26.0171 9.34628C26.4203 9.60277 26.7088 9.56224 27.0282 9.20817C27.2095 9.00713 27.3316 8.77304 27.4068 8.51335C27.5396 8.05582 27.4446 7.62176 27.2932 7.1861C27.1865 6.87895 27.2905 6.72485 27.6014 6.68005C28.9217 6.48809 30.0981 6.82136 31.1299 7.66336C31.2285 7.74388 31.3309 7.8036 31.4493 7.84359C32.5702 8.22433 33.5018 8.88235 34.2595 9.78674C34.5139 10.0902 34.749 10.4101 34.9298 10.8031C34.8039 10.8031 34.7074 10.8031 34.6109 10.8031C33.8468 10.8031 33.0826 10.8036 32.3185 10.8026C32.0209 10.802 31.7325 10.8458 31.4781 11.01C31.3059 11.1209 31.1757 11.2612 31.2739 11.5059C31.869 11.2724 32.3894 11.4585 32.8869 11.7784C33.1568 11.9522 33.393 12.1671 33.6351 12.3767C33.7615 12.4866 33.7556 12.5575 33.6431 12.6695C33.1594 13.1504 32.5728 13.3685 31.9175 13.2064C31.3309 13.0614 30.8537 13.1616 30.4239 13.5669C30.3599 13.6277 30.2842 13.6762 30.2127 13.7295C29.9994 13.8879 29.7776 14.0026 29.5104 13.8495C29.3963 14.4388 29.3984 14.4436 28.8737 14.6275C28.7442 14.6729 28.7298 14.7534 28.7191 14.8654C28.654 15.5212 28.3421 16.0348 27.8211 16.4336C27.5044 16.6763 27.169 16.8954 26.8815 17.177C26.4736 17.5769 26.3787 18.0355 26.6 18.5618C26.713 18.8311 26.825 19.1009 26.9301 19.3729C27.0362 19.6486 26.9562 19.8976 26.792 20.1237C26.6682 20.2943 26.5115 20.4394 26.2838 20.4058C26.0395 20.37 25.958 20.1615 25.9324 19.9568C25.8124 19.0113 24.8787 18.389 23.9977 18.2973C22.8502 18.1773 21.8109 18.5815 20.7913 19.0193C20.04 19.3419 19.6689 20.1002 19.7275 21.0222C19.7729 21.7373 20.2378 22.3398 20.922 22.5707C21.6995 22.8331 22.6134 22.6038 23.1179 22.0199C23.3109 21.7965 23.4805 21.8098 23.6373 22.0727C23.8052 22.3548 23.8026 22.6619 23.7551 22.9765C23.7173 23.2298 23.6591 23.4826 23.7093 23.7428C23.7807 24.115 23.9631 24.2787 24.3449 24.2878C24.5134 24.2915 24.6824 24.2739 24.8509 24.2745C25.2605 24.2755 25.4967 24.4611 25.5937 24.8584C25.67 25.1708 25.6727 25.4919 25.6993 25.8102C25.7569 26.4954 26.0593 26.7978 26.7408 26.8431C26.9626 26.8575 27.1844 26.8708 27.4062 26.8788C27.683 26.8884 27.9299 26.9652 28.1341 27.1854C28.4157 26.7092 28.8337 26.4298 29.3563 26.3034C29.8869 26.1755 30.3865 26.2635 30.8521 26.5498C30.9497 26.2603 31.0435 26.2069 31.3091 26.2912C31.5618 26.3712 31.8055 26.4746 32.0705 26.5215C32.6678 26.6261 33.2751 26.5935 33.8745 26.6687C34.8167 26.7871 35.4508 27.3497 35.5857 28.2167C36.3759 27.9773 37.1113 28.0664 37.6851 28.6956C38.2514 29.3173 38.3004 30.0516 37.972 30.8414C38.5233 30.7555 39.0432 30.7075 39.568 30.724C40.7699 30.7624 41.5889 31.4247 41.8737 32.5925C41.9937 33.0853 41.9937 33.5801 41.8817 34.0707C41.6044 35.2844 41.0706 36.3919 40.4345 37.4515C40.1838 37.8695 39.8287 38.1932 39.3946 38.4225C38.9265 38.6699 38.5255 39.0011 38.1559 39.3775C37.4776 40.0686 36.7833 40.7448 36.1083 41.4396C35.1052 42.472 33.9673 43.2932 32.608 43.8019C32.0279 44.0189 31.4637 44.2855 30.9619 44.6604C30.4095 45.0731 29.9642 45.5669 29.7781 46.2527C29.6869 46.5982 29.7056 46.9555 29.6901 47.3095Z" fill="#D2F8E7"/>
<path d="M14.087 20.6356C14.1248 20.6495 14.1296 20.6761 14.1168 20.7097C14.0934 20.698 14.0694 20.6857 14.0459 20.674C14.0598 20.6612 14.0731 20.6484 14.087 20.6356Z" fill="#D2F8E7"/>
<path d="M29.6892 47.3095C29.7047 46.9554 29.686 46.5981 29.7804 46.2504C29.9665 45.5647 30.4118 45.0704 30.9642 44.6582C31.466 44.2833 32.0302 44.0167 32.6103 43.7997C33.969 43.2909 35.1075 42.4697 36.1105 41.4374C36.7856 40.7426 37.4794 40.0669 38.1582 39.3753C38.5277 38.9983 38.9287 38.6677 39.3969 38.4203C39.8305 38.191 40.1861 37.8673 40.4368 37.4492C41.0729 36.3892 41.6062 35.2816 41.884 34.0685C41.996 33.5779 41.9965 33.083 41.876 32.5903C41.5912 31.4225 40.7722 30.7602 39.5702 30.7218C39.0455 30.7053 38.5256 30.7533 37.9742 30.8391C38.3027 30.0494 38.2537 29.3151 37.6873 28.6934C37.1136 28.0636 36.3788 27.9751 35.588 28.2145C35.4531 27.3475 34.819 26.7849 33.8768 26.6665C33.2774 26.5913 32.67 26.6238 32.0728 26.5193C31.8078 26.4729 31.5641 26.3695 31.3113 26.289C31.0453 26.2047 30.9519 26.258 30.8544 26.5476C30.3888 26.2618 29.8892 26.1733 29.3586 26.3012C28.8355 26.4276 28.4174 26.707 28.1364 27.1832C27.9322 26.963 27.6847 26.8862 27.4085 26.8766C27.1867 26.8691 26.9649 26.8558 26.743 26.8409C26.0616 26.7961 25.7592 26.4932 25.7016 25.808C25.6749 25.4896 25.6723 25.1686 25.596 24.8561C25.499 24.4589 25.2628 24.2733 24.8532 24.2722C24.6847 24.2717 24.5157 24.2893 24.3472 24.2856C23.9648 24.2765 23.783 24.1128 23.7115 23.7406C23.6614 23.4798 23.7195 23.2276 23.7574 22.9743C23.8049 22.6602 23.8075 22.3526 23.6396 22.0705C23.4828 21.8076 23.3127 21.7943 23.1202 22.0177C22.6157 22.6016 21.7017 22.8309 20.9243 22.5685C20.2396 22.3376 19.7751 21.7356 19.7298 21.02C19.6712 20.098 20.0423 19.3397 20.7936 19.0171C21.8132 18.5793 22.8525 18.1751 24 18.2951C24.8809 18.3874 25.8147 19.0091 25.9346 19.9546C25.9608 20.1593 26.0424 20.3678 26.286 20.4036C26.5143 20.4371 26.6705 20.2921 26.7942 20.1215C26.9585 19.8954 27.0385 19.6463 26.9323 19.3707C26.8273 19.0982 26.7153 18.8283 26.6023 18.5596C26.381 18.0333 26.4759 17.5747 26.8838 17.1748C27.1707 16.8932 27.5061 16.674 27.8234 16.4314C28.3438 16.0325 28.6563 15.519 28.7214 14.8631C28.7326 14.7512 28.747 14.6706 28.876 14.6253C29.4007 14.4419 29.3991 14.4365 29.5127 13.8473C29.7799 14.0004 30.0022 13.8857 30.215 13.7273C30.2864 13.6745 30.3616 13.6255 30.4262 13.5647C30.8565 13.1594 31.3337 13.0586 31.9198 13.2042C32.5751 13.3663 33.1617 13.1488 33.6454 12.6672C33.7579 12.5553 33.7643 12.4843 33.6374 12.3745C33.3958 12.1649 33.1596 11.95 32.8892 11.7762C32.3922 11.4557 31.8713 11.2696 31.2762 11.5037C31.178 11.2589 31.3081 11.1187 31.4804 11.0078C31.7347 10.8435 32.0232 10.8004 32.3208 10.8004C33.0849 10.8014 33.8491 10.8009 34.6132 10.8009C34.7097 10.8009 34.8057 10.8009 34.9321 10.8009C34.7513 10.4079 34.5161 10.0879 34.2618 9.78452C33.504 8.88014 32.573 8.22212 31.4516 7.84138C31.3332 7.80085 31.2308 7.74166 31.1322 7.66114C30.1003 6.81915 28.924 6.48587 27.6037 6.67784C27.2923 6.72317 27.1883 6.87674 27.2955 7.18389C27.4469 7.62008 27.5418 8.05361 27.4091 8.51114C27.3339 8.77083 27.2118 9.00545 27.0305 9.20595C26.711 9.56003 26.4226 9.60055 26.0194 9.34406C25.78 9.19156 25.5518 9.02145 25.3086 8.87481C24.0699 8.12933 22.7288 7.71287 21.2842 7.63288C21.2517 7.63128 21.2197 7.62702 21.1605 7.62115C21.4485 7.07298 21.8351 6.64265 22.299 6.27791C22.7074 5.95689 23.1644 5.72707 23.6545 5.55749C23.8129 5.50257 23.9136 5.51377 24.0326 5.66361C24.369 6.08754 24.8639 6.29017 25.4515 6.26138C25.1764 6.02035 24.9385 5.80385 24.6916 5.59909C24.5935 5.5175 24.593 5.46738 24.6735 5.36659C25.5262 4.29744 27.5146 4.24038 28.3977 5.26368C28.3284 5.30154 28.2527 5.33193 28.1908 5.37939C28.0953 5.45245 28.0282 5.5527 28.0532 5.67801C28.0778 5.79852 28.1967 5.76066 28.2756 5.77772C29.2109 5.98142 30.1467 6.18192 31.0831 6.37869C31.1407 6.39096 31.2276 6.47041 31.2559 6.31737C31.3471 5.81932 31.61 5.63268 32.1133 5.68814C32.2099 5.6988 32.3058 5.70947 32.4061 5.69934C29.5404 3.67781 26.3127 3.35946 22.901 3.68847C23.2679 3.98656 23.6086 4.26278 23.952 4.5422C23.5884 4.71444 22.9143 4.72243 22.3422 4.56779C21.9268 4.45528 21.5386 4.28144 21.2053 4.00789C21.0709 3.89804 21.0277 3.9199 20.9365 4.05801C20.2343 5.1245 18.7497 5.54416 17.5867 5.01412C17.5008 4.97519 17.4209 4.9224 17.3238 4.86801C17.4822 4.74216 17.6283 4.61845 17.5744 4.42115C17.5152 4.20625 17.3286 4.1316 17.1238 4.106C17.0097 4.09161 16.894 4.07561 16.7794 4.07881C15.4735 4.11187 14.1681 4.14706 12.8627 4.18546C12.6771 4.19079 12.4905 4.19559 12.3118 4.26384C12.2185 4.29904 12.1332 4.34276 12.0655 4.41582C12.0079 4.47767 11.9738 4.5534 12.01 4.63498C12.0436 4.7107 12.1199 4.67284 12.1769 4.67231C12.6702 4.66751 13.117 4.80669 13.5346 5.07064C13.7217 5.18849 13.6796 5.26741 13.5378 5.37033C13.3063 5.5383 13.0451 5.59802 12.7635 5.61349C12.2127 5.64335 11.6645 5.52977 11.1131 5.59749C10.8497 5.63002 10.6135 5.71374 10.4167 5.89451C10.3708 5.93663 10.3319 5.98089 10.2626 5.98836C9.47125 6.07368 8.68045 6.16166 7.88965 6.24858C8.22133 5.86571 8.62872 5.56709 9.02066 5.25355C10.5473 4.02975 12.1967 3.00272 13.9804 2.19486C14.0278 2.23272 14.0817 2.21619 14.1334 2.21139C14.5936 2.17299 15.0085 1.98849 15.4116 1.78746C16.1992 1.39499 17.0364 1.23395 17.9061 1.23448C20.2657 1.23608 22.5939 0.907603 24.9215 0.574859C25.3321 0.516202 25.7421 0.423417 26.0509 0.104004C28.081 0.248513 30.047 0.693239 31.9656 1.36086C32.3336 1.48884 32.6946 1.63708 33.0583 1.77626C31.8377 2.1186 30.6171 2.46094 29.3853 2.80649C29.5468 3.18829 29.8524 3.3488 30.1995 3.41492C30.7834 3.52583 31.3231 3.71354 31.7918 4.09587C32.0456 4.30277 32.3426 4.32463 32.6391 4.15826C32.8519 4.03935 33.0796 4.01588 33.3083 4.08414C33.7355 4.21159 34.1359 4.40142 34.4911 4.67444C34.707 4.84028 34.875 5.04558 34.9251 5.32287C34.9411 5.41032 34.9518 5.42738 35.0537 5.41565C35.4056 5.37459 35.5912 5.60495 35.4925 5.93663C35.3715 6.34403 35.4131 6.46294 35.7858 6.66184C36.0391 6.79675 36.2934 6.92953 36.4454 7.18229C36.7424 7.67714 37.1546 7.95176 37.7487 7.95923C37.9822 7.96243 38.1945 8.07921 38.3107 8.30797C38.4168 8.517 38.6344 8.59432 38.9538 8.5314C39.1895 8.48501 39.3767 8.29837 39.35 8.07228C39.3228 7.84458 39.4476 7.83978 39.5953 7.85098C39.8619 7.87071 40.0912 7.97309 40.2699 8.18052C40.3024 8.21838 40.329 8.31917 40.4069 8.24771C40.8042 7.88351 41.211 8.06108 41.6238 8.21039C41.7859 8.26904 41.9437 8.36876 42.1309 8.32343L42.1245 8.32023C42.1239 8.36183 42.1522 8.35649 42.1789 8.3533C43.7349 10.1386 44.9843 12.1185 45.9388 14.2856C45.2733 14.8653 44.8632 15.5926 44.692 16.4549C44.6531 16.65 44.5982 16.8303 44.4462 16.9711C44.339 17.0708 44.331 17.2009 44.3497 17.3406C44.4516 18.1042 44.5609 18.8678 44.6467 19.633C44.7208 20.2937 44.8904 20.9117 45.2536 21.4802C45.4823 21.8385 45.5196 22.264 45.5367 22.6832C45.5458 22.9135 45.5468 23.1444 45.5415 23.3748C45.5218 24.2061 45.7772 24.9452 46.2939 25.5915C46.7754 26.1935 47.2682 26.7865 47.7561 27.3837C47.1519 31.5649 45.5756 35.3413 42.9798 38.673C39.5782 43.0382 35.18 45.9033 29.8204 47.2887C29.7777 47.3009 29.7329 47.3031 29.6892 47.3095ZM22.4083 2.78836C23.6907 2.9158 24.9695 2.90834 26.2487 2.87528C26.5676 2.86728 26.8897 2.80275 27.1712 2.64545C27.7647 2.31484 28.3993 2.20179 29.068 2.22738C29.6263 2.24871 30.1542 2.10954 30.6714 1.9181C30.7434 1.89144 30.8064 1.84131 30.7824 1.732C30.1782 1.78319 29.5954 1.67388 29.0115 1.55976C28.4548 1.45098 27.9007 1.31927 27.3264 1.339C27.0625 1.34806 26.8134 1.39979 26.6215 1.59815C26.4753 1.74906 26.2951 1.73147 26.1234 1.69361C25.9346 1.65201 25.7507 1.58109 25.5688 1.5123C25.3033 1.41205 25.0425 1.30114 24.7588 1.26008C24.2357 1.18382 23.7302 1.24248 23.2556 1.47977C22.941 1.63708 22.9303 1.82052 23.197 2.04128C23.3548 2.17193 23.5516 2.22632 23.7489 2.3207C23.2972 2.51107 22.8456 2.62412 22.4083 2.78836ZM25.8834 20.9987C25.4382 21.0152 25.0239 21.0205 24.6591 21.2765C24.5231 21.3719 24.5418 21.4188 24.6629 21.4924C24.8799 21.6247 25.1204 21.605 25.3593 21.6135C25.9368 21.6332 26.5111 21.5442 27.0598 21.9041C27.472 22.1745 27.985 22.2918 28.4564 22.4693C28.6995 22.5611 28.9523 22.5979 29.2125 22.5381C29.3901 22.4971 29.4525 22.4336 29.3111 22.263C28.9757 21.8572 28.5753 21.5463 28.0703 21.3874C27.3493 21.1602 26.6087 21.0386 25.8834 20.9987ZM17.2588 3.20269C16.7884 3.15043 16.3208 3.0987 15.8723 3.04858C15.8382 2.88807 16.0845 2.99899 16.02 2.83475C15.9704 2.70837 15.8702 2.63798 15.7385 2.61932C15.5182 2.58786 15.3327 2.66571 15.1572 2.81075C15.2985 2.88114 15.4249 2.94513 15.5134 3.06298C15.5977 3.17496 15.6116 3.24748 15.4361 3.26881C15.2431 3.29281 15.0522 3.33653 14.8597 3.36853C14.4363 3.43891 14.0097 3.42238 13.5831 3.41972C13.413 3.41865 13.228 3.44371 13.228 3.64848C13.228 3.85911 13.4354 3.76633 13.541 3.77113C14.7114 3.82658 15.8569 3.61062 17.0044 3.42665C17.1238 3.40692 17.2316 3.37066 17.2588 3.20269ZM36.4209 12.2108C36.5275 12.2108 36.6342 12.2108 36.7408 12.2108C36.7584 12.2108 36.7766 12.2087 36.7936 12.2049C37.0011 12.1617 37.089 12.0018 36.9456 11.8636C36.5995 11.5298 36.2956 11.1326 35.8023 10.9859C35.7629 10.9742 35.66 10.9843 35.717 10.8857C35.7858 10.7678 35.6514 10.7865 35.645 10.7998C35.5784 10.9465 35.4301 10.8969 35.3245 10.9395C35.0265 11.059 34.8041 11.2456 34.722 11.5645C34.6894 11.6903 34.6697 11.805 34.8915 11.7549C35.1523 11.6957 35.4205 11.7661 35.6162 11.942C35.8546 12.1559 36.1148 12.2326 36.4209 12.2108ZM31.7363 23.201C30.8144 22.3275 29.9078 22.2896 29.494 23.0895C29.7255 23.0943 29.9612 23.0751 30.1654 23.2073C30.6816 23.5401 31.193 23.4137 31.7363 23.201ZM18.5636 3.29441C18.5636 3.2992 18.5636 3.30347 18.5636 3.30827C18.7678 3.30827 18.9721 3.31094 19.1763 3.3072C19.3555 3.304 19.533 3.27787 19.6845 3.17603C19.7565 3.1275 19.8727 3.07578 19.8093 2.95206C19.7533 2.84328 19.7431 2.69184 19.549 2.7073C19.0888 2.74356 18.6271 2.75689 18.1674 2.79316C17.9989 2.80649 17.8331 2.86034 17.7499 3.03525C17.6763 3.18989 17.6933 3.29547 17.8981 3.29387C18.1194 3.29281 18.3418 3.29441 18.5636 3.29441ZM22.0787 2.3527C22.2185 2.33457 22.419 2.39589 22.6013 2.29297C22.6648 2.25724 22.7234 2.21139 22.7106 2.12767C22.7021 2.07061 22.6584 2.02795 22.6029 2.02475C22.2462 2.00342 21.9577 1.79012 21.6303 1.68774C21.3605 1.60349 21.0901 1.56669 20.8395 1.73893C20.6326 1.88131 20.6427 2.01302 20.8662 2.12873C21.2298 2.31697 21.6239 2.36016 22.0787 2.3527ZM18.1221 1.9293C17.8069 1.90584 17.544 1.99809 17.3142 2.18099C17.2572 2.22632 17.1542 2.26684 17.1868 2.35856C17.2145 2.43588 17.3115 2.40389 17.3782 2.40602C17.5462 2.41135 17.7125 2.39855 17.8805 2.36923C18.2954 2.29777 18.7028 2.13407 19.1379 2.24711C19.2024 2.26364 19.2909 2.36443 19.34 2.24445C19.3784 2.1506 19.3021 2.07221 19.2291 2.02315C18.9865 1.85998 18.7161 1.84078 18.4388 1.90264C18.3268 1.92663 18.2197 1.97036 18.1221 1.9293ZM19.1507 4.26704C19.356 4.25318 19.5437 4.20199 19.7047 4.08627C19.8674 3.96949 20.1265 3.80045 20.045 3.63888C19.9303 3.41065 19.6552 3.53756 19.452 3.62448C19.2339 3.7178 19.0297 3.83352 18.7764 3.82872C18.5935 3.82552 18.6137 3.96416 18.6868 4.07081C18.7966 4.23398 18.9806 4.24731 19.1507 4.26704ZM32.1741 22.7962C32.2029 22.7877 32.2749 22.777 32.3357 22.7456C32.4792 22.6709 32.573 22.5483 32.5639 22.3846C32.5549 22.2256 32.4034 22.2203 32.2898 22.1803C32.1096 22.1169 31.923 22.111 31.7385 22.1371C31.5246 22.1675 31.4425 22.3958 31.5918 22.5488C31.7369 22.697 31.9139 22.7968 32.1741 22.7962ZM21.2042 2.77609C21.2991 2.75316 21.4533 2.82568 21.4655 2.67211C21.4778 2.51907 21.3242 2.58306 21.2421 2.56653C20.8971 2.4988 20.5846 2.36389 20.3185 2.13087C20.2433 2.06528 20.1617 1.98262 20.069 2.07541C19.9927 2.15113 20.0215 2.25938 20.0674 2.35003C20.1132 2.44068 20.1943 2.49774 20.2854 2.5356C20.5798 2.65771 20.8869 2.73663 21.2042 2.77609ZM28.0351 23.4116C28.1817 23.4201 28.2532 23.4031 28.2926 23.2772C28.33 23.1567 28.282 23.1231 28.1951 23.0815C28.1481 23.0591 28.1129 23.0138 28.0666 22.9898C27.9146 22.9098 27.7503 22.793 27.5866 22.9087C27.4933 22.9749 27.7029 23.2841 27.9002 23.3689C27.9562 23.3924 28.0164 23.4057 28.0351 23.4116Z" fill="#8EC2FA"/>
<path d="M42.1328 8.32419C41.9456 8.36952 41.7877 8.26979 41.6256 8.21114C41.2129 8.06182 40.806 7.88425 40.4087 8.24846C40.3309 8.31992 40.3042 8.21914 40.2717 8.18127C40.093 7.97383 39.8637 7.87145 39.5971 7.85172C39.4488 7.84052 39.3246 7.84532 39.3518 8.07302C39.3785 8.29912 39.1913 8.48577 38.9556 8.53216C38.6362 8.59509 38.4191 8.51776 38.3125 8.30872C38.1962 8.07995 37.9834 7.96317 37.7504 7.95997C37.1563 7.95197 36.7447 7.67787 36.4471 7.18301C36.2951 6.93024 36.0408 6.79746 35.7875 6.66254C35.4142 6.46364 35.3726 6.34472 35.4942 5.93731C35.5928 5.60615 35.4078 5.37578 35.0553 5.41631C34.9534 5.42804 34.9422 5.41098 34.9268 5.32352C34.8767 5.04676 34.7087 4.84145 34.4927 4.67507C34.1376 4.40204 33.7376 4.21274 33.3099 4.08475C33.0812 4.0165 32.8529 4.03996 32.6407 4.15888C32.3442 4.32472 32.0472 4.30339 31.7933 4.09649C31.3246 3.71414 30.7849 3.52643 30.201 3.41551C29.8539 3.34992 29.5483 3.18887 29.3867 2.80706C30.618 2.4615 31.8392 2.11915 33.0598 1.77679C35.3011 2.67267 37.3403 3.90824 39.2083 5.43177C40.2087 6.2482 41.1334 7.14301 41.9877 8.11088C42.0437 8.17541 42.128 8.2234 42.1328 8.32419Z" fill="#D2F8E7"/>
<path d="M47.7562 27.3852C47.2682 26.7879 46.7755 26.195 46.2939 25.5929C45.7767 24.9466 45.5218 24.2075 45.5415 23.3761C45.5468 23.1458 45.5458 22.9149 45.5367 22.6845C45.5197 22.2659 45.4823 21.8398 45.2536 21.4815C44.8904 20.913 44.7208 20.2949 44.6467 19.6342C44.5608 18.8685 44.4515 18.1054 44.3497 17.3417C44.331 17.2026 44.339 17.0719 44.4462 16.9722C44.5982 16.8309 44.6531 16.6512 44.692 16.456C44.8632 15.5932 45.2738 14.8658 45.9388 14.2867C46.5584 15.615 47.0053 17.0031 47.3487 18.4253C47.8665 20.569 48.0617 22.7469 47.9844 24.9482C47.9545 25.7641 47.8895 26.5784 47.7562 27.3852Z" fill="#D2F8E7"/>
<path d="M26.0514 0.104508C25.7432 0.423932 25.3326 0.516719 24.9219 0.575378C22.5943 0.908134 20.266 1.23716 17.9063 1.23502C17.0366 1.23449 16.1994 1.39554 15.4117 1.78802C15.0081 1.98906 14.5937 2.17356 14.1335 2.21196C14.0813 2.21623 14.0279 2.23329 13.9805 2.19543C15.2011 1.60351 16.4783 1.1641 17.7853 0.810547C20.1647 0.167433 22.5895 -0.0746685 25.0489 0.0191857C25.3827 0.031984 25.7213 0.0287844 26.0514 0.104508Z" fill="#D2F8E7"/>
<path d="M7.89683 6.24396C7.90162 6.30102 7.86056 6.28662 7.8291 6.28715C7.8515 6.27275 7.87443 6.25836 7.89683 6.24396Z" fill="#8EC2FA"/>
<path d="M42.1784 8.35435C42.1518 8.35702 42.1235 8.36288 42.124 8.32129C42.1422 8.33195 42.1603 8.34315 42.1784 8.35435Z" fill="#D2F8E7"/>
<path d="M22.4092 2.78843C22.8465 2.62419 23.2976 2.51113 23.7498 2.32076C23.5525 2.22637 23.3557 2.17198 23.1979 2.04133C22.9312 1.82109 22.9419 1.63712 23.2565 1.4798C23.7311 1.2425 24.2367 1.18384 24.7598 1.2601C25.0435 1.30169 25.3048 1.41208 25.5698 1.51233C25.7517 1.58112 25.9351 1.65151 26.1244 1.69364C26.2961 1.7315 26.4764 1.7491 26.6225 1.59819C26.8145 1.39981 27.0635 1.34862 27.3275 1.33902C27.9012 1.31929 28.4558 1.45101 29.0126 1.55979C29.5965 1.67391 30.1793 1.78323 30.7835 1.73204C30.8075 1.84136 30.7446 1.89148 30.6726 1.91815C30.1553 2.10905 29.6274 2.24877 29.0691 2.22744C28.4004 2.20184 27.7653 2.31489 27.1723 2.64552C26.8907 2.80229 26.5686 2.86682 26.2497 2.87535C24.9704 2.90841 23.6917 2.91588 22.4092 2.78843Z" fill="#D2F8E7"/>
<path d="M25.8845 20.9993C26.6103 21.0399 27.3504 21.1614 28.0714 21.3881C28.5764 21.547 28.9764 21.8573 29.3123 22.2637C29.4536 22.4343 29.3912 22.4978 29.2137 22.5389C28.954 22.5986 28.7012 22.5618 28.4575 22.4701C27.9861 22.2925 27.4731 22.1752 27.0609 21.9048C26.5122 21.5449 25.9378 21.6339 25.3603 21.6142C25.1214 21.6062 24.8814 21.6254 24.6639 21.4931C24.5428 21.4195 24.5242 21.3721 24.6601 21.2772C25.0249 21.0212 25.4392 21.0153 25.8845 20.9993Z" fill="#D2F8E7"/>
<path d="M17.2594 3.20275C17.2322 3.37073 17.1244 3.40753 17.0061 3.42619C15.8579 3.61017 14.713 3.82614 13.5425 3.77068C13.4369 3.76588 13.2295 3.85867 13.2295 3.64803C13.2295 3.44325 13.4151 3.41819 13.5846 3.41926C14.0107 3.42192 14.4379 3.43846 14.8613 3.36806C15.0538 3.33607 15.2442 3.29234 15.4377 3.26834C15.6132 3.24648 15.5993 3.17449 15.5151 3.06251C15.4265 2.94465 15.3001 2.88066 15.1588 2.81027C15.3343 2.66576 15.5199 2.58737 15.7401 2.61883C15.8718 2.6375 15.9715 2.70789 16.0217 2.83427C16.0862 2.99851 15.8403 2.8876 15.8739 3.04811C16.3213 3.09823 16.789 3.15049 17.2594 3.20275Z" fill="#D2F8E7"/>
<path d="M36.4218 12.2108C36.1157 12.2327 35.8555 12.1559 35.6171 11.9415C35.4219 11.766 35.1532 11.6957 34.8924 11.7543C34.6711 11.8044 34.6903 11.6898 34.7228 11.5639C34.8049 11.2451 35.0278 11.0584 35.3254 10.939C35.4315 10.8963 35.5798 10.9459 35.6459 10.7992C35.6518 10.7859 35.7867 10.7672 35.7179 10.8851C35.6608 10.9838 35.7637 10.9736 35.8032 10.9854C36.2959 11.1325 36.6004 11.5293 36.9465 11.8631C37.09 12.0012 37.002 12.1612 36.7945 12.2044C36.7775 12.2081 36.7593 12.2103 36.7417 12.2103C36.6346 12.2108 36.5284 12.2108 36.4218 12.2108Z" fill="#D2F8E7"/>
<path d="M31.7379 23.2017C31.194 23.4145 30.6826 23.5409 30.1675 23.2081C29.9627 23.0759 29.7275 23.0951 29.4961 23.0903C29.9099 22.2904 30.8159 22.3282 31.7379 23.2017Z" fill="#D2F8E7"/>
<path d="M18.5646 3.29448C18.3428 3.29448 18.121 3.29342 17.8991 3.29502C17.6938 3.29662 17.6773 3.19103 17.7509 3.03639C17.8341 2.86148 17.9999 2.80762 18.1684 2.79428C18.6281 2.75749 19.0904 2.74469 19.5501 2.70843C19.7442 2.69296 19.7543 2.84494 19.8103 2.9532C19.8738 3.07638 19.7581 3.12864 19.6855 3.17717C19.5346 3.27902 19.3565 3.30462 19.1773 3.30835C18.9731 3.31208 18.7689 3.30942 18.5646 3.30942C18.5646 3.30355 18.5646 3.29928 18.5646 3.29448Z" fill="#D2F8E7"/>
<path d="M22.0798 2.35276C21.6249 2.36023 21.2308 2.31703 20.8666 2.12932C20.6426 2.0136 20.633 1.88189 20.8399 1.73951C21.0906 1.56673 21.3609 1.60353 21.6308 1.68831C21.9582 1.7907 22.2472 2.00401 22.6034 2.02534C22.6589 2.02854 22.7026 2.0712 22.7112 2.12826C22.724 2.21198 22.6658 2.25784 22.6018 2.29357C22.42 2.39595 22.2195 2.33463 22.0798 2.35276Z" fill="#D2F8E7"/>
<path d="M18.1228 1.92936C18.2203 1.97042 18.3275 1.92723 18.439 1.9027C18.7163 1.84137 18.9866 1.86004 19.2293 2.02322C19.3023 2.07228 19.3786 2.15067 19.3402 2.24452C19.2911 2.3645 19.2021 2.26372 19.1381 2.24719C18.7035 2.1336 18.2961 2.29785 17.8807 2.3693C17.7127 2.3981 17.5468 2.41143 17.3783 2.4061C17.3117 2.40397 17.2141 2.43596 17.1869 2.35864C17.1544 2.26692 17.2573 2.22639 17.3143 2.18106C17.5452 1.99815 17.8076 1.9059 18.1228 1.92936Z" fill="#D2F8E7"/>
<path d="M19.152 4.26716C18.9824 4.24743 18.7985 4.2341 18.6875 4.07092C18.615 3.96427 18.5942 3.82562 18.7771 3.82882C19.0304 3.83309 19.2352 3.7179 19.4528 3.62458C19.6559 3.53766 19.9311 3.41074 20.0458 3.63898C20.1274 3.80056 19.8682 3.9696 19.7055 4.08638C19.5445 4.20264 19.3573 4.2533 19.152 4.26716Z" fill="#D2F8E7"/>
<path d="M32.1742 22.7962C31.9145 22.7973 31.7369 22.697 31.5919 22.5488C31.442 22.3957 31.5247 22.1675 31.7385 22.1371C31.923 22.111 32.1097 22.1168 32.2899 22.1803C32.4035 22.2203 32.5555 22.2256 32.564 22.3845C32.5731 22.5482 32.4792 22.6709 32.3358 22.7455C32.2744 22.777 32.2024 22.7871 32.1742 22.7962Z" fill="#D2F8E7"/>
<path d="M21.2052 2.77614C20.8879 2.73668 20.5813 2.65775 20.2859 2.53564C20.1947 2.49777 20.1137 2.44072 20.0678 2.35006C20.0219 2.25994 19.9937 2.15169 20.0694 2.07543C20.1622 1.98318 20.2443 2.0653 20.319 2.13089C20.5851 2.36339 20.8975 2.49831 21.2426 2.56657C21.3252 2.58256 21.4788 2.51911 21.466 2.67215C21.4537 2.82573 21.3002 2.75321 21.2052 2.77614Z" fill="#D2F8E7"/>
<path d="M28.0358 23.4123C28.0171 23.4065 27.9568 23.3931 27.9009 23.3691C27.7041 23.2843 27.494 22.975 27.5873 22.9089C27.751 22.7927 27.9153 22.91 28.0672 22.99C28.1136 23.0145 28.1488 23.0593 28.1957 23.0817C28.2827 23.1233 28.3307 23.1569 28.2933 23.2774C28.2539 23.4038 28.1824 23.4209 28.0358 23.4123Z" fill="#D2F8E7"/>
</g>
<defs>
<clipPath id="clip0_220_1353">
<rect width="48" height="47.9984" fill="white"/>
</clipPath>
</defs>
</svg>
