<?xml version="1.0" encoding="utf-8"?>
<svg version="1.1" xmlns="http://www.w3.org/2000/svg" xmlns:xlink="http://www.w3.org/1999/xlink" x="0px" y="0px"
	 viewBox="0 0 16 16" enable-background="new 0 0 16 16" xml:space="preserve">
<path fill-rule="evenodd" clip-rule="evenodd" fill="#AAAAAA" d="M12.7,11.2298c0.9-1.1925,1.4-2.5839,1.4-4.1739
	C14.1,3.1801,11,0,7.1,0S0,3.1801,0,7.0559s3.2,7.0559,7.1,7.0559c1.6,0,3.1-0.4969,4.2-1.3913l3,2.9814C14.5,15.9006,14.8,16,15,16
	s0.5-0.0994,0.7-0.2981c0.4-0.3975,0.4-0.9938,0-1.3913L12.7,11.2298z M7.1,12.0248c-2.8,0-5.1-2.1863-5.1-4.9689
	s2.3-5.0683,5.1-5.0683s5.1,2.2857,5.1,5.0683S9.9,12.0248,7.1,12.0248L7.1,12.0248z"/>
</svg>
