<svg xmlns="http://www.w3.org/2000/svg" width="86" height="86"><g id="Profile-Web" fill="none" fill-rule="evenodd" stroke="none" stroke-width="1"><g id="Profile-User-Main-Completely-Empty" stroke="#444" stroke-linecap="round" stroke-linejoin="round" stroke-width="2" transform="translate(-645 -636)"><g id="robot" transform="translate(646 637)"><path id="Stroke-387" fill="#F0F0F0" d="M84 25.375C84 20.749 80.238 17 75.6 17H8.4C3.76 17 0 20.75 0 25.375v50.25C0 80.251 3.76 84 8.4 84h67.2c4.638 0 8.4-3.75 8.4-8.375v-50.25h0Z"/><path id="Stroke-389" d="M11 17V7"/><path id="Stroke-391" d="M72 17V7"/><path id="Stroke-393" d="M21 0H1v7h20V0Z"/><path id="Stroke-395" d="M83 0H63v7h20V0Z"/><path id="Stroke-396" fill="#FFF" d="M70 46H14v25h56V46h0Z"/><circle id="Oval-5" cx="31" cy="32" r="4" fill="#FFF"/><circle id="Oval-5" cx="53" cy="32" r="4" fill="#FFF"/><path id="Stroke-399" d="M25 71V46"/><path id="Stroke-400" d="M36 71V46"/><path id="Stroke-401" d="M47 71V46"/><path id="Stroke-402" d="M58 71V46"/><path id="Stroke-540" d="M70 58H14"/></g></g></g></svg>