<svg xmlns="http://www.w3.org/2000/svg">
    <path
        d="M28 13.3333V14.3333C28.5523 14.3333 29 13.8856 29 13.3333H28ZM28 18.6666H29C29 18.1143 28.5523 17.6666 28 17.6666V18.6666ZM4 18.6666V17.6666C3.44772 17.6666 3 18.1143 3 18.6666H4ZM4 13.3333H3C3 13.8856 3.44772 14.3333 4 14.3333V13.3333ZM21 6.66663C21 6.11434 20.5523 5.66663 20 5.66663C19.4477 5.66663 19 6.11434 19 6.66663H21ZM19 9.33329C19 9.88558 19.4477 10.3333 20 10.3333C20.5523 10.3333 21 9.88558 21 9.33329H19ZM21 14.6666C21 14.1143 20.5523 13.6666 20 13.6666C19.4477 13.6666 19 14.1143 19 14.6666H21ZM19 17.3333C19 17.8856 19.4477 18.3333 20 18.3333C20.5523 18.3333 21 17.8856 21 17.3333H19ZM21 22.6666C21 22.1143 20.5523 21.6666 20 21.6666C19.4477 21.6666 19 22.1143 19 22.6666H21ZM19 25.3333C19 25.8856 19.4477 26.3333 20 26.3333C20.5523 26.3333 21 25.8856 21 25.3333H19ZM6.66667 5.66663C4.64162 5.66663 3 7.30825 3 9.33329H5C5 8.41282 5.74619 7.66663 6.66667 7.66663V5.66663ZM25.3333 5.66663H6.66667V7.66663H25.3333V5.66663ZM29 9.33329C29 7.30825 27.3584 5.66663 25.3333 5.66663V7.66663C26.2538 7.66663 27 8.41282 27 9.33329H29ZM29 13.3333V9.33329H27V13.3333H29ZM26.3333 16C26.3333 15.0795 27.0795 14.3333 28 14.3333V12.3333C25.975 12.3333 24.3333 13.9749 24.3333 16H26.3333ZM28 17.6666C27.0795 17.6666 26.3333 16.9204 26.3333 16H24.3333C24.3333 18.025 25.975 19.6666 28 19.6666V17.6666ZM29 22.6666V18.6666H27V22.6666H29ZM25.3333 26.3333C27.3584 26.3333 29 24.6917 29 22.6666H27C27 23.5871 26.2538 24.3333 25.3333 24.3333V26.3333ZM6.66667 26.3333H25.3333V24.3333H6.66667V26.3333ZM3 22.6666C3 24.6917 4.64162 26.3333 6.66667 26.3333V24.3333C5.74619 24.3333 5 23.5871 5 22.6666H3ZM3 18.6666V22.6666H5V18.6666H3ZM5.66667 16C5.66667 16.9204 4.92047 17.6666 4 17.6666V19.6666C6.02504 19.6666 7.66667 18.025 7.66667 16H5.66667ZM4 14.3333C4.92047 14.3333 5.66667 15.0795 5.66667 16H7.66667C7.66667 13.9749 6.02504 12.3333 4 12.3333V14.3333ZM3 9.33329V13.3333H5V9.33329H3ZM19 6.66663V9.33329H21V6.66663H19ZM19 14.6666V17.3333H21V14.6666H19ZM19 22.6666V25.3333H21V22.6666H19Z"
    />
</svg>
