<svg width="400" height="92" viewBox="0 0 400 92" fill="none" xmlns="http://www.w3.org/2000/svg">
<path d="M146.276 1.9268C146.461 1.9268 146.609 2.00072 146.72 2.14856C146.868 2.25943 146.942 2.40726 146.942 2.59206V3.86712C146.942 4.05191 146.868 4.21822 146.72 4.36606C146.609 4.47693 146.461 4.53237 146.276 4.53237H135.3C135.152 4.53237 135.078 4.60628 135.078 4.75412V40.0678C135.078 40.2526 135.004 40.4189 134.856 40.5667C134.745 40.6776 134.598 40.7331 134.413 40.7331H132.805C132.62 40.7331 132.454 40.6776 132.306 40.5667C132.195 40.4189 132.14 40.2526 132.14 40.0678V4.75412C132.14 4.60628 132.066 4.53237 131.918 4.53237H121.496C121.311 4.53237 121.145 4.47693 120.997 4.36606C120.886 4.21822 120.831 4.05191 120.831 3.86712V2.59206C120.831 2.40726 120.886 2.25943 120.997 2.14856C121.145 2.00072 121.311 1.9268 121.496 1.9268H146.276Z" fill="white"/>
<path d="M164.277 41.1766C161.727 41.1766 159.472 40.6591 157.513 39.6243C155.591 38.5525 154.095 37.0742 153.023 35.1893C151.988 33.2675 151.471 31.0685 151.471 28.5922V14.0676C151.471 11.5914 151.988 9.41087 153.023 7.52599C154.095 5.60416 155.591 4.12583 157.513 3.09099C159.472 2.0192 161.727 1.48331 164.277 1.48331C166.827 1.48331 169.081 2.0192 171.04 3.09099C172.999 4.12583 174.514 5.60416 175.586 7.52599C176.658 9.41087 177.194 11.5914 177.194 14.0676V28.5922C177.194 31.0685 176.658 33.2675 175.586 35.1893C174.514 37.0742 172.999 38.5525 171.04 39.6243C169.081 40.6591 166.827 41.1766 164.277 41.1766ZM164.277 38.6264C167.27 38.6264 169.673 37.721 171.484 35.91C173.331 34.099 174.255 31.6967 174.255 28.7031V14.0122C174.255 11.0555 173.331 8.6717 171.484 6.86075C169.673 5.01283 167.27 4.08887 164.277 4.08887C161.32 4.08887 158.936 5.01283 157.125 6.86075C155.314 8.6717 154.409 11.0555 154.409 14.0122V28.7031C154.409 31.6967 155.314 34.099 157.125 35.91C158.936 37.721 161.32 38.6264 164.277 38.6264Z" fill="white"/>
<path d="M202.089 1.81593C205.23 1.81593 207.762 2.79533 209.684 4.75412C211.606 6.67595 212.567 9.22608 212.567 12.4045C212.567 15.546 211.587 18.0776 209.628 19.9994C207.707 21.9213 205.157 22.8822 201.978 22.8822H190.447C190.299 22.8822 190.225 22.9561 190.225 23.1039V40.0678C190.225 40.2526 190.151 40.4189 190.004 40.5667C189.893 40.6776 189.745 40.7331 189.56 40.7331H187.952C187.768 40.7331 187.601 40.6776 187.453 40.5667C187.343 40.4189 187.287 40.2526 187.287 40.0678V2.48118C187.287 2.29639 187.343 2.14855 187.453 2.03768C187.601 1.88985 187.768 1.81593 187.952 1.81593H202.089ZM201.867 20.3875C204.196 20.3875 206.062 19.6668 207.466 18.2254C208.908 16.7471 209.628 14.8253 209.628 12.4599C209.628 10.0576 208.908 8.13581 207.466 6.69443C206.062 5.2161 204.196 4.47693 201.867 4.47693H190.447C190.299 4.47693 190.225 4.55085 190.225 4.69868V20.1657C190.225 20.3136 190.299 20.3875 190.447 20.3875H201.867Z" fill="white"/>
<path d="M232.238 41.232C229.725 41.232 227.508 40.7331 225.586 39.7352C223.664 38.7373 222.167 37.3329 221.095 35.5219C220.061 33.674 219.543 31.5674 219.543 29.2021V13.4024C219.543 11.037 220.061 8.96737 221.095 7.19337C222.167 5.38241 223.664 3.97799 225.586 2.98012C227.508 1.98224 229.725 1.48331 232.238 1.48331C234.715 1.48331 236.914 1.98224 238.835 2.98012C240.757 3.94103 242.236 5.30849 243.27 7.08249C244.342 8.85649 244.878 10.9077 244.878 13.2361C244.878 13.4208 244.804 13.5872 244.656 13.735C244.545 13.8459 244.398 13.9013 244.213 13.9013L242.605 13.9567C242.162 13.9567 241.94 13.8459 241.94 13.6241V13.2915C241.94 10.5196 241.053 8.30212 239.279 6.63899C237.505 4.93891 235.158 4.08887 232.238 4.08887C229.282 4.08887 226.916 4.93891 225.142 6.63899C223.368 8.30212 222.481 10.5196 222.481 13.2915V29.3684C222.481 32.1402 223.368 34.3762 225.142 36.0763C226.953 37.7764 229.319 38.6264 232.238 38.6264C235.158 38.6264 237.505 37.7764 239.279 36.0763C241.053 34.3762 241.94 32.1402 241.94 29.3684C241.94 28.9618 242.162 28.7586 242.605 28.7586L244.213 28.814C244.656 28.814 244.878 28.9064 244.878 29.0912V29.3684C244.878 31.6967 244.342 33.7664 243.27 35.5774C242.236 37.3514 240.757 38.7373 238.835 39.7352C236.914 40.7331 234.715 41.232 232.238 41.232Z" fill="white"/>
<path d="M266.467 41.1766C263.917 41.1766 261.662 40.6591 259.703 39.6243C257.781 38.5525 256.285 37.0742 255.213 35.1893C254.178 33.2675 253.661 31.0685 253.661 28.5922V14.0676C253.661 11.5914 254.178 9.41087 255.213 7.52599C256.285 5.60416 257.781 4.12583 259.703 3.09099C261.662 2.0192 263.917 1.48331 266.467 1.48331C269.017 1.48331 271.271 2.0192 273.23 3.09099C275.189 4.12583 276.704 5.60416 277.776 7.52599C278.848 9.41087 279.384 11.5914 279.384 14.0676V28.5922C279.384 31.0685 278.848 33.2675 277.776 35.1893C276.704 37.0742 275.189 38.5525 273.23 39.6243C271.271 40.6591 269.017 41.1766 266.467 41.1766ZM266.467 38.6264C269.46 38.6264 271.863 37.721 273.674 35.91C275.521 34.099 276.445 31.6967 276.445 28.7031V14.0122C276.445 11.0555 275.521 8.6717 273.674 6.86075C271.863 5.01283 269.46 4.08887 266.467 4.08887C263.51 4.08887 261.126 5.01283 259.315 6.86075C257.504 8.6717 256.599 11.0555 256.599 14.0122V28.7031C256.599 31.6967 257.504 34.099 259.315 35.91C261.126 37.721 263.51 38.6264 266.467 38.6264Z" fill="white"/>
<path d="M290.53 40.7331C290.346 40.7331 290.179 40.6776 290.031 40.5667C289.921 40.4189 289.865 40.2526 289.865 40.0678V2.59206C289.865 2.40726 289.921 2.25943 290.031 2.14856C290.179 2.00072 290.346 1.9268 290.53 1.9268H303.281C306.829 1.9268 309.638 2.86924 311.708 4.75412C313.777 6.60204 314.812 9.13368 314.812 12.3491V30.3108C314.812 33.5262 313.777 36.0763 311.708 37.9612C309.638 39.8091 306.829 40.7331 303.281 40.7331H290.53ZM292.803 37.9058C292.803 38.0536 292.877 38.1275 293.025 38.1275H303.447C306.034 38.1275 308.067 37.4068 309.545 35.9654C311.061 34.4871 311.837 32.4914 311.874 29.9782V12.6817C311.874 10.1685 311.116 8.19125 309.601 6.74987C308.123 5.27153 306.071 4.53237 303.447 4.53237H293.025C292.877 4.53237 292.803 4.60628 292.803 4.75412V37.9058Z" fill="white"/>
<path d="M349.303 3.86712C349.303 4.05191 349.229 4.21822 349.082 4.36606C348.971 4.47693 348.823 4.53237 348.638 4.53237H327.738C327.59 4.53237 327.516 4.60628 327.516 4.75412V19.7222C327.516 19.8701 327.59 19.944 327.738 19.944H342.54C342.725 19.944 342.873 20.0179 342.983 20.1657C343.131 20.2766 343.205 20.4245 343.205 20.6092V21.8843C343.205 22.0691 343.131 22.2354 342.983 22.3832C342.873 22.4941 342.725 22.5496 342.54 22.5496H327.738C327.59 22.5496 327.516 22.6235 327.516 22.7713V37.9058C327.516 38.0536 327.59 38.1275 327.738 38.1275H348.638C348.823 38.1275 348.971 38.2014 349.082 38.3493C349.229 38.4601 349.303 38.608 349.303 38.7928V40.0678C349.303 40.2526 349.229 40.4189 349.082 40.5667C348.971 40.6776 348.823 40.7331 348.638 40.7331H325.243C325.059 40.7331 324.892 40.6776 324.744 40.5667C324.634 40.4189 324.578 40.2526 324.578 40.0678V2.59206C324.578 2.40726 324.634 2.25943 324.744 2.14856C324.892 2.00072 325.059 1.9268 325.243 1.9268H348.638C348.823 1.9268 348.971 2.00072 349.082 2.14856C349.229 2.25943 349.303 2.40726 349.303 2.59206V3.86712Z" fill="white"/>
<path d="M382.03 40.7331C381.697 40.7331 381.438 40.5667 381.253 40.2341L372.716 22.605C372.679 22.4941 372.605 22.4387 372.494 22.4387H362.072C361.924 22.4387 361.85 22.5126 361.85 22.6604V40.0678C361.85 40.2526 361.776 40.4189 361.629 40.5667C361.518 40.6776 361.37 40.7331 361.185 40.7331H359.577C359.393 40.7331 359.226 40.6776 359.078 40.5667C358.968 40.4189 358.912 40.2526 358.912 40.0678V2.48118C358.912 2.29639 358.968 2.14855 359.078 2.03768C359.226 1.88985 359.393 1.81593 359.577 1.81593H373.437C376.541 1.81593 379.036 2.77685 380.921 4.69868C382.843 6.62051 383.804 9.13368 383.804 12.2382C383.804 14.8992 383.064 17.1352 381.586 18.9461C380.145 20.7201 378.204 21.8104 375.765 22.2169C375.58 22.2909 375.525 22.3832 375.599 22.4941L384.081 39.9569C384.155 40.1048 384.192 40.2156 384.192 40.2896C384.192 40.5852 383.988 40.7331 383.582 40.7331H382.03ZM362.072 4.47693C361.924 4.47693 361.85 4.55085 361.85 4.69868V19.7777C361.85 19.9255 361.924 19.9994 362.072 19.9994H373.16C375.451 19.9994 377.299 19.2972 378.703 17.8928C380.145 16.4514 380.865 14.585 380.865 12.2936C380.865 9.92829 380.145 8.04341 378.703 6.63899C377.299 5.19762 375.451 4.47693 373.16 4.47693H362.072Z" fill="white"/>
<path d="M150.241 89.9505C149.672 89.9505 149.286 89.6659 149.082 89.0967L147.375 83.4255C147.334 83.2222 147.212 83.1206 147.009 83.1206H132.069C131.865 83.1206 131.743 83.2222 131.703 83.4255L129.995 89.0967C129.792 89.6659 129.406 89.9505 128.837 89.9505H121.763C121.397 89.9505 121.133 89.8488 120.97 89.6456C120.807 89.4016 120.787 89.1171 120.909 88.7918L133.898 48.1173C134.101 47.5482 134.487 47.2636 135.057 47.2636H144.021C144.59 47.2636 144.976 47.5482 145.18 48.1173L158.169 88.7918C158.209 88.8731 158.23 88.9951 158.23 89.1577C158.23 89.4016 158.148 89.6049 157.986 89.7675C157.823 89.8895 157.599 89.9505 157.315 89.9505H150.241ZM133.837 76.0468C133.796 76.3313 133.898 76.4736 134.142 76.4736H144.936C145.18 76.4736 145.281 76.3313 145.24 76.0468L139.752 57.4475C139.712 57.2849 139.63 57.2035 139.508 57.2035C139.427 57.2035 139.346 57.2849 139.264 57.4475L133.837 76.0468Z" fill="white"/>
<path d="M177.403 90.4383C174.232 90.4383 171.447 89.8285 169.048 88.6089C166.65 87.3486 164.8 85.6005 163.499 83.3645C162.198 81.1285 161.548 78.547 161.548 75.6199V61.5332C161.548 58.6061 162.198 56.0246 163.499 53.7886C164.8 51.5526 166.65 49.8248 169.048 48.6052C171.447 47.3856 174.232 46.7757 177.403 46.7757C180.533 46.7757 183.277 47.3652 185.635 48.5442C188.034 49.6825 189.884 51.329 191.185 53.4837C192.526 55.5977 193.197 58.0573 193.197 60.8624C193.197 61.2283 192.872 61.4519 192.221 61.5332L185.696 61.9601H185.452C184.883 61.9601 184.599 61.8584 184.599 61.6552V61.2893C184.599 59.1346 183.928 57.4068 182.586 56.1059C181.285 54.8049 179.558 54.1545 177.403 54.1545C175.208 54.1545 173.439 54.8049 172.097 56.1059C170.797 57.4068 170.146 59.1346 170.146 61.2893V75.9858C170.146 78.0998 170.797 79.8073 172.097 81.1082C173.439 82.4091 175.208 83.0596 177.403 83.0596C179.558 83.0596 181.285 82.4091 182.586 81.1082C183.928 79.8073 184.599 78.0998 184.599 75.9858C184.599 75.7825 184.68 75.6199 184.843 75.4979C185.046 75.3353 185.31 75.2743 185.635 75.315L192.16 75.6199C192.851 75.7012 193.197 75.8028 193.197 75.9248V76.2297C193.197 79.0348 192.526 81.5147 191.185 83.6694C189.884 85.8241 188.034 87.4909 185.635 88.6699C183.277 89.8488 180.533 90.4383 177.403 90.4383Z" fill="white"/>
<path d="M225.991 89.9505C225.422 89.9505 225.036 89.6659 224.832 89.0967L223.125 83.4255C223.084 83.2222 222.962 83.1206 222.759 83.1206H207.819C207.615 83.1206 207.493 83.2222 207.453 83.4255L205.745 89.0967C205.542 89.6659 205.156 89.9505 204.587 89.9505H197.513C197.147 89.9505 196.883 89.8488 196.72 89.6456C196.557 89.4016 196.537 89.1171 196.659 88.7918L209.648 48.1173C209.851 47.5482 210.238 47.2636 210.807 47.2636H219.771C220.34 47.2636 220.726 47.5482 220.93 48.1173L233.919 88.7918C233.959 88.8731 233.98 88.9951 233.98 89.1577C233.98 89.4016 233.898 89.6049 233.736 89.7675C233.573 89.8895 233.35 89.9505 233.065 89.9505H225.991ZM209.587 76.0468C209.547 76.3313 209.648 76.4736 209.892 76.4736H220.686C220.93 76.4736 221.031 76.3313 220.991 76.0468L215.502 57.4475C215.462 57.2849 215.38 57.2035 215.258 57.2035C215.177 57.2035 215.096 57.2849 215.014 57.4475L209.587 76.0468Z" fill="white"/>
<path d="M240.498 89.9505C239.807 89.9505 239.462 89.6049 239.462 88.9138V48.3003C239.462 47.6092 239.807 47.2636 240.498 47.2636H255.439C258.488 47.2636 261.151 47.8124 263.427 48.9101C265.745 49.9671 267.533 51.4713 268.794 53.4227C270.054 55.3741 270.684 57.6304 270.684 60.1916V77.0225C270.684 79.5837 270.054 81.84 268.794 83.7914C267.533 85.7428 265.745 87.2673 263.427 88.365C261.151 89.422 258.488 89.9505 255.439 89.9505H240.498ZM248.06 82.2059C248.06 82.4498 248.182 82.5718 248.426 82.5718H255.744C257.614 82.5718 259.118 81.9416 260.256 80.6813C261.435 79.421 262.045 77.7339 262.086 75.6199V61.5942C262.086 59.4802 261.496 57.793 260.317 56.5327C259.179 55.2725 257.634 54.6423 255.683 54.6423H248.426C248.182 54.6423 248.06 54.7643 248.06 55.0082V82.2059Z" fill="white"/>
<path d="M306.795 53.6056C306.795 54.2968 306.45 54.6423 305.758 54.6423H286.122C285.879 54.6423 285.757 54.7643 285.757 55.0082V64.3383C285.757 64.5823 285.879 64.7042 286.122 64.7042H298.868C299.559 64.7042 299.904 65.0498 299.904 65.7409V71.0463C299.904 71.7374 299.559 72.083 298.868 72.083H286.122C285.879 72.083 285.757 72.2049 285.757 72.4489V82.2059C285.757 82.4498 285.879 82.5718 286.122 82.5718H305.758C306.45 82.5718 306.795 82.9173 306.795 83.6084V88.9138C306.795 89.6049 306.45 89.9505 305.758 89.9505H278.195C277.504 89.9505 277.158 89.6049 277.158 88.9138V48.3003C277.158 47.6092 277.504 47.2636 278.195 47.2636H305.758C306.45 47.2636 306.795 47.6092 306.795 48.3003V53.6056Z" fill="white"/>
<path d="M313.868 89.9505C313.177 89.9505 312.831 89.6049 312.831 88.9138V48.3003C312.831 47.6092 313.177 47.2636 313.868 47.2636H320.393C320.921 47.2636 321.328 47.4872 321.613 47.9344L330.455 62.204C330.536 62.326 330.617 62.3869 330.699 62.3869C330.821 62.3869 330.902 62.326 330.943 62.204L339.907 47.9344C340.192 47.4872 340.598 47.2636 341.127 47.2636H347.652C348.343 47.2636 348.688 47.6092 348.688 48.3003V88.9138C348.688 89.6049 348.343 89.9505 347.652 89.9505H341.127C340.435 89.9505 340.09 89.6049 340.09 88.9138V62.5089C340.09 62.3463 340.029 62.2447 339.907 62.204C339.826 62.1633 339.744 62.2243 339.663 62.3869L333.504 72.4489C333.219 72.896 332.813 73.1197 332.284 73.1197H329.174C328.646 73.1197 328.239 72.896 327.955 72.4489L321.857 62.3869C321.775 62.2243 321.674 62.1633 321.552 62.204C321.47 62.2447 321.43 62.3463 321.43 62.5089V88.9138C321.43 89.6049 321.084 89.9505 320.393 89.9505H313.868Z" fill="white"/>
<path d="M367.955 89.8895C367.263 89.8895 366.918 89.5439 366.918 88.8528V73.7904L366.796 73.3026L354.478 48.4832C354.356 48.2799 354.295 48.097 354.295 47.9344C354.295 47.7311 354.376 47.5685 354.539 47.4465C354.701 47.3246 354.925 47.2636 355.209 47.2636H362.283C362.852 47.2636 363.259 47.5278 363.503 48.0564L370.943 63.9115C371.024 64.0334 371.105 64.0944 371.187 64.0944C371.309 64.0944 371.39 64.0334 371.43 63.9115L378.87 48.0564C379.155 47.5278 379.561 47.2636 380.09 47.2636H387.225C387.834 47.2636 388.139 47.5075 388.139 47.9954C388.139 48.1986 388.099 48.3613 388.017 48.4832L375.577 73.3026L375.455 73.7904V88.8528C375.455 89.5439 375.11 89.8895 374.419 89.8895H367.955Z" fill="white"/>
<path d="M47.3033 39.4982C33.1334 31.8249 17.072 27.2104 2.31612e-05 26.5377L0 49.2505C9.0648e-07 49.7708 0.206457 50.2696 0.573859 50.6372L26.9647 77.0392C31.2475 63.1325 38.2317 50.4136 47.3033 39.4982Z" fill="#2C95D7"/>
<path opacity="0.2" d="M38.5755 51.5895C41.2118 47.3559 44.1298 43.3167 47.3033 39.4982C33.1335 31.8249 17.072 27.2104 4.60719e-05 26.5377L4.57764e-05 26.8313C14.6004 32.2899 27.7164 40.8008 38.5755 51.5895Z" fill="white"/>
<path d="M79.9444 55.3757L84.6755 50.6371C85.0424 50.2696 85.2485 49.771 85.2485 49.2512L85.2485 13.9488C74.3185 20.0601 64.5487 28.0053 56.3536 37.369C65.0269 42.2827 72.9602 48.3548 79.9444 55.3757Z" fill="#0AB88A"/>
<path opacity="0.2" d="M85.1769 13.989C74.2757 20.0949 64.5307 28.0258 56.3536 37.3691C59.9427 39.4024 63.4052 41.6341 66.7261 44.0494C71.2368 33.0065 77.503 22.8702 85.1769 13.989Z" fill="white"/>
<path d="M51.4723 34.7658C60.9935 24.565 72.4473 16.1986 85.2486 10.2526V1.95942C85.2487 0.877255 84.3733 0 83.2934 0L1.95539 7.39947e-06C0.875539 7.89497e-06 0.000144844 0.877267 0.000143888 1.95942L0.00012207 23.3546C0.958423 23.3297 1.91981 23.3171 2.88412 23.3171C20.3463 23.3171 36.8478 27.4393 51.4723 34.7658Z" fill="#EF476F"/>
<path opacity="0.2" d="M85.2486 10.2526C72.4472 16.1986 60.9934 24.565 51.4722 34.7658C36.8477 27.4393 20.3462 23.3171 2.88405 23.3171C1.91973 23.3171 0.958347 23.3297 4.57764e-05 23.3546L4.64941e-05 22.6508C16.6593 12.2674 36.3239 6.27014 57.3863 6.27014C67.0172 6.27014 76.3559 7.52406 85.2486 9.87788V10.2526Z" fill="white"/>
<path d="M32.6226 82.6995C36.341 67.7975 43.1191 54.1103 52.2492 42.3472C60.5375 47.4158 68.0963 53.5642 74.7312 60.5972L44.0305 91.3467C43.2673 92.1111 42.0305 92.1114 41.2669 91.3475L32.6226 82.6995Z" fill="white"/>
</svg>
