<svg width="25" height="24" viewBox="0 0 25 24" fill="none" xmlns="http://www.w3.org/2000/svg">
<path fill-rule="evenodd" clip-rule="evenodd" d="M6.68579 11.9999C6.68579 8.59586 9.44579 5.83786 12.8478 5.83786C16.2498 5.83786 19.0098 8.59786 19.0098 11.9999C19.0098 15.4039 16.2498 18.1619 12.8478 18.1619C9.44579 18.1619 6.68579 15.4039 6.68579 11.9999ZM8.8479 12C8.8479 14.21 10.6379 16 12.8479 16C15.0559 16 16.8499 14.21 16.8499 12C16.8499 9.78997 15.0559 7.99997 12.8479 7.99997C10.6379 7.99997 8.8479 9.79197 8.8479 12Z" fill="#333333"/>
<path d="M17.812 5.59604C17.812 4.80004 18.458 4.15604 19.252 4.15604C20.05 4.15604 20.694 4.80004 20.694 5.59604C20.694 6.39204 20.048 7.03604 19.252 7.03604C18.456 7.03604 17.812 6.39004 17.812 5.59604Z" fill="#333333"/>
<path fill-rule="evenodd" clip-rule="evenodd" d="M7.89966 0.074C9.18166 0.014 9.58766 0 12.8477 0C16.1077 0 16.5157 0.014 17.7977 0.074C22.1577 0.272 24.5797 2.698 24.7757 7.052C24.8337 8.334 24.8477 8.742 24.8477 12C24.8477 15.26 24.8337 15.668 24.7757 16.948C24.5797 21.31 22.1497 23.728 17.7977 23.928C16.5157 23.986 16.1077 24 12.8477 24C9.58766 24 9.18166 23.986 7.89966 23.928C3.53966 23.728 1.11966 21.306 0.919656 16.948C0.861656 15.668 0.847656 15.26 0.847656 12C0.847656 8.742 0.861656 8.334 0.919656 7.052C1.11966 2.692 3.53966 0.274 7.89966 0.074ZM17.6978 2.23403C16.4318 2.17603 16.0518 2.16403 12.8478 2.16403C9.64377 2.16403 9.26377 2.17403 7.99977 2.23203C4.74377 2.38003 3.22777 3.92203 3.07977 7.15203C3.02377 8.41603 3.00977 8.79603 3.00977 12C3.00977 15.204 3.02377 15.584 3.07977 16.848C3.22977 20.07 4.73977 21.618 7.99977 21.768C9.26377 21.826 9.64377 21.838 12.8478 21.838C16.0538 21.838 16.4318 21.824 17.6978 21.768C20.9538 21.62 22.4678 20.074 22.6178 16.848C22.6738 15.584 22.6858 15.204 22.6858 12C22.6858 8.79603 22.6738 8.41803 22.6178 7.15203C22.4678 3.92403 20.9518 2.38203 17.6978 2.23403Z" fill="#333333"/>
</svg>
