<svg width="24" height="25" viewBox="0 0 24 25" fill="none" xmlns="http://www.w3.org/2000/svg">
<path fill-rule="evenodd" clip-rule="evenodd" d="M12 4.4043C7.58172 4.4043 4 7.98602 4 12.4043C4 16.8226 7.58172 20.4043 12 20.4043C16.4183 20.4043 20 16.8226 20 12.4043C20 7.98602 16.4183 4.4043 12 4.4043ZM2 12.4043C2 6.88145 6.47715 2.4043 12 2.4043C17.5228 2.4043 22 6.88145 22 12.4043C22 17.9271 17.5228 22.4043 12 22.4043C6.47715 22.4043 2 17.9271 2 12.4043ZM7 12.4043C7 11.852 7.44772 11.4043 8 11.4043H8.01C8.56228 11.4043 9.01 11.852 9.01 12.4043C9.01 12.9566 8.56228 13.4043 8.01 13.4043H8C7.44772 13.4043 7 12.9566 7 12.4043ZM11 12.4043C11 11.852 11.4477 11.4043 12 11.4043H12.01C12.5623 11.4043 13.01 11.852 13.01 12.4043C13.01 12.9566 12.5623 13.4043 12.01 13.4043H12C11.4477 13.4043 11 12.9566 11 12.4043ZM15 12.4043C15 11.852 15.4477 11.4043 16 11.4043H16.01C16.5623 11.4043 17.01 11.852 17.01 12.4043C17.01 12.9566 16.5623 13.4043 16.01 13.4043H16C15.4477 13.4043 15 12.9566 15 12.4043Z" fill="currentColor"/>
</svg>
