<svg xmlns="http://www.w3.org/2000/svg" width="14" height="14" viewBox="0 0 14 14" fill="none">
<path fill-rule="evenodd" clip-rule="evenodd" d="M4.66495 1.25562C4.93798 1.25562 5.15932 1.47695 5.15932 1.74999V2.42228H8.83724V1.74999C8.83724 1.47695 9.05858 1.25562 9.33161 1.25562C9.60465 1.25562 9.82599 1.47695 9.82599 1.74999V2.42228H11.0816C11.999 2.42228 12.7427 3.16596 12.7427 4.08332V11.0833C12.7427 12.0007 11.999 12.7444 11.0816 12.7444H2.91495C1.99758 12.7444 1.25391 12.0007 1.25391 11.0833V4.08332C1.25391 3.16596 1.99758 2.42228 2.91495 2.42228H4.17057V1.74999C4.17057 1.47695 4.39191 1.25562 4.66495 1.25562ZM4.17057 3.41103H2.91495C2.54365 3.41103 2.24266 3.71203 2.24266 4.08332V11.0833C2.24266 11.4546 2.54365 11.7556 2.91495 11.7556H11.0816C11.4529 11.7556 11.7539 11.4546 11.7539 11.0833V4.08332C11.7539 3.71203 11.4529 3.41103 11.0816 3.41103H9.82599V4.08332C9.82599 4.35636 9.60465 4.5777 9.33161 4.5777C9.05858 4.5777 8.83724 4.35636 8.83724 4.08332V3.41103H5.15932V4.08332C5.15932 4.35636 4.93798 4.5777 4.66495 4.5777C4.39191 4.5777 4.17057 4.35636 4.17057 4.08332V3.41103ZM3.58724 6.41666C3.58724 6.14362 3.80858 5.92228 4.08161 5.92228H9.91495C10.188 5.92228 10.4093 6.14362 10.4093 6.41666C10.4093 6.68969 10.188 6.91103 9.91495 6.91103H4.08161C3.80858 6.91103 3.58724 6.68969 3.58724 6.41666Z" fill="#137D60"/>
</svg>