<svg xmlns="http://www.w3.org/2000/svg" width="24" height="24" viewBox="0 0 24 24" fill="none">
<path fill-rule="evenodd" clip-rule="evenodd" d="M19.5606 4.43934C18.9748 3.85355 18.0251 3.85355 17.4393 4.43934L16.6464 5.23223L18.7677 7.35355L19.5606 6.56066C20.1464 5.97487 20.1464 5.02513 19.5606 4.43934ZM20.9748 7.97487C22.3417 6.60804 22.3417 4.39196 20.9748 3.02513C19.608 1.65829 17.3919 1.65829 16.0251 3.02513L14.5253 4.52494L2.29289 16.7573C2.10536 16.9448 2 17.1992 2 17.4644V21.0355C2 21.5878 2.44772 22.0355 3 22.0355H6.5C6.76522 22.0355 7.01957 21.9301 7.20711 21.7426L20.9748 7.97487ZM17.3535 8.76777L15.2322 6.64645L4 17.8786V20.0355H6.08579L17.3535 8.76777Z" fill="#137D60"/>
</svg>