<svg xmlns="http://www.w3.org/2000/svg" width="880" height="700" viewBox="0 0 880 700" fill="none">
<g>
<path d="M711.299 290.924C505.022 187.541 272.272 129.372 25.9713 129.372C17.2972 129.372 8.5 129.586 -1 129.588V-1.5H881V134.108C820.962 181.801 763.566 234.902 711.299 290.924Z" fill="black" fill-opacity="0.05"/>
<path d="M712.294 289.126C711.925 289.521 711.557 289.915 711.188 290.31C710.705 290.068 710.221 289.826 709.738 289.584L709.515 290.032C708.325 289.437 707.134 288.844 705.942 288.253L706.165 287.805C704.973 287.214 703.78 286.624 702.586 286.035L702.365 286.484C701.172 285.895 699.977 285.308 698.782 284.723L699.002 284.274C697.807 283.688 696.611 283.104 695.413 282.522L695.195 282.971C693.998 282.389 692.8 281.808 691.602 281.229L691.819 280.779C690.622 280.2 689.423 279.623 688.223 279.047L688.007 279.498C686.808 278.922 685.608 278.348 684.407 277.775L684.622 277.324C683.421 276.751 682.219 276.18 681.016 275.61L680.802 276.062C679.6 275.492 678.396 274.924 677.192 274.357L677.405 273.905C676.2 273.338 674.995 272.773 673.788 272.209L673.577 272.662C672.371 272.099 671.165 271.537 669.959 270.977L670.169 270.524C668.962 269.964 667.755 269.405 666.546 268.848L666.337 269.302C665.129 268.745 663.92 268.19 662.71 267.636L662.918 267.181C661.708 266.627 660.497 266.075 659.285 265.524L659.078 265.979C657.867 265.429 656.654 264.879 655.441 264.332L655.647 263.876C654.434 263.328 653.219 262.782 652.004 262.237L651.8 262.694C650.586 262.15 649.372 261.607 648.157 261.066L648.36 260.609C647.145 260.068 645.928 259.529 644.711 258.991L644.509 259.448C643.292 258.91 642.074 258.374 640.856 257.839L641.057 257.381C639.838 256.846 638.618 256.313 637.398 255.781L637.198 256.239C635.978 255.708 634.757 255.177 633.535 254.649L633.734 254.19C632.513 253.662 631.291 253.135 630.068 252.61L629.871 253.069C628.649 252.544 627.426 252.021 626.202 251.499L626.398 251.039C625.174 250.517 623.949 249.997 622.724 249.478L622.529 249.938C621.303 249.419 620.077 248.902 618.85 248.387L619.044 247.926C618.351 247.634 617.658 247.344 616.965 247.054C616.43 246.83 615.895 246.606 615.36 246.383L615.167 246.844C613.939 246.332 612.71 245.821 611.481 245.312L611.672 244.85C610.443 244.341 609.213 243.834 607.983 243.328L607.792 243.79C606.562 243.285 605.331 242.781 604.099 242.278L604.288 241.815C603.056 241.312 601.823 240.811 600.589 240.311L600.401 240.775C599.168 240.275 597.934 239.778 596.699 239.281L596.885 238.817C595.65 238.321 594.414 237.826 593.176 237.332L592.991 237.797C591.756 237.304 590.52 236.813 589.283 236.324L589.467 235.859C588.23 235.369 586.992 234.881 585.754 234.395L585.571 234.86C584.333 234.374 583.094 233.889 581.854 233.406L582.036 232.94C580.795 232.456 579.555 231.975 578.313 231.494L578.132 231.961C576.891 231.481 575.649 231.002 574.406 230.525L574.585 230.059C573.343 229.582 572.099 229.107 570.855 228.633L570.677 229.1C569.434 228.627 568.191 228.156 566.947 227.686L567.123 227.218C565.879 226.748 564.633 226.279 563.387 225.812L563.211 226.28C561.966 225.813 560.719 225.348 559.472 224.885L559.646 224.416C558.398 223.952 557.149 223.49 555.9 223.029L555.727 223.498C554.478 223.038 553.229 222.579 551.978 222.121L552.15 221.652C550.901 221.195 549.651 220.74 548.4 220.286L548.23 220.756C546.979 220.302 545.728 219.85 544.477 219.4L544.646 218.93C543.394 218.479 542.141 218.03 540.887 217.583L540.719 218.054C539.466 217.606 538.212 217.161 536.957 216.717L537.124 216.245C535.869 215.801 534.613 215.359 533.357 214.918L533.191 215.389C531.936 214.949 530.68 214.51 529.423 214.073L529.587 213.6C528.331 213.163 527.074 212.728 525.816 212.294L525.653 212.766C524.396 212.332 523.138 211.9 521.879 211.469L522.041 210.996C520.781 210.566 519.521 210.136 518.261 209.709L518.1 210.182C516.84 209.755 515.579 209.329 514.317 208.905L514.476 208.431C513.214 208.006 511.951 207.583 510.688 207.162L510.53 207.637C509.268 207.216 508.006 206.797 506.744 206.38L506.9 205.905C505.637 205.488 504.373 205.072 503.109 204.658L502.953 205.133C501.689 204.719 500.424 204.307 499.158 203.896L499.313 203.42C498.047 203.009 496.78 202.6 495.512 202.192L495.359 202.668C494.092 202.26 492.824 201.854 491.556 201.45L491.708 200.974C490.44 200.569 489.171 200.167 487.902 199.766L487.751 200.243C486.484 199.842 485.215 199.443 483.946 199.046L484.095 198.569C482.825 198.171 481.555 197.775 480.284 197.381L480.136 197.858C478.865 197.464 477.593 197.072 476.321 196.681L476.468 196.203C475.196 195.812 473.922 195.423 472.648 195.035L472.503 195.513C471.229 195.125 469.955 194.739 468.68 194.355L468.824 193.876C467.551 193.492 466.277 193.11 465.003 192.729L464.86 193.208C463.585 192.828 462.31 192.449 461.035 192.071L461.177 191.592C459.901 191.215 458.624 190.839 457.347 190.464L457.206 190.944C455.929 190.57 454.651 190.198 453.373 189.827L453.512 189.347C452.233 188.976 450.954 188.606 449.674 188.238L449.536 188.719C448.257 188.352 446.978 187.986 445.698 187.622L445.835 187.141C444.555 186.777 443.276 186.415 441.995 186.054L441.859 186.536C440.579 186.175 439.298 185.816 438.017 185.459L438.151 184.977C436.869 184.62 435.586 184.264 434.303 183.91L434.17 184.392C432.887 184.038 431.603 183.686 430.319 183.335L430.451 182.853C429.166 182.502 427.881 182.153 426.595 181.805L426.464 182.288C425.181 181.941 423.897 181.596 422.612 181.252L422.742 180.769C421.457 180.425 420.171 180.083 418.885 179.743L418.757 180.226C417.471 179.886 416.184 179.547 414.897 179.21L415.024 178.726C413.736 178.389 412.448 178.054 411.159 177.72L411.033 178.204C409.745 177.87 408.455 177.538 407.166 177.207L407.29 176.723C406 176.393 404.711 176.064 403.42 175.737L403.297 176.222C402.009 175.895 400.719 175.57 399.429 175.247L399.551 174.762C398.26 174.438 396.969 174.116 395.677 173.796L395.557 174.281C394.266 173.961 392.974 173.643 391.681 173.326L391.8 172.841C390.507 172.524 389.214 172.208 387.919 171.895L387.801 172.381C386.508 172.067 385.213 171.755 383.918 171.445L384.034 170.959C382.741 170.649 381.447 170.341 380.153 170.034L380.038 170.521C378.744 170.215 377.449 169.91 376.154 169.607L376.268 169.12C374.972 168.817 373.676 168.515 372.379 168.216L372.267 168.703C370.97 168.403 369.673 168.105 368.375 167.808L368.487 167.321C367.189 167.024 365.89 166.73 364.591 166.436L364.481 166.924C363.183 166.631 361.884 166.34 360.585 166.05L360.694 165.562C359.396 165.273 358.097 164.985 356.798 164.699L356.691 165.187C355.392 164.901 354.093 164.617 352.793 164.334L352.899 163.846C351.598 163.563 350.297 163.282 348.996 163.002L348.891 163.491C347.59 163.212 346.288 162.934 344.985 162.658L345.089 162.169C343.786 161.893 342.483 161.618 341.179 161.346L341.076 161.835C339.775 161.563 338.473 161.292 337.171 161.023L337.272 160.533C335.969 160.265 334.666 159.997 333.362 159.732L333.263 160.222C331.959 159.956 330.655 159.692 329.351 159.43L329.449 158.94C328.145 158.677 326.839 158.417 325.533 158.158L325.436 158.648C324.13 158.389 322.824 158.132 321.517 157.876L321.613 157.386C320.306 157.13 318.999 156.876 317.691 156.624L317.597 157.115C316.292 156.863 314.986 156.613 313.68 156.365L313.773 155.874C312.466 155.625 311.159 155.378 309.851 155.133L309.759 155.625C308.451 155.38 307.143 155.136 305.835 154.895L305.926 154.403C304.616 154.161 303.307 153.921 301.997 153.682L301.907 154.174C300.597 153.936 299.287 153.699 297.976 153.464L298.064 152.972C296.755 152.737 295.445 152.504 294.134 152.273L294.047 152.765C292.738 152.534 291.428 152.304 290.118 152.076L290.204 151.584C288.893 151.356 287.582 151.129 286.27 150.905L286.186 151.398C284.874 151.173 283.562 150.95 282.25 150.729L282.333 150.236C281.02 150.015 279.707 149.795 278.393 149.577L278.311 150.07C276.997 149.853 275.683 149.636 274.369 149.422L274.449 148.928C273.137 148.714 271.825 148.502 270.511 148.291L270.432 148.785C269.119 148.574 267.806 148.365 266.492 148.158L266.57 147.664C265.256 147.457 263.941 147.251 262.626 147.047L262.549 147.541C261.234 147.337 259.918 147.135 258.602 146.934L258.678 146.44C257.361 146.239 256.044 146.04 254.727 145.843L254.653 146.337C253.337 146.14 252.021 145.945 250.704 145.751L250.777 145.256C249.461 145.063 248.145 144.871 246.829 144.681L246.757 145.176C245.441 144.986 244.125 144.797 242.807 144.61L242.878 144.115C241.56 143.929 240.242 143.743 238.923 143.56L238.854 144.055C237.536 143.872 236.217 143.69 234.898 143.51L234.966 143.015C233.646 142.835 232.326 142.656 231.005 142.479L230.939 142.975C229.621 142.799 228.303 142.624 226.984 142.451L227.049 141.955C225.731 141.782 224.412 141.611 223.092 141.442L223.029 141.938C221.71 141.768 220.39 141.6 219.07 141.434L219.132 140.938C217.812 140.772 216.491 140.607 215.169 140.444L215.108 140.941C213.787 140.778 212.465 140.617 211.143 140.457L211.203 139.961C209.881 139.802 208.558 139.644 207.235 139.488L207.177 139.984C205.857 139.829 204.537 139.675 203.216 139.523L203.273 139.026C201.952 138.874 200.63 138.723 199.308 138.574L199.252 139.071C197.93 138.922 196.608 138.775 195.285 138.629L195.34 138.132C194.017 137.987 192.693 137.843 191.369 137.7L191.315 138.198C189.992 138.055 188.667 137.915 187.343 137.776L187.395 137.279C186.071 137.14 184.748 137.003 183.423 136.868L183.373 137.365C182.05 137.23 180.728 137.097 179.405 136.965L179.454 136.468C178.131 136.336 176.806 136.206 175.482 136.078L175.434 136.575C174.109 136.447 172.785 136.32 171.46 136.196L171.507 135.698C170.181 135.573 168.855 135.45 167.529 135.328L167.483 135.826C166.157 135.704 164.83 135.584 163.503 135.466L163.548 134.968C162.223 134.85 160.899 134.734 159.573 134.62L159.53 135.118C158.206 135.003 156.881 134.891 155.556 134.779L155.598 134.281C154.272 134.17 152.946 134.061 151.619 133.953L151.579 134.451C150.253 134.344 148.926 134.238 147.599 134.133L147.638 133.635C146.311 133.53 144.983 133.428 143.654 133.327L143.616 133.825C142.289 133.725 140.961 133.625 139.633 133.528L139.669 133.029C138.344 132.932 137.018 132.836 135.691 132.742L135.656 133.241C134.33 133.147 133.003 133.055 131.676 132.965L131.71 132.466C130.383 132.375 129.055 132.286 127.727 132.199L127.694 132.698C126.366 132.611 125.038 132.526 123.709 132.442L123.74 131.943C122.411 131.859 121.081 131.777 119.751 131.697L119.721 132.196C118.393 132.116 117.065 132.037 115.736 131.96L115.765 131.461C114.438 131.384 113.111 131.309 111.783 131.236L111.755 131.735C110.428 131.662 109.1 131.59 107.771 131.52L107.797 131.021C106.469 130.951 105.139 130.883 103.809 130.816L103.784 131.315C102.455 131.249 101.125 131.184 99.7952 131.121L99.8189 130.621C98.4883 130.558 97.1572 130.497 95.8257 130.437L95.8033 130.937C94.4754 130.877 93.147 130.819 91.8183 130.763L91.8394 130.263C90.5112 130.207 89.1825 130.152 87.8534 130.1L87.8335 130.599C86.5049 130.546 85.1758 130.495 83.8462 130.446L83.8648 129.946C82.5348 129.897 81.2044 129.849 79.8736 129.803L79.8563 130.303C78.5259 130.257 77.1951 130.212 75.8638 130.17L75.8798 129.67C74.5483 129.627 73.2163 129.586 71.8839 129.547L71.8691 130.047C70.5413 130.008 69.2131 129.97 67.8844 129.935L67.8979 129.435C66.5688 129.399 65.2393 129.365 63.9094 129.333L63.8972 129.833C62.5677 129.8 61.2378 129.77 59.9075 129.741L59.9183 129.241C58.5876 129.212 57.2564 129.185 55.9248 129.159L55.9152 129.659C54.5841 129.634 53.2525 129.61 51.9205 129.588L51.9288 129.088C50.5976 129.066 49.266 129.045 47.934 129.026L47.9269 129.526C46.5986 129.508 45.2698 129.491 43.9406 129.475L43.9463 128.975C42.6167 128.96 41.2867 128.947 39.9563 128.935L39.9518 129.435C38.6218 129.423 37.2914 129.412 35.9606 129.404L35.9638 128.904C34.6325 128.895 33.3009 128.889 31.9688 128.884L31.9669 129.384C30.6353 129.378 29.3033 129.375 27.9709 129.373L27.9716 128.873C27.3049 128.872 26.6381 128.872 25.9713 128.872C25.2224 128.872 24.4727 128.874 23.7217 128.877L23.7237 129.377C22.2313 129.382 20.7339 129.393 19.2285 129.407L19.2238 128.907C17.7336 128.921 16.2357 128.938 14.7275 128.956L14.7334 129.456C14.1713 129.463 13.6076 129.47 13.0424 129.476C12.1123 129.488 11.1778 129.499 10.2382 129.51L10.2324 129.01C8.74792 129.027 7.25102 129.043 5.73902 129.056L5.74333 129.556C4.2604 129.568 2.76282 129.578 1.24816 129.584L1.24641 129.084C0.6668 129.086 0.0847086 129.087 -0.5 129.088V127.54H-1V123.443H-0.5V119.347H-1V115.25H-0.5V111.154H-1V107.057H-0.5V102.961H-1V98.8642H-0.5V94.7677H-1V90.6712H-0.5V86.5747H-1V82.4782H-0.5V78.3817H-1V74.2852H-0.5V70.1887H-1V66.0922H-0.5V61.9957H-1V57.8992H-0.5V53.8028H-1V49.7063H-0.5V45.6098H-1V41.5133H-0.5V37.4168H-1V33.3203H-0.5V29.2238H-1V25.1273H-0.5V21.0308H-1V16.9343H-0.5V12.8378H-1V8.74129H-0.5V4.64479H-1V0.548296H-0.5V-1H1.00455V-1.5H5.01364V-1H9.02273V-1.5H13.0318V-1H17.0409V-1.5H21.05V-1H25.0591V-1.5H29.0682V-1H33.0773V-1.5H37.0864V-1H41.0955V-1.5H45.1046V-1H49.1136V-1.5H53.1227V-1H57.1318V-1.5H61.1409V-1H65.15V-1.5H69.1591V-1H73.1682V-1.5H77.1773V-1H81.1864V-1.5H85.1955V-1H89.2046V-1.5H93.2137V-1H97.2228V-1.5H101.232V-1H105.241V-1.5H109.25V-1H113.259V-1.5H117.268V-1H121.277V-1.5H125.286V-1H129.296V-1.5H133.305V-1H137.314V-1.5H141.323V-1H145.332V-1.5H149.341V-1H153.35V-1.5H157.359V-1H161.368V-1.5H165.377V-1H169.386V-1.5H173.396V-1H177.405V-1.5H181.414V-1H185.423V-1.5H189.432V-1H193.441V-1.5H197.45V-1H201.459V-1.5H205.468V-1H209.477V-1.5H213.486V-1H217.496V-1.5H221.505V-1H225.514V-1.5H229.523V-1H233.532V-1.5H237.541V-1H241.55V-1.5H245.559V-1H249.568V-1.5H253.577V-1H257.587V-1.5H261.596V-1H265.605V-1.5H269.614V-1H273.623V-1.5H277.632V-1H281.641V-1.5H285.65V-1H289.659V-1.5H293.668V-1H297.677V-1.5H301.687V-1H305.696V-1.5H309.705V-1H313.714V-1.5H317.723V-1H321.732V-1.5H325.741V-1H329.75V-1.5H333.759V-1H337.768V-1.5H341.777V-1H345.787V-1.5H349.796V-1H353.805V-1.5H357.814V-1H361.823V-1.5H365.832V-1H369.841V-1.5H373.85V-1H377.859V-1.5H381.868V-1H385.878V-1.5H389.887V-1H393.896V-1.5H397.905V-1H401.914V-1.5H405.923V-1H409.932V-1.5H413.941V-1H417.95V-1.5H421.959V-1H425.968V-1.5H429.978V-1H433.987V-1.5H437.996V-1H442.005V-1.5H446.014V-1H450.023V-1.5H454.032V-1H458.041V-1.5H462.05V-1H466.059V-1.5H470.068V-1H474.078V-1.5H478.087V-1H482.096V-1.5H486.105V-1H490.114V-1.5H494.123V-1H498.132V-1.5H502.141V-1H506.15V-1.5H510.159V-1H514.169V-1.5H518.178V-1H522.187V-1.5H526.196V-1H530.205V-1.5H534.214V-1H538.223V-1.5H542.232V-1H546.241V-1.5H550.25V-1H554.259V-1.5H558.269V-1H562.278V-1.5H566.287V-1H570.296V-1.5H574.305V-1H578.314V-1.5H582.323V-1H586.332V-1.5H590.341V-1H594.35V-1.5H598.359V-1H602.369V-1.5H606.378V-1H610.387V-1.5H614.396V-1H618.405V-1.5H622.414V-1H626.423V-1.5H630.432V-1H634.441V-1.5H638.45V-1H642.46V-1.5H646.469V-1H650.478V-1.5H654.487V-1H658.496V-1.5H662.505V-1H666.514V-1.5H670.523V-1H674.532V-1.5H678.541V-1H682.55V-1.5H686.56V-1H690.569V-1.5H694.578V-1H698.587V-1.5H702.596V-1H706.605V-1.5H710.614V-1H714.623V-1.5H718.632V-1H722.641V-1.5H726.651V-1H730.66V-1.5H734.669V-1H738.678V-1.5H742.687V-1H746.696V-1.5H750.705V-1H754.714V-1.5H758.723V-1H762.732V-1.5H766.741V-1H770.751V-1.5H774.76V-1H778.769V-1.5H782.778V-1H786.787V-1.5H790.796V-1H794.805V-1.5H798.814V-1H802.823V-1.5H806.832V-1H810.841V-1.5H814.851V-1H818.86V-1.5H822.869V-1H826.878V-1.5H830.887V-1H834.896V-1.5H838.905V-1H842.914V-1.5H846.923V-1H850.932V-1.5H854.942V-1H858.951V-1.5H862.96V-1H866.969V-1.5H870.978V-1H874.987V-1.5H878.996V-1H880.5V0.494239H881V4.48272H880.5V8.4712H881V12.4597H880.5V16.4482H881V20.4366H880.5V24.4251H881V28.4136H880.5V32.4021H881V36.3906H880.5V40.379H881V44.3675H880.5V48.356H881V52.3445H880.5V56.333H881V60.3214H880.5V64.3099H881V68.2984H880.5V72.2869H881V76.2753H880.5V80.2638H881V84.2523H880.5V88.2408H881V92.2293H880.5V96.2177H881V100.206H880.5V104.195H881V108.183H880.5V112.172H881V116.16H880.5V120.149H881V124.137H880.5V128.126H881V132.114H880.5V133.867C880.043 134.23 879.586 134.594 879.129 134.958L879.441 135.349C878.401 136.177 877.362 137.006 876.325 137.838L876.012 137.447C874.975 138.278 873.938 139.111 872.902 139.945L873.216 140.334C872.181 141.168 871.146 142.003 870.113 142.839L869.798 142.451C868.765 143.287 867.733 144.125 866.702 144.964L867.018 145.352C865.987 146.191 864.957 147.032 863.928 147.874L863.611 147.487C862.583 148.329 861.555 149.172 860.528 150.017L860.846 150.403C859.819 151.247 858.794 152.093 857.769 152.94L857.451 152.555C856.426 153.402 855.403 154.251 854.38 155.101L854.7 155.486C853.678 156.335 852.657 157.186 851.637 158.039L851.317 157.655C850.297 158.508 849.278 159.362 848.259 160.217L848.581 160.6C847.564 161.455 846.547 162.312 845.532 163.169L845.209 162.787C844.193 163.645 843.179 164.505 842.165 165.366L842.489 165.747C841.476 166.607 840.464 167.468 839.453 168.331L839.128 167.951C838.801 168.23 838.474 168.509 838.148 168.788C837.464 169.373 836.78 169.959 836.097 170.545L836.423 170.924C835.414 171.79 834.407 172.656 833.4 173.525L833.074 173.146C832.067 174.014 831.061 174.884 830.056 175.755L830.384 176.133C829.38 177.003 828.377 177.875 827.375 178.749L827.046 178.372C826.044 179.245 825.043 180.12 824.042 180.996L824.372 181.372C823.372 182.248 822.373 183.125 821.376 184.004L821.045 183.629C820.048 184.507 819.051 185.387 818.055 186.268L818.386 186.643C817.391 187.524 816.397 188.406 815.404 189.289L815.071 188.916C814.078 189.799 813.086 190.684 812.095 191.571L812.428 191.943C811.437 192.829 810.448 193.717 809.459 194.605L809.125 194.233C808.136 195.122 807.148 196.012 806.161 196.903L806.497 197.274C805.51 198.165 804.525 199.058 803.541 199.951L803.205 199.581C802.221 200.475 801.237 201.37 800.255 202.266L800.592 202.635C799.611 203.531 798.63 204.429 797.651 205.327L797.312 204.959C796.333 205.858 795.354 206.758 794.377 207.659L794.715 208.026C793.738 208.927 792.762 209.83 791.787 210.733L791.447 210.366C791.001 210.78 790.555 211.194 790.108 211.608C789.58 212.099 789.053 212.59 788.525 213.081L788.866 213.447C787.893 214.353 786.922 215.26 785.951 216.168L785.61 215.803C785.105 216.276 784.601 216.748 784.097 217.221C783.632 217.658 783.166 218.096 782.701 218.533L783.044 218.897C782.076 219.808 781.109 220.72 780.143 221.633L779.8 221.27C778.834 222.184 777.869 223.098 776.905 224.014L777.25 224.377C776.286 225.293 775.324 226.21 774.363 227.128L774.017 226.766C773.056 227.685 772.096 228.604 771.137 229.525L771.483 229.886C770.524 230.806 769.566 231.728 768.61 232.651L768.263 232.291C767.306 233.215 766.351 234.139 765.396 235.065L765.744 235.424C764.79 236.349 763.837 237.276 762.886 238.203L762.537 237.845C761.584 238.774 760.634 239.703 759.684 240.634L760.034 240.991C759.084 241.921 758.136 242.852 757.189 243.785L756.839 243.429C756.386 243.874 755.934 244.32 755.482 244.766C754.988 245.254 754.494 245.743 754 246.231L754.352 246.587C753.407 247.522 752.464 248.458 751.522 249.395L751.169 249.041C750.226 249.979 749.285 250.918 748.345 251.858L748.698 252.211C747.758 253.151 746.82 254.092 745.882 255.034L745.528 254.682C744.59 255.624 743.653 256.568 742.718 257.513L743.073 257.865C742.138 258.809 741.204 259.755 740.272 260.702L739.915 260.351C738.982 261.299 738.05 262.247 737.12 263.197L737.477 263.547C736.547 264.496 735.618 265.447 734.69 266.398L734.332 266.049C733.404 267.002 732.477 267.955 731.552 268.909L731.911 269.257C730.985 270.212 730.061 271.167 729.138 272.123L728.778 271.776C727.855 272.733 726.933 273.691 726.013 274.65L726.373 274.996C725.452 275.955 724.533 276.915 723.615 277.877L723.253 277.531C722.335 278.493 721.418 279.455 720.503 280.419L720.865 280.763C719.949 281.727 719.035 282.692 718.122 283.658L717.759 283.315C716.845 284.281 715.933 285.249 715.023 286.217L715.387 286.559C714.476 287.528 713.567 288.498 712.659 289.468L712.294 289.126Z" stroke="#BAE1F9" stroke-opacity="0.6" stroke-dasharray="4 4"/>
</g>
<rect x="0.5" y="0.5" width="879" height="699" rx="7.5" stroke="#BAE1F9" stroke-opacity="0.6" stroke-linecap="round" stroke-dasharray="4 4"/>
</svg>
