<svg width="52" height="52" viewBox="0 0 52 52" fill="none" xmlns="http://www.w3.org/2000/svg">
<path d="M48.2132 12.1056C47.7325 11.87 47.5255 12.3189 47.2445 12.5469C47.1483 12.6205 47.067 12.7161 46.9856 12.8044C46.2831 13.5546 45.4623 14.0477 44.3899 13.9887C42.8222 13.9004 41.4836 14.3934 40.3004 15.5925C40.049 14.1139 39.2133 13.231 37.9413 12.6647C37.2759 12.3703 36.6029 12.076 36.1369 11.436C35.8116 10.9801 35.7228 10.4725 35.5602 9.97217C35.4566 9.67057 35.3531 9.36143 35.0055 9.31001C34.6283 9.25125 34.4804 9.56748 34.3325 9.83235C33.7409 10.9138 33.5117 12.1056 33.5338 13.312C33.5856 16.0266 34.7318 18.1893 37.0096 19.7268C37.2685 19.9034 37.3349 20.0798 37.2536 20.3375C37.0983 20.8671 36.9134 21.382 36.7508 21.9117C36.6472 22.2501 36.4918 22.3237 36.1296 22.1764C34.8798 21.6543 33.8 20.8818 32.846 19.9476C31.2265 18.3806 29.7623 16.6518 27.9358 15.2982C27.5068 14.9818 27.0779 14.6877 26.6341 14.408C24.7705 12.5984 26.8782 11.1123 27.3663 10.9359C27.8765 10.752 27.5437 10.1192 25.8946 10.1267C24.2454 10.134 22.7369 10.6857 20.8142 11.4214C20.5332 11.5318 20.2373 11.6126 19.9341 11.6788C18.1889 11.3479 16.377 11.2741 14.4839 11.4876C10.9194 11.8849 8.07234 13.5695 5.97947 16.4458C3.46507 19.9034 2.8735 23.8317 3.59823 27.9293C4.3599 32.2474 6.56363 35.8227 9.95064 38.6183C13.4634 41.5165 17.5085 42.9365 22.1231 42.6642C24.9259 42.5024 28.0466 42.1273 31.5667 39.1479C32.454 39.5894 33.3859 39.7658 34.9315 39.8982C36.1221 40.0085 37.2685 39.8395 38.1558 39.6555C39.5461 39.3613 39.45 38.0738 38.9471 37.8384C34.8724 35.9405 35.7671 36.7129 34.9537 36.0875C37.0244 33.638 40.1452 31.0925 41.3653 22.8459C41.4614 22.1912 41.3801 21.7792 41.3653 21.2495C41.3579 20.9259 41.4319 20.8009 41.8017 20.7641C42.8222 20.6464 43.8131 20.3668 44.7227 19.8666C47.3628 18.4248 48.4277 16.056 48.6791 13.2164C48.7161 12.7823 48.6717 12.3335 48.2132 12.1056ZM25.2069 37.6618C21.2578 34.5575 19.3426 33.5349 18.5513 33.579C17.8117 33.6232 17.9449 34.4692 18.1075 35.021C18.2776 35.5653 18.4995 35.9405 18.81 36.4186C19.0245 36.7349 19.1725 37.2057 18.5956 37.5589C17.3237 38.3461 15.1124 37.294 15.0089 37.2426C12.4355 35.7271 10.2834 33.726 8.76739 30.9897C7.30313 28.3559 6.45276 25.5311 6.31222 22.5149C6.27526 21.7867 6.48973 21.529 7.21447 21.3968C8.16841 21.2202 9.15199 21.1833 10.1059 21.3231C14.1364 21.9117 17.5677 23.714 20.4444 26.5683C22.0861 28.194 23.3285 30.1363 24.6079 32.0342C25.9685 34.0497 27.4328 35.97 29.2964 37.5441C29.9545 38.0958 30.4796 38.5152 30.9824 38.8242C29.4665 38.9934 26.9373 39.0303 25.2069 37.6618ZM27.1 25.487C27.1 25.1633 27.3589 24.9059 27.6843 24.9059C27.7582 24.9059 27.8247 24.9203 27.8839 24.9425C27.9653 24.972 28.0392 25.0162 28.0984 25.0823C28.2019 25.1854 28.2611 25.3324 28.2611 25.487C28.2611 25.8106 28.0023 26.0681 27.6769 26.0681C27.3514 26.0681 27.1 25.8106 27.1 25.487ZM32.9792 28.5031C32.602 28.6577 32.2249 28.7899 31.8625 28.8047C31.3005 28.8341 30.6867 28.606 30.3539 28.3264C29.8364 27.8924 29.4665 27.6498 29.3112 26.892C29.2447 26.5683 29.2816 26.0681 29.3408 25.7812C29.4738 25.1633 29.326 24.766 28.8897 24.4055C28.5347 24.1112 28.0836 24.0304 27.5881 24.0304C27.4032 24.0304 27.2332 23.9494 27.1074 23.8831C26.9003 23.7802 26.7303 23.5228 26.893 23.2064C26.9447 23.1035 27.1962 22.8533 27.2553 22.8092C27.9283 22.4266 28.7048 22.5517 29.4221 22.8386C30.0878 23.1107 30.5906 23.6111 31.3153 24.3172C32.0548 25.1705 32.1879 25.4061 32.6094 26.046C32.9423 26.5463 33.2455 27.0611 33.4525 27.6498C33.5782 28.0176 33.4155 28.3192 32.9792 28.5031Z" fill="#4D6BFE"/>
</svg>
