<svg width="20" height="20" viewBox="0 0 20 20" fill="none" xmlns="http://www.w3.org/2000/svg">
<path d="M9.99997 5.93734V12.4373L12.625 14.0415L11.9375 11.0415L14.25 9.0415L11.2083 8.77067L9.99997 5.93734ZM9.99997 14.3957L6.54164 16.479C6.38886 16.5762 6.22914 16.6179 6.06247 16.604C5.8958 16.5901 5.74997 16.5346 5.62497 16.4373C5.49997 16.3401 5.40275 16.2186 5.33331 16.0728C5.26386 15.9269 5.24997 15.7637 5.29164 15.5832L6.2083 11.6457L3.14581 8.99984C3.00692 8.87484 2.92011 8.73248 2.88539 8.57275C2.85067 8.41303 2.86108 8.25678 2.91664 8.104C2.97219 7.95123 3.05553 7.82623 3.16664 7.729C3.27775 7.63178 3.43053 7.56928 3.62497 7.5415L7.66664 7.18734L9.22914 3.479C9.29858 3.31234 9.40622 3.18734 9.55205 3.104C9.69789 3.02067 9.84719 2.979 9.99997 2.979C10.1527 2.979 10.3021 3.02067 10.4479 3.104C10.5937 3.18734 10.7014 3.31234 10.7708 3.479L12.3333 7.18734L16.375 7.5415C16.5694 7.56928 16.7222 7.63178 16.8333 7.729C16.9444 7.82623 17.0277 7.95123 17.0833 8.104C17.1389 8.25678 17.1493 8.41303 17.1146 8.57275C17.0798 8.73248 16.993 8.87484 16.8541 8.99984L13.7916 11.6457L14.7083 15.5832C14.75 15.7637 14.7361 15.9269 14.6666 16.0728C14.5972 16.2186 14.5 16.3401 14.375 16.4373C14.25 16.5346 14.1041 16.5901 13.9375 16.604C13.7708 16.6179 13.6111 16.5762 13.4583 16.479L9.99997 14.3957Z" fill="#00797A"/>
</svg>
