<svg width="20" height="20" viewBox="0 0 20 20" fill="none" xmlns="http://www.w3.org/2000/svg">
<path d="M10 10C8.9 10 7.95833 9.60833 7.175 8.825C6.39167 8.04167 6 7.1 6 6C6 4.9 6.39167 3.95833 7.175 3.175C7.95833 2.39167 8.9 2 10 2C11.1 2 12.0417 2.39167 12.825 3.175C13.6083 3.95833 14 4.9 14 6C14 7.1 13.6083 8.04167 12.825 8.825C12.0417 9.60833 11.1 10 10 10ZM2 16V15.2C2 14.6333 2.14583 14.1125 2.4375 13.6375C2.72917 13.1625 3.11667 12.8 3.6 12.55C4.63333 12.0333 5.68333 11.6458 6.75 11.3875C7.81667 11.1292 8.9 11 10 11C11.1 11 12.1833 11.1292 13.25 11.3875C14.3167 11.6458 15.3667 12.0333 16.4 12.55C16.8833 12.8 17.2708 13.1625 17.5625 13.6375C17.8542 14.1125 18 14.6333 18 15.2V16C18 16.55 17.8042 17.0208 17.4125 17.4125C17.0208 17.8042 16.55 18 16 18H4C3.45 18 2.97917 17.8042 2.5875 17.4125C2.19583 17.0208 2 16.55 2 16ZM4 16H16V15.2C16 15.0167 15.9542 14.85 15.8625 14.7C15.7708 14.55 15.65 14.4333 15.5 14.35C14.6 13.9 13.6917 13.5625 12.775 13.3375C11.8583 13.1125 10.9333 13 10 13C9.06667 13 8.14167 13.1125 7.225 13.3375C6.30833 13.5625 5.4 13.9 4.5 14.35C4.35 14.4333 4.22917 14.55 4.1375 14.7C4.04583 14.85 4 15.0167 4 15.2V16ZM10 8C10.55 8 11.0208 7.80417 11.4125 7.4125C11.8042 7.02083 12 6.55 12 6C12 5.45 11.8042 4.97917 11.4125 4.5875C11.0208 4.19583 10.55 4 10 4C9.45 4 8.97917 4.19583 8.5875 4.5875C8.19583 4.97917 8 5.45 8 6C8 6.55 8.19583 7.02083 8.5875 7.4125C8.97917 7.80417 9.45 8 10 8Z" fill="#00797A"/>
</svg>
