<svg width="20" height="20" viewBox="0 0 20 20" fill="none" xmlns="http://www.w3.org/2000/svg">
<path d="M9.99996 10.3958L11.5833 11.3541C11.7361 11.4513 11.8888 11.4479 12.0416 11.3437C12.1944 11.2395 12.25 11.0972 12.2083 10.9166L11.7916 9.10413L13.2083 7.87496C13.3472 7.74996 13.3888 7.60065 13.3333 7.42704C13.2777 7.25343 13.1527 7.15968 12.9583 7.14579L11.1041 6.99996L10.375 5.29163C10.3055 5.12496 10.1805 5.04163 9.99996 5.04163C9.8194 5.04163 9.6944 5.12496 9.62496 5.29163L8.89579 6.99996L7.04163 7.14579C6.84718 7.15968 6.72218 7.25343 6.66663 7.42704C6.61107 7.60065 6.65274 7.74996 6.79163 7.87496L8.20829 9.10413L7.79163 10.9166C7.74996 11.0972 7.80551 11.2395 7.95829 11.3437C8.11107 11.4479 8.26385 11.4513 8.41663 11.3541L9.99996 10.3958ZM4.99996 15L3.08329 16.9166C2.8194 17.1805 2.51732 17.2395 2.17704 17.0937C1.83676 16.9479 1.66663 16.6875 1.66663 16.3125V3.33329C1.66663 2.87496 1.82982 2.4826 2.15621 2.15621C2.4826 1.82982 2.87496 1.66663 3.33329 1.66663H16.6666C17.125 1.66663 17.5173 1.82982 17.8437 2.15621C18.1701 2.4826 18.3333 2.87496 18.3333 3.33329V13.3333C18.3333 13.7916 18.1701 14.184 17.8437 14.5104C17.5173 14.8368 17.125 15 16.6666 15H4.99996ZM4.29163 13.3333H16.6666V3.33329H3.33329V14.2708L4.29163 13.3333Z" fill="#00797A"/>
</svg>
