<svg width="20" height="20" viewBox="0 0 20 20" fill="none" xmlns="http://www.w3.org/2000/svg">
<path d="M5 19V11H15V19L10 17.5L5 19Z" fill="#00797A"/>
<rect x="3" y="1" width="14" height="14" rx="7" fill="#E5EBF0"/>
<rect x="3" y="1" width="14" height="14" rx="7" stroke="#0A0A0A"/>
<path d="M7.45 11.5V10.2C7.45 10.0267 7.52333 9.82 7.67 9.58C7.81667 9.33333 8.01667 9.08333 8.27 8.83C8.53 8.57 8.82 8.33667 9.14 8.13L9.84 7.68C9.96 7.6 10.0867 7.51 10.22 7.41C10.3533 7.30333 10.4667 7.18667 10.56 7.06C10.6533 6.93333 10.7 6.80667 10.7 6.68C10.7 6.56 10.67 6.45333 10.61 6.36C10.5567 6.26667 10.47 6.19667 10.35 6.15C10.2367 6.09667 10.0833 6.07 9.89 6.07C9.75667 6.07 9.63667 6.1 9.53 6.16C9.42333 6.22 9.33333 6.3 9.26 6.4C9.19333 6.5 9.14333 6.61 9.11 6.73L7.2 6.42C7.26 6.06 7.40333 5.72333 7.63 5.41C7.86333 5.09667 8.17 4.84667 8.55 4.66C8.93667 4.46667 9.38333 4.37 9.89 4.37C10.4567 4.37 10.94 4.46667 11.34 4.66C11.7467 4.85333 12.0567 5.12333 12.27 5.47C12.49 5.81 12.6 6.20667 12.6 6.66C12.6 7.16 12.46 7.58333 12.18 7.93C11.9067 8.27 11.5533 8.58 11.12 8.86L10.55 9.23C10.4233 9.31 10.2933 9.40333 10.16 9.51C10.0267 9.61667 9.9 9.74 9.78 9.88H12.67V11.5H7.45Z" fill="#0A0A0A"/>
</svg>
