<svg width="20" height="20" viewBox="0 0 20 20" fill="#0D61BF" xmlns="http://www.w3.org/2000/svg">
<path d="M17.4993 6.66671C17.9438 6.66671 18.3327 6.83337 18.666 7.16671C18.9993 7.50004 19.166 7.88893 19.166 8.33337V10C19.166 10.0973 19.1521 10.2014 19.1243 10.3125C19.0966 10.4237 19.0688 10.5278 19.041 10.625L16.541 16.5C16.416 16.7778 16.2077 17.0139 15.916 17.2084C15.6243 17.4028 15.3188 17.5 14.9993 17.5H5.83268V6.66671L10.8327 1.70837C11.041 1.50004 11.2875 1.37851 11.5723 1.34379C11.857 1.30907 12.1313 1.36115 12.3952 1.50004C12.6591 1.63893 12.8535 1.83337 12.9785 2.08337C13.1035 2.33337 13.1313 2.59032 13.0618 2.85421L12.1243 6.66671H17.4993ZM7.49935 7.37504V15.8334H14.9993L17.4993 10V8.33337H9.99935L11.1243 3.75004L7.49935 7.37504ZM3.33268 17.5C2.87435 17.5 2.48199 17.3368 2.1556 17.0105C1.82921 16.6841 1.66602 16.2917 1.66602 15.8334V8.33337C1.66602 7.87504 1.82921 7.48268 2.1556 7.15629C2.48199 6.8299 2.87435 6.66671 3.33268 6.66671H5.83268V8.33337H3.33268V15.8334H5.83268V17.5H3.33268Z" fill="#0D61BF"/>
</svg>
