<svg width="20" height="20" viewBox="0 0 20 20" fill="none" xmlns="http://www.w3.org/2000/svg">
<path d="M9.99967 9.93749L8.58301 11.0208C8.49967 11.0903 8.41634 11.0937 8.33301 11.0312C8.24967 10.9687 8.2219 10.8889 8.24967 10.7917L8.79134 9.04166L7.33301 7.87499C7.26356 7.80555 7.24273 7.72568 7.27051 7.63541C7.29829 7.54513 7.36079 7.49999 7.45801 7.49999H9.24967L9.79134 5.79166C9.81912 5.69443 9.88856 5.64582 9.99967 5.64582C10.1108 5.64582 10.1802 5.69443 10.208 5.79166L10.7497 7.49999H12.5205C12.6177 7.49999 12.6837 7.54513 12.7184 7.63541C12.7531 7.72568 12.7358 7.80555 12.6663 7.87499L11.1872 9.04166L11.7288 10.7917C11.7566 10.8889 11.7288 10.9687 11.6455 11.0312C11.5622 11.0937 11.4788 11.0903 11.3955 11.0208L9.99967 9.93749ZM9.99967 17.5L6.10384 18.7917C5.82606 18.8889 5.57259 18.8542 5.34342 18.6875C5.11426 18.5208 4.99967 18.2986 4.99967 18.0208V12.7292C4.4719 12.1458 4.06217 11.4792 3.77051 10.7292C3.47884 9.97916 3.33301 9.18055 3.33301 8.33332C3.33301 6.47221 3.97884 4.89582 5.27051 3.60416C6.56217 2.31249 8.13856 1.66666 9.99967 1.66666C11.8608 1.66666 13.4372 2.31249 14.7288 3.60416C16.0205 4.89582 16.6663 6.47221 16.6663 8.33332C16.6663 9.18055 16.5205 9.97916 16.2288 10.7292C15.9372 11.4792 15.5275 12.1458 14.9997 12.7292V18.0208C14.9997 18.2986 14.8851 18.5208 14.6559 18.6875C14.4268 18.8542 14.1733 18.8889 13.8955 18.7917L9.99967 17.5ZM9.99967 13.3333C11.3886 13.3333 12.5691 12.8472 13.5413 11.875C14.5136 10.9028 14.9997 9.72221 14.9997 8.33332C14.9997 6.94443 14.5136 5.76388 13.5413 4.79166C12.5691 3.81943 11.3886 3.33332 9.99967 3.33332C8.61079 3.33332 7.43023 3.81943 6.45801 4.79166C5.48579 5.76388 4.99967 6.94443 4.99967 8.33332C4.99967 9.72221 5.48579 10.9028 6.45801 11.875C7.43023 12.8472 8.61079 13.3333 9.99967 13.3333ZM6.66634 16.6875L9.99967 15.8333L13.333 16.6875V14.1042C12.8469 14.3819 12.3226 14.6007 11.7601 14.7604C11.1976 14.9201 10.6108 15 9.99967 15C9.38856 15 8.80176 14.9201 8.23926 14.7604C7.67676 14.6007 7.15245 14.3819 6.66634 14.1042V16.6875Z" fill="#0A0A0A"/>
</svg>
