<svg width="20" height="20" viewBox="0 0 20 20" fill="none" xmlns="http://www.w3.org/2000/svg">
<path d="M8.33333 2.50001C8.09722 2.50001 7.89931 2.42015 7.73958 2.26043C7.57986 2.1007 7.5 1.90279 7.5 1.66668C7.5 1.43057 7.57986 1.23265 7.73958 1.07293C7.89931 0.913205 8.09722 0.833344 8.33333 0.833344H11.6667C11.9028 0.833344 12.1007 0.913205 12.2604 1.07293C12.4201 1.23265 12.5 1.43057 12.5 1.66668C12.5 1.90279 12.4201 2.1007 12.2604 2.26043C12.1007 2.42015 11.9028 2.50001 11.6667 2.50001H8.33333ZM10 11.6667C10.2361 11.6667 10.434 11.5868 10.5938 11.4271C10.7535 11.2674 10.8333 11.0695 10.8333 10.8333V7.50001C10.8333 7.2639 10.7535 7.06598 10.5938 6.90626C10.434 6.74654 10.2361 6.66668 10 6.66668C9.76389 6.66668 9.56597 6.74654 9.40625 6.90626C9.24653 7.06598 9.16667 7.2639 9.16667 7.50001V10.8333C9.16667 11.0695 9.24653 11.2674 9.40625 11.4271C9.56597 11.5868 9.76389 11.6667 10 11.6667ZM10 18.3333C8.97222 18.3333 8.00347 18.1354 7.09375 17.7396C6.18403 17.3438 5.38889 16.8056 4.70833 16.125C4.02778 15.4445 3.48958 14.6493 3.09375 13.7396C2.69792 12.8299 2.5 11.8611 2.5 10.8333C2.5 9.80557 2.69792 8.83682 3.09375 7.92709C3.48958 7.01737 4.02778 6.22223 4.70833 5.54168C5.38889 4.86112 6.18403 4.32293 7.09375 3.92709C8.00347 3.53126 8.97222 3.33334 10 3.33334C10.8611 3.33334 11.6875 3.47223 12.4792 3.75001C13.2708 4.02779 14.0139 4.43057 14.7083 4.95834L15.2917 4.37501C15.4444 4.22223 15.6389 4.14584 15.875 4.14584C16.1111 4.14584 16.3056 4.22223 16.4583 4.37501C16.6111 4.52779 16.6875 4.72223 16.6875 4.95834C16.6875 5.19445 16.6111 5.3889 16.4583 5.54168L15.875 6.12501C16.4028 6.81945 16.8056 7.56251 17.0833 8.35418C17.3611 9.14584 17.5 9.97223 17.5 10.8333C17.5 11.8611 17.3021 12.8299 16.9062 13.7396C16.5104 14.6493 15.9722 15.4445 15.2917 16.125C14.6111 16.8056 13.816 17.3438 12.9062 17.7396C11.9965 18.1354 11.0278 18.3333 10 18.3333ZM10 16.6667C11.6111 16.6667 12.9861 16.0972 14.125 14.9583C15.2639 13.8195 15.8333 12.4445 15.8333 10.8333C15.8333 9.22223 15.2639 7.84723 14.125 6.70834C12.9861 5.56945 11.6111 5.00001 10 5.00001C8.38889 5.00001 7.01389 5.56945 5.875 6.70834C4.73611 7.84723 4.16667 9.22223 4.16667 10.8333C4.16667 12.4445 4.73611 13.8195 5.875 14.9583C7.01389 16.0972 8.38889 16.6667 10 16.6667Z" fill="#0A0A0A"/>
</svg>
