<svg width="20" height="20" viewBox="0 0 20 20" fill="none" xmlns="http://www.w3.org/2000/svg">
<g clip-path="url(#clip0_2793_245)">
<path d="M10.925 6.22482L15.9 1.27482C16.0833 1.09148 16.3125 0.99565 16.5875 0.987316C16.8625 0.978983 17.1 1.07482 17.3 1.27482C17.4833 1.45815 17.575 1.69148 17.575 1.97482C17.575 2.25815 17.4833 2.49148 17.3 2.67482L11.625 8.34982C11.425 8.54982 11.1917 8.64982 10.925 8.64982C10.6583 8.64982 10.425 8.54982 10.225 8.34982L7.375 5.49982C7.175 5.29982 7.07917 5.06648 7.0875 4.79982C7.09583 4.53315 7.2 4.29982 7.4 4.09982C7.6 3.91648 7.83333 3.82065 8.1 3.81232C8.36667 3.80398 8.6 3.89982 8.8 4.09982L10.925 6.22482ZM11.95 18.3998L17.9 16.5498C17.8167 16.3998 17.6958 16.2707 17.5375 16.1623C17.3792 16.054 17.2 15.9998 17 15.9998H11.95C11.5 15.9998 11.1417 15.9832 10.875 15.9498C10.6083 15.9165 10.3333 15.8498 10.05 15.7498L8.625 15.2748C8.35833 15.1915 8.16667 15.0248 8.05 14.7748C7.93333 14.5248 7.91667 14.2665 8 13.9998C8.08333 13.7332 8.24583 13.5373 8.4875 13.4123C8.72917 13.2873 8.98333 13.2665 9.25 13.3498L10.3 13.6998C10.5833 13.7832 10.9042 13.8498 11.2625 13.8998C11.6208 13.9498 12.1083 13.9832 12.725 13.9998H13C13 13.8165 12.9458 13.6415 12.8375 13.4748C12.7292 13.3082 12.6 13.1998 12.45 13.1498L6.6 10.9998H5V16.4998L11.95 18.3998ZM11.425 20.3498L5 18.5498C4.86667 18.9832 4.60417 19.3332 4.2125 19.5998C3.82083 19.8665 3.41667 19.9998 3 19.9998H1C0.45 19.9998 -0.0208333 19.804 -0.4125 19.4123C-0.804167 19.0207 -1 18.5498 -1 17.9998V10.9998C-1 10.4498 -0.804167 9.97898 -0.4125 9.58732C-0.0208333 9.19565 0.45 8.99982 1 8.99982H6.6C6.71667 8.99982 6.83333 9.01232 6.95 9.03732C7.06667 9.06232 7.175 9.09148 7.275 9.12482L13.15 11.2998C13.7 11.4998 14.1458 11.8498 14.4875 12.3498C14.8292 12.8498 15 13.3998 15 13.9998H17C17.8333 13.9998 18.5417 14.2748 19.125 14.8248C19.7083 15.3748 20 16.0998 20 16.9998C20 17.3665 19.9042 17.654 19.7125 17.8623C19.5208 18.0707 19.225 18.2415 18.825 18.3748L12.575 20.3248C12.3917 20.3915 12.2 20.4248 12 20.4248C11.8 20.4248 11.6083 20.3998 11.425 20.3498ZM1 17.9998H3V10.9998H1V17.9998Z" fill="#00797A"/>
</g>
<defs>
<clipPath id="clip0_2793_245">
<rect width="20" height="20" fill="white"/>
</clipPath>
</defs>
</svg>
