<svg width="20" height="20" viewBox="0 0 20 20" fill="none" xmlns="http://www.w3.org/2000/svg">
<path d="M5 19V11H15V19L10 17.5L5 19Z" fill="#00797A"/>
<rect x="3" y="1" width="14" height="14" rx="7" fill="#FEC220"/>
<path d="M9.25 11.5V5.49L9.44 4.5H11V11.5H9.25ZM7.85 7.09V5.41C8.04333 5.43 8.23333 5.39333 8.42 5.3C8.61333 5.20667 8.79667 5.08333 8.97 4.93C9.15 4.77667 9.30667 4.62667 9.44 4.48L10.62 5.59C10.36 5.89 10.0833 6.16333 9.79 6.41C9.50333 6.65 9.2 6.83333 8.88 6.96C8.56 7.08667 8.21667 7.13 7.85 7.09Z" fill="#0A0A0A"/>
</svg>
