<svg width="20" height="20" viewBox="0 0 20 20" fill="none" xmlns="http://www.w3.org/2000/svg">
<g clip-path="url(#clip0_2793_1608)">
<path d="M8 1C7.71667 1 7.47917 0.904167 7.2875 0.7125C7.09583 0.520833 7 0.283333 7 0C7 -0.283333 7.09583 -0.520833 7.2875 -0.7125C7.47917 -0.904167 7.71667 -1 8 -1H12C12.2833 -1 12.5208 -0.904167 12.7125 -0.7125C12.9042 -0.520833 13 -0.283333 13 0C13 0.283333 12.9042 0.520833 12.7125 0.7125C12.5208 0.904167 12.2833 1 12 1H8ZM10 12C10.2833 12 10.5208 11.9042 10.7125 11.7125C10.9042 11.5208 11 11.2833 11 11V7C11 6.71667 10.9042 6.47917 10.7125 6.2875C10.5208 6.09583 10.2833 6 10 6C9.71667 6 9.47917 6.09583 9.2875 6.2875C9.09583 6.47917 9 6.71667 9 7V11C9 11.2833 9.09583 11.5208 9.2875 11.7125C9.47917 11.9042 9.71667 12 10 12ZM10 20C8.76667 20 7.60417 19.7625 6.5125 19.2875C5.42083 18.8125 4.46667 18.1667 3.65 17.35C2.83333 16.5333 2.1875 15.5792 1.7125 14.4875C1.2375 13.3958 1 12.2333 1 11C1 9.76667 1.2375 8.60417 1.7125 7.5125C2.1875 6.42083 2.83333 5.46667 3.65 4.65C4.46667 3.83333 5.42083 3.1875 6.5125 2.7125C7.60417 2.2375 8.76667 2 10 2C11.0333 2 12.025 2.16667 12.975 2.5C13.925 2.83333 14.8167 3.31667 15.65 3.95L16.35 3.25C16.5333 3.06667 16.7667 2.975 17.05 2.975C17.3333 2.975 17.5667 3.06667 17.75 3.25C17.9333 3.43333 18.025 3.66667 18.025 3.95C18.025 4.23333 17.9333 4.46667 17.75 4.65L17.05 5.35C17.6833 6.18333 18.1667 7.075 18.5 8.025C18.8333 8.975 19 9.96667 19 11C19 12.2333 18.7625 13.3958 18.2875 14.4875C17.8125 15.5792 17.1667 16.5333 16.35 17.35C15.5333 18.1667 14.5792 18.8125 13.4875 19.2875C12.3958 19.7625 11.2333 20 10 20ZM10 18C11.9333 18 13.5833 17.3167 14.95 15.95C16.3167 14.5833 17 12.9333 17 11C17 9.06667 16.3167 7.41667 14.95 6.05C13.5833 4.68333 11.9333 4 10 4C8.06667 4 6.41667 4.68333 5.05 6.05C3.68333 7.41667 3 9.06667 3 11C3 12.9333 3.68333 14.5833 5.05 15.95C6.41667 17.3167 8.06667 18 10 18Z" fill="#00797A"/>
</g>
<defs>
<clipPath id="clip0_2793_1608">
<rect width="20" height="20" fill="white"/>
</clipPath>
</defs>
</svg>
