<svg width="14" height="16" viewBox="0 0 14 16" fill="none" xmlns="http://www.w3.org/2000/svg">
<path d="M5.18742 15.25C3.75686 14.8472 2.5902 14.059 1.68742 12.8854C0.784641 11.7118 0.333252 10.3611 0.333252 8.83333C0.333252 8.04167 0.465196 7.28819 0.729085 6.57292C0.992974 5.85764 1.36797 5.20139 1.85409 4.60417C2.00686 4.4375 2.19436 4.35069 2.41659 4.34375C2.63881 4.33681 2.8402 4.42361 3.02075 4.60417C3.17353 4.75694 3.25339 4.94444 3.26034 5.16667C3.26728 5.38889 3.19436 5.59722 3.04159 5.79167C2.70825 6.22222 2.45131 6.69444 2.27075 7.20833C2.0902 7.72222 1.99992 8.26389 1.99992 8.83333C1.99992 9.95833 2.32978 10.9618 2.9895 11.8438C3.64922 12.7257 4.49992 13.3264 5.54158 13.6458C5.72214 13.7014 5.87145 13.8056 5.9895 13.9583C6.10756 14.1111 6.16658 14.2778 6.16658 14.4583C6.16658 14.7361 6.06936 14.9549 5.87492 15.1146C5.68047 15.2743 5.45131 15.3194 5.18742 15.25ZM8.81242 15.25C8.54853 15.3194 8.31936 15.2708 8.12492 15.1042C7.93047 14.9375 7.83325 14.7153 7.83325 14.4375C7.83325 14.2708 7.89228 14.1111 8.01033 13.9583C8.12839 13.8056 8.2777 13.7014 8.45825 13.6458C9.49992 13.3125 10.3506 12.7083 11.0103 11.8333C11.6701 10.9583 11.9999 9.95833 11.9999 8.83333C11.9999 7.44444 11.5138 6.26389 10.5416 5.29167C9.56936 4.31944 8.38881 3.83333 6.99992 3.83333H6.93742L7.27075 4.16667C7.42353 4.31944 7.49992 4.51389 7.49992 4.75C7.49992 4.98611 7.42353 5.18056 7.27075 5.33333C7.11797 5.48611 6.92353 5.5625 6.68742 5.5625C6.45131 5.5625 6.25686 5.48611 6.10408 5.33333L4.35408 3.58333C4.27075 3.5 4.21172 3.40972 4.177 3.3125C4.14228 3.21528 4.12492 3.11111 4.12492 3C4.12492 2.88889 4.14228 2.78472 4.177 2.6875C4.21172 2.59028 4.27075 2.5 4.35408 2.41667L6.10408 0.666667C6.25686 0.513889 6.45131 0.4375 6.68742 0.4375C6.92353 0.4375 7.11797 0.513889 7.27075 0.666667C7.42353 0.819444 7.49992 1.01389 7.49992 1.25C7.49992 1.48611 7.42353 1.68056 7.27075 1.83333L6.93742 2.16667H6.99992C8.86103 2.16667 10.4374 2.8125 11.7291 4.10417C13.0208 5.39583 13.6666 6.97222 13.6666 8.83333C13.6666 10.3472 13.2152 11.6944 12.3124 12.875C11.4096 14.0556 10.243 14.8472 8.81242 15.25Z" fill="#0D61BF"/>
</svg>
