<svg width="17" height="16" viewBox="0 0 17 16" fill="none" xmlns="http://www.w3.org/2000/svg">
<path d="M7.5 7.5V9.16667C7.5 9.40278 7.57986 9.60069 7.73958 9.76042C7.89931 9.92014 8.09722 10 8.33333 10C8.56945 10 8.76736 9.92014 8.92708 9.76042C9.08681 9.60069 9.16667 9.40278 9.16667 9.16667V7.5H10.8333C11.0694 7.5 11.2674 7.42014 11.4271 7.26042C11.5868 7.10069 11.6667 6.90278 11.6667 6.66667C11.6667 6.43056 11.5868 6.23264 11.4271 6.07292C11.2674 5.91319 11.0694 5.83333 10.8333 5.83333H9.16667V4.16667C9.16667 3.93056 9.08681 3.73264 8.92708 3.57292C8.76736 3.41319 8.56945 3.33333 8.33333 3.33333C8.09722 3.33333 7.89931 3.41319 7.73958 3.57292C7.57986 3.73264 7.5 3.93056 7.5 4.16667V5.83333H5.83333C5.59722 5.83333 5.39931 5.91319 5.23958 6.07292C5.07986 6.23264 5 6.43056 5 6.66667C5 6.90278 5.07986 7.10069 5.23958 7.26042C5.39931 7.42014 5.59722 7.5 5.83333 7.5H7.5ZM3.33333 13.3333L1.41667 15.25C1.15278 15.5139 0.850695 15.5729 0.510417 15.4271C0.170139 15.2812 0 15.0208 0 14.6458V1.66667C0 1.20833 0.163194 0.815972 0.489583 0.489583C0.815972 0.163194 1.20833 0 1.66667 0H15C15.4583 0 15.8507 0.163194 16.1771 0.489583C16.5035 0.815972 16.6667 1.20833 16.6667 1.66667V11.6667C16.6667 12.125 16.5035 12.5174 16.1771 12.8437C15.8507 13.1701 15.4583 13.3333 15 13.3333H3.33333ZM2.625 11.6667H15V1.66667H1.66667V12.6042L2.625 11.6667Z" fill="#0D61BF"/>
</svg>
