<svg width="20" height="20" viewBox="0 0 20 20" fill="none" xmlns="http://www.w3.org/2000/svg">
<path d="M9.99996 14.1665C10.2361 14.1665 10.434 14.0866 10.5937 13.9269C10.7534 13.7672 10.8333 13.5693 10.8333 13.3332C10.8333 13.0971 10.7534 12.8991 10.5937 12.7394C10.434 12.5797 10.2361 12.4998 9.99996 12.4998C9.76385 12.4998 9.56593 12.5797 9.40621 12.7394C9.24649 12.8991 9.16663 13.0971 9.16663 13.3332C9.16663 13.5693 9.24649 13.7672 9.40621 13.9269C9.56593 14.0866 9.76385 14.1665 9.99996 14.1665ZM9.99996 10.8332C10.2361 10.8332 10.434 10.7533 10.5937 10.5936C10.7534 10.4339 10.8333 10.2359 10.8333 9.99984V6.6665C10.8333 6.43039 10.7534 6.23248 10.5937 6.07275C10.434 5.91303 10.2361 5.83317 9.99996 5.83317C9.76385 5.83317 9.56593 5.91303 9.40621 6.07275C9.24649 6.23248 9.16663 6.43039 9.16663 6.6665V9.99984C9.16663 10.2359 9.24649 10.4339 9.40621 10.5936C9.56593 10.7533 9.76385 10.8332 9.99996 10.8332ZM9.99996 18.3332C8.84718 18.3332 7.76385 18.1144 6.74996 17.6769C5.73607 17.2394 4.85413 16.6457 4.10413 15.8957C3.35413 15.1457 2.76038 14.2637 2.32288 13.2498C1.88538 12.2359 1.66663 11.1526 1.66663 9.99984C1.66663 8.84706 1.88538 7.76373 2.32288 6.74984C2.76038 5.73595 3.35413 4.854 4.10413 4.104C4.85413 3.354 5.73607 2.76025 6.74996 2.32275C7.76385 1.88525 8.84718 1.6665 9.99996 1.6665C11.1527 1.6665 12.2361 1.88525 13.25 2.32275C14.2638 2.76025 15.1458 3.354 15.8958 4.104C16.6458 4.854 17.2395 5.73595 17.677 6.74984C18.1145 7.76373 18.3333 8.84706 18.3333 9.99984C18.3333 11.1526 18.1145 12.2359 17.677 13.2498C17.2395 14.2637 16.6458 15.1457 15.8958 15.8957C15.1458 16.6457 14.2638 17.2394 13.25 17.6769C12.2361 18.1144 11.1527 18.3332 9.99996 18.3332ZM9.99996 16.6665C11.8611 16.6665 13.4375 16.0207 14.7291 14.729C16.0208 13.4373 16.6666 11.8609 16.6666 9.99984C16.6666 8.13873 16.0208 6.56234 14.7291 5.27067C13.4375 3.979 11.8611 3.33317 9.99996 3.33317C8.13885 3.33317 6.56246 3.979 5.27079 5.27067C3.97913 6.56234 3.33329 8.13873 3.33329 9.99984C3.33329 11.8609 3.97913 13.4373 5.27079 14.729C6.56246 16.0207 8.13885 16.6665 9.99996 16.6665Z" fill="#C1294F"/>
</svg>
