<svg width="20" height="20" viewBox="0 0 20 20" fill="none" xmlns="http://www.w3.org/2000/svg">
<path d="M5 19V11H15V19L10 17.5L5 19Z" fill="#00797A"/>
<rect x="3" y="1" width="14" height="14" rx="7" fill="#E2CBC0"/>
<path d="M9.92 11.62C9.44667 11.62 9.01333 11.55 8.62 11.41C8.23333 11.2633 7.91333 11.0467 7.66 10.76C7.41333 10.4733 7.26 10.1167 7.2 9.69L8.98 9.33C9.00667 9.40333 9.04333 9.49667 9.09 9.61C9.14333 9.72333 9.22333 9.82333 9.33 9.91C9.44333 9.99 9.6 10.03 9.8 10.03C10.0267 10.03 10.2 9.97333 10.32 9.86C10.4467 9.74 10.51 9.58 10.51 9.38C10.51 9.28 10.49 9.18 10.45 9.08C10.41 8.97333 10.3167 8.88667 10.17 8.82C10.03 8.75333 9.80667 8.72 9.5 8.72H8.88V7.55H9.43C9.81 7.55 10.1733 7.6 10.52 7.7C10.8733 7.8 11.1867 7.94333 11.46 8.13C11.74 8.31667 11.96 8.53667 12.12 8.79C12.2867 9.04333 12.37 9.32667 12.37 9.64C12.37 10.0667 12.25 10.43 12.01 10.73C11.7767 11.0233 11.4733 11.2467 11.1 11.4C10.7267 11.5467 10.3333 11.62 9.92 11.62ZM8.88 8.3V7.23H9.5C9.87333 7.23 10.12 7.17 10.24 7.05C10.36 6.93 10.42 6.76667 10.42 6.56C10.42 6.44 10.3933 6.33667 10.34 6.25C10.2867 6.16333 10.2133 6.09667 10.12 6.05C10.0267 5.99667 9.92 5.97 9.8 5.97C9.71333 5.97 9.61333 5.99 9.5 6.03C9.39333 6.06333 9.29333 6.13 9.2 6.23C9.11333 6.33 9.05333 6.48333 9.02 6.69L7.25 6.33C7.31 5.89667 7.47 5.53667 7.73 5.25C7.99667 4.95667 8.31667 4.74 8.69 4.6C9.07 4.45333 9.45333 4.38 9.84 4.38C10.2933 4.38 10.7033 4.46333 11.07 4.63C11.4367 4.79 11.7267 5.02 11.94 5.32C12.16 5.61333 12.27 5.96 12.27 6.36C12.27 6.7 12.1833 6.99333 12.01 7.24C11.8433 7.48 11.62 7.68 11.34 7.84C11.0667 8 10.7633 8.11667 10.43 8.19C10.0967 8.26333 9.76333 8.3 9.43 8.3H8.88Z" fill="#0A0A0A"/>
</svg>
