<svg width="20" height="20" viewBox="0 0 20 20" fill="none" xmlns="http://www.w3.org/2000/svg">
<g clip-path="url(#clip0_2793_2892)">
<path d="M12.5 16C11.8 16 11.2083 15.7583 10.725 15.275C10.2417 14.7917 10 14.2 10 13.5C10 12.8 10.2417 12.2083 10.725 11.725C11.2083 11.2417 11.8 11 12.5 11C13.2 11 13.7917 11.2417 14.275 11.725C14.7583 12.2083 15 12.8 15 13.5C15 14.2 14.7583 14.7917 14.275 15.275C13.7917 15.7583 13.2 16 12.5 16ZM3 20C2.45 20 1.97917 19.8042 1.5875 19.4125C1.19583 19.0208 1 18.55 1 18V4C1 3.45 1.19583 2.97917 1.5875 2.5875C1.97917 2.19583 2.45 2 3 2H4V1C4 0.716667 4.09583 0.479167 4.2875 0.2875C4.47917 0.0958333 4.71667 0 5 0C5.28333 0 5.52083 0.0958333 5.7125 0.2875C5.90417 0.479167 6 0.716667 6 1V2H14V1C14 0.716667 14.0958 0.479167 14.2875 0.2875C14.4792 0.0958333 14.7167 0 15 0C15.2833 0 15.5208 0.0958333 15.7125 0.2875C15.9042 0.479167 16 0.716667 16 1V2H17C17.55 2 18.0208 2.19583 18.4125 2.5875C18.8042 2.97917 19 3.45 19 4V18C19 18.55 18.8042 19.0208 18.4125 19.4125C18.0208 19.8042 17.55 20 17 20H3ZM3 18H17V8H3V18ZM3 6H17V4H3V6Z" fill="#00797A"/>
</g>
<defs>
<clipPath id="clip0_2793_2892">
<rect width="20" height="20" fill="white"/>
</clipPath>
</defs>
</svg>
