<svg width="20" height="20" viewBox="0 0 20 20" fill="none" xmlns="http://www.w3.org/2000/svg">
<path d="M15.1458 15H12.5C12.2639 15 12.066 14.9202 11.9062 14.7605C11.7465 14.6007 11.6667 14.4028 11.6667 14.1667C11.6667 13.9306 11.7465 13.7327 11.9062 13.573C12.066 13.4132 12.2639 13.3334 12.5 13.3334H15.1458L14.4167 12.6042C14.2639 12.4375 14.184 12.2396 14.1771 12.0105C14.1701 11.7813 14.25 11.5834 14.4167 11.4167C14.5833 11.25 14.7778 11.1667 15 11.1667C15.2222 11.1667 15.4167 11.25 15.5833 11.4167L17.75 13.5834C17.9167 13.75 18 13.9445 18 14.1667C18 14.3889 17.9167 14.5834 17.75 14.75L15.5833 16.9167C15.4167 17.0834 15.2222 17.1667 15 17.1667C14.7778 17.1667 14.5833 17.0834 14.4167 16.9167C14.25 16.75 14.1701 16.5521 14.1771 16.323C14.184 16.0938 14.2639 15.8959 14.4167 15.7292L15.1458 15ZM5 15L3.20833 16.7917C3.06944 16.9306 2.91667 16.9653 2.75 16.8959C2.58333 16.8264 2.5 16.6945 2.5 16.5V5.00004C2.5 4.54171 2.66319 4.14935 2.98958 3.82296C3.31597 3.49657 3.70833 3.33337 4.16667 3.33337H14.1667C14.625 3.33337 15.0174 3.49657 15.3438 3.82296C15.6701 4.14935 15.8333 4.54171 15.8333 5.00004V8.33337C15.8333 8.56949 15.7535 8.7674 15.5938 8.92712C15.434 9.08685 15.2361 9.16671 15 9.16671C14.7639 9.16671 14.566 9.08685 14.4062 8.92712C14.2465 8.7674 14.1667 8.56949 14.1667 8.33337V5.00004H4.16667V13.3334H9.16667C9.40278 13.3334 9.60069 13.4132 9.76042 13.573C9.92014 13.7327 10 13.9306 10 14.1667C10 14.4028 9.92014 14.6007 9.76042 14.7605C9.60069 14.9202 9.40278 15 9.16667 15H5Z" fill="#0D61BF"/>
</svg>
