<svg width="20" height="20" viewBox="0 0 20 20" fill="none" xmlns="http://www.w3.org/2000/svg">
<path d="M9.16671 12.354V14.9998C9.16671 15.2359 9.24657 15.4339 9.40629 15.5936C9.56601 15.7533 9.76393 15.8332 10 15.8332C10.2362 15.8332 10.4341 15.7533 10.5938 15.5936C10.7535 15.4339 10.8334 15.2359 10.8334 14.9998V12.354L11.5834 13.104C11.6667 13.1873 11.7605 13.2498 11.8646 13.2915C11.9688 13.3332 12.073 13.3505 12.1771 13.3436C12.2813 13.3366 12.382 13.3123 12.4792 13.2707C12.5764 13.229 12.6667 13.1665 12.75 13.0832C12.9028 12.9165 12.9827 12.7221 12.9896 12.4998C12.9966 12.2776 12.9167 12.0832 12.75 11.9165L10.5834 9.74984C10.5 9.6665 10.4098 9.60748 10.3125 9.57275C10.2153 9.53803 10.1112 9.52067 10 9.52067C9.88893 9.52067 9.78476 9.53803 9.68754 9.57275C9.59032 9.60748 9.50004 9.6665 9.41671 9.74984L7.25004 11.9165C7.08337 12.0832 7.00351 12.2776 7.01046 12.4998C7.0174 12.7221 7.10421 12.9165 7.27087 13.0832C7.43754 13.2359 7.63198 13.3158 7.85421 13.3228C8.07643 13.3297 8.27087 13.2498 8.43754 13.0832L9.16671 12.354ZM5.00004 18.3332C4.54171 18.3332 4.14935 18.17 3.82296 17.8436C3.49657 17.5172 3.33337 17.1248 3.33337 16.6665V3.33317C3.33337 2.87484 3.49657 2.48248 3.82296 2.15609C4.14935 1.8297 4.54171 1.6665 5.00004 1.6665H10.9792C11.2014 1.6665 11.4132 1.70817 11.6146 1.7915C11.816 1.87484 11.9931 1.99289 12.1459 2.14567L16.1875 6.18734C16.3403 6.34011 16.4584 6.5172 16.5417 6.71859C16.625 6.91998 16.6667 7.13178 16.6667 7.354V16.6665C16.6667 17.1248 16.5035 17.5172 16.1771 17.8436C15.8507 18.17 15.4584 18.3332 15 18.3332H5.00004ZM10.8334 6.6665V3.33317H5.00004V16.6665H15V7.49984H11.6667C11.4306 7.49984 11.2327 7.41998 11.073 7.26025C10.9132 7.10053 10.8334 6.90261 10.8334 6.6665Z" fill="#0D61BF"/>
</svg>
