<svg width="17" height="17" viewBox="0 0 17 17" fill="none" xmlns="http://www.w3.org/2000/svg">
<path d="M10.8334 16.3958C11.0556 16.3958 11.2501 16.316 11.4167 16.1562C11.5834 15.9965 11.6667 15.7917 11.6667 15.5417V12.9583C13.0695 12.8472 14.2536 12.2778 15.2188 11.25C16.1841 10.2222 16.6667 8.99306 16.6667 7.5625C16.6667 6.04861 16.1424 4.76736 15.0938 3.71875C14.0452 2.67014 12.764 2.14583 11.2501 2.14583H10.6876L11.4376 1.39583C11.5904 1.24306 11.6667 1.05208 11.6667 0.822917C11.6667 0.59375 11.5834 0.395833 11.4167 0.229167C11.264 0.0763889 11.0695 0 10.8334 0C10.5973 0 10.4029 0.0763889 10.2501 0.229167L8.08341 2.39583C8.00008 2.47917 7.94105 2.56944 7.90633 2.66667C7.87161 2.76389 7.85425 2.86806 7.85425 2.97917C7.85425 3.09028 7.87161 3.19444 7.90633 3.29167C7.94105 3.38889 8.00008 3.47917 8.08341 3.5625L10.2501 5.72917C10.4029 5.88194 10.5938 5.96181 10.823 5.96875C11.0522 5.97569 11.2501 5.89583 11.4167 5.72917C11.5695 5.57639 11.6459 5.38194 11.6459 5.14583C11.6459 4.90972 11.5695 4.71528 11.4167 4.5625L10.6876 3.8125H11.2501C12.2917 3.8125 13.1772 4.17708 13.9063 4.90625C14.6355 5.63542 15.0001 6.52083 15.0001 7.5625C15.0001 8.60417 14.6355 9.48958 13.9063 10.2188C13.1772 10.9479 12.2917 11.3125 11.2501 11.3125H10.0001V13.5417L7.77091 11.3125H5.41675C4.37508 11.3125 3.48966 10.9479 2.7605 10.2188C2.03133 9.48958 1.66675 8.60417 1.66675 7.5625C1.66675 6.52083 2.03133 5.63542 2.7605 4.90625C3.48966 4.17708 4.37508 3.8125 5.41675 3.8125C5.65286 3.8125 5.85077 3.73264 6.0105 3.57292C6.17022 3.41319 6.25008 3.21528 6.25008 2.97917C6.25008 2.74306 6.17022 2.54514 6.0105 2.38542C5.85077 2.22569 5.65286 2.14583 5.41675 2.14583C3.90286 2.14583 2.62161 2.67014 1.573 3.71875C0.524385 4.76736 8.01086e-05 6.04861 8.01086e-05 7.5625C8.01086e-05 9.07639 0.524385 10.3576 1.573 11.4062C2.62161 12.4549 3.90286 12.9792 5.41675 12.9792H7.08341L10.2501 16.1458C10.3334 16.2292 10.4237 16.2917 10.5209 16.3333C10.6181 16.375 10.7223 16.3958 10.8334 16.3958Z" fill="#00797A"/>
</svg>
