<svg width="20" height="20" viewBox="0 0 20 20" fill="none" xmlns="http://www.w3.org/2000/svg">
<path d="M2.27086 17.5C2.11808 17.5 1.97919 17.4618 1.85419 17.3854C1.72919 17.309 1.63197 17.2083 1.56253 17.0833C1.49308 16.9583 1.45489 16.8229 1.44794 16.6771C1.441 16.5312 1.47919 16.3889 1.56253 16.25L9.27086 2.91667C9.35419 2.77778 9.46183 2.67361 9.59378 2.60417C9.72572 2.53472 9.86114 2.5 10 2.5C10.1389 2.5 10.2743 2.53472 10.4063 2.60417C10.5382 2.67361 10.6459 2.77778 10.7292 2.91667L18.4375 16.25C18.5209 16.3889 18.5591 16.5312 18.5521 16.6771C18.5452 16.8229 18.507 16.9583 18.4375 17.0833C18.3681 17.2083 18.2709 17.309 18.1459 17.3854C18.0209 17.4618 17.882 17.5 17.7292 17.5H2.27086ZM3.70836 15.8333H16.2917L10 5L3.70836 15.8333ZM10 15C10.2361 15 10.4341 14.9201 10.5938 14.7604C10.7535 14.6007 10.8334 14.4028 10.8334 14.1667C10.8334 13.9306 10.7535 13.7326 10.5938 13.5729C10.4341 13.4132 10.2361 13.3333 10 13.3333C9.76392 13.3333 9.566 13.4132 9.40628 13.5729C9.24656 13.7326 9.16669 13.9306 9.16669 14.1667C9.16669 14.4028 9.24656 14.6007 9.40628 14.7604C9.566 14.9201 9.76392 15 10 15ZM10 12.5C10.2361 12.5 10.4341 12.4201 10.5938 12.2604C10.7535 12.1007 10.8334 11.9028 10.8334 11.6667V9.16667C10.8334 8.93056 10.7535 8.73264 10.5938 8.57292C10.4341 8.41319 10.2361 8.33333 10 8.33333C9.76392 8.33333 9.566 8.41319 9.40628 8.57292C9.24656 8.73264 9.16669 8.93056 9.16669 9.16667V11.6667C9.16669 11.9028 9.24656 12.1007 9.40628 12.2604C9.566 12.4201 9.76392 12.5 10 12.5Z" fill="#CF8835"/>
</svg>
