<svg width="20" height="20" viewBox="0 0 20 20" fill="none" xmlns="http://www.w3.org/2000/svg">
<path d="M3.83773 14.3026C4.01918 14.1213 4.31378 14.1214 4.49528 14.3026L5.69727 15.5046C5.87863 15.6861 5.87865 15.9807 5.69727 16.1622L4.49528 17.3642C4.31381 17.5456 4.01924 17.5455 3.83773 17.3642L2.63575 16.1622C2.45448 15.9807 2.45437 15.6861 2.63575 15.5046L3.83773 14.3026Z" fill="#00797A"/>
<path fill-rule="evenodd" clip-rule="evenodd" d="M9.99984 2.50008C10.3879 2.50008 10.7247 2.76818 10.812 3.14624L11.1245 4.50284C11.6261 6.67631 13.3236 8.37379 15.4971 8.8754L16.8537 9.1879C17.2318 9.27515 17.4998 9.61206 17.4998 10.0001C17.4998 10.3881 17.2318 10.725 16.8537 10.8123L15.4971 11.1248C13.3236 11.6264 11.6261 13.3239 11.1245 15.4973L10.812 16.8539C10.7248 17.232 10.3879 17.5001 9.99984 17.5001C9.61183 17.5 9.27492 17.232 9.18767 16.8539L8.87517 15.4973C8.37356 13.3239 6.67608 11.6263 4.50261 11.1248L3.146 10.8123C2.76794 10.725 2.49984 10.3881 2.49984 10.0001C2.49988 9.61209 2.76795 9.27518 3.146 9.1879L4.50261 8.8754C6.67611 8.37382 8.37358 6.67634 8.87517 4.50284L9.18767 3.14624C9.27494 2.76818 9.61185 2.50012 9.99984 2.50008ZM9.99984 6.33471C9.25316 7.9523 7.95206 9.25339 6.33448 10.0001C7.9518 10.7466 9.2531 12.0474 9.99984 13.6646C10.7465 12.0476 12.0474 10.7467 13.6644 10.0001C12.0472 9.25333 10.7464 7.95204 9.99984 6.33471Z" fill="#00797A"/>
<path d="M15.5044 2.63598C15.6858 2.45462 15.9804 2.45472 16.162 2.63598L17.3639 3.83797C17.5453 4.01947 17.5453 4.31405 17.3639 4.49552L16.162 5.69751C15.9805 5.8789 15.6859 5.87884 15.5044 5.69751L14.3024 4.49552C14.1212 4.31401 14.121 4.01941 14.3024 3.83797L15.5044 2.63598Z" fill="#00797A"/>
</svg>
