<svg width="20" height="20" viewBox="0 0 20 20" fill="none" xmlns="http://www.w3.org/2000/svg">
<path d="M7.50008 17.5833C7.27786 17.5833 7.08342 17.5035 6.91675 17.3438C6.75008 17.184 6.66675 16.9792 6.66675 16.7292V14.1458C5.26397 14.0347 4.07994 13.4653 3.11466 12.4375C2.14939 11.4097 1.66675 10.1806 1.66675 8.75C1.66675 7.23611 2.19105 5.95486 3.23966 4.90625C4.28828 3.85764 5.56953 3.33333 7.08342 3.33333H7.64592L6.89592 2.58333C6.74314 2.43056 6.66675 2.23958 6.66675 2.01042C6.66675 1.78125 6.75008 1.58333 6.91675 1.41667C7.06953 1.26389 7.26397 1.1875 7.50008 1.1875C7.73619 1.1875 7.93064 1.26389 8.08342 1.41667L10.2501 3.58333C10.3334 3.66667 10.3924 3.75694 10.4272 3.85417C10.4619 3.95139 10.4792 4.05556 10.4792 4.16667C10.4792 4.27778 10.4619 4.38194 10.4272 4.47917C10.3924 4.57639 10.3334 4.66667 10.2501 4.75L8.08342 6.91667C7.93064 7.06944 7.73967 7.14931 7.5105 7.15625C7.28133 7.16319 7.08342 7.08333 6.91675 6.91667C6.76397 6.76389 6.68758 6.56944 6.68758 6.33333C6.68758 6.09722 6.76397 5.90278 6.91675 5.75L7.64592 5H7.08342C6.04175 5 5.15633 5.36458 4.42717 6.09375C3.698 6.82292 3.33341 7.70833 3.33341 8.75C3.33341 9.79167 3.698 10.6771 4.42717 11.4062C5.15633 12.1354 6.04175 12.5 7.08342 12.5H8.33342V14.7292L10.5626 12.5H12.9167C13.9584 12.5 14.8438 12.1354 15.573 11.4062C16.3022 10.6771 16.6667 9.79167 16.6667 8.75C16.6667 7.70833 16.3022 6.82292 15.573 6.09375C14.8438 5.36458 13.9584 5 12.9167 5C12.6806 5 12.4827 4.92014 12.323 4.76042C12.1633 4.60069 12.0834 4.40278 12.0834 4.16667C12.0834 3.93056 12.1633 3.73264 12.323 3.57292C12.4827 3.41319 12.6806 3.33333 12.9167 3.33333C14.4306 3.33333 15.7119 3.85764 16.7605 4.90625C17.8091 5.95486 18.3334 7.23611 18.3334 8.75C18.3334 10.2639 17.8091 11.5451 16.7605 12.5938C15.7119 13.6424 14.4306 14.1667 12.9167 14.1667H11.2501L8.08342 17.3333C8.00008 17.4167 7.9098 17.4792 7.81258 17.5208C7.71536 17.5625 7.61119 17.5833 7.50008 17.5833Z" fill="#00797A"/>
</svg>
