<svg width="20" height="20" viewBox="0 0 20 20" xmlns="http://www.w3.org/2000/svg">
<path d="M2.50065 13.3333C2.05621 13.3333 1.66732 13.1667 1.33398 12.8333C1.00065 12.5 0.833984 12.1111 0.833984 11.6667V10C0.833984 9.90278 0.847873 9.79861 0.875651 9.6875C0.903429 9.57639 0.931207 9.47222 0.958984 9.375L3.45898 3.5C3.58398 3.22222 3.79232 2.98611 4.08398 2.79167C4.37565 2.59722 4.68121 2.5 5.00065 2.5H14.1673V13.3333L9.16732 18.2917C8.95898 18.5 8.71246 18.6215 8.42773 18.6562C8.14301 18.691 7.86871 18.6389 7.60482 18.5C7.34093 18.3611 7.14648 18.1667 7.02148 17.9167C6.89648 17.6667 6.86871 17.4097 6.93815 17.1458L7.87565 13.3333H2.50065ZM12.5007 12.625V4.16667H5.00065L2.50065 10V11.6667H10.0007L8.87565 16.25L12.5007 12.625ZM16.6673 2.5C17.1257 2.5 17.518 2.66319 17.8444 2.98958C18.1708 3.31597 18.334 3.70833 18.334 4.16667V11.6667C18.334 12.125 18.1708 12.5174 17.8444 12.8437C17.518 13.1701 17.1257 13.3333 16.6673 13.3333H14.1673V11.6667H16.6673V4.16667H14.1673V2.5H16.6673Z" fill="#0D61BF"/>
</svg>
