<svg width="22" height="22" viewBox="0 0 22 22" fill="none" xmlns="http://www.w3.org/2000/svg">
<mask id="mask0_2778_183" style="mask-type:alpha" maskUnits="userSpaceOnUse" x="-1" y="-1" width="24" height="24">
<rect x="-1" y="-1" width="24" height="24" fill="#D9D9D9"/>
</mask>
<g mask="url(#mask0_2778_183)">
<path d="M11 13.9748C10.8667 13.9748 10.7417 13.954 10.625 13.9123C10.5084 13.8706 10.4 13.7998 10.3 13.6998L5.70005 9.0998C5.51672 8.91647 5.42505 8.68314 5.42505 8.3998C5.42505 8.11647 5.51672 7.88314 5.70005 7.6998C5.88338 7.51647 6.11672 7.4248 6.40005 7.4248C6.68338 7.4248 6.91672 7.51647 7.10005 7.6998L11 11.5998L14.9 7.6998C15.0834 7.51647 15.3167 7.4248 15.6 7.4248C15.8834 7.4248 16.1167 7.51647 16.3 7.6998C16.4834 7.88314 16.575 8.11647 16.575 8.3998C16.575 8.68314 16.4834 8.91647 16.3 9.0998L11.7 13.6998C11.6 13.7998 11.4917 13.8706 11.375 13.9123C11.2584 13.954 11.1334 13.9748 11 13.9748Z" fill="#767676"/>
</g>
</svg>
