<svg width="710" height="120" viewBox="0 0 710 120" fill="none" xmlns="http://www.w3.org/2000/svg">
<path d="M41.9043 22.54H26.6602V64H16.4062V22.54H1.36719V14.2344H41.9043V22.54ZM38.9863 45.167C38.9863 41.4984 39.6927 38.2285 41.1055 35.3574C42.5182 32.4863 44.5462 30.2646 47.1895 28.6924C49.8555 27.1201 52.943 26.334 56.4521 26.334C61.4424 26.334 65.5098 27.8607 68.6543 30.9141C71.8216 33.9674 73.5876 38.1146 73.9521 43.3555L74.0205 45.8848C74.0205 51.5586 72.4368 56.1159 69.2695 59.5566C66.1022 62.9746 61.8525 64.6836 56.5205 64.6836C51.1885 64.6836 46.9274 62.9746 43.7373 59.5566C40.57 56.1387 38.9863 51.4902 38.9863 45.6113V45.167ZM48.8643 45.8848C48.8643 49.3939 49.5251 52.0827 50.8467 53.9512C52.1683 55.7969 54.0596 56.7197 56.5205 56.7197C58.9131 56.7197 60.7816 55.8083 62.126 53.9854C63.4704 52.1396 64.1426 49.2002 64.1426 45.167C64.1426 41.7262 63.4704 39.0602 62.126 37.1689C60.7816 35.2777 58.8903 34.332 56.4521 34.332C54.0368 34.332 52.1683 35.2777 50.8467 37.1689C49.5251 39.0374 48.8643 41.9427 48.8643 45.8848ZM113.896 45.8506C113.896 51.5472 112.597 56.1159 109.999 59.5566C107.424 62.9746 103.938 64.6836 99.54 64.6836C95.8031 64.6836 92.7839 63.3848 90.4824 60.7871V78.2188H80.6045V27.0176H89.7646L90.1064 30.6406C92.499 27.7695 95.6208 26.334 99.4717 26.334C104.029 26.334 107.572 28.0202 110.102 31.3926C112.631 34.765 113.896 39.4134 113.896 45.3379V45.8506ZM104.018 45.1328C104.018 41.6921 103.402 39.0374 102.172 37.1689C100.964 35.3005 99.1982 34.3662 96.874 34.3662C93.7751 34.3662 91.6445 35.5511 90.4824 37.9209V53.0625C91.6901 55.5007 93.8434 56.7197 96.9424 56.7197C101.659 56.7197 104.018 52.8574 104.018 45.1328ZM135.929 56.7197C137.752 56.7197 139.233 56.2184 140.372 55.2158C141.511 54.2132 142.104 52.8802 142.149 51.2168H151.412C151.389 53.7233 150.706 56.0247 149.361 58.1211C148.017 60.1947 146.171 61.8125 143.824 62.9746C141.5 64.1139 138.925 64.6836 136.1 64.6836C130.813 64.6836 126.643 63.0088 123.59 59.6592C120.536 56.2868 119.01 51.6383 119.01 45.7139V45.0645C119.01 39.3678 120.525 34.8219 123.556 31.4268C126.586 28.0316 130.745 26.334 136.031 26.334C140.657 26.334 144.36 27.6556 147.14 30.2988C149.942 32.9193 151.367 36.417 151.412 40.792H142.149C142.104 38.8779 141.511 37.3285 140.372 36.1436C139.233 34.9359 137.729 34.332 135.86 34.332C133.559 34.332 131.816 35.1751 130.631 36.8613C129.469 38.5247 128.888 41.2363 128.888 44.9961V46.0215C128.888 49.8268 129.469 52.5612 130.631 54.2246C131.793 55.888 133.559 56.7197 135.929 56.7197ZM156.014 45.167C156.014 41.4984 156.72 38.2285 158.133 35.3574C159.546 32.4863 161.574 30.2646 164.217 28.6924C166.883 27.1201 169.97 26.334 173.479 26.334C178.47 26.334 182.537 27.8607 185.682 30.9141C188.849 33.9674 190.615 38.1146 190.979 43.3555L191.048 45.8848C191.048 51.5586 189.464 56.1159 186.297 59.5566C183.13 62.9746 178.88 64.6836 173.548 64.6836C168.216 64.6836 163.955 62.9746 160.765 59.5566C157.597 56.1387 156.014 51.4902 156.014 45.6113V45.167ZM165.892 45.8848C165.892 49.3939 166.552 52.0827 167.874 53.9512C169.196 55.7969 171.087 56.7197 173.548 56.7197C175.94 56.7197 177.809 55.8083 179.153 53.9854C180.498 52.1396 181.17 49.2002 181.17 45.167C181.17 41.7262 180.498 39.0602 179.153 37.1689C177.809 35.2777 175.918 34.332 173.479 34.332C171.064 34.332 169.196 35.2777 167.874 37.1689C166.552 39.0374 165.892 41.9427 165.892 45.8848ZM196.094 45.2354C196.094 39.4704 197.381 34.8789 199.956 31.4609C202.554 28.043 206.097 26.334 210.586 26.334C214.186 26.334 217.16 27.6784 219.507 30.3672V11.5H229.419V64H220.498L220.02 60.0693C217.559 63.1455 214.391 64.6836 210.518 64.6836C206.165 64.6836 202.668 62.9746 200.024 59.5566C197.404 56.1159 196.094 51.3421 196.094 45.2354ZM205.972 45.9531C205.972 49.4167 206.576 52.0713 207.783 53.917C208.991 55.7627 210.745 56.6855 213.047 56.6855C216.1 56.6855 218.254 55.3981 219.507 52.8232V38.2285C218.276 35.6536 216.146 34.3662 213.115 34.3662C208.353 34.3662 205.972 38.2285 205.972 45.9531ZM254.597 64.6836C249.174 64.6836 244.753 63.0202 241.335 59.6934C237.94 56.3665 236.242 51.9346 236.242 46.3975V45.4404C236.242 41.7262 236.96 38.4108 238.396 35.4941C239.831 32.5547 241.859 30.2988 244.479 28.7266C247.123 27.1315 250.131 26.334 253.503 26.334C258.562 26.334 262.538 27.929 265.432 31.1191C268.348 34.3092 269.807 38.8324 269.807 44.6885V48.7217H246.257C246.576 51.137 247.533 53.0739 249.128 54.5322C250.746 55.9906 252.785 56.7197 255.246 56.7197C259.051 56.7197 262.025 55.3411 264.167 52.584L269.021 58.0186C267.539 60.1149 265.534 61.7555 263.005 62.9404C260.476 64.1025 257.673 64.6836 254.597 64.6836ZM253.469 34.332C251.509 34.332 249.914 34.9928 248.684 36.3145C247.476 37.6361 246.701 39.5273 246.359 41.9883H260.1V41.2021C260.054 39.0146 259.462 37.3285 258.322 36.1436C257.183 34.9359 255.565 34.332 253.469 34.332ZM296.728 36.2803C295.383 36.098 294.198 36.0068 293.173 36.0068C289.436 36.0068 286.986 37.2715 285.824 39.8008V64H275.946V27.0176H285.277L285.551 31.4268C287.533 28.0316 290.279 26.334 293.788 26.334C294.882 26.334 295.907 26.4821 296.864 26.7783L296.728 36.2803Z" fill="#2A2A2A"/>
<path d="M359.354 49.6445L366.053 14.2344H376.272L365.232 64H354.91L346.81 30.709L338.709 64H328.387L317.347 14.2344H327.566L334.3 49.5762L342.503 14.2344H351.185L359.354 49.6445ZM401.963 64C401.507 63.1113 401.177 62.0062 400.972 60.6846C398.579 63.3506 395.469 64.6836 391.641 64.6836C388.018 64.6836 385.01 63.6354 382.617 61.5391C380.247 59.4427 379.062 56.7995 379.062 53.6094C379.062 49.6901 380.509 46.6823 383.403 44.5859C386.32 42.4896 390.524 41.43 396.016 41.4072H400.562V39.2881C400.562 37.5791 400.117 36.2119 399.229 35.1865C398.363 34.1611 396.984 33.6484 395.093 33.6484C393.429 33.6484 392.119 34.0472 391.162 34.8447C390.228 35.6423 389.761 36.736 389.761 38.126H379.883C379.883 35.984 380.544 34.0016 381.865 32.1787C383.187 30.3558 385.055 28.9316 387.471 27.9062C389.886 26.8581 392.598 26.334 395.605 26.334C400.163 26.334 403.774 27.4847 406.44 29.7861C409.129 32.0648 410.474 35.2777 410.474 39.4248V55.4551C410.496 58.9642 410.986 61.6188 411.943 63.4189V64H401.963ZM393.794 57.1299C395.252 57.1299 396.597 56.8109 397.827 56.1729C399.058 55.512 399.969 54.6348 400.562 53.541V47.1836H396.87C391.925 47.1836 389.294 48.8926 388.975 52.3105L388.94 52.8916C388.94 54.1221 389.373 55.1361 390.239 55.9336C391.105 56.7311 392.29 57.1299 393.794 57.1299ZM428.986 64H419.074V11.5H428.986V64ZM448.08 64H438.168V11.5H448.08V64ZM473.771 64.6836C468.347 64.6836 463.927 63.0202 460.509 59.6934C457.114 56.3665 455.416 51.9346 455.416 46.3975V45.4404C455.416 41.7262 456.134 38.4108 457.569 35.4941C459.005 32.5547 461.033 30.2988 463.653 28.7266C466.297 27.1315 469.304 26.334 472.677 26.334C477.735 26.334 481.712 27.929 484.605 31.1191C487.522 34.3092 488.98 38.8324 488.98 44.6885V48.7217H465.431C465.75 51.137 466.707 53.0739 468.302 54.5322C469.92 55.9906 471.959 56.7197 474.42 56.7197C478.225 56.7197 481.199 55.3411 483.341 52.584L488.194 58.0186C486.713 60.1149 484.708 61.7555 482.179 62.9404C479.649 64.1025 476.847 64.6836 473.771 64.6836ZM472.643 34.332C470.683 34.332 469.088 34.9928 467.857 36.3145C466.65 37.6361 465.875 39.5273 465.533 41.9883H479.273V41.2021C479.228 39.0146 478.635 37.3285 477.496 36.1436C476.357 34.9359 474.739 34.332 472.643 34.332ZM506.946 17.9258V27.0176H513.27V34.2637H506.946V52.7207C506.946 54.0879 507.208 55.0677 507.732 55.6602C508.257 56.2526 509.259 56.5488 510.74 56.5488C511.834 56.5488 512.802 56.4691 513.646 56.3096V63.7949C511.709 64.3874 509.715 64.6836 507.664 64.6836C500.737 64.6836 497.205 61.1859 497.068 54.1904V34.2637H491.668V27.0176H497.068V17.9258H506.946Z" fill="#0D61BF"/>
<path d="M7.00781 104.395C5.07812 103.84 3.67188 103.16 2.78906 102.355C1.91406 101.543 1.47656 100.543 1.47656 99.3555C1.47656 98.0117 2.01172 96.9023 3.08203 96.0273C4.16016 95.1445 5.55859 94.7031 7.27734 94.7031C8.44922 94.7031 9.49219 94.9297 10.4062 95.3828C11.3281 95.8359 12.0391 96.4609 12.5391 97.2578C13.0469 98.0547 13.3008 98.9258 13.3008 99.8711H11.0391C11.0391 98.8398 10.7109 98.0312 10.0547 97.4453C9.39844 96.8516 8.47266 96.5547 7.27734 96.5547C6.16797 96.5547 5.30078 96.8008 4.67578 97.293C4.05859 97.7773 3.75 98.4531 3.75 99.3203C3.75 100.016 4.04297 100.605 4.62891 101.09C5.22266 101.566 6.22656 102.004 7.64062 102.402C9.0625 102.801 10.1719 103.242 10.9688 103.727C11.7734 104.203 12.3672 104.762 12.75 105.402C13.1406 106.043 13.3359 106.797 13.3359 107.664C13.3359 109.047 12.7969 110.156 11.7188 110.992C10.6406 111.82 9.19922 112.234 7.39453 112.234C6.22266 112.234 5.12891 112.012 4.11328 111.566C3.09766 111.113 2.3125 110.496 1.75781 109.715C1.21094 108.934 0.9375 108.047 0.9375 107.055H3.19922C3.19922 108.086 3.57812 108.902 4.33594 109.504C5.10156 110.098 6.12109 110.395 7.39453 110.395C8.58203 110.395 9.49219 110.152 10.125 109.668C10.7578 109.184 11.0742 108.523 11.0742 107.688C11.0742 106.852 10.7812 106.207 10.1953 105.754C9.60938 105.293 8.54688 104.84 7.00781 104.395ZM18.2461 112H16.0781V99.3203H18.2461V112ZM15.9023 95.957C15.9023 95.6055 16.0078 95.3086 16.2188 95.0664C16.4375 94.8242 16.7578 94.7031 17.1797 94.7031C17.6016 94.7031 17.9219 94.8242 18.1406 95.0664C18.3594 95.3086 18.4688 95.6055 18.4688 95.957C18.4688 96.3086 18.3594 96.6016 18.1406 96.8359C17.9219 97.0703 17.6016 97.1875 17.1797 97.1875C16.7578 97.1875 16.4375 97.0703 16.2188 96.8359C16.0078 96.6016 15.9023 96.3086 15.9023 95.957ZM23.7656 99.3203L23.8242 100.727C24.7539 99.6328 26.0078 99.0859 27.5859 99.0859C29.3594 99.0859 30.5664 99.7656 31.207 101.125C31.6289 100.516 32.1758 100.023 32.8477 99.6484C33.5273 99.2734 34.3281 99.0859 35.25 99.0859C38.0312 99.0859 39.4453 100.559 39.4922 103.504V112H37.3242V103.633C37.3242 102.727 37.1172 102.051 36.7031 101.605C36.2891 101.152 35.5938 100.926 34.6172 100.926C33.8125 100.926 33.1445 101.168 32.6133 101.652C32.082 102.129 31.7734 102.773 31.6875 103.586V112H29.5078V103.691C29.5078 101.848 28.6055 100.926 26.8008 100.926C25.3789 100.926 24.4062 101.531 23.8828 102.742V112H21.7148V99.3203H23.7656ZM53.4844 105.801C53.4844 107.73 53.043 109.285 52.1602 110.465C51.2773 111.645 50.082 112.234 48.5742 112.234C47.0352 112.234 45.8242 111.746 44.9414 110.77V116.875H42.7734V99.3203H44.7539L44.8594 100.727C45.7422 99.6328 46.9688 99.0859 48.5391 99.0859C50.0625 99.0859 51.2656 99.6602 52.1484 100.809C53.0391 101.957 53.4844 103.555 53.4844 105.602V105.801ZM51.3164 105.555C51.3164 104.125 51.0117 102.996 50.4023 102.168C49.793 101.34 48.957 100.926 47.8945 100.926C46.582 100.926 45.5977 101.508 44.9414 102.672V108.73C45.5898 109.887 46.582 110.465 47.918 110.465C48.957 110.465 49.7812 110.055 50.3906 109.234C51.0078 108.406 51.3164 107.18 51.3164 105.555ZM58.6055 112H56.4375V94H58.6055V112ZM64.4414 112H62.2734V99.3203H64.4414V112ZM62.0977 95.957C62.0977 95.6055 62.2031 95.3086 62.4141 95.0664C62.6328 94.8242 62.9531 94.7031 63.375 94.7031C63.7969 94.7031 64.1172 94.8242 64.3359 95.0664C64.5547 95.3086 64.6641 95.6055 64.6641 95.957C64.6641 96.3086 64.5547 96.6016 64.3359 96.8359C64.1172 97.0703 63.7969 97.1875 63.375 97.1875C62.9531 97.1875 62.6328 97.0703 62.4141 96.8359C62.2031 96.6016 62.0977 96.3086 62.0977 95.957ZM68.9883 112V100.996H66.9844V99.3203H68.9883V98.0195C68.9883 96.6602 69.3516 95.6094 70.0781 94.8672C70.8047 94.125 71.832 93.7539 73.1602 93.7539C73.6602 93.7539 74.1562 93.8203 74.6484 93.9531L74.5312 95.7109C74.1641 95.6406 73.7734 95.6055 73.3594 95.6055C72.6562 95.6055 72.1133 95.8125 71.7305 96.2266C71.3477 96.6328 71.1562 97.2188 71.1562 97.9844V99.3203H73.8633V100.996H71.1562V112H68.9883ZM80.4141 108.824L83.3672 99.3203H85.6875L80.5898 113.957C79.8008 116.066 78.5469 117.121 76.8281 117.121L76.418 117.086L75.6094 116.934V115.176L76.1953 115.223C76.9297 115.223 77.5 115.074 77.9062 114.777C78.3203 114.48 78.6602 113.938 78.9258 113.148L79.4062 111.859L74.8828 99.3203H77.25L80.4141 108.824ZM89.9883 112H87.8203V99.3203H89.9883V112ZM87.6445 95.957C87.6445 95.6055 87.75 95.3086 87.9609 95.0664C88.1797 94.8242 88.5 94.7031 88.9219 94.7031C89.3438 94.7031 89.6641 94.8242 89.8828 95.0664C90.1016 95.3086 90.2109 95.6055 90.2109 95.957C90.2109 96.3086 90.1016 96.6016 89.8828 96.8359C89.6641 97.0703 89.3438 97.1875 88.9219 97.1875C88.5 97.1875 88.1797 97.0703 87.9609 96.8359C87.75 96.6016 87.6445 96.3086 87.6445 95.957ZM95.5195 99.3203L95.5898 100.914C96.5586 99.6953 97.8242 99.0859 99.3867 99.0859C102.066 99.0859 103.418 100.598 103.441 103.621V112H101.273V103.609C101.266 102.695 101.055 102.02 100.641 101.582C100.234 101.145 99.5977 100.926 98.7305 100.926C98.0273 100.926 97.4102 101.113 96.8789 101.488C96.3477 101.863 95.9336 102.355 95.6367 102.965V112H93.4688V99.3203H95.5195ZM106.195 105.555C106.195 103.578 106.652 102.008 107.566 100.844C108.48 99.6719 109.691 99.0859 111.199 99.0859C112.746 99.0859 113.953 99.6328 114.82 100.727L114.926 99.3203H116.906V111.695C116.906 113.336 116.418 114.629 115.441 115.574C114.473 116.52 113.168 116.992 111.527 116.992C110.613 116.992 109.719 116.797 108.844 116.406C107.969 116.016 107.301 115.48 106.84 114.801L107.965 113.5C108.895 114.648 110.031 115.223 111.375 115.223C112.43 115.223 113.25 114.926 113.836 114.332C114.43 113.738 114.727 112.902 114.727 111.824V110.734C113.859 111.734 112.676 112.234 111.176 112.234C109.691 112.234 108.488 111.637 107.566 110.441C106.652 109.246 106.195 107.617 106.195 105.555ZM108.375 105.801C108.375 107.23 108.668 108.355 109.254 109.176C109.84 109.988 110.66 110.395 111.715 110.395C113.082 110.395 114.086 109.773 114.727 108.531V102.742C114.062 101.531 113.066 100.926 111.738 100.926C110.684 100.926 109.859 101.336 109.266 102.156C108.672 102.977 108.375 104.191 108.375 105.801ZM129.082 96.25V99.3203H131.449V100.996H129.082V108.859C129.082 109.367 129.188 109.75 129.398 110.008C129.609 110.258 129.969 110.383 130.477 110.383C130.727 110.383 131.07 110.336 131.508 110.242V112C130.938 112.156 130.383 112.234 129.844 112.234C128.875 112.234 128.145 111.941 127.652 111.355C127.16 110.77 126.914 109.938 126.914 108.859V100.996H124.605V99.3203H126.914V96.25H129.082ZM136.16 100.855C137.121 99.6758 138.371 99.0859 139.91 99.0859C142.59 99.0859 143.941 100.598 143.965 103.621V112H141.797V103.609C141.789 102.695 141.578 102.02 141.164 101.582C140.758 101.145 140.121 100.926 139.254 100.926C138.551 100.926 137.934 101.113 137.402 101.488C136.871 101.863 136.457 102.355 136.16 102.965V112H133.992V94H136.16V100.855ZM152.473 112.234C150.754 112.234 149.355 111.672 148.277 110.547C147.199 109.414 146.66 107.902 146.66 106.012V105.613C146.66 104.355 146.898 103.234 147.375 102.25C147.859 101.258 148.531 100.484 149.391 99.9297C150.258 99.3672 151.195 99.0859 152.203 99.0859C153.852 99.0859 155.133 99.6289 156.047 100.715C156.961 101.801 157.418 103.355 157.418 105.379V106.281H148.828C148.859 107.531 149.223 108.543 149.918 109.316C150.621 110.082 151.512 110.465 152.59 110.465C153.355 110.465 154.004 110.309 154.535 109.996C155.066 109.684 155.531 109.27 155.93 108.754L157.254 109.785C156.191 111.418 154.598 112.234 152.473 112.234ZM152.203 100.867C151.328 100.867 150.594 101.188 150 101.828C149.406 102.461 149.039 103.352 148.898 104.5H155.25V104.336C155.188 103.234 154.891 102.383 154.359 101.781C153.828 101.172 153.109 100.867 152.203 100.867ZM177.117 109.012L179.555 99.3203H181.723L178.031 112H176.273L173.191 102.391L170.191 112H168.434L164.754 99.3203H166.91L169.406 108.812L172.359 99.3203H174.105L177.117 109.012ZM191.766 112C191.641 111.75 191.539 111.305 191.461 110.664C190.453 111.711 189.25 112.234 187.852 112.234C186.602 112.234 185.574 111.883 184.77 111.18C183.973 110.469 183.574 109.57 183.574 108.484C183.574 107.164 184.074 106.141 185.074 105.414C186.082 104.68 187.496 104.312 189.316 104.312H191.426V103.316C191.426 102.559 191.199 101.957 190.746 101.512C190.293 101.059 189.625 100.832 188.742 100.832C187.969 100.832 187.32 101.027 186.797 101.418C186.273 101.809 186.012 102.281 186.012 102.836H183.832C183.832 102.203 184.055 101.594 184.5 101.008C184.953 100.414 185.562 99.9453 186.328 99.6016C187.102 99.2578 187.949 99.0859 188.871 99.0859C190.332 99.0859 191.477 99.4531 192.305 100.188C193.133 100.914 193.562 101.918 193.594 103.199V109.035C193.594 110.199 193.742 111.125 194.039 111.812V112H191.766ZM188.168 110.348C188.848 110.348 189.492 110.172 190.102 109.82C190.711 109.469 191.152 109.012 191.426 108.449V105.848H189.727C187.07 105.848 185.742 106.625 185.742 108.18C185.742 108.859 185.969 109.391 186.422 109.773C186.875 110.156 187.457 110.348 188.168 110.348ZM200.953 108.824L203.906 99.3203H206.227L201.129 113.957C200.34 116.066 199.086 117.121 197.367 117.121L196.957 117.086L196.148 116.934V115.176L196.734 115.223C197.469 115.223 198.039 115.074 198.445 114.777C198.859 114.48 199.199 113.938 199.465 113.148L199.945 111.859L195.422 99.3203H197.789L200.953 108.824ZM218.273 108.824L221.227 99.3203H223.547L218.449 113.957C217.66 116.066 216.406 117.121 214.688 117.121L214.277 117.086L213.469 116.934V115.176L214.055 115.223C214.789 115.223 215.359 115.074 215.766 114.777C216.18 114.48 216.52 113.938 216.785 113.148L217.266 111.859L212.742 99.3203H215.109L218.273 108.824ZM224.73 105.543C224.73 104.301 224.973 103.184 225.457 102.191C225.949 101.199 226.629 100.434 227.496 99.8945C228.371 99.3555 229.367 99.0859 230.484 99.0859C232.211 99.0859 233.605 99.6836 234.668 100.879C235.738 102.074 236.273 103.664 236.273 105.648V105.801C236.273 107.035 236.035 108.145 235.559 109.129C235.09 110.105 234.414 110.867 233.531 111.414C232.656 111.961 231.648 112.234 230.508 112.234C228.789 112.234 227.395 111.637 226.324 110.441C225.262 109.246 224.73 107.664 224.73 105.695V105.543ZM226.91 105.801C226.91 107.207 227.234 108.336 227.883 109.188C228.539 110.039 229.414 110.465 230.508 110.465C231.609 110.465 232.484 110.035 233.133 109.176C233.781 108.309 234.105 107.098 234.105 105.543C234.105 104.152 233.773 103.027 233.109 102.168C232.453 101.301 231.578 100.867 230.484 100.867C229.414 100.867 228.551 101.293 227.895 102.145C227.238 102.996 226.91 104.215 226.91 105.801ZM246.82 110.746C245.977 111.738 244.738 112.234 243.105 112.234C241.754 112.234 240.723 111.844 240.012 111.062C239.309 110.273 238.953 109.109 238.945 107.57V99.3203H241.113V107.512C241.113 109.434 241.895 110.395 243.457 110.395C245.113 110.395 246.215 109.777 246.762 108.543V99.3203H248.93V112H246.867L246.82 110.746ZM260.227 99.3203L260.285 100.727C261.215 99.6328 262.469 99.0859 264.047 99.0859C265.82 99.0859 267.027 99.7656 267.668 101.125C268.09 100.516 268.637 100.023 269.309 99.6484C269.988 99.2734 270.789 99.0859 271.711 99.0859C274.492 99.0859 275.906 100.559 275.953 103.504V112H273.785V103.633C273.785 102.727 273.578 102.051 273.164 101.605C272.75 101.152 272.055 100.926 271.078 100.926C270.273 100.926 269.605 101.168 269.074 101.652C268.543 102.129 268.234 102.773 268.148 103.586V112H265.969V103.691C265.969 101.848 265.066 100.926 263.262 100.926C261.84 100.926 260.867 101.531 260.344 102.742V112H258.176V99.3203H260.227ZM287.062 112C286.938 111.75 286.836 111.305 286.758 110.664C285.75 111.711 284.547 112.234 283.148 112.234C281.898 112.234 280.871 111.883 280.066 111.18C279.27 110.469 278.871 109.57 278.871 108.484C278.871 107.164 279.371 106.141 280.371 105.414C281.379 104.68 282.793 104.312 284.613 104.312H286.723V103.316C286.723 102.559 286.496 101.957 286.043 101.512C285.59 101.059 284.922 100.832 284.039 100.832C283.266 100.832 282.617 101.027 282.094 101.418C281.57 101.809 281.309 102.281 281.309 102.836H279.129C279.129 102.203 279.352 101.594 279.797 101.008C280.25 100.414 280.859 99.9453 281.625 99.6016C282.398 99.2578 283.246 99.0859 284.168 99.0859C285.629 99.0859 286.773 99.4531 287.602 100.188C288.43 100.914 288.859 101.918 288.891 103.199V109.035C288.891 110.199 289.039 111.125 289.336 111.812V112H287.062ZM283.465 110.348C284.145 110.348 284.789 110.172 285.398 109.82C286.008 109.469 286.449 109.012 286.723 108.449V105.848H285.023C282.367 105.848 281.039 106.625 281.039 108.18C281.039 108.859 281.266 109.391 281.719 109.773C282.172 110.156 282.754 110.348 283.465 110.348ZM294.34 99.3203L294.41 100.914C295.379 99.6953 296.645 99.0859 298.207 99.0859C300.887 99.0859 302.238 100.598 302.262 103.621V112H300.094V103.609C300.086 102.695 299.875 102.02 299.461 101.582C299.055 101.145 298.418 100.926 297.551 100.926C296.848 100.926 296.23 101.113 295.699 101.488C295.168 101.863 294.754 102.355 294.457 102.965V112H292.289V99.3203H294.34ZM313.359 112C313.234 111.75 313.133 111.305 313.055 110.664C312.047 111.711 310.844 112.234 309.445 112.234C308.195 112.234 307.168 111.883 306.363 111.18C305.566 110.469 305.168 109.57 305.168 108.484C305.168 107.164 305.668 106.141 306.668 105.414C307.676 104.68 309.09 104.312 310.91 104.312H313.02V103.316C313.02 102.559 312.793 101.957 312.34 101.512C311.887 101.059 311.219 100.832 310.336 100.832C309.562 100.832 308.914 101.027 308.391 101.418C307.867 101.809 307.605 102.281 307.605 102.836H305.426C305.426 102.203 305.648 101.594 306.094 101.008C306.547 100.414 307.156 99.9453 307.922 99.6016C308.695 99.2578 309.543 99.0859 310.465 99.0859C311.926 99.0859 313.07 99.4531 313.898 100.188C314.727 100.914 315.156 101.918 315.188 103.199V109.035C315.188 110.199 315.336 111.125 315.633 111.812V112H313.359ZM309.762 110.348C310.441 110.348 311.086 110.172 311.695 109.82C312.305 109.469 312.746 109.012 313.02 108.449V105.848H311.32C308.664 105.848 307.336 106.625 307.336 108.18C307.336 108.859 307.562 109.391 308.016 109.773C308.469 110.156 309.051 110.348 309.762 110.348ZM318.07 105.555C318.07 103.578 318.527 102.008 319.441 100.844C320.355 99.6719 321.566 99.0859 323.074 99.0859C324.621 99.0859 325.828 99.6328 326.695 100.727L326.801 99.3203H328.781V111.695C328.781 113.336 328.293 114.629 327.316 115.574C326.348 116.52 325.043 116.992 323.402 116.992C322.488 116.992 321.594 116.797 320.719 116.406C319.844 116.016 319.176 115.48 318.715 114.801L319.84 113.5C320.77 114.648 321.906 115.223 323.25 115.223C324.305 115.223 325.125 114.926 325.711 114.332C326.305 113.738 326.602 112.902 326.602 111.824V110.734C325.734 111.734 324.551 112.234 323.051 112.234C321.566 112.234 320.363 111.637 319.441 110.441C318.527 109.246 318.07 107.617 318.07 105.555ZM320.25 105.801C320.25 107.23 320.543 108.355 321.129 109.176C321.715 109.988 322.535 110.395 323.59 110.395C324.957 110.395 325.961 109.773 326.602 108.531V102.742C325.938 101.531 324.941 100.926 323.613 100.926C322.559 100.926 321.734 101.336 321.141 102.156C320.547 102.977 320.25 104.191 320.25 105.801ZM337.324 112.234C335.605 112.234 334.207 111.672 333.129 110.547C332.051 109.414 331.512 107.902 331.512 106.012V105.613C331.512 104.355 331.75 103.234 332.227 102.25C332.711 101.258 333.383 100.484 334.242 99.9297C335.109 99.3672 336.047 99.0859 337.055 99.0859C338.703 99.0859 339.984 99.6289 340.898 100.715C341.812 101.801 342.27 103.355 342.27 105.379V106.281H333.68C333.711 107.531 334.074 108.543 334.77 109.316C335.473 110.082 336.363 110.465 337.441 110.465C338.207 110.465 338.855 110.309 339.387 109.996C339.918 109.684 340.383 109.27 340.781 108.754L342.105 109.785C341.043 111.418 339.449 112.234 337.324 112.234ZM337.055 100.867C336.18 100.867 335.445 101.188 334.852 101.828C334.258 102.461 333.891 103.352 333.75 104.5H340.102V104.336C340.039 103.234 339.742 102.383 339.211 101.781C338.68 101.172 337.961 100.867 337.055 100.867ZM354.891 108.824L357.844 99.3203H360.164L355.066 113.957C354.277 116.066 353.023 117.121 351.305 117.121L350.895 117.086L350.086 116.934V115.176L350.672 115.223C351.406 115.223 351.977 115.074 352.383 114.777C352.797 114.48 353.137 113.938 353.402 113.148L353.883 111.859L349.359 99.3203H351.727L354.891 108.824ZM361.348 105.543C361.348 104.301 361.59 103.184 362.074 102.191C362.566 101.199 363.246 100.434 364.113 99.8945C364.988 99.3555 365.984 99.0859 367.102 99.0859C368.828 99.0859 370.223 99.6836 371.285 100.879C372.355 102.074 372.891 103.664 372.891 105.648V105.801C372.891 107.035 372.652 108.145 372.176 109.129C371.707 110.105 371.031 110.867 370.148 111.414C369.273 111.961 368.266 112.234 367.125 112.234C365.406 112.234 364.012 111.637 362.941 110.441C361.879 109.246 361.348 107.664 361.348 105.695V105.543ZM363.527 105.801C363.527 107.207 363.852 108.336 364.5 109.188C365.156 110.039 366.031 110.465 367.125 110.465C368.227 110.465 369.102 110.035 369.75 109.176C370.398 108.309 370.723 107.098 370.723 105.543C370.723 104.152 370.391 103.027 369.727 102.168C369.07 101.301 368.195 100.867 367.102 100.867C366.031 100.867 365.168 101.293 364.512 102.145C363.855 102.996 363.527 104.215 363.527 105.801ZM383.438 110.746C382.594 111.738 381.355 112.234 379.723 112.234C378.371 112.234 377.34 111.844 376.629 111.062C375.926 110.273 375.57 109.109 375.562 107.57V99.3203H377.73V107.512C377.73 109.434 378.512 110.395 380.074 110.395C381.73 110.395 382.832 109.777 383.379 108.543V99.3203H385.547V112H383.484L383.438 110.746ZM394.98 101.266C394.652 101.211 394.297 101.184 393.914 101.184C392.492 101.184 391.527 101.789 391.02 103V112H388.852V99.3203H390.961L390.996 100.785C391.707 99.6523 392.715 99.0859 394.02 99.0859C394.441 99.0859 394.762 99.1406 394.98 99.25V101.266ZM414.164 109.012L416.602 99.3203H418.77L415.078 112H413.32L410.238 102.391L407.238 112H405.48L401.801 99.3203H403.957L406.453 108.812L409.406 99.3203H411.152L414.164 109.012ZM423.34 112H421.172V99.3203H423.34V112ZM420.996 95.957C420.996 95.6055 421.102 95.3086 421.312 95.0664C421.531 94.8242 421.852 94.7031 422.273 94.7031C422.695 94.7031 423.016 94.8242 423.234 95.0664C423.453 95.3086 423.562 95.6055 423.562 95.957C423.562 96.3086 423.453 96.6016 423.234 96.8359C423.016 97.0703 422.695 97.1875 422.273 97.1875C421.852 97.1875 421.531 97.0703 421.312 96.8359C421.102 96.6016 420.996 96.3086 420.996 95.957ZM428.871 99.3203L428.941 100.914C429.91 99.6953 431.176 99.0859 432.738 99.0859C435.418 99.0859 436.77 100.598 436.793 103.621V112H434.625V103.609C434.617 102.695 434.406 102.02 433.992 101.582C433.586 101.145 432.949 100.926 432.082 100.926C431.379 100.926 430.762 101.113 430.23 101.488C429.699 101.863 429.285 102.355 428.988 102.965V112H426.82V99.3203H428.871ZM442.113 99.3203L442.184 100.914C443.152 99.6953 444.418 99.0859 445.98 99.0859C448.66 99.0859 450.012 100.598 450.035 103.621V112H447.867V103.609C447.859 102.695 447.648 102.02 447.234 101.582C446.828 101.145 446.191 100.926 445.324 100.926C444.621 100.926 444.004 101.113 443.473 101.488C442.941 101.863 442.527 102.355 442.23 102.965V112H440.062V99.3203H442.113ZM455.66 112H453.492V99.3203H455.66V112ZM453.316 95.957C453.316 95.6055 453.422 95.3086 453.633 95.0664C453.852 94.8242 454.172 94.7031 454.594 94.7031C455.016 94.7031 455.336 94.8242 455.555 95.0664C455.773 95.3086 455.883 95.6055 455.883 95.957C455.883 96.3086 455.773 96.6016 455.555 96.8359C455.336 97.0703 455.016 97.1875 454.594 97.1875C454.172 97.1875 453.852 97.0703 453.633 96.8359C453.422 96.6016 453.316 96.3086 453.316 95.957ZM461.191 99.3203L461.262 100.914C462.23 99.6953 463.496 99.0859 465.059 99.0859C467.738 99.0859 469.09 100.598 469.113 103.621V112H466.945V103.609C466.938 102.695 466.727 102.02 466.312 101.582C465.906 101.145 465.27 100.926 464.402 100.926C463.699 100.926 463.082 101.113 462.551 101.488C462.02 101.863 461.605 102.355 461.309 102.965V112H459.141V99.3203H461.191ZM471.867 105.555C471.867 103.578 472.324 102.008 473.238 100.844C474.152 99.6719 475.363 99.0859 476.871 99.0859C478.418 99.0859 479.625 99.6328 480.492 100.727L480.598 99.3203H482.578V111.695C482.578 113.336 482.09 114.629 481.113 115.574C480.145 116.52 478.84 116.992 477.199 116.992C476.285 116.992 475.391 116.797 474.516 116.406C473.641 116.016 472.973 115.48 472.512 114.801L473.637 113.5C474.566 114.648 475.703 115.223 477.047 115.223C478.102 115.223 478.922 114.926 479.508 114.332C480.102 113.738 480.398 112.902 480.398 111.824V110.734C479.531 111.734 478.348 112.234 476.848 112.234C475.363 112.234 474.16 111.637 473.238 110.441C472.324 109.246 471.867 107.617 471.867 105.555ZM474.047 105.801C474.047 107.23 474.34 108.355 474.926 109.176C475.512 109.988 476.332 110.395 477.387 110.395C478.754 110.395 479.758 109.773 480.398 108.531V102.742C479.734 101.531 478.738 100.926 477.41 100.926C476.355 100.926 475.531 101.336 474.938 102.156C474.344 102.977 474.047 104.191 474.047 105.801ZM493.242 108.637C493.242 108.051 493.02 107.598 492.574 107.277C492.137 106.949 491.367 106.668 490.266 106.434C489.172 106.199 488.301 105.918 487.652 105.59C487.012 105.262 486.535 104.871 486.223 104.418C485.918 103.965 485.766 103.426 485.766 102.801C485.766 101.762 486.203 100.883 487.078 100.164C487.961 99.4453 489.086 99.0859 490.453 99.0859C491.891 99.0859 493.055 99.457 493.945 100.199C494.844 100.941 495.293 101.891 495.293 103.047H493.113C493.113 102.453 492.859 101.941 492.352 101.512C491.852 101.082 491.219 100.867 490.453 100.867C489.664 100.867 489.047 101.039 488.602 101.383C488.156 101.727 487.934 102.176 487.934 102.73C487.934 103.254 488.141 103.648 488.555 103.914C488.969 104.18 489.715 104.434 490.793 104.676C491.879 104.918 492.758 105.207 493.43 105.543C494.102 105.879 494.598 106.285 494.918 106.762C495.246 107.23 495.41 107.805 495.41 108.484C495.41 109.617 494.957 110.527 494.051 111.215C493.145 111.895 491.969 112.234 490.523 112.234C489.508 112.234 488.609 112.055 487.828 111.695C487.047 111.336 486.434 110.836 485.988 110.195C485.551 109.547 485.332 108.848 485.332 108.098H487.5C487.539 108.824 487.828 109.402 488.367 109.832C488.914 110.254 489.633 110.465 490.523 110.465C491.344 110.465 492 110.301 492.492 109.973C492.992 109.637 493.242 109.191 493.242 108.637ZM500.66 107.184H498.703L498.551 94.9375H500.824L500.66 107.184ZM498.469 110.91C498.469 110.559 498.574 110.266 498.785 110.031C499.004 109.789 499.324 109.668 499.746 109.668C500.168 109.668 500.488 109.789 500.707 110.031C500.926 110.266 501.035 110.559 501.035 110.91C501.035 111.262 500.926 111.555 500.707 111.789C500.488 112.016 500.168 112.129 499.746 112.129C499.324 112.129 499.004 112.016 498.785 111.789C498.574 111.555 498.469 111.262 498.469 110.91Z" fill="#2A2A2A"/>
</svg>
